<svg version="1.1" id="Layer_1" xmlns="http://www.w3.org/2000/svg" xmlns:xlink="http://www.w3.org/1999/xlink" x="0px" y="0px"
	 width="100%" viewBox="0 0 1920 1080" enable-background="new 0 0 1920 1080" xml:space="preserve">
<path fill="#F08900" opacity="1.000000" stroke="none" 
	d="
M571.000000,1081.000000 
	C381.019867,1081.000000 191.039734,1081.000000 1.029796,1081.000000 
	C1.029796,721.057495 1.029796,361.114990 1.029796,1.086251 
	C641.000000,1.086251 1281.000000,1.086251 1921.000000,1.086251 
	C1921.000000,109.115395 1921.000000,217.104065 1920.531372,325.546387 
	C1470.478882,326.000000 1020.895020,326.000000 571.000000,326.000000 
	C571.000000,578.071045 571.000000,829.535522 571.000000,1081.000000 
z"/>
<path fill="#003088" opacity="1.000000" stroke="none" 
	d="
M571.468628,1081.000000 
	C571.000000,829.535522 571.000000,578.071045 571.000000,326.000000 
	C1020.895020,326.000000 1470.478882,326.000000 1920.531372,326.000000 
	C1921.000000,577.584106 1921.000000,829.168213 1921.000000,1081.000000 
	C1728.645874,1081.000000 1536.291504,1081.000000 1343.294678,1080.714600 
	C1212.816162,910.781433 1082.980225,741.133789 953.144226,571.486145 
	C952.708069,571.721924 952.271973,571.957703 951.835815,572.193481 
	C951.835815,574.340820 951.835815,576.488159 951.835815,578.635498 
	C951.835815,743.759888 951.835205,908.884277 951.842651,1074.008667 
	C951.842773,1076.339111 951.945251,1078.669556 952.000000,1081.000000 
	C825.312439,1081.000000 698.624878,1081.000000 571.468628,1081.000000 
z"/>
<path fill="#1E5DF8" opacity="1.000000" stroke="none" 
	d="
M952.468628,1081.000000 
	C951.945251,1078.669556 951.842773,1076.339111 951.842651,1074.008667 
	C951.835205,908.884277 951.835815,743.759888 951.835815,578.635498 
	C951.835815,576.488159 951.835815,574.340820 951.835815,572.193481 
	C952.271973,571.957703 952.708069,571.721924 953.144226,571.486145 
	C1082.980225,741.133789 1212.816162,910.781433 1342.826050,1080.714600 
	C1212.979126,1081.000000 1082.958252,1081.000000 952.468628,1081.000000 
z"/>
</svg>