<svg width="466.507" height="270.773" viewBox="0 0 466.507 270.773" xmlns="http://www.w3.org/2000/svg" xmlns:xlink="http://www.w3.org/1999/xlink" id="svg1" overflow="hidden"><defs id="defs1"></defs><g id="g1"><g id="group-R5"><path d="M2501.32 1597.26C2760.81 1597.26 2972.2 1396.36 2999.44 1138.91 3026.62 881.5 2855.01 644.988 2601.76 590.578 2348.54 536.168 2095.29 682.648 2015.77 929.629L2281.56 1015.43C2317.13 908.691 2423.88 843.82 2534.8 862.648 2645.73 881.5 2727.36 977.75 2727.36 1090.77 2727.36 1203.78 2645.73 1297.97 2534.8 1314.72 2423.88 1331.45 2317.13 1264.48 2283.65 1157.73L2013.67 1218.43 2130.87 2015.83 2928.26 2015.83 2928.26 1737.48 2371.56 1737.48 2346.46 1572.14C2396.67 1588.88 2449 1597.26 2501.32 1597.26" id="path2" fill="#807FC7" transform="matrix(0.133333 0 0 -0.133333 0 270.773)"/><path d="M186.324 1327.89 186.324 1693.05C186.324 1903.66 263.586 2030.79 497.895 2030.79 732.184 2030.79 799.484 1907.4 799.484 1739.16L799.484 1649.42 556.469 1649.42 556.469 1759.11C556.469 1802.72 555.227 1860.05 497.895 1860.05 440.563 1860.05 436.824 1802.72 436.824 1759.11L436.824 1263.08C436.824 1218.21 441.805 1162.14 497.895 1162.14 555.227 1162.14 556.469 1219.46 556.469 1263.08L556.469 1377.73 799.484 1377.73 799.484 1288.02C799.484 1119.77 732.184 990.141 497.895 990.141 263.586 990.141 186.324 1118.51 186.324 1327.89" id="path3" fill="#231F20" transform="matrix(0.133333 0 0 -0.133333 0 270.773)"/><path d="M905.363 1327.89 905.363 1693.05C905.363 1903.66 982.633 2030.79 1216.95 2030.79 1451.24 2030.79 1518.54 1907.4 1518.54 1739.16L1518.54 1649.42 1275.52 1649.42 1275.52 1759.11C1275.52 1802.72 1274.27 1860.05 1216.95 1860.05 1159.61 1860.05 1155.86 1802.72 1155.86 1759.11L1155.86 1263.08C1155.86 1218.21 1160.85 1162.14 1216.95 1162.14 1274.27 1162.14 1275.52 1219.46 1275.52 1263.08L1275.52 1377.73 1518.54 1377.73 1518.54 1288.02C1518.54 1119.77 1451.24 990.141 1216.95 990.141 982.633 990.141 905.363 1118.51 905.363 1327.89" id="path4" fill="#231F20" transform="matrix(0.133333 0 0 -0.133333 0 270.773)"/><path d="M1962.16 1594.6C2033.2 1594.6 2040.66 1641.95 2040.66 1724.21 2040.66 1780.29 2034.44 1842.59 1959.67 1842.59L1883.65 1842.59 1883.65 1594.6ZM1636.88 2015.85 2002.05 2015.85C2182.75 2015.85 2272.48 1909.9 2272.48 1719.23 2272.48 1464.99 2130.4 1422.61 1967.15 1422.61L1883.65 1422.61 1883.65 1006.35 1636.88 1006.35 1636.88 2015.85" id="path5" fill="#231F20" transform="matrix(0.133333 0 0 -0.133333 0 270.773)"/><path d="M388.16 772.469C386.793 777.75 384.926 782.602 382.535 787.039 380.148 791.469 377.082 795.301 373.336 798.539 369.586 801.77 365.199 804.289 360.172 806.078 355.145 807.879 349.305 808.77 342.66 808.77 332.945 808.77 324.547 806.801 317.477 802.891 310.406 798.961 304.656 793.73 300.227 787.172 295.793 780.602 292.512 773.148 290.383 764.801 288.25 756.449 287.191 747.93 287.191 739.238 287.191 730.539 288.25 722.02 290.383 713.668 292.512 705.32 295.793 697.871 300.227 691.309 304.656 684.738 310.406 679.5 317.477 675.578 324.547 671.66 332.945 669.699 342.66 669.699 349.816 669.699 356.121 670.93 361.574 673.422 367.027 675.879 371.715 679.289 375.637 683.641 379.555 687.988 382.625 693.051 384.84 698.84 387.055 704.641 388.504 710.859 389.188 717.512L420.375 717.512C419.691 706.602 417.348 696.629 413.344 687.59 409.34 678.559 403.922 670.77 397.113 664.211 390.289 657.641 382.281 652.578 373.078 649 363.879 645.422 353.738 643.629 342.66 643.629 329.027 643.629 316.801 646.148 305.98 651.168 295.152 656.199 285.992 663.051 278.5 671.75 270.992 680.441 265.242 690.578 261.242 702.172 257.234 713.762 255.23 726.109 255.23 739.238 255.23 752.18 257.234 764.461 261.242 776.051 265.242 787.629 270.992 797.781 278.5 806.469 285.992 815.16 295.152 822.059 305.98 827.172 316.801 832.281 329.027 834.84 342.66 834.84 352.883 834.84 362.512 833.43 371.547 830.621 380.578 827.809 388.547 823.719 395.445 818.359 402.352 812.988 407.934 806.469 412.191 798.801 416.449 791.129 419.094 782.352 420.113 772.469L388.16 772.469" id="path6" fill="#231F20" transform="matrix(0.133333 0 0 -0.133333 0 270.773)"/><path d="M506.004 667.398C512.477 667.398 518.102 668.77 522.875 671.488 527.645 674.219 531.566 677.801 534.637 682.23 537.703 686.66 539.957 691.648 541.41 697.18 542.855 702.719 543.582 708.391 543.582 714.191 543.582 719.809 542.855 725.441 541.41 731.051 539.957 736.68 537.703 741.672 534.637 746.012 531.566 750.359 527.645 753.891 522.875 756.621 518.102 759.34 512.477 760.711 506.004 760.711 499.523 760.711 493.898 759.34 489.133 756.621 484.359 753.891 480.441 750.359 477.371 746.012 474.305 741.672 472.043 736.68 470.598 731.051 469.148 725.441 468.426 719.809 468.426 714.191 468.426 708.391 469.148 702.719 470.598 697.18 472.043 691.648 474.305 686.66 477.371 682.23 480.441 677.801 484.359 674.219 489.133 671.488 493.898 668.77 499.523 667.398 506.004 667.398ZM506.004 644.398C495.434 644.398 486.02 646.148 477.758 649.641 469.488 653.129 462.504 657.949 456.793 664.078 451.082 670.211 446.734 677.551 443.758 686.059 440.773 694.59 439.285 703.961 439.285 714.191 439.285 724.238 440.773 733.52 443.758 742.051 446.734 750.559 451.082 757.898 456.793 764.031 462.504 770.16 469.488 774.98 477.758 778.469 486.02 781.969 495.434 783.719 506.004 783.719 516.57 783.719 525.984 781.969 534.25 778.469 542.516 774.98 549.5 770.16 555.211 764.031 560.922 757.898 565.266 750.559 568.25 742.051 571.227 733.52 572.723 724.238 572.723 714.191 572.723 703.961 571.227 694.59 568.25 686.059 565.266 677.551 560.922 670.211 555.211 664.078 549.5 657.949 542.516 653.129 534.25 649.641 525.984 646.148 516.57 644.398 506.004 644.398" id="path7" fill="#231F20" transform="matrix(0.133333 0 0 -0.133333 0 270.773)"/><path d="M597.77 830.5 626.918 830.5 626.918 647.98 597.77 647.98 597.77 830.5" id="path8" fill="#231F20" transform="matrix(0.133333 0 0 -0.133333 0 270.773)"/><path d="M659.379 830.5 688.523 830.5 688.523 647.98 659.379 647.98 659.379 830.5" id="path9" fill="#231F20" transform="matrix(0.133333 0 0 -0.133333 0 270.773)"/><path d="M801.766 714.191C797.332 711.289 791.879 709.539 785.402 708.941 778.922 708.352 772.449 707.449 765.973 706.262 762.906 705.75 759.926 705.02 757.027 704.09 754.129 703.148 751.574 701.871 749.359 700.25 747.141 698.629 745.398 696.5 744.117 693.859 742.84 691.219 742.203 688.02 742.203 684.27 742.203 681.031 743.137 678.309 745.012 676.09 746.887 673.871 749.145 672.141 751.789 670.859 754.43 669.578 757.328 668.68 760.48 668.172 763.629 667.66 766.488 667.398 769.047 667.398 772.277 667.398 775.773 667.828 779.523 668.68 783.273 669.531 786.809 670.98 790.133 673.02 793.453 675.078 796.223 677.672 798.441 680.828 800.656 683.969 801.766 687.859 801.766 692.461ZM830.906 677.371C830.906 673.801 831.375 671.238 832.313 669.699 833.25 668.172 835.082 667.398 837.809 667.398 838.66 667.398 839.68 667.398 840.875 667.398 842.066 667.398 843.434 667.578 844.969 667.922L844.969 647.719C843.941 647.379 842.625 647 841.004 646.57 839.383 646.148 837.723 645.762 836.02 645.422 834.313 645.078 832.609 644.82 830.906 644.66 829.203 644.488 827.75 644.398 826.559 644.398 820.594 644.398 815.652 645.59 811.734 647.98 807.809 650.359 805.258 654.539 804.066 660.5 798.27 654.879 791.156 650.789 782.723 648.23 774.285 645.672 766.145 644.398 758.309 644.398 752.34 644.398 746.633 645.211 741.18 646.82 735.727 648.441 730.91 650.828 726.734 653.98 722.563 657.141 719.234 661.141 716.766 665.988 714.293 670.859 713.059 676.52 713.059 683 713.059 691.18 714.547 697.82 717.531 702.941 720.516 708.051 724.438 712.051 729.293 714.949 734.148 717.852 739.602 719.941 745.652 721.219 751.703 722.5 757.797 723.469 763.934 724.16 769.211 725.172 774.242 725.898 779.012 726.328 783.781 726.75 788 727.48 791.668 728.5 795.328 729.52 798.227 731.102 800.359 733.23 802.488 735.359 803.551 738.551 803.551 742.82 803.551 746.559 802.66 749.629 800.871 752.02 799.078 754.398 796.863 756.238 794.227 757.52 791.578 758.801 788.641 759.648 785.402 760.07 782.168 760.5 779.098 760.711 776.203 760.711 768.02 760.711 761.285 759 756.008 755.59 750.719 752.18 747.738 746.898 747.059 739.738L717.918 739.738C718.43 748.27 720.477 755.34 724.055 760.961 727.629 766.59 732.191 771.102 737.727 774.512 743.266 777.922 749.527 780.309 756.516 781.672 763.504 783.031 770.66 783.719 777.992 783.719 784.465 783.719 790.855 783.031 797.168 781.672 803.465 780.309 809.133 778.09 814.164 775.031 819.188 771.961 823.238 768 826.305 763.141 829.375 758.281 830.906 752.359 830.906 745.371L830.906 677.371" id="path10" fill="#231F20" transform="matrix(0.133333 0 0 -0.133333 0 270.773)"/><path d="M964.855 713.93C964.855 719.891 964.09 725.691 962.555 731.32 961.023 736.93 958.719 741.922 955.652 746.27 952.586 750.609 948.754 754.102 944.148 756.75 939.547 759.391 934.266 760.711 928.297 760.711 916.027 760.711 906.785 756.449 900.563 747.93 894.344 739.398 891.234 728.07 891.234 713.93 891.234 707.281 892.039 701.102 893.664 695.398 895.281 689.68 897.707 684.781 900.949 680.699 904.184 676.609 908.059 673.371 912.582 670.98 917.094 668.59 922.332 667.398 928.297 667.398 934.949 667.398 940.57 668.77 945.172 671.488 949.773 674.219 953.563 677.762 956.547 682.109 959.527 686.449 961.664 691.391 962.938 696.93 964.215 702.469 964.855 708.129 964.855 713.93ZM863.113 830.5 892.258 830.5 892.258 763.012 892.766 763.012C894.813 766.25 897.281 769.148 900.184 771.711 903.078 774.25 906.273 776.43 909.77 778.219 913.258 780.012 916.926 781.371 920.758 782.309 924.594 783.25 928.387 783.719 932.137 783.719 942.527 783.719 951.605 781.879 959.359 778.219 967.113 774.559 973.547 769.531 978.66 763.141 983.773 756.75 987.605 749.289 990.164 740.77 992.719 732.238 993.996 723.129 993.996 713.422 993.996 704.559 992.848 695.941 990.543 687.59 988.246 679.25 984.754 671.879 980.066 665.488 975.379 659.102 969.457 653.98 962.297 650.148 955.145 646.32 946.707 644.398 936.988 644.398 932.555 644.398 928.082 644.691 923.57 645.289 919.055 645.891 914.754 647.039 910.66 648.75 906.57 650.449 902.863 652.66 899.543 655.391 896.219 658.109 893.445 661.699 891.234 666.129L890.719 666.129 890.719 647.98 863.113 647.98 863.113 830.5" id="path11" fill="#231F20" transform="matrix(0.133333 0 0 -0.133333 0 270.773)"/><path d="M1079.12 667.398C1085.6 667.398 1091.22 668.77 1095.99 671.488 1100.76 674.219 1104.69 677.801 1107.76 682.23 1110.82 686.66 1113.08 691.648 1114.53 697.18 1115.97 702.719 1116.7 708.391 1116.7 714.191 1116.7 719.809 1115.97 725.441 1114.53 731.051 1113.08 736.68 1110.82 741.672 1107.76 746.012 1104.69 750.359 1100.76 753.891 1095.99 756.621 1091.22 759.34 1085.6 760.711 1079.12 760.711 1072.64 760.711 1067.02 759.34 1062.25 756.621 1057.48 753.891 1053.56 750.359 1050.49 746.012 1047.42 741.672 1045.16 736.68 1043.72 731.051 1042.27 725.441 1041.55 719.809 1041.55 714.191 1041.55 708.391 1042.27 702.719 1043.72 697.18 1045.16 691.648 1047.42 686.66 1050.49 682.23 1053.56 677.801 1057.48 674.219 1062.25 671.488 1067.02 668.77 1072.64 667.398 1079.12 667.398ZM1079.12 644.398C1068.55 644.398 1059.14 646.148 1050.88 649.641 1042.61 653.129 1035.62 657.949 1029.91 664.078 1024.2 670.211 1019.86 677.551 1016.88 686.059 1013.89 694.59 1012.4 703.961 1012.4 714.191 1012.4 724.238 1013.89 733.52 1016.88 742.051 1019.86 750.559 1024.2 757.898 1029.91 764.031 1035.62 770.16 1042.61 774.98 1050.88 778.469 1059.14 781.969 1068.55 783.719 1079.12 783.719 1089.69 783.719 1099.1 781.969 1107.37 778.469 1115.64 774.98 1122.62 770.16 1128.33 764.031 1134.04 757.898 1138.39 750.559 1141.37 742.051 1144.35 733.52 1145.84 724.238 1145.84 714.191 1145.84 703.961 1144.35 694.59 1141.37 686.059 1138.39 677.551 1134.04 670.211 1128.33 664.078 1122.62 657.949 1115.64 653.129 1107.37 649.641 1099.1 646.148 1089.69 644.398 1079.12 644.398" id="path12" fill="#231F20" transform="matrix(0.133333 0 0 -0.133333 0 270.773)"/><path d="M1170.12 780.129 1197.48 780.129 1197.48 754.578 1197.99 754.578C1198.84 758.148 1200.5 761.648 1202.98 765.059 1205.44 768.461 1208.43 771.57 1211.92 774.379 1215.41 777.191 1219.29 779.449 1223.55 781.16 1227.81 782.859 1232.16 783.719 1236.59 783.719 1240 783.719 1242.34 783.629 1243.62 783.461 1244.9 783.289 1246.22 783.109 1247.58 782.949L1247.58 754.828C1245.53 755.172 1243.45 755.469 1241.32 755.719 1239.19 755.98 1237.1 756.109 1235.06 756.109 1230.11 756.109 1225.47 755.121 1221.13 753.172 1216.78 751.211 1212.99 748.309 1209.75 744.48 1206.51 740.641 1203.95 735.922 1202.08 730.289 1200.2 724.672 1199.27 718.191 1199.27 710.859L1199.27 647.98 1170.12 647.98 1170.12 780.129" id="path13" fill="#231F20" transform="matrix(0.133333 0 0 -0.133333 0 270.773)"/><path d="M1341.65 714.191C1337.22 711.289 1331.77 709.539 1325.29 708.941 1318.81 708.352 1312.34 707.449 1305.86 706.262 1302.8 705.75 1299.81 705.02 1296.92 704.09 1294.02 703.148 1291.46 701.871 1289.25 700.25 1287.03 698.629 1285.29 696.5 1284.01 693.859 1282.73 691.219 1282.09 688.02 1282.09 684.27 1282.09 681.031 1283.02 678.309 1284.9 676.09 1286.77 673.871 1289.03 672.141 1291.68 670.859 1294.32 669.578 1297.21 668.68 1300.37 668.172 1303.52 667.66 1306.37 667.398 1308.93 667.398 1312.17 667.398 1315.66 667.828 1319.41 668.68 1323.16 669.531 1326.7 670.98 1330.02 673.02 1333.34 675.078 1336.11 677.672 1338.33 680.828 1340.54 683.969 1341.65 687.859 1341.65 692.461ZM1370.79 677.371C1370.79 673.801 1371.26 671.238 1372.2 669.699 1373.14 668.172 1374.97 667.398 1377.7 667.398 1378.55 667.398 1379.57 667.398 1380.76 667.398 1381.96 667.398 1383.32 667.578 1384.86 667.922L1384.86 647.719C1383.83 647.379 1382.51 647 1380.89 646.57 1379.27 646.148 1377.61 645.762 1375.91 645.422 1374.2 645.078 1372.5 644.82 1370.79 644.66 1369.09 644.488 1367.64 644.398 1366.45 644.398 1360.48 644.398 1355.54 645.59 1351.62 647.98 1347.7 650.359 1345.14 654.539 1343.95 660.5 1338.16 654.879 1331.04 650.789 1322.61 648.23 1314.17 645.672 1306.03 644.398 1298.2 644.398 1292.23 644.398 1286.52 645.211 1281.07 646.82 1275.61 648.441 1270.8 650.828 1266.62 653.98 1262.45 657.141 1259.12 661.141 1256.65 665.988 1254.18 670.859 1252.95 676.52 1252.95 683 1252.95 691.18 1254.44 697.82 1257.42 702.941 1260.4 708.051 1264.32 712.051 1269.18 714.949 1274.04 717.852 1279.49 719.941 1285.54 721.219 1291.59 722.5 1297.68 723.469 1303.82 724.16 1309.1 725.172 1314.13 725.898 1318.9 726.328 1323.67 726.75 1327.89 727.48 1331.56 728.5 1335.22 729.52 1338.11 731.102 1340.25 733.23 1342.38 735.359 1343.44 738.551 1343.44 742.82 1343.44 746.559 1342.55 749.629 1340.76 752.02 1338.97 754.398 1336.75 756.238 1334.11 757.52 1331.47 758.801 1328.53 759.648 1325.29 760.07 1322.05 760.5 1318.99 760.711 1316.09 760.711 1307.91 760.711 1301.17 759 1295.9 755.59 1290.61 752.18 1287.62 746.898 1286.95 739.738L1257.81 739.738C1258.32 748.27 1260.36 755.34 1263.94 760.961 1267.52 766.59 1272.08 771.102 1277.61 774.512 1283.15 777.922 1289.42 780.309 1296.4 781.672 1303.39 783.031 1310.55 783.719 1317.88 783.719 1324.35 783.719 1330.74 783.031 1337.05 781.672 1343.35 780.309 1349.02 778.09 1354.05 775.031 1359.07 771.961 1363.13 768 1366.19 763.141 1369.26 758.281 1370.79 752.359 1370.79 745.371L1370.79 677.371" id="path14" fill="#231F20" transform="matrix(0.133333 0 0 -0.133333 0 270.773)"/><path d="M1388.94 780.129 1410.93 780.129 1410.93 819.762 1440.07 819.762 1440.07 780.129 1466.4 780.129 1466.4 758.41 1440.07 758.41 1440.07 687.859C1440.07 684.781 1440.2 682.148 1440.45 679.93 1440.71 677.711 1441.3 675.84 1442.24 674.301 1443.18 672.77 1444.58 671.621 1446.46 670.859 1448.33 670.09 1450.89 669.699 1454.13 669.699 1456.17 669.699 1458.22 669.738 1460.26 669.828 1462.31 669.918 1464.35 670.211 1466.4 670.73L1466.4 648.23C1463.16 647.891 1460.01 647.559 1456.94 647.199 1453.87 646.871 1450.72 646.699 1447.48 646.699 1439.81 646.699 1433.64 647.43 1428.95 648.871 1424.26 650.32 1420.6 652.449 1417.96 655.262 1415.31 658.07 1413.52 661.609 1412.59 665.871 1411.65 670.121 1411.1 674.988 1410.93 680.441L1410.93 758.41 1388.94 758.41 1388.94 780.129" id="path15" fill="#231F20" transform="matrix(0.133333 0 0 -0.133333 0 270.773)"/><path d="M1488.12 780.129 1517.27 780.129 1517.27 647.98 1488.12 647.98ZM1488.12 830.5 1517.27 830.5 1517.27 802.891 1488.12 802.891 1488.12 830.5" id="path16" fill="#231F20" transform="matrix(0.133333 0 0 -0.133333 0 270.773)"/><path d="M1535.93 780.129 1567.62 780.129 1601.11 678.648 1601.62 678.648 1633.84 780.129 1664 780.129 1616.71 647.98 1583.99 647.98 1535.93 780.129" id="path17" fill="#231F20" transform="matrix(0.133333 0 0 -0.133333 0 270.773)"/><path d="M1772.38 725.691C1772.04 730.289 1771.07 734.711 1769.45 738.98 1767.82 743.238 1765.62 746.941 1762.81 750.102 1759.99 753.25 1756.57 755.809 1752.57 757.77 1748.57 759.719 1744.09 760.711 1739.15 760.711 1734.04 760.711 1729.39 759.809 1725.22 758.02 1721.04 756.238 1717.46 753.77 1714.48 750.609 1711.5 747.461 1709.11 743.75 1707.33 739.488 1705.53 735.23 1704.55 730.629 1704.39 725.691ZM1704.39 706.512C1704.39 701.398 1705.11 696.461 1706.56 691.691 1708.01 686.91 1710.18 682.738 1713.08 679.172 1715.97 675.578 1719.64 672.73 1724.07 670.602 1728.5 668.461 1733.78 667.398 1739.92 667.398 1748.43 667.398 1755.31 669.238 1760.5 672.898 1765.7 676.559 1769.56 682.059 1772.12 689.391L1799.74 689.391C1798.2 682.23 1795.56 675.84 1791.81 670.211 1788.06 664.59 1783.55 659.859 1778.25 656.031 1772.98 652.191 1767.06 649.289 1760.5 647.34 1753.94 645.379 1747.08 644.398 1739.92 644.398 1729.52 644.398 1720.32 646.102 1712.31 649.512 1704.3 652.922 1697.52 657.691 1691.99 663.828 1686.45 669.961 1682.27 677.281 1679.46 685.809 1676.65 694.328 1675.24 703.711 1675.24 713.93 1675.24 723.301 1676.73 732.199 1679.72 740.641 1682.7 749.078 1686.96 756.488 1692.5 762.879 1698.03 769.27 1704.72 774.34 1712.57 778.09 1720.4 781.84 1729.27 783.719 1739.15 783.719 1749.54 783.719 1758.88 781.539 1767.14 777.191 1775.4 772.852 1782.26 767.102 1787.73 759.941 1793.18 752.781 1797.14 744.559 1799.6 735.27 1802.08 725.98 1802.71 716.391 1801.52 706.512L1704.39 706.512" id="path18" fill="#231F20" transform="matrix(0.133333 0 0 -0.133333 0 270.773)"/><path d="M388.16 455.488C386.793 460.77 384.926 465.621 382.535 470.059 380.148 474.488 377.082 478.32 373.336 481.559 369.586 484.789 365.199 487.309 360.172 489.102 355.145 490.898 349.305 491.781 342.66 491.781 332.945 491.781 324.547 489.82 317.477 485.91 310.406 481.98 304.656 476.75 300.227 470.18 295.793 463.621 292.512 456.168 290.383 447.82 288.25 439.469 287.191 430.941 287.191 422.25 287.191 413.559 288.25 405.039 290.383 396.691 292.512 388.34 295.793 380.891 300.227 374.32 304.656 367.762 310.406 362.52 317.477 358.602 324.547 354.672 332.945 352.719 342.66 352.719 349.816 352.719 356.121 353.949 361.574 356.43 367.027 358.891 371.715 362.309 375.637 366.66 379.555 371 382.625 376.07 384.84 381.859 387.055 387.648 388.504 393.871 389.188 400.52L420.375 400.52C419.691 389.621 417.348 379.648 413.344 370.609 409.34 361.578 403.922 353.789 397.113 347.219 390.289 340.66 382.281 335.59 373.078 332.02 363.879 328.43 353.738 326.648 342.66 326.648 329.027 326.648 316.801 329.172 305.98 334.191 295.152 339.219 285.992 346.07 278.5 354.762 270.992 363.449 265.242 373.602 261.242 385.18 257.234 396.77 255.23 409.129 255.23 422.25 255.23 435.199 257.234 447.48 261.242 459.07 265.242 470.648 270.992 480.801 278.5 489.488 285.992 498.18 295.152 505.078 305.98 510.191 316.801 515.301 329.027 517.859 342.66 517.859 352.883 517.859 362.512 516.449 371.547 513.641 380.578 510.828 388.547 506.738 395.445 501.371 402.352 496 407.934 489.488 412.191 481.809 416.449 474.148 419.094 465.371 420.113 455.488L388.16 455.488" id="path19" fill="#231F20" transform="matrix(0.133333 0 0 -0.133333 0 270.773)"/><path d="M506.004 350.422C512.477 350.422 518.102 351.781 522.875 354.512 527.645 357.23 531.566 360.82 534.637 365.25 537.703 369.672 539.957 374.672 541.41 380.199 542.855 385.738 543.582 391.398 543.582 397.199 543.582 402.828 542.855 408.449 541.41 414.07 539.957 419.691 537.703 424.68 534.637 429.031 531.566 433.379 527.645 436.91 522.875 439.641 518.102 442.359 512.477 443.73 506.004 443.73 499.523 443.73 493.898 442.359 489.133 439.641 484.359 436.91 480.441 433.379 477.371 429.031 474.305 424.68 472.043 419.691 470.598 414.07 469.148 408.449 468.426 402.828 468.426 397.199 468.426 391.398 469.148 385.738 470.598 380.199 472.043 374.672 474.305 369.672 477.371 365.25 480.441 360.82 484.359 357.23 489.133 354.512 493.898 351.781 499.523 350.422 506.004 350.422ZM506.004 327.418C495.434 327.418 486.02 329.172 477.758 332.648 469.488 336.148 462.504 340.961 456.793 347.102 451.082 353.23 446.734 360.559 443.758 369.078 440.773 377.602 439.285 386.98 439.285 397.199 439.285 407.25 440.773 416.539 443.758 425.07 446.734 433.578 451.082 440.922 456.793 447.051 462.504 453.18 469.488 458 477.758 461.488 486.02 464.988 495.434 466.738 506.004 466.738 516.57 466.738 525.984 464.988 534.25 461.488 542.516 458 549.5 453.18 555.211 447.051 560.922 440.922 565.266 433.578 568.25 425.07 571.227 416.539 572.723 407.25 572.723 397.199 572.723 386.98 571.227 377.602 568.25 369.078 565.266 360.559 560.922 353.23 555.211 347.102 549.5 340.961 542.516 336.148 534.25 332.648 525.984 329.172 516.57 327.418 506.004 327.418" id="path20" fill="#231F20" transform="matrix(0.133333 0 0 -0.133333 0 270.773)"/><path d="M597.004 463.148 624.613 463.148 624.613 444.75 625.379 444.75C627.594 447.988 629.984 450.961 632.535 453.699 635.094 456.422 637.945 458.719 641.102 460.602 644.254 462.469 647.879 463.961 651.965 465.078 656.059 466.18 660.738 466.738 666.027 466.738 674.035 466.738 681.492 464.949 688.395 461.359 695.297 457.789 700.191 452.238 703.094 444.75 708.035 451.559 713.742 456.93 720.223 460.859 726.695 464.77 734.793 466.738 744.504 466.738 758.48 466.738 769.344 463.328 777.098 456.512 784.852 449.691 788.727 438.27 788.727 422.25L788.727 330.988 759.586 330.988 759.586 408.191C759.586 413.469 759.418 418.289 759.074 422.629 758.734 426.98 757.758 430.73 756.137 433.879 754.516 437.039 752.086 439.469 748.852 441.168 745.613 442.871 741.184 443.73 735.559 443.73 725.672 443.73 718.512 440.66 714.086 434.531 709.652 428.391 707.438 419.691 707.438 408.449L707.438 330.988 678.297 330.988 678.297 415.871C678.297 425.07 676.633 432.012 673.313 436.699 669.988 441.379 663.895 443.73 655.031 443.73 651.281 443.73 647.66 442.961 644.168 441.422 640.676 439.891 637.605 437.672 634.969 434.781 632.32 431.879 630.191 428.301 628.578 424.039 626.957 419.781 626.145 414.93 626.145 409.469L626.145 330.988 597.004 330.988 597.004 463.148" id="path21" fill="#231F20" transform="matrix(0.133333 0 0 -0.133333 0 270.773)"/><path d="M921.91 396.949C921.91 402.91 921.145 408.711 919.613 414.328 918.078 419.949 915.773 424.941 912.707 429.281 909.641 433.629 905.809 437.121 901.203 439.762 896.605 442.41 891.32 443.73 885.355 443.73 873.082 443.73 863.84 439.469 857.621 430.941 851.398 422.418 848.289 411.09 848.289 396.949 848.289 390.301 849.094 384.121 850.719 378.422 852.336 372.699 854.762 367.801 858.004 363.719 861.238 359.629 865.113 356.379 869.637 354 874.148 351.609 879.387 350.422 885.355 350.422 892.004 350.422 897.625 351.781 902.23 354.512 906.828 357.23 910.617 360.781 913.602 365.121 916.586 369.469 918.719 374.41 919.992 379.949 921.273 385.488 921.91 391.148 921.91 396.949ZM820.168 463.148 847.777 463.148 847.777 445.262 848.289 445.262C852.379 452.93 858.09 458.422 865.418 461.75 872.742 465.078 880.668 466.738 889.191 466.738 899.582 466.738 908.66 464.898 916.414 461.238 924.168 457.578 930.602 452.551 935.715 446.16 940.828 439.762 944.66 432.309 947.219 423.789 949.773 415.262 951.051 406.148 951.051 396.43 951.051 387.578 949.906 378.961 947.602 370.609 945.301 362.262 941.809 354.898 937.121 348.5 932.434 342.121 926.512 337 919.352 333.172 912.199 329.328 903.762 327.418 894.047 327.418 889.789 327.418 885.523 327.801 881.266 328.559 877.004 329.328 872.914 330.57 868.996 332.27 865.07 333.969 861.453 336.148 858.133 338.789 854.809 341.43 852.035 344.539 849.82 348.121L849.313 348.121 849.313 282.172 820.168 282.172 820.168 463.148" id="path22" fill="#231F20" transform="matrix(0.133333 0 0 -0.133333 0 270.773)"/><path d="M1091.66 330.988 1063.02 330.988 1063.02 349.398 1062.51 349.398C1058.93 342.75 1053.61 337.43 1046.54 333.422 1039.47 329.422 1032.26 327.418 1024.93 327.418 1007.55 327.418 994.984 331.719 987.23 340.32 979.477 348.922 975.598 361.922 975.598 379.301L975.598 463.148 1004.74 463.148 1004.74 382.121C1004.74 370.52 1006.96 362.352 1011.39 357.578 1015.82 352.809 1022.04 350.422 1030.05 350.422 1036.18 350.422 1041.3 351.352 1045.39 353.23 1049.48 355.102 1052.8 357.609 1055.35 360.781 1057.91 363.922 1059.74 367.711 1060.85 372.148 1061.96 376.578 1062.51 381.352 1062.51 386.461L1062.51 463.148 1091.66 463.148 1091.66 330.988" id="path23" fill="#231F20" transform="matrix(0.133333 0 0 -0.133333 0 270.773)"/><path d="M1109.04 463.148 1131.02 463.148 1131.02 502.781 1160.16 502.781 1160.16 463.148 1186.49 463.148 1186.49 441.422 1160.16 441.422 1160.16 370.879C1160.16 367.801 1160.29 365.16 1160.54 362.949 1160.8 360.73 1161.39 358.852 1162.34 357.32 1163.27 355.789 1164.68 354.641 1166.55 353.871 1168.43 353.102 1170.98 352.719 1174.22 352.719 1176.27 352.719 1178.31 352.762 1180.35 352.852 1182.4 352.941 1184.45 353.23 1186.49 353.75L1186.49 331.25C1183.25 330.91 1180.1 330.57 1177.03 330.219 1173.97 329.891 1170.81 329.711 1167.58 329.711 1159.9 329.711 1153.73 330.449 1149.04 331.891 1144.35 333.34 1140.69 335.469 1138.05 338.281 1135.4 341.09 1133.62 344.629 1132.68 348.879 1131.74 353.141 1131.19 358 1131.02 363.449L1131.02 441.422 1109.04 441.422 1109.04 463.148" id="path24" fill="#231F20" transform="matrix(0.133333 0 0 -0.133333 0 270.773)"/><path d="M1289 397.199C1284.56 394.301 1279.11 392.559 1272.63 391.961 1266.15 391.359 1259.68 390.469 1253.21 389.27 1250.14 388.77 1247.16 388.031 1244.26 387.109 1241.36 386.168 1238.81 384.891 1236.59 383.27 1234.37 381.648 1232.63 379.52 1231.35 376.879 1230.07 374.238 1229.44 371.039 1229.44 367.289 1229.44 364.051 1230.37 361.328 1232.24 359.109 1234.12 356.891 1236.37 355.148 1239.02 353.871 1241.66 352.59 1244.56 351.699 1247.71 351.191 1250.86 350.68 1253.72 350.422 1256.28 350.422 1259.51 350.422 1263.01 350.852 1266.76 351.699 1270.51 352.551 1274.04 354 1277.37 356.039 1280.69 358.09 1283.45 360.691 1285.67 363.84 1287.89 366.988 1289 370.879 1289 375.48ZM1318.14 360.391C1318.14 356.809 1318.61 354.25 1319.54 352.719 1320.48 351.191 1322.31 350.422 1325.04 350.422 1325.89 350.422 1326.91 350.422 1328.11 350.422 1329.3 350.422 1330.67 350.59 1332.2 350.93L1332.2 330.738C1331.17 330.398 1329.86 330.02 1328.23 329.59 1326.61 329.172 1324.95 328.781 1323.25 328.43 1321.55 328.09 1319.84 327.84 1318.14 327.672 1316.43 327.512 1314.98 327.418 1313.79 327.418 1307.82 327.418 1302.88 328.609 1298.97 330.988 1295.04 333.379 1292.49 337.559 1291.3 343.52 1285.5 337.898 1278.39 333.809 1269.95 331.25 1261.52 328.691 1253.38 327.418 1245.54 327.418 1239.57 327.418 1233.86 328.23 1228.41 329.84 1222.96 331.461 1218.14 333.84 1213.97 337 1209.79 340.148 1206.47 344.16 1204 349.012 1201.53 353.871 1200.29 359.539 1200.29 366.012 1200.29 374.199 1201.78 380.84 1204.76 385.949 1207.75 391.07 1211.67 395.07 1216.53 397.969 1221.38 400.871 1226.83 402.961 1232.88 404.238 1238.93 405.512 1245.03 406.488 1251.16 407.172 1256.44 408.191 1261.47 408.91 1266.24 409.34 1271.01 409.77 1275.23 410.5 1278.9 411.52 1282.56 412.539 1285.46 414.121 1287.59 416.25 1289.72 418.379 1290.78 421.57 1290.78 425.84 1290.78 429.578 1289.89 432.641 1288.1 435.039 1286.31 437.418 1284.09 439.25 1281.46 440.531 1278.81 441.809 1275.87 442.66 1272.63 443.078 1269.4 443.512 1266.33 443.73 1263.44 443.73 1255.25 443.73 1248.52 442.02 1243.24 438.609 1237.95 435.199 1234.97 429.918 1234.29 422.762L1205.15 422.762C1205.66 431.289 1207.71 438.359 1211.29 443.98 1214.86 449.609 1219.42 454.121 1224.96 457.531 1230.5 460.93 1236.76 463.328 1243.75 464.68 1250.73 466.051 1257.89 466.738 1265.22 466.738 1271.7 466.738 1278.09 466.051 1284.4 464.68 1290.7 463.328 1296.36 461.109 1301.39 458.039 1306.42 454.98 1310.47 451.012 1313.54 446.16 1316.6 441.301 1318.14 435.379 1318.14 428.391L1318.14 360.391" id="path25" fill="#231F20" transform="matrix(0.133333 0 0 -0.133333 0 270.773)"/><path d="M1336.29 463.148 1358.27 463.148 1358.27 502.781 1387.41 502.781 1387.41 463.148 1413.74 463.148 1413.74 441.422 1387.41 441.422 1387.41 370.879C1387.41 367.801 1387.54 365.16 1387.8 362.949 1388.05 360.73 1388.65 358.852 1389.59 357.32 1390.52 355.789 1391.93 354.641 1393.8 353.871 1395.68 353.102 1398.23 352.719 1401.47 352.719 1403.52 352.719 1405.56 352.762 1407.6 352.852 1409.65 352.941 1411.7 353.23 1413.74 353.75L1413.74 331.25C1410.51 330.91 1407.35 330.57 1404.28 330.219 1401.22 329.891 1398.06 329.711 1394.83 329.711 1387.16 329.711 1380.98 330.449 1376.29 331.891 1371.6 333.34 1367.94 335.469 1365.3 338.281 1362.65 341.09 1360.87 344.629 1359.93 348.879 1358.99 353.141 1358.44 358 1358.27 363.449L1358.27 441.422 1336.29 441.422 1336.29 463.148" id="path26" fill="#231F20" transform="matrix(0.133333 0 0 -0.133333 0 270.773)"/><path d="M1435.47 463.148 1464.61 463.148 1464.61 330.988 1435.47 330.988ZM1435.47 513.512 1464.61 513.512 1464.61 485.91 1435.47 485.91 1435.47 513.512" id="path27" fill="#231F20" transform="matrix(0.133333 0 0 -0.133333 0 270.773)"/><path d="M1556.89 350.422C1563.37 350.422 1568.99 351.781 1573.76 354.512 1578.53 357.23 1582.45 360.82 1585.52 365.25 1588.59 369.672 1590.85 374.672 1592.3 380.199 1593.74 385.738 1594.47 391.398 1594.47 397.199 1594.47 402.828 1593.74 408.449 1592.3 414.07 1590.85 419.691 1588.59 424.68 1585.52 429.031 1582.45 433.379 1578.53 436.91 1573.76 439.641 1568.99 442.359 1563.37 443.73 1556.89 443.73 1550.41 443.73 1544.79 442.359 1540.02 439.641 1535.25 436.91 1531.33 433.379 1528.26 429.031 1525.19 424.68 1522.93 419.691 1521.49 414.07 1520.04 408.449 1519.31 402.828 1519.31 397.199 1519.31 391.398 1520.04 385.738 1521.49 380.199 1522.93 374.672 1525.19 369.672 1528.26 365.25 1531.33 360.82 1535.25 357.23 1540.02 354.512 1544.79 351.781 1550.41 350.422 1556.89 350.422ZM1556.89 327.418C1546.32 327.418 1536.91 329.172 1528.65 332.648 1520.38 336.148 1513.39 340.961 1507.68 347.102 1501.97 353.23 1497.62 360.559 1494.65 369.078 1491.66 377.602 1490.17 386.98 1490.17 397.199 1490.17 407.25 1491.66 416.539 1494.65 425.07 1497.62 433.578 1501.97 440.922 1507.68 447.051 1513.39 453.18 1520.38 458 1528.65 461.488 1536.91 464.988 1546.32 466.738 1556.89 466.738 1567.46 466.738 1576.87 464.988 1585.14 461.488 1593.41 458 1600.39 453.18 1606.1 447.051 1611.81 440.922 1616.15 433.578 1619.14 425.07 1622.12 416.539 1623.61 407.25 1623.61 397.199 1623.61 386.98 1622.12 377.602 1619.14 369.078 1616.15 360.559 1611.81 353.23 1606.1 347.102 1600.39 340.961 1593.41 336.148 1585.14 332.648 1576.87 329.172 1567.46 327.418 1556.89 327.418" id="path28" fill="#231F20" transform="matrix(0.133333 0 0 -0.133333 0 270.773)"/><path d="M1647.89 463.148 1675.5 463.148 1675.5 443.73 1676.01 443.219C1680.44 450.539 1686.24 456.301 1693.4 460.48 1700.55 464.648 1708.48 466.738 1717.17 466.738 1731.65 466.738 1743.08 462.988 1751.42 455.488 1759.78 447.988 1763.96 436.738 1763.96 421.75L1763.96 330.988 1734.81 330.988 1734.81 414.07C1734.47 424.469 1732.25 432.012 1728.16 436.699 1724.07 441.379 1717.68 443.73 1708.99 443.73 1704.05 443.73 1699.62 442.828 1695.7 441.039 1691.77 439.25 1688.45 436.781 1685.73 433.629 1683 430.48 1680.87 426.762 1679.34 422.512 1677.81 418.25 1677.03 413.73 1677.03 408.961L1677.03 330.988 1647.89 330.988 1647.89 463.148" id="path29" fill="#231F20" transform="matrix(0.133333 0 0 -0.133333 0 270.773)"/><path d="M1876.17 397.199C1871.74 394.301 1866.29 392.559 1859.82 391.961 1853.33 391.359 1846.86 390.469 1840.38 389.27 1837.32 388.77 1834.34 388.031 1831.44 387.109 1828.54 386.168 1825.98 384.891 1823.77 383.27 1821.56 381.648 1819.81 379.52 1818.53 376.879 1817.25 374.238 1816.61 371.039 1816.61 367.289 1816.61 364.051 1817.55 361.328 1819.43 359.109 1821.3 356.891 1823.56 355.148 1826.19 353.871 1828.84 352.59 1831.73 351.699 1834.89 351.191 1838.04 350.68 1840.9 350.422 1843.45 350.422 1846.69 350.422 1850.19 350.852 1853.94 351.699 1857.68 352.551 1861.22 354 1864.54 356.039 1867.86 358.09 1870.64 360.691 1872.85 363.84 1875.06 366.988 1876.17 370.879 1876.17 375.48ZM1905.31 360.391C1905.31 356.809 1905.78 354.25 1906.72 352.719 1907.66 351.191 1909.49 350.422 1912.22 350.422 1913.07 350.422 1914.09 350.422 1915.29 350.422 1916.48 350.422 1917.84 350.59 1919.38 350.93L1919.38 330.738C1918.35 330.398 1917.03 330.02 1915.41 329.59 1913.79 329.172 1912.13 328.781 1910.43 328.43 1908.72 328.09 1907.01 327.84 1905.31 327.672 1903.61 327.512 1902.16 327.418 1900.97 327.418 1895 327.418 1890.06 328.609 1886.15 330.988 1882.22 333.379 1879.66 337.559 1878.48 343.52 1872.68 337.898 1865.57 333.809 1857.13 331.25 1848.69 328.691 1840.55 327.418 1832.72 327.418 1826.75 327.418 1821.04 328.23 1815.59 329.84 1810.13 331.461 1805.32 333.84 1801.15 337 1796.97 340.148 1793.65 344.16 1791.17 349.012 1788.7 353.871 1787.47 359.539 1787.47 366.012 1787.47 374.199 1788.96 380.84 1791.95 385.949 1794.92 391.07 1798.85 395.07 1803.7 397.969 1808.56 400.871 1814.02 402.961 1820.06 404.238 1826.11 405.512 1832.21 406.488 1838.34 407.172 1843.63 408.191 1848.65 408.91 1853.42 409.34 1858.2 409.77 1862.41 410.5 1866.08 411.52 1869.74 412.539 1872.64 414.121 1874.77 416.25 1876.9 418.379 1877.96 421.57 1877.96 425.84 1877.96 429.578 1877.07 432.641 1875.28 435.039 1873.49 437.418 1871.27 439.25 1868.64 440.531 1865.99 441.809 1863.05 442.66 1859.82 443.078 1856.57 443.512 1853.51 443.73 1850.61 443.73 1842.43 443.73 1835.7 442.02 1830.41 438.609 1825.13 435.199 1822.15 429.918 1821.47 422.762L1792.33 422.762C1792.83 431.289 1794.89 438.359 1798.46 443.98 1802.04 449.609 1806.59 454.121 1812.14 457.531 1817.68 460.93 1823.94 463.328 1830.93 464.68 1837.91 466.051 1845.07 466.738 1852.4 466.738 1858.88 466.738 1865.27 466.051 1871.57 464.68 1877.87 463.328 1883.55 461.109 1888.58 458.039 1893.6 454.98 1897.65 451.012 1900.72 446.16 1903.78 441.301 1905.31 435.379 1905.31 428.391L1905.31 360.391" id="path30" fill="#231F20" transform="matrix(0.133333 0 0 -0.133333 0 270.773)"/><path d="M1937.52 513.512 1966.66 513.512 1966.66 330.988 1937.52 330.988 1937.52 513.512" id="path31" fill="#231F20" transform="matrix(0.133333 0 0 -0.133333 0 270.773)"/><path d="M2105.48 427.109 2152.26 427.109C2155.83 427.109 2159.49 427.621 2163.24 428.648 2166.99 429.672 2170.44 431.328 2173.61 433.629 2176.75 435.93 2179.31 439 2181.27 442.828 2183.23 446.672 2184.21 451.48 2184.21 457.27 2184.21 463.238 2183.35 468.18 2181.65 472.109 2179.95 476.02 2177.65 479.129 2174.75 481.43 2171.85 483.738 2168.53 485.309 2164.79 486.16 2161.03 487.012 2157.02 487.441 2152.77 487.441L2105.48 487.441ZM2073.52 513.512 2154.05 513.512C2166.99 513.512 2177.56 511.641 2185.74 507.891 2193.93 504.141 2200.23 499.449 2204.66 493.84 2209.09 488.211 2212.11 482.07 2213.73 475.43 2215.35 468.781 2216.16 462.641 2216.16 457.02 2216.16 451.391 2215.35 445.301 2213.73 438.738 2212.11 432.172 2209.09 426.09 2204.66 420.469 2200.23 414.84 2193.93 410.191 2185.74 406.531 2177.56 402.871 2166.99 401.031 2154.05 401.031L2105.48 401.031 2105.48 330.988 2073.52 330.988 2073.52 513.512" id="path32" fill="#231F20" transform="matrix(0.133333 0 0 -0.133333 0 270.773)"/><path d="M2239.94 463.148 2267.3 463.148 2267.3 437.59 2267.81 437.59C2268.65 441.168 2270.31 444.672 2272.79 448.07 2275.26 451.48 2278.24 454.59 2281.73 457.398 2285.23 460.211 2289.1 462.469 2293.37 464.18 2297.63 465.879 2301.98 466.738 2306.41 466.738 2309.81 466.738 2312.16 466.648 2313.43 466.48 2314.71 466.309 2316.03 466.129 2317.4 465.961L2317.4 437.852C2315.35 438.191 2313.26 438.48 2311.14 438.738 2309 439 2306.92 439.129 2304.87 439.129 2299.92 439.129 2295.29 438.141 2290.94 436.191 2286.59 434.23 2282.8 431.328 2279.56 427.5 2276.32 423.66 2273.77 418.93 2271.9 413.309 2270.01 407.68 2269.08 401.211 2269.08 393.871L2269.08 330.988 2239.94 330.988 2239.94 463.148" id="path33" fill="#231F20" transform="matrix(0.133333 0 0 -0.133333 0 270.773)"/><path d="M2386.15 350.422C2392.63 350.422 2398.25 351.781 2403.03 354.512 2407.81 357.23 2411.72 360.82 2414.79 365.25 2417.85 369.672 2420.11 374.672 2421.56 380.199 2423.01 385.738 2423.73 391.398 2423.73 397.199 2423.73 402.828 2423.01 408.449 2421.56 414.07 2420.11 419.691 2417.85 424.68 2414.79 429.031 2411.72 433.379 2407.81 436.91 2403.03 439.641 2398.25 442.359 2392.63 443.73 2386.15 443.73 2379.68 443.73 2374.06 442.359 2369.29 439.641 2364.51 436.91 2360.6 433.379 2357.53 429.031 2354.47 424.68 2352.2 419.691 2350.75 414.07 2349.31 408.449 2348.59 402.828 2348.59 397.199 2348.59 391.398 2349.31 385.738 2350.75 380.199 2352.2 374.672 2354.47 369.672 2357.53 365.25 2360.6 360.82 2364.51 357.23 2369.29 354.512 2374.06 351.781 2379.68 350.422 2386.15 350.422ZM2386.15 327.418C2375.59 327.418 2366.17 329.172 2357.91 332.648 2349.64 336.148 2342.66 340.961 2336.95 347.102 2331.24 353.23 2326.9 360.559 2323.91 369.078 2320.93 377.602 2319.44 386.98 2319.44 397.199 2319.44 407.25 2320.93 416.539 2323.91 425.07 2326.9 433.578 2331.24 440.922 2336.95 447.051 2342.66 453.18 2349.64 458 2357.91 461.488 2366.17 464.988 2375.59 466.738 2386.15 466.738 2396.72 466.738 2406.14 464.988 2414.41 461.488 2422.67 458 2429.66 453.18 2435.37 447.051 2441.08 440.922 2445.42 433.578 2448.41 425.07 2451.39 416.539 2452.88 407.25 2452.88 397.199 2452.88 386.98 2451.39 377.602 2448.41 369.078 2445.42 360.559 2441.08 353.23 2435.37 347.102 2429.66 340.961 2422.67 336.148 2414.41 332.648 2406.14 329.172 2396.72 327.418 2386.15 327.418" id="path34" fill="#231F20" transform="matrix(0.133333 0 0 -0.133333 0 270.773)"/><path d="M2477.92 513.512 2507.06 513.512 2507.06 485.91 2477.92 485.91ZM2477.92 463.148 2507.06 463.148 2507.06 319.738C2507.06 306.629 2504.16 296.48 2498.37 289.32 2492.58 282.172 2482.86 278.59 2469.23 278.59 2466.33 278.59 2463.91 278.68 2461.95 278.84 2459.99 279.02 2458.07 279.27 2456.19 279.609L2456.19 302.609C2458.07 302.281 2459.87 302.02 2461.56 301.852 2463.26 301.691 2464.8 301.602 2466.16 301.602 2471.45 301.602 2474.73 303.219 2476.01 306.449 2477.29 309.691 2477.92 314.551 2477.92 321.02L2477.92 463.148" id="path35" fill="#231F20" transform="matrix(0.133333 0 0 -0.133333 0 270.773)"/><path d="M2629.51 408.711C2629.17 413.309 2628.2 417.73 2626.57 422 2624.95 426.262 2622.75 429.961 2619.93 433.121 2617.12 436.27 2613.7 438.828 2609.71 440.789 2605.7 442.738 2601.22 443.73 2596.28 443.73 2591.17 443.73 2586.53 442.828 2582.36 441.039 2578.18 439.25 2574.59 436.781 2571.61 433.629 2568.64 430.48 2566.25 426.762 2564.46 422.512 2562.67 418.25 2561.69 413.648 2561.52 408.711ZM2561.52 389.531C2561.52 384.422 2562.24 379.48 2563.69 374.699 2565.14 369.93 2567.31 365.762 2570.21 362.18 2573.11 358.602 2576.77 355.75 2581.2 353.621 2585.64 351.48 2590.92 350.422 2597.05 350.422 2605.57 350.422 2612.43 352.25 2617.63 355.922 2622.82 359.578 2626.7 365.078 2629.26 372.41L2656.87 372.41C2655.33 365.25 2652.69 358.852 2648.95 353.23 2645.2 347.602 2640.68 342.879 2635.39 339.051 2630.11 335.211 2624.19 332.309 2617.63 330.359 2611.07 328.398 2604.21 327.418 2597.05 327.418 2586.65 327.418 2577.45 329.121 2569.45 332.531 2561.43 335.93 2554.66 340.711 2549.12 346.84 2543.58 352.98 2539.41 360.301 2536.59 368.828 2533.78 377.352 2532.38 386.73 2532.38 396.949 2532.38 406.32 2533.87 415.219 2536.85 423.66 2539.83 432.102 2544.09 439.512 2549.63 445.898 2555.17 452.289 2561.86 457.359 2569.7 461.109 2577.53 464.859 2586.4 466.738 2596.28 466.738 2606.68 466.738 2616.01 464.559 2624.28 460.211 2632.54 455.871 2639.4 450.109 2644.86 442.961 2650.31 435.801 2654.27 427.578 2656.74 418.289 2659.21 409 2659.85 399.41 2658.65 389.531L2561.52 389.531" id="path36" fill="#231F20" transform="matrix(0.133333 0 0 -0.133333 0 270.773)"/><path d="M2770.11 418.93C2768.92 427.109 2765.64 433.289 2760.27 437.469 2754.9 441.641 2748.13 443.73 2739.94 443.73 2736.19 443.73 2732.19 443.078 2727.93 441.809 2723.67 440.531 2719.75 438.141 2716.17 434.66 2712.6 431.16 2709.61 426.301 2707.23 420.09 2704.84 413.852 2703.65 405.719 2703.65 395.672 2703.65 390.211 2704.29 384.762 2705.57 379.301 2706.85 373.852 2708.89 368.988 2711.7 364.73 2714.51 360.48 2718.13 357.031 2722.56 354.379 2726.99 351.738 2732.37 350.422 2738.67 350.422 2747.19 350.422 2754.22 353.059 2759.76 358.352 2765.3 363.629 2768.74 371.039 2770.11 380.578L2799.25 380.578C2796.53 363.371 2790.01 350.199 2779.7 341.09 2769.39 331.969 2755.71 327.418 2738.67 327.418 2728.27 327.418 2719.11 329.172 2711.19 332.648 2703.26 336.148 2696.57 340.922 2691.13 346.969 2685.67 353.012 2681.54 360.219 2678.72 368.57 2675.91 376.922 2674.5 385.949 2674.5 395.672 2674.5 405.551 2675.87 414.84 2678.6 423.531 2681.32 432.219 2685.41 439.762 2690.86 446.16 2696.32 452.551 2703.09 457.578 2711.19 461.238 2719.28 464.898 2728.78 466.738 2739.69 466.738 2747.37 466.738 2754.65 465.75 2761.55 463.801 2768.45 461.828 2774.58 458.891 2779.95 454.98 2785.32 451.051 2789.71 446.109 2793.12 440.141 2796.53 434.18 2798.57 427.109 2799.25 418.93L2770.11 418.93" id="path37" fill="#231F20" transform="matrix(0.133333 0 0 -0.133333 0 270.773)"/><path d="M2809.73 463.148 2831.72 463.148 2831.72 502.781 2860.86 502.781 2860.86 463.148 2887.19 463.148 2887.19 441.422 2860.86 441.422 2860.86 370.879C2860.86 367.801 2860.99 365.16 2861.24 362.949 2861.5 360.73 2862.09 358.852 2863.03 357.32 2863.97 355.789 2865.37 354.641 2867.25 353.871 2869.12 353.102 2871.68 352.719 2874.91 352.719 2876.97 352.719 2879.01 352.762 2881.06 352.852 2883.1 352.941 2885.15 353.23 2887.19 353.75L2887.19 331.25C2883.95 330.91 2880.8 330.57 2877.73 330.219 2874.66 329.891 2871.51 329.711 2868.27 329.711 2860.61 329.711 2854.43 330.449 2849.74 331.891 2845.05 333.34 2841.39 335.469 2838.74 338.281 2836.11 341.09 2834.31 344.629 2833.38 348.879 2832.44 353.141 2831.89 358 2831.72 363.449L2831.72 441.422 2809.73 441.422 2809.73 463.148" id="path38" fill="#231F20" transform="matrix(0.133333 0 0 -0.133333 0 270.773)"/><path d="M2492.58 1098.45 2317.95 1260.61" id="path39" stroke="#231F20" stroke-width="36.59" stroke-miterlimit="10" fill="none" transform="matrix(0.133333 0 0 -0.133333 0 270.773)"/><path d="M2756.88 719.672 2492.58 1083.6" id="path40" stroke="#231F20" stroke-width="36.59" stroke-miterlimit="10" fill="none" transform="matrix(0.133333 0 0 -0.133333 0 270.773)"/><path d="M2349.25 861.09C2349.25 939.191 2285.94 1002.51 2207.82 1002.51 2129.72 1002.51 2066.42 939.191 2066.42 861.09 2066.42 783 2129.72 719.672 2207.82 719.672 2285.94 719.672 2349.25 783 2349.25 861.09" id="path41" fill="#231F20" transform="matrix(0.133333 0 0 -0.133333 0 270.773)"/><path d="M2396.65 1260.61C2396.65 1320.27 2348.28 1368.64 2288.63 1368.64 2228.96 1368.64 2180.59 1320.27 2180.59 1260.61 2180.59 1200.95 2228.96 1152.59 2288.63 1152.59 2348.28 1152.59 2396.65 1200.95 2396.65 1260.61" id="path42" fill="#231F20" transform="matrix(0.133333 0 0 -0.133333 0 270.773)"/><path d="M2882.63 719.672C2882.63 779.328 2834.27 827.691 2774.61 827.691 2714.94 827.691 2666.57 779.328 2666.57 719.672 2666.57 660.012 2714.94 611.648 2774.61 611.648 2834.27 611.648 2882.63 660.012 2882.63 719.672" id="path43" fill="#231F20" transform="matrix(0.133333 0 0 -0.133333 0 270.773)"/><path d="M2588.54 1098.45C2588.54 1151.44 2545.58 1194.39 2492.58 1194.39 2439.59 1194.39 2396.65 1151.44 2396.65 1098.45 2396.65 1045.46 2439.59 1002.5 2492.58 1002.5 2545.58 1002.5 2588.54 1045.46 2588.54 1098.45" id="path44" fill="#231F20" transform="matrix(0.133333 0 0 -0.133333 0 270.773)"/><path d="M2868.92 1043.17C2868.92 1081.27 2838.03 1112.16 2799.93 1112.16 2761.83 1112.16 2730.95 1081.27 2730.95 1043.17 2730.95 1005.06 2761.83 974.18 2799.93 974.18 2838.03 974.18 2868.92 1005.06 2868.92 1043.17" id="path45" fill="#231F20" transform="matrix(0.133333 0 0 -0.133333 0 270.773)"/><path d="M2207.82 892.859C2224.28 909.309 2548.06 1112.15 2548.06 1112.15L2799.92 1046.37" id="path46" stroke="#231F20" stroke-width="36.59" stroke-miterlimit="10" fill="none" transform="matrix(0.133333 0 0 -0.133333 0 270.773)"/><path d="M330.816 171.352C328.871 174.441 326.496 177.031 323.699 179.109 320.895 181.199 317.809 182.801 314.441 183.879 311.07 184.98 307.535 185.52 303.832 185.52 297.094 185.52 291.301 184.25 286.461 181.68 281.625 179.109 277.66 175.719 274.574 171.488 271.492 167.27 269.211 162.512 267.738 157.18 266.266 151.871 265.535 146.41 265.535 140.82 265.535 135.301 266.266 129.871 267.738 124.5 269.211 119.148 271.492 114.34 274.574 110.121 277.66 105.91 281.625 102.512 286.461 99.9492 291.301 97.3789 297.094 96.1016 303.832 96.1016 308.582 96.1016 312.848 96.9492 316.648 98.6602 320.441 100.379 323.719 102.691 326.477 105.641 329.227 108.578 331.457 112.031 333.168 115.961 334.875 119.91 335.965 124.148 336.441 128.711L346.121 128.711C345.461 122.449 343.988 116.789 341.711 111.762 339.43 106.73 336.488 102.461 332.883 98.9492 329.273 95.4414 325.027 92.7305 320.141 90.8281 315.25 88.9297 309.813 87.9805 303.832 87.9805 295.855 87.9805 288.859 89.4297 282.828 92.3203 276.805 95.2109 271.793 99.0898 267.809 103.93 263.82 108.781 260.832 114.371 258.84 120.73 256.848 127.102 255.848 133.789 255.848 140.82 255.848 147.84 256.848 154.52 258.84 160.891 260.832 167.25 263.82 172.871 267.809 177.762 271.793 182.641 276.805 186.539 282.828 189.441 288.859 192.328 295.855 193.781 303.832 193.781 308.676 193.781 313.395 193.059 318.004 191.648 322.605 190.219 326.781 188.102 330.531 185.309 334.285 182.512 337.414 179.059 339.93 174.988 342.445 170.91 344.035 166.211 344.699 160.891L335.016 160.891C334.164 164.781 332.762 168.262 330.816 171.352" id="path47" fill="#231F20" transform="matrix(0.133333 0 0 -0.133333 0 270.773)"/><path d="M377.73 155.34C374.504 153.531 371.824 151.16 369.691 148.219 367.555 145.27 365.941 141.93 364.852 138.172 363.758 134.43 363.211 130.602 363.211 126.719 363.211 122.82 363.758 119 364.852 115.25 365.941 111.488 367.555 108.148 369.691 105.211 371.824 102.27 374.504 99.8906 377.73 98.0898 380.961 96.2891 384.715 95.3906 388.98 95.3906 393.254 95.3906 397.004 96.2891 400.238 98.0898 403.453 99.8906 406.141 102.27 408.277 105.211 410.414 108.148 412.027 111.488 413.117 115.25 414.211 119 414.758 122.82 414.758 126.719 414.758 130.602 414.211 134.43 413.117 138.172 412.027 141.93 410.414 145.27 408.277 148.219 406.141 151.16 403.453 153.531 400.238 155.34 397.004 157.141 393.254 158.031 388.98 158.031 384.715 158.031 380.961 157.141 377.73 155.34ZM403.863 162.449C408.188 160.371 411.813 157.57 414.758 154.051 417.699 150.531 419.93 146.43 421.449 141.738 422.965 137.039 423.723 132.031 423.723 126.719 423.723 121.391 422.965 116.391 421.449 111.699 419.93 106.988 417.699 102.891 414.758 99.3711 411.813 95.8594 408.188 93.0898 403.863 91.0391 399.543 89 394.582 87.9805 388.98 87.9805 383.383 87.9805 378.422 89 374.105 91.0391 369.781 93.0898 366.148 95.8594 363.211 99.3711 360.27 102.891 358.035 106.988 356.52 111.699 354.996 116.391 354.242 121.391 354.242 126.719 354.242 132.031 354.996 137.039 356.52 141.738 358.035 146.43 360.27 150.531 363.211 154.051 366.148 157.57 369.781 160.371 374.105 162.449 378.422 164.539 383.383 165.578 388.98 165.578 394.582 165.578 399.543 164.539 403.863 162.449" id="path48" fill="#231F20" transform="matrix(0.133333 0 0 -0.133333 0 270.773)"/><path d="M444.086 163.449 444.086 151.059 444.508 151.059C446.887 155.609 449.996 159.18 453.84 161.738 457.684 164.309 462.594 165.578 468.582 165.578 473.414 165.578 477.809 164.398 481.746 162.031 485.688 159.66 488.324 156.051 489.652 151.199 491.832 156.051 495.063 159.66 499.332 162.031 503.605 164.398 508.16 165.578 513 165.578 529.234 165.578 537.352 156.988 537.352 139.809L537.352 89.9805 528.383 89.9805 528.383 139.391C528.383 145.461 527.098 150.09 524.539 153.27 521.977 156.449 517.465 158.031 511.008 158.031 507.117 158.031 503.891 157.301 501.332 155.84 498.762 154.359 496.723 152.398 495.207 149.93 493.684 147.461 492.613 144.629 492 141.449 491.383 138.281 491.078 134.969 491.078 131.559L491.078 89.9805 482.102 89.9805 482.102 139.809C482.102 142.281 481.844 144.629 481.32 146.859 480.797 149.09 479.945 151.039 478.758 152.691 477.57 154.359 475.98 155.672 473.988 156.621 471.996 157.57 469.574 158.031 466.727 158.031 462.926 158.031 459.625 157.352 456.832 155.969 454.027 154.609 451.746 152.691 449.996 150.281 448.234 147.859 446.938 145.012 446.078 141.738 445.223 138.461 444.797 134.879 444.797 130.98L444.797 89.9805 435.824 89.9805 435.824 163.449 444.086 163.449" id="path49" fill="#231F20" transform="matrix(0.133333 0 0 -0.133333 0 270.773)"/><path d="M610.609 138.031C609.703 141.781 608.285 145.121 606.336 148.07 604.391 151.012 601.902 153.41 598.863 155.27 595.824 157.121 592.172 158.031 587.898 158.031 582.961 158.031 578.832 157.18 575.512 155.48 572.191 153.77 569.527 151.488 567.535 148.641 565.543 145.789 564.145 142.469 563.336 138.68 562.527 134.879 562.125 130.891 562.125 126.719 562.125 122.922 562.574 119.148 563.48 115.391 564.379 111.648 565.852 108.301 567.895 105.352 569.934 102.41 572.594 100.02 575.867 98.1719 579.145 96.3086 583.152 95.3906 587.898 95.3906 592.172 95.3906 595.824 96.3086 598.863 98.1719 601.902 100.02 604.391 102.41 606.336 105.352 608.285 108.301 609.703 111.648 610.609 115.391 611.512 119.148 611.965 122.922 611.965 126.719 611.965 130.5 611.512 134.27 610.609 138.031ZM561.414 163.449 561.414 149.5 561.703 149.5C563.785 154.629 567.18 158.59 571.883 161.379 576.578 164.191 581.918 165.578 587.898 165.578 593.5 165.578 598.363 164.539 602.492 162.449 606.625 160.371 610.063 157.551 612.816 153.98 615.574 150.422 617.609 146.301 618.938 141.602 620.266 136.898 620.934 131.93 620.934 126.719 620.934 121.488 620.266 116.531 618.938 111.828 617.609 107.141 615.574 103 612.816 99.4414 610.063 95.8906 606.625 93.0898 602.492 91.0391 598.363 89 593.5 87.9805 587.898 87.9805 585.242 87.9805 582.582 88.3203 579.926 88.9805 577.27 89.6484 574.797 90.6406 572.516 91.9688 570.242 93.3008 568.227 94.9688 566.469 96.9492 564.711 98.9492 563.363 101.27 562.414 103.93L562.125 103.93 562.125 62.9219 553.152 62.9219 553.152 163.449 561.414 163.449" id="path50" fill="#231F20" transform="matrix(0.133333 0 0 -0.133333 0 270.773)"/><path d="M684.867 89.9805 684.867 103.219 684.578 103.219C682.203 98.2891 678.766 94.5195 674.254 91.8984 669.75 89.2891 664.738 87.9805 659.234 87.9805 654.582 87.9805 650.617 88.6211 647.348 89.9102 644.07 91.1914 641.41 93.0117 639.375 95.3906 637.332 97.75 635.836 100.648 634.887 104.078 633.938 107.488 633.461 111.379 633.461 115.75L633.461 163.449 642.434 163.449 642.434 115.609C642.621 108.961 644.168 103.93 647.063 100.512 649.957 97.1016 654.965 95.3906 662.082 95.3906 665.973 95.3906 669.301 96.2188 672.047 97.8789 674.801 99.5391 677.082 101.75 678.883 104.5 680.691 107.25 682.02 110.41 682.875 113.969 683.723 117.531 684.152 121.16 684.152 124.859L684.152 163.449 693.125 163.449 693.125 89.9805 684.867 89.9805" id="path51" fill="#231F20" transform="matrix(0.133333 0 0 -0.133333 0 270.773)"/><path d="M737.973 163.449 737.973 155.91 723.023 155.91 723.023 106.352C723.023 103.41 723.426 101.109 724.23 99.4414 725.043 97.7891 727.059 96.8594 730.285 96.6719 732.848 96.6719 735.406 96.8086 737.973 97.1016L737.973 89.5508C736.645 89.5508 735.316 89.5117 733.988 89.3984 732.66 89.3086 731.332 89.2617 730 89.2617 724.016 89.2617 719.84 90.4297 717.469 92.7617 715.094 95.0781 713.957 99.3711 714.051 105.641L714.051 155.91 701.238 155.91 701.238 163.449 714.051 163.449 714.051 185.52 723.023 185.52 723.023 163.449 737.973 163.449" id="path52" fill="#231F20" transform="matrix(0.133333 0 0 -0.133333 0 270.773)"/><path d="M800.695 141.672C799.602 144.801 798.063 147.578 796.066 150 794.074 152.418 791.652 154.359 788.805 155.84 785.961 157.301 782.73 158.031 779.125 158.031 775.422 158.031 772.145 157.301 769.301 155.84 766.453 154.359 764.031 152.418 762.039 150 760.047 147.578 758.453 144.781 757.262 141.602 756.082 138.422 755.297 135.16 754.914 131.84L802.473 131.84C802.379 135.262 801.785 138.531 800.695 141.672ZM756.273 114.25C757.172 110.801 758.621 107.68 760.613 104.93 762.609 102.172 765.121 99.8906 768.156 98.0898 771.195 96.2891 774.852 95.3906 779.125 95.3906 785.672 95.3906 790.805 97.1016 794.5 100.512 798.207 103.93 800.77 108.48 802.195 114.191L811.16 114.191C809.262 105.828 805.77 99.3711 800.695 94.8086 795.613 90.2617 788.43 87.9805 779.125 87.9805 773.332 87.9805 768.324 89 764.098 91.0391 759.879 93.0898 756.438 95.8906 753.777 99.4414 751.121 103 749.148 107.141 747.867 111.828 746.586 116.531 745.949 121.488 745.949 126.719 745.949 131.559 746.586 136.301 747.867 140.949 749.148 145.602 751.121 149.75 753.777 153.41 756.438 157.059 759.879 160.02 764.098 162.238 768.324 164.469 773.332 165.578 779.125 165.578 785.012 165.578 790.035 164.398 794.223 162.031 798.395 159.66 801.785 156.539 804.398 152.691 807.004 148.852 808.883 144.449 810.023 139.461 811.16 134.469 811.637 129.422 811.449 124.289L754.914 124.289C754.914 121.059 755.367 117.719 756.273 114.25" id="path53" fill="#231F20" transform="matrix(0.133333 0 0 -0.133333 0 270.773)"/><path d="M830.52 163.449 830.52 146.219 830.809 146.219C833.09 152.199 836.617 156.801 841.418 160.039 846.207 163.262 851.93 164.73 858.57 164.449L858.57 155.48C854.488 155.672 850.789 155.121 847.469 153.84 844.145 152.559 841.273 150.73 838.852 148.359 836.434 145.98 834.559 143.16 833.227 139.891 831.898 136.609 831.234 133.02 831.234 129.129L831.234 89.9805 822.262 89.9805 822.262 163.449 830.52 163.449" id="path54" fill="#231F20" transform="matrix(0.133333 0 0 -0.133333 0 270.773)"/><path d="M912.824 110.34C914.535 106.828 916.883 104.031 919.871 101.941 922.863 99.8516 926.398 98.3594 930.48 97.4609 934.563 96.5508 938.93 96.1016 943.582 96.1016 946.234 96.1016 949.133 96.4805 952.27 97.2383 955.398 98 958.316 99.2109 961.023 100.871 963.727 102.539 965.984 104.672 967.793 107.281 969.586 109.891 970.492 113.039 970.492 116.75 970.492 119.602 969.852 122.07 968.57 124.148 967.289 126.238 965.629 128 963.586 129.422 961.547 130.852 959.293 132 956.824 132.91 954.352 133.809 951.93 134.551 949.563 135.109L926.918 140.672C923.977 141.422 921.102 142.379 918.309 143.512 915.504 144.66 913.059 146.168 910.969 148.07 908.883 149.969 907.195 152.289 905.918 155.059 904.637 157.809 903.996 161.18 903.996 165.16 903.996 167.629 904.469 170.52 905.422 173.84 906.371 177.172 908.148 180.301 910.758 183.25 913.371 186.191 916.949 188.68 921.512 190.719 926.066 192.762 931.902 193.781 939.02 193.781 944.055 193.781 948.852 193.109 953.406 191.789 957.961 190.461 961.945 188.461 965.363 185.809 968.781 183.148 971.512 179.84 973.551 175.922 975.594 171.969 976.613 167.391 976.613 162.172L966.93 162.172C966.742 166.059 965.867 169.461 964.301 172.352 962.73 175.25 960.688 177.66 958.172 179.621 955.656 181.559 952.762 183.02 949.488 184.031 946.215 185.031 942.77 185.52 939.168 185.52 935.844 185.52 932.641 185.16 929.555 184.449 926.469 183.738 923.762 182.602 921.438 181.039 919.109 179.469 917.238 177.41 915.813 174.852 914.387 172.281 913.68 169.102 913.68 165.301 913.68 162.93 914.078 160.871 914.891 159.109 915.691 157.352 916.813 155.859 918.234 154.629 919.656 153.391 921.297 152.398 923.148 151.629 925 150.871 926.969 150.262 929.055 149.781L953.832 143.66C957.438 142.711 960.832 141.551 964.016 140.172 967.191 138.801 970 137.078 972.414 135.051 974.832 133 976.73 130.5 978.113 127.57 979.484 124.629 980.172 121.059 980.172 116.879 980.172 115.75 980.051 114.23 979.816 112.328 979.582 110.441 979.012 108.422 978.113 106.281 977.211 104.148 975.922 101.98 974.266 99.8008 972.605 97.6094 970.328 95.6484 967.434 93.8906 964.539 92.1406 960.953 90.7109 956.684 89.6289 952.406 88.5313 947.281 87.9805 941.301 87.9805 935.32 87.9805 929.77 88.668 924.641 90.0508 919.52 91.4219 915.148 93.5391 911.543 96.3789 907.934 99.2383 905.16 102.891 903.211 107.352 901.266 111.801 900.438 117.172 900.719 123.43L910.402 123.43C910.309 118.219 911.117 113.852 912.824 110.34" id="path55" fill="#231F20" transform="matrix(0.133333 0 0 -0.133333 0 270.773)"/><path d="M1001.67 163.449 1001.67 89.9805 992.699 89.9805 992.699 163.449ZM1001.67 191.648 1001.67 177.262 992.699 177.262 992.699 191.648 1001.67 191.648" id="path56" fill="#231F20" transform="matrix(0.133333 0 0 -0.133333 0 270.773)"/><path d="M1025.88 163.449 1025.88 151.059 1026.3 151.059C1028.67 155.609 1031.78 159.18 1035.63 161.738 1039.48 164.309 1044.39 165.578 1050.37 165.578 1055.21 165.578 1059.6 164.398 1063.54 162.031 1067.48 159.66 1070.11 156.051 1071.44 151.199 1073.63 156.051 1076.85 159.66 1081.12 162.031 1085.4 164.398 1089.95 165.578 1094.79 165.578 1111.03 165.578 1119.14 156.988 1119.14 139.809L1119.14 89.9805 1110.17 89.9805 1110.17 139.391C1110.17 145.461 1108.89 150.09 1106.33 153.27 1103.77 156.449 1099.26 158.031 1092.8 158.031 1088.9 158.031 1085.68 157.301 1083.12 155.84 1080.55 154.359 1078.51 152.398 1076.99 149.93 1075.48 147.461 1074.41 144.629 1073.79 141.449 1073.17 138.281 1072.87 134.969 1072.87 131.559L1072.87 89.9805 1063.89 89.9805 1063.89 139.809C1063.89 142.281 1063.64 144.629 1063.11 146.859 1062.59 149.09 1061.74 151.039 1060.55 152.691 1059.36 154.359 1057.77 155.672 1055.78 156.621 1053.79 157.57 1051.36 158.031 1048.52 158.031 1044.72 158.031 1041.42 157.352 1038.62 155.969 1035.82 154.609 1033.54 152.691 1031.78 150.281 1030.03 147.859 1028.73 145.012 1027.87 141.738 1027.01 138.461 1026.59 134.879 1026.59 130.98L1026.59 89.9805 1017.61 89.9805 1017.61 163.449 1025.88 163.449" id="path57" fill="#231F20" transform="matrix(0.133333 0 0 -0.133333 0 270.773)"/><path d="M1186.21 89.9805 1186.21 103.219 1185.93 103.219C1183.55 98.2891 1180.11 94.5195 1175.6 91.8984 1171.1 89.2891 1166.09 87.9805 1160.58 87.9805 1155.93 87.9805 1151.97 88.6211 1148.69 89.9102 1145.42 91.1914 1142.76 93.0117 1140.72 95.3906 1138.68 97.75 1137.18 100.648 1136.23 104.078 1135.29 107.488 1134.81 111.379 1134.81 115.75L1134.81 163.449 1143.78 163.449 1143.78 115.609C1143.97 108.961 1145.51 103.93 1148.41 100.512 1151.3 97.1016 1156.31 95.3906 1163.43 95.3906 1167.32 95.3906 1170.64 96.2188 1173.4 97.8789 1176.15 99.5391 1178.43 101.75 1180.23 104.5 1182.03 107.25 1183.37 110.41 1184.22 113.969 1185.07 117.531 1185.5 121.16 1185.5 124.859L1185.5 163.449 1194.47 163.449 1194.47 89.9805 1186.21 89.9805" id="path58" fill="#231F20" transform="matrix(0.133333 0 0 -0.133333 0 270.773)"/><path d="M1219.24 191.648 1219.24 89.9805 1210.28 89.9805 1210.28 191.648 1219.24 191.648" id="path59" fill="#231F20" transform="matrix(0.133333 0 0 -0.133333 0 270.773)"/><path d="M1281.9 130.129C1281.33 129.09 1280.24 128.328 1278.63 127.859 1277.01 127.371 1275.58 127.039 1274.35 126.852 1270.55 126.191 1266.63 125.59 1262.6 125.078 1258.57 124.559 1254.89 123.77 1251.56 122.73 1248.24 121.691 1245.52 120.191 1243.38 118.238 1241.24 116.301 1240.18 113.52 1240.18 109.91 1240.18 107.629 1240.62 105.609 1241.53 103.852 1242.43 102.102 1243.64 100.578 1245.16 99.3008 1246.68 98.0195 1248.44 97.0508 1250.43 96.3789 1252.42 95.7188 1254.46 95.3906 1256.56 95.3906 1259.97 95.3906 1263.24 95.9102 1266.37 96.9492 1269.51 98 1272.23 99.5195 1274.56 101.512 1276.89 103.5 1278.74 105.922 1280.12 108.781 1281.5 111.621 1282.18 114.852 1282.18 118.449L1282.18 130.129ZM1237.04 152.07C1238.56 155.191 1240.62 157.75 1243.24 159.75 1245.85 161.738 1248.91 163.211 1252.42 164.16 1255.93 165.109 1259.83 165.578 1264.09 165.578 1267.32 165.578 1270.55 165.281 1273.78 164.66 1277.01 164.051 1279.9 162.891 1282.47 161.18 1285.03 159.461 1287.12 157.059 1288.73 153.98 1290.34 150.898 1291.15 146.879 1291.15 141.949L1291.15 102.941C1291.15 99.3203 1292.91 97.5313 1296.42 97.5313 1297.46 97.5313 1298.42 97.7109 1299.27 98.0898L1299.27 90.5508C1298.22 90.3594 1297.3 90.2109 1296.49 90.1094 1295.69 90.0313 1294.66 89.9805 1293.44 89.9805 1291.15 89.9805 1289.32 90.2891 1287.95 90.9102 1286.57 91.5195 1285.51 92.3984 1284.74 93.5391 1283.98 94.6719 1283.49 96.0313 1283.25 97.5898 1283.01 99.1602 1282.89 100.898 1282.89 102.789L1282.61 102.789C1280.99 100.422 1279.36 98.3086 1277.69 96.4609 1276.03 94.6094 1274.18 93.0508 1272.15 91.8203 1270.1 90.5898 1267.78 89.6484 1265.16 88.9805 1262.56 88.3203 1259.45 87.9805 1255.84 87.9805 1252.42 87.9805 1249.22 88.3984 1246.22 89.1992 1243.24 90 1240.62 91.2891 1238.4 93.0313 1236.16 94.7891 1234.41 97.0195 1233.13 99.7305 1231.85 102.43 1231.2 105.641 1231.2 109.328 1231.2 114.469 1232.35 118.48 1234.62 121.371 1236.9 124.27 1239.91 126.48 1243.66 128 1247.41 129.512 1251.64 130.578 1256.34 131.199 1261.03 131.82 1265.81 132.41 1270.65 132.988 1272.55 133.16 1274.21 133.41 1275.63 133.691 1277.05 133.98 1278.24 134.469 1279.19 135.18 1280.14 135.898 1280.88 136.871 1281.4 138.102 1281.92 139.328 1282.18 140.949 1282.18 142.949 1282.18 145.98 1281.69 148.469 1280.69 150.422 1279.69 152.359 1278.31 153.91 1276.56 155.059 1274.8 156.191 1272.76 156.969 1270.43 157.398 1268.1 157.828 1265.62 158.031 1262.96 158.031 1257.26 158.031 1252.61 156.691 1249.01 153.98 1245.4 151.281 1243.49 146.93 1243.31 140.949L1234.34 140.949C1234.62 145.23 1235.52 148.922 1237.04 152.07" id="path60" fill="#231F20" transform="matrix(0.133333 0 0 -0.133333 0 270.773)"/><path d="M1336.99 163.449 1336.99 155.91 1322.05 155.91 1322.05 106.352C1322.05 103.41 1322.45 101.109 1323.25 99.4414 1324.06 97.7891 1326.08 96.8594 1329.31 96.6719 1331.87 96.6719 1334.43 96.8086 1336.99 97.1016L1336.99 89.5508C1335.67 89.5508 1334.34 89.5117 1333.01 89.3984 1331.68 89.3086 1330.35 89.2617 1329.02 89.2617 1323.04 89.2617 1318.86 90.4297 1316.49 92.7617 1314.12 95.0781 1312.98 99.3711 1313.07 105.641L1313.07 155.91 1300.26 155.91 1300.26 163.449 1313.07 163.449 1313.07 185.52 1322.05 185.52 1322.05 163.449 1336.99 163.449" id="path61" fill="#231F20" transform="matrix(0.133333 0 0 -0.133333 0 270.773)"/><path d="M1357.78 163.449 1357.78 89.9805 1348.82 89.9805 1348.82 163.449ZM1357.78 191.648 1357.78 177.262 1348.82 177.262 1348.82 191.648 1357.78 191.648" id="path62" fill="#231F20" transform="matrix(0.133333 0 0 -0.133333 0 270.773)"/><path d="M1393.52 155.34C1390.3 153.531 1387.61 151.16 1385.48 148.219 1383.35 145.27 1381.73 141.93 1380.64 138.172 1379.55 134.43 1379 130.602 1379 126.719 1379 122.82 1379.55 119 1380.64 115.25 1381.73 111.488 1383.35 108.148 1385.48 105.211 1387.61 102.27 1390.3 99.8906 1393.52 98.0898 1396.75 96.2891 1400.51 95.3906 1404.77 95.3906 1409.05 95.3906 1412.8 96.2891 1416.03 98.0898 1419.25 99.8906 1421.93 102.27 1424.07 105.211 1426.2 108.148 1427.82 111.488 1428.91 115.25 1430 119 1430.55 122.82 1430.55 126.719 1430.55 130.602 1430 134.43 1428.91 138.172 1427.82 141.93 1426.2 145.27 1424.07 148.219 1421.93 151.16 1419.25 153.531 1416.03 155.34 1412.8 157.141 1409.05 158.031 1404.77 158.031 1400.51 158.031 1396.75 157.141 1393.52 155.34ZM1419.66 162.449C1423.98 160.371 1427.6 157.57 1430.55 154.051 1433.49 150.531 1435.72 146.43 1437.24 141.738 1438.76 137.039 1439.51 132.031 1439.51 126.719 1439.51 121.391 1438.76 116.391 1437.24 111.699 1435.72 106.988 1433.49 102.891 1430.55 99.3711 1427.6 95.8594 1423.98 93.0898 1419.66 91.0391 1415.33 89 1410.37 87.9805 1404.77 87.9805 1399.17 87.9805 1394.21 89 1389.9 91.0391 1385.57 93.0898 1381.94 95.8594 1379 99.3711 1376.06 102.891 1373.83 106.988 1372.31 111.699 1370.79 116.391 1370.03 121.391 1370.03 126.719 1370.03 132.031 1370.79 137.039 1372.31 141.738 1373.83 146.43 1376.06 150.531 1379 154.051 1381.94 157.57 1385.57 160.371 1389.9 162.449 1394.21 164.539 1399.17 165.578 1404.77 165.578 1410.37 165.578 1415.33 164.539 1419.66 162.449" id="path63" fill="#231F20" transform="matrix(0.133333 0 0 -0.133333 0 270.773)"/><path d="M1460.45 163.449 1460.45 150.781 1460.73 150.781C1462.44 155.23 1465.48 158.82 1469.84 161.531 1474.21 164.238 1479.01 165.578 1484.23 165.578 1489.35 165.578 1493.65 164.918 1497.11 163.602 1500.57 162.262 1503.36 160.398 1505.44 157.969 1507.53 155.539 1509 152.578 1509.86 149.07 1510.71 145.559 1511.14 141.621 1511.14 137.25L1511.14 89.9805 1502.17 89.9805 1502.17 135.828C1502.17 138.949 1501.88 141.871 1501.31 144.59 1500.74 147.281 1499.75 149.641 1498.32 151.629 1496.9 153.629 1494.97 155.191 1492.56 156.328 1490.13 157.48 1487.12 158.031 1483.51 158.031 1479.9 158.031 1476.7 157.398 1473.9 156.121 1471.1 154.828 1468.73 153.07 1466.78 150.852 1464.83 148.621 1463.32 145.961 1462.22 142.879 1461.14 139.789 1460.54 136.441 1460.45 132.828L1460.45 89.9805 1451.48 89.9805 1451.48 163.449 1460.45 163.449" id="path64" fill="#231F20" transform="matrix(0.133333 0 0 -0.133333 0 270.773)"/><path d="M1584.9 155.34C1581.67 153.531 1578.99 151.16 1576.85 148.219 1574.72 145.27 1573.1 141.93 1572.01 138.172 1570.92 134.43 1570.37 130.602 1570.37 126.719 1570.37 122.82 1570.92 119 1572.01 115.25 1573.1 111.488 1574.72 108.148 1576.85 105.211 1578.99 102.27 1581.67 99.8906 1584.9 98.0898 1588.12 96.2891 1591.88 95.3906 1596.15 95.3906 1600.42 95.3906 1604.17 96.2891 1607.4 98.0898 1610.62 99.8906 1613.31 102.27 1615.44 105.211 1617.58 108.148 1619.19 111.488 1620.28 115.25 1621.37 119 1621.92 122.82 1621.92 126.719 1621.92 130.602 1621.37 134.43 1620.28 138.172 1619.19 141.93 1617.58 145.27 1615.44 148.219 1613.31 151.16 1610.62 153.531 1607.4 155.34 1604.17 157.141 1600.42 158.031 1596.15 158.031 1591.88 158.031 1588.12 157.141 1584.9 155.34ZM1611.03 162.449C1615.35 160.371 1618.98 157.57 1621.92 154.051 1624.87 150.531 1627.1 146.43 1628.61 141.738 1630.13 137.039 1630.89 132.031 1630.89 126.719 1630.89 121.391 1630.13 116.391 1628.61 111.699 1627.1 106.988 1624.87 102.891 1621.92 99.3711 1618.98 95.8594 1615.35 93.0898 1611.03 91.0391 1606.71 89 1601.75 87.9805 1596.15 87.9805 1590.55 87.9805 1585.58 89 1581.27 91.0391 1576.95 93.0898 1573.31 95.8594 1570.37 99.3711 1567.43 102.891 1565.2 106.988 1563.68 111.699 1562.17 116.391 1561.41 121.391 1561.41 126.719 1561.41 132.031 1562.17 137.039 1563.68 141.738 1565.2 146.43 1567.43 150.531 1570.37 154.051 1573.31 157.57 1576.95 160.371 1581.27 162.449 1585.58 164.539 1590.55 165.578 1596.15 165.578 1601.75 165.578 1606.71 164.539 1611.03 162.449" id="path65" fill="#231F20" transform="matrix(0.133333 0 0 -0.133333 0 270.773)"/><path d="M1656.79 155.91 1656.79 89.9805 1647.83 89.9805 1647.83 155.91 1635.3 155.91 1635.3 163.449 1647.83 163.449 1647.83 170.141C1647.83 173.27 1648.07 176.168 1648.55 178.84 1649.02 181.48 1649.92 183.762 1651.26 185.672 1652.58 187.57 1654.41 189.031 1656.74 190.09 1659.06 191.129 1662.01 191.648 1665.63 191.648 1666.95 191.648 1668.2 191.602 1669.34 191.5 1670.47 191.398 1671.75 191.27 1673.18 191.078L1673.18 183.391C1671.95 183.578 1670.81 183.738 1669.76 183.879 1668.72 184.031 1667.67 184.102 1666.63 184.102 1664.16 184.102 1662.25 183.719 1660.93 182.961 1659.61 182.191 1658.62 181.18 1658.02 179.898 1657.4 178.609 1657.03 177.129 1656.96 175.41 1656.85 173.699 1656.79 171.852 1656.79 169.859L1656.79 163.449 1671.33 163.449 1671.33 155.91 1656.79 155.91" id="path66" fill="#231F20" transform="matrix(0.133333 0 0 -0.133333 0 270.773)"/><path d="M1788.72 171.352C1786.78 174.441 1784.4 177.031 1781.6 179.109 1778.8 181.199 1775.72 182.801 1772.35 183.879 1768.98 184.98 1765.44 185.52 1761.74 185.52 1754.99 185.52 1749.21 184.25 1744.37 181.68 1739.53 179.109 1735.56 175.719 1732.48 171.488 1729.39 167.27 1727.11 162.512 1725.65 157.18 1724.17 151.871 1723.44 146.41 1723.44 140.82 1723.44 135.301 1724.17 129.871 1725.65 124.5 1727.11 119.148 1729.39 114.34 1732.48 110.121 1735.56 105.91 1739.53 102.512 1744.37 99.9492 1749.21 97.3789 1754.99 96.1016 1761.74 96.1016 1766.49 96.1016 1770.76 96.9492 1774.55 98.6602 1778.35 100.379 1781.62 102.691 1784.38 105.641 1787.12 108.578 1789.36 112.031 1791.07 115.961 1792.78 119.91 1793.87 124.148 1794.34 128.711L1804.03 128.711C1803.35 122.449 1801.89 116.789 1799.61 111.762 1797.34 106.73 1794.4 102.461 1790.78 98.9492 1787.18 95.4414 1782.93 92.7305 1778.05 90.8281 1773.15 88.9297 1767.72 87.9805 1761.74 87.9805 1753.77 87.9805 1746.76 89.4297 1740.74 92.3203 1734.71 95.2109 1729.7 99.0898 1725.72 103.93 1721.73 108.781 1718.74 114.371 1716.75 120.73 1714.75 127.102 1713.75 133.789 1713.75 140.82 1713.75 147.84 1714.75 154.52 1716.75 160.891 1718.74 167.25 1721.73 172.871 1725.72 177.762 1729.7 182.641 1734.71 186.539 1740.74 189.441 1746.76 192.328 1753.77 193.781 1761.74 193.781 1766.58 193.781 1771.3 193.059 1775.91 191.648 1780.51 190.219 1784.69 188.102 1788.43 185.309 1792.18 182.512 1795.31 179.059 1797.83 174.988 1800.34 170.91 1801.94 166.211 1802.6 160.891L1792.92 160.891C1792.06 164.781 1790.66 168.262 1788.72 171.352" id="path67" fill="#231F20" transform="matrix(0.133333 0 0 -0.133333 0 270.773)"/><path d="M1835.65 155.34C1832.42 153.531 1829.73 151.16 1827.6 148.219 1825.47 145.27 1823.85 141.93 1822.76 138.172 1821.66 134.43 1821.12 130.602 1821.12 126.719 1821.12 122.82 1821.66 119 1822.76 115.25 1823.85 111.488 1825.47 108.148 1827.6 105.211 1829.73 102.27 1832.42 99.8906 1835.65 98.0898 1838.88 96.2891 1842.62 95.3906 1846.9 95.3906 1851.17 95.3906 1854.91 96.2891 1858.15 98.0898 1861.37 99.8906 1864.06 102.27 1866.18 105.211 1868.32 108.148 1869.93 111.488 1871.04 115.25 1872.12 119 1872.67 122.82 1872.67 126.719 1872.67 130.602 1872.12 134.43 1871.04 138.172 1869.93 141.93 1868.32 145.27 1866.18 148.219 1864.06 151.16 1861.37 153.531 1858.15 155.34 1854.91 157.141 1851.17 158.031 1846.9 158.031 1842.62 158.031 1838.88 157.141 1835.65 155.34ZM1861.78 162.449C1866.1 160.371 1869.73 157.57 1872.67 154.051 1875.61 150.531 1877.83 146.43 1879.37 141.738 1880.88 137.039 1881.64 132.031 1881.64 126.719 1881.64 121.391 1880.88 116.391 1879.37 111.699 1877.83 106.988 1875.61 102.891 1872.67 99.3711 1869.73 95.8594 1866.1 93.0898 1861.78 91.0391 1857.45 89 1852.49 87.9805 1846.9 87.9805 1841.29 87.9805 1836.34 89 1832.01 91.0391 1827.7 93.0898 1824.06 95.8594 1821.12 99.3711 1818.18 102.891 1815.95 106.988 1814.43 111.699 1812.91 116.391 1812.15 121.391 1812.15 126.719 1812.15 132.031 1812.91 137.039 1814.43 141.738 1815.95 146.43 1818.18 150.531 1821.12 154.051 1824.06 157.57 1827.7 160.371 1832.01 162.449 1836.34 164.539 1841.29 165.578 1846.9 165.578 1852.49 165.578 1857.45 164.539 1861.78 162.449" id="path68" fill="#231F20" transform="matrix(0.133333 0 0 -0.133333 0 270.773)"/><path d="M1902.57 163.449 1902.57 150.781 1902.85 150.781C1904.55 155.23 1907.6 158.82 1911.97 161.531 1916.33 164.238 1921.13 165.578 1926.34 165.578 1931.48 165.578 1935.77 164.918 1939.23 163.602 1942.7 162.262 1945.47 160.398 1947.56 157.969 1949.65 155.539 1951.13 152.578 1951.98 149.07 1952.83 145.559 1953.25 141.621 1953.25 137.25L1953.25 89.9805 1944.29 89.9805 1944.29 135.828C1944.29 138.949 1944 141.871 1943.44 144.59 1942.86 147.281 1941.86 149.641 1940.44 151.629 1939.03 153.629 1937.09 155.191 1934.68 156.328 1932.26 157.48 1929.23 158.031 1925.64 158.031 1922.03 158.031 1918.82 157.398 1916.03 156.121 1913.22 154.828 1910.85 153.07 1908.9 150.852 1906.96 148.621 1905.44 145.961 1904.35 142.879 1903.25 139.789 1902.66 136.441 1902.57 132.828L1902.57 89.9805 1893.6 89.9805 1893.6 163.449 1902.57 163.449" id="path69" fill="#231F20" transform="matrix(0.133333 0 0 -0.133333 0 270.773)"/><path d="M1976.11 115.391C1977 111.648 1978.42 108.301 1980.37 105.352 1982.32 102.41 1984.81 100.02 1987.85 98.1719 1990.89 96.3086 1994.54 95.3906 1998.82 95.3906 2003.56 95.3906 2007.57 96.3086 2010.84 98.1719 2014.12 100.02 2016.78 102.41 2018.82 105.352 2020.86 108.301 2022.34 111.648 2023.23 115.391 2024.13 119.148 2024.58 122.922 2024.58 126.719 2024.58 130.5 2024.13 134.27 2023.23 138.031 2022.34 141.781 2020.86 145.121 2018.82 148.07 2016.78 151.012 2014.12 153.41 2010.84 155.27 2007.57 157.121 2003.56 158.031 1998.82 158.031 1994.54 158.031 1990.89 157.121 1987.85 155.27 1984.81 153.41 1982.32 151.012 1980.37 148.07 1978.42 145.121 1977 141.781 1976.11 138.031 1975.21 134.27 1974.75 130.5 1974.75 126.719 1974.75 122.922 1975.21 119.148 1976.11 115.391ZM2025.3 89.9805 2025.3 103.93 2025.01 103.93C2024.06 101.559 2022.67 99.3711 2020.81 97.3789 2018.97 95.3906 2016.85 93.6992 2014.48 92.3203 2012.11 90.9492 2009.57 89.8906 2006.86 89.1289 2004.16 88.3594 2001.47 87.9805 1998.82 87.9805 1993.21 87.9805 1988.35 89 1984.22 91.0391 1980.09 93.0898 1976.65 95.8906 1973.9 99.4414 1971.14 103 1969.1 107.141 1967.78 111.828 1966.44 116.531 1965.78 121.488 1965.78 126.719 1965.78 131.93 1966.44 136.898 1967.78 141.602 1969.1 146.301 1971.14 150.422 1973.9 153.98 1976.65 157.551 1980.09 160.371 1984.22 162.449 1988.35 164.539 1993.21 165.578 1998.82 165.578 2001.56 165.578 2004.25 165.25 2006.86 164.59 2009.47 163.922 2011.92 162.91 2014.19 161.531 2016.48 160.148 2018.49 158.461 2020.25 156.469 2022 154.48 2023.35 152.16 2024.3 149.5L2024.58 149.5 2024.58 191.648 2033.56 191.648 2033.56 89.9805 2025.3 89.9805" id="path70" fill="#231F20" transform="matrix(0.133333 0 0 -0.133333 0 270.773)"/><path d="M2100.41 141.672C2099.32 144.801 2097.79 147.578 2095.78 150 2093.8 152.418 2091.37 154.359 2088.53 155.84 2085.68 157.301 2082.44 158.031 2078.84 158.031 2075.14 158.031 2071.87 157.301 2069.02 155.84 2066.16 154.359 2063.74 152.418 2061.76 150 2059.76 147.578 2058.17 144.781 2056.98 141.602 2055.79 138.422 2055.01 135.16 2054.63 131.84L2102.2 131.84C2102.09 135.262 2101.51 138.531 2100.41 141.672ZM2055.99 114.25C2056.89 110.801 2058.33 107.68 2060.33 104.93 2062.32 102.172 2064.84 99.8906 2067.88 98.0898 2070.91 96.2891 2074.56 95.3906 2078.84 95.3906 2085.39 95.3906 2090.51 97.1016 2094.22 100.512 2097.92 103.93 2100.48 108.48 2101.91 114.191L2110.88 114.191C2108.99 105.828 2105.49 99.3711 2100.41 94.8086 2095.33 90.2617 2088.15 87.9805 2078.84 87.9805 2073.05 87.9805 2068.04 89 2063.82 91.0391 2059.59 93.0898 2056.15 95.8906 2053.5 99.4414 2050.84 103 2048.87 107.141 2047.59 111.828 2046.3 116.531 2045.66 121.488 2045.66 126.719 2045.66 131.559 2046.3 136.301 2047.59 140.949 2048.87 145.602 2050.84 149.75 2053.5 153.41 2056.15 157.059 2059.59 160.02 2063.82 162.238 2068.04 164.469 2073.05 165.578 2078.84 165.578 2084.72 165.578 2089.75 164.398 2093.94 162.031 2098.11 159.66 2101.51 156.539 2104.11 152.691 2106.72 148.852 2108.6 144.449 2109.75 139.461 2110.88 134.469 2111.35 129.422 2111.16 124.289L2054.63 124.289C2054.63 121.059 2055.08 117.719 2055.99 114.25" id="path71" fill="#231F20" transform="matrix(0.133333 0 0 -0.133333 0 270.773)"/><path d="M2130.81 163.449 2130.81 150.781 2131.1 150.781C2132.8 155.23 2135.84 158.82 2140.21 161.531 2144.57 164.238 2149.37 165.578 2154.59 165.578 2159.72 165.578 2164.02 164.918 2167.47 163.602 2170.94 162.262 2173.72 160.398 2175.8 157.969 2177.89 155.539 2179.37 152.578 2180.23 149.07 2181.08 145.559 2181.5 141.621 2181.5 137.25L2181.5 89.9805 2172.53 89.9805 2172.53 135.828C2172.53 138.949 2172.24 141.871 2171.68 144.59 2171.11 147.281 2170.11 149.641 2168.69 151.629 2167.27 153.629 2165.33 155.191 2162.92 156.328 2160.5 157.48 2157.48 158.031 2153.88 158.031 2150.28 158.031 2147.06 157.398 2144.27 156.121 2141.46 154.828 2139.09 153.07 2137.14 150.852 2135.2 148.621 2133.68 145.961 2132.59 142.879 2131.5 139.789 2130.9 136.441 2130.81 132.828L2130.81 89.9805 2121.84 89.9805 2121.84 163.449 2130.81 163.449" id="path72" fill="#231F20" transform="matrix(0.133333 0 0 -0.133333 0 270.773)"/><path d="M2239.45 149.148C2238.4 151.18 2237 152.871 2235.25 154.199 2233.49 155.52 2231.47 156.5 2229.19 157.121 2226.92 157.73 2224.49 158.031 2221.94 158.031 2219.93 158.031 2217.92 157.828 2215.88 157.398 2213.83 156.969 2211.97 156.262 2210.26 155.27 2208.55 154.262 2207.17 152.961 2206.13 151.352 2205.08 149.73 2204.56 147.738 2204.56 145.371 2204.56 143.379 2205.06 141.691 2206.06 140.309 2207.05 138.93 2208.3 137.77 2209.83 136.828 2211.35 135.879 2213.01 135.09 2214.81 134.469 2216.61 133.852 2218.28 133.359 2219.8 132.988L2231.76 130.27C2234.32 129.891 2236.86 129.211 2239.38 128.211 2241.89 127.211 2244.12 125.91 2246.07 124.289 2248.01 122.672 2249.6 120.691 2250.84 118.309 2252.07 115.941 2252.69 113.141 2252.69 109.91 2252.69 105.922 2251.78 102.539 2249.98 99.7305 2248.18 96.9297 2245.87 94.6602 2243.08 92.8984 2240.28 91.1406 2237.12 89.8906 2233.61 89.1289 2230.09 88.3594 2226.63 87.9805 2223.21 87.9805 2214.58 87.9805 2207.57 90.0313 2202.21 94.1016 2196.84 98.1914 2193.78 104.738 2193.03 113.762L2202 113.762C2202.38 107.68 2204.58 103.09 2208.62 100.02 2212.65 96.9297 2217.66 95.3906 2223.65 95.3906 2225.82 95.3906 2228.08 95.6289 2230.4 96.1016 2232.74 96.5703 2234.9 97.3789 2236.88 98.5195 2238.88 99.6719 2240.51 101.109 2241.8 102.871 2243.08 104.621 2243.71 106.77 2243.71 109.328 2243.71 111.531 2243.26 113.359 2242.37 114.828 2241.47 116.301 2240.26 117.531 2238.73 118.531 2237.21 119.531 2235.48 120.359 2233.54 121.02 2231.59 121.691 2229.62 122.25 2227.63 122.73L2216.1 125.289C2213.16 126.051 2210.44 126.93 2207.97 127.93 2205.5 128.922 2203.34 130.148 2201.5 131.629 2199.65 133.09 2198.2 134.898 2197.15 137.039 2196.11 139.18 2195.59 141.801 2195.59 144.941 2195.59 148.641 2196.42 151.82 2198.08 154.48 2199.75 157.141 2201.9 159.27 2204.56 160.891 2207.22 162.512 2210.18 163.691 2213.46 164.449 2216.74 165.199 2219.98 165.578 2223.21 165.578 2226.92 165.578 2230.35 165.109 2233.54 164.16 2236.72 163.211 2239.52 161.738 2241.94 159.75 2244.36 157.75 2246.28 155.289 2247.71 152.34 2249.13 149.398 2249.93 145.941 2250.13 141.949L2241.15 141.949C2241.07 144.699 2240.49 147.102 2239.45 149.148" id="path73" fill="#231F20" transform="matrix(0.133333 0 0 -0.133333 0 270.773)"/><path d="M2315.4 141.672C2314.31 144.801 2312.78 147.578 2310.78 150 2308.79 152.418 2306.36 154.359 2303.52 155.84 2300.68 157.301 2297.44 158.031 2293.84 158.031 2290.13 158.031 2286.86 157.301 2284.02 155.84 2281.16 154.359 2278.74 152.418 2276.75 150 2274.76 147.578 2273.17 144.781 2271.98 141.602 2270.79 138.422 2270.01 135.16 2269.63 131.84L2317.19 131.84C2317.09 135.262 2316.5 138.531 2315.4 141.672ZM2270.99 114.25C2271.89 110.801 2273.33 107.68 2275.33 104.93 2277.32 102.172 2279.84 99.8906 2282.87 98.0898 2285.91 96.2891 2289.56 95.3906 2293.84 95.3906 2300.39 95.3906 2305.51 97.1016 2309.21 100.512 2312.91 103.93 2315.48 108.48 2316.9 114.191L2325.87 114.191C2323.98 105.828 2320.48 99.3711 2315.4 94.8086 2310.32 90.2617 2303.14 87.9805 2293.84 87.9805 2288.05 87.9805 2283.04 89 2278.81 91.0391 2274.58 93.0898 2271.15 95.8906 2268.5 99.4414 2265.83 103 2263.87 107.141 2262.58 111.828 2261.3 116.531 2260.66 121.488 2260.66 126.719 2260.66 131.559 2261.3 136.301 2262.58 140.949 2263.87 145.602 2265.83 149.75 2268.5 153.41 2271.15 157.059 2274.58 160.02 2278.81 162.238 2283.04 164.469 2288.05 165.578 2293.84 165.578 2299.72 165.578 2304.75 164.398 2308.93 162.031 2313.11 159.66 2316.5 156.539 2319.11 152.691 2321.72 148.852 2323.6 144.449 2324.74 139.461 2325.87 134.469 2326.35 129.422 2326.15 124.289L2269.63 124.289C2269.63 121.059 2270.08 117.719 2270.99 114.25" id="path74" fill="#231F20" transform="matrix(0.133333 0 0 -0.133333 0 270.773)"/><path d="M2344.18 115.391C2345.07 111.648 2346.5 108.301 2348.45 105.352 2350.39 102.41 2352.88 100.02 2355.92 98.1719 2358.97 96.3086 2362.62 95.3906 2366.9 95.3906 2371.63 95.3906 2375.65 96.3086 2378.92 98.1719 2382.2 100.02 2384.85 102.41 2386.9 105.352 2388.94 108.301 2390.41 111.648 2391.31 115.391 2392.21 119.148 2392.66 122.922 2392.66 126.719 2392.66 130.5 2392.21 134.27 2391.31 138.031 2390.41 141.781 2388.94 145.121 2386.9 148.07 2384.85 151.012 2382.2 153.41 2378.92 155.27 2375.65 157.121 2371.63 158.031 2366.9 158.031 2362.62 158.031 2358.97 157.121 2355.92 155.27 2352.88 153.41 2350.39 151.012 2348.45 148.07 2346.5 145.121 2345.07 141.781 2344.18 138.031 2343.27 134.27 2342.82 130.5 2342.82 126.719 2342.82 122.922 2343.27 119.148 2344.18 115.391ZM2393.37 89.9805 2393.37 103.93 2393.09 103.93C2392.14 101.559 2390.74 99.3711 2388.89 97.3789 2387.03 95.3906 2384.92 93.6992 2382.55 92.3203 2380.18 90.9492 2377.64 89.8906 2374.93 89.1289 2372.24 88.3594 2369.54 87.9805 2366.9 87.9805 2361.28 87.9805 2356.43 89 2352.29 91.0391 2348.17 93.0898 2344.72 95.8906 2341.98 99.4414 2339.21 103 2337.18 107.141 2335.85 111.828 2334.51 116.531 2333.85 121.488 2333.85 126.719 2333.85 131.93 2334.51 136.898 2335.85 141.602 2337.18 146.301 2339.21 150.422 2341.98 153.98 2344.72 157.551 2348.17 160.371 2352.29 162.449 2356.43 164.539 2361.28 165.578 2366.9 165.578 2369.64 165.578 2372.33 165.25 2374.93 164.59 2377.54 163.922 2379.99 162.91 2382.27 161.531 2384.55 160.148 2386.56 158.461 2388.32 156.469 2390.08 154.48 2391.43 152.16 2392.38 149.5L2392.66 149.5 2392.66 191.648 2401.63 191.648 2401.63 89.9805 2393.37 89.9805" id="path75" fill="#231F20" transform="matrix(0.133333 0 0 -0.133333 0 270.773)"/><path d="M2500.44 141.801C2507.18 141.801 2512.64 143.512 2516.81 146.93 2521 150.352 2523.09 155.559 2523.09 162.59 2523.09 169.621 2521 174.852 2516.81 178.262 2512.64 181.68 2507.18 183.391 2500.44 183.391L2467.12 183.391 2467.12 141.801ZM2502.58 191.648C2507.14 191.648 2511.26 191 2514.96 189.719 2518.66 188.43 2521.85 186.539 2524.51 184.031 2527.16 181.512 2529.21 178.449 2530.64 174.852 2532.05 171.238 2532.76 167.148 2532.76 162.59 2532.76 158.031 2532.05 153.961 2530.64 150.352 2529.21 146.75 2527.16 143.68 2524.51 141.168 2521.85 138.66 2518.66 136.75 2514.96 135.48 2511.26 134.191 2507.14 133.539 2502.58 133.539L2467.12 133.539 2467.12 89.9805 2457.43 89.9805 2457.43 191.648 2502.58 191.648" id="path76" fill="#231F20" transform="matrix(0.133333 0 0 -0.133333 0 270.773)"/><path d="M2552.99 191.648 2552.99 150.781 2553.27 150.781C2554.98 155.23 2558.02 158.82 2562.39 161.531 2566.75 164.238 2571.56 165.578 2576.77 165.578 2581.9 165.578 2586.19 164.918 2589.66 163.602 2593.12 162.262 2595.9 160.398 2597.99 157.969 2600.08 155.539 2601.56 152.578 2602.4 149.07 2603.25 145.559 2603.68 141.621 2603.68 137.25L2603.68 89.9805 2594.72 89.9805 2594.72 135.828C2594.72 138.949 2594.43 141.871 2593.86 144.59 2593.29 147.281 2592.29 149.641 2590.87 151.629 2589.45 153.629 2587.52 155.191 2585.1 156.328 2582.68 157.48 2579.66 158.031 2576.06 158.031 2572.45 158.031 2569.24 157.398 2566.46 156.121 2563.65 154.828 2561.27 153.07 2559.33 150.852 2557.38 148.621 2555.86 145.961 2554.77 142.879 2553.67 139.789 2553.09 136.441 2552.99 132.828L2552.99 89.9805 2544.03 89.9805 2544.03 191.648 2552.99 191.648" id="path77" fill="#231F20" transform="matrix(0.133333 0 0 -0.133333 0 270.773)"/><path d="M2666.05 130.129C2665.47 129.09 2664.38 128.328 2662.77 127.859 2661.15 127.371 2659.73 127.039 2658.5 126.852 2654.7 126.191 2650.78 125.59 2646.75 125.078 2642.71 124.559 2639.04 123.77 2635.72 122.73 2632.4 121.691 2629.66 120.191 2627.52 118.238 2625.39 116.301 2624.33 113.52 2624.33 109.91 2624.33 107.629 2624.78 105.609 2625.68 103.852 2626.57 102.102 2627.79 100.578 2629.3 99.3008 2630.83 98.0195 2632.58 97.0508 2634.57 96.3789 2636.56 95.7188 2638.61 95.3906 2640.7 95.3906 2644.11 95.3906 2647.39 95.9102 2650.52 96.9492 2653.65 98 2656.38 99.5195 2658.71 101.512 2661.04 103.5 2662.88 105.922 2664.26 108.781 2665.64 111.621 2666.33 114.852 2666.33 118.449L2666.33 130.129ZM2621.19 152.07C2622.71 155.191 2624.78 157.75 2627.39 159.75 2629.99 161.738 2633.06 163.211 2636.56 164.16 2640.08 165.109 2643.98 165.578 2648.24 165.578 2651.48 165.578 2654.7 165.281 2657.93 164.66 2661.15 164.051 2664.05 162.891 2666.61 161.18 2669.18 159.461 2671.26 157.059 2672.88 153.98 2674.48 150.898 2675.31 146.879 2675.31 141.949L2675.31 102.941C2675.31 99.3203 2677.05 97.5313 2680.57 97.5313 2681.61 97.5313 2682.56 97.7109 2683.41 98.0898L2683.41 90.5508C2682.37 90.3594 2681.45 90.2109 2680.64 90.1094 2679.83 90.0313 2678.81 89.9805 2677.58 89.9805 2675.31 89.9805 2673.48 90.2891 2672.1 90.9102 2670.72 91.5195 2669.65 92.3984 2668.89 93.5391 2668.14 94.6719 2667.63 96.0313 2667.4 97.5898 2667.16 99.1602 2667.04 100.898 2667.04 102.789L2666.76 102.789C2665.14 100.422 2663.5 98.3086 2661.84 96.4609 2660.18 94.6094 2658.33 93.0508 2656.29 91.8203 2654.24 90.5898 2651.93 89.6484 2649.32 88.9805 2646.69 88.3203 2643.6 87.9805 2639.98 87.9805 2636.56 87.9805 2633.37 88.3984 2630.37 89.1992 2627.39 90 2624.78 91.2891 2622.54 93.0313 2620.31 94.7891 2618.56 97.0195 2617.28 99.7305 2616 102.43 2615.35 105.641 2615.35 109.328 2615.35 114.469 2616.49 118.48 2618.76 121.371 2621.05 124.27 2624.06 126.48 2627.81 128 2631.56 129.512 2635.78 130.578 2640.48 131.199 2645.18 131.82 2649.94 132.41 2654.8 132.988 2656.69 133.16 2658.35 133.41 2659.78 133.691 2661.2 133.98 2662.39 134.469 2663.34 135.18 2664.28 135.898 2665.02 136.871 2665.55 138.102 2666.07 139.328 2666.33 140.949 2666.33 142.949 2666.33 145.98 2665.82 148.469 2664.84 150.422 2663.84 152.359 2662.45 153.91 2660.71 155.059 2658.94 156.191 2656.91 156.969 2654.58 157.398 2652.26 157.828 2649.76 158.031 2647.11 158.031 2641.41 158.031 2636.76 156.691 2633.15 153.98 2629.54 151.281 2627.65 146.93 2627.45 140.949L2618.48 140.949C2618.76 145.23 2619.67 148.922 2621.19 152.07" id="path78" fill="#231F20" transform="matrix(0.133333 0 0 -0.133333 0 270.773)"/><path d="M2734.25 149.148C2733.21 151.18 2731.8 152.871 2730.04 154.199 2728.28 155.52 2726.27 156.5 2723.99 157.121 2721.71 157.73 2719.29 158.031 2716.73 158.031 2714.74 158.031 2712.72 157.828 2710.68 157.398 2708.64 156.969 2706.77 156.262 2705.05 155.27 2703.34 154.262 2701.97 152.961 2700.92 151.352 2699.89 149.73 2699.36 147.738 2699.36 145.371 2699.36 143.379 2699.87 141.691 2700.85 140.309 2701.85 138.93 2703.1 137.77 2704.63 136.828 2706.15 135.879 2707.81 135.09 2709.6 134.469 2711.41 133.852 2713.08 133.359 2714.59 132.988L2726.56 130.27C2729.11 129.891 2731.65 129.211 2734.17 128.211 2736.68 127.211 2738.93 125.91 2740.86 124.289 2742.81 122.672 2744.41 120.691 2745.64 118.309 2746.88 115.941 2747.48 113.141 2747.48 109.91 2747.48 105.922 2746.58 102.539 2744.79 99.7305 2742.98 96.9297 2740.67 94.6602 2737.88 92.8984 2735.07 91.1406 2731.92 89.8906 2728.4 89.1289 2724.9 88.3594 2721.43 87.9805 2718.01 87.9805 2709.38 87.9805 2702.37 90.0313 2697.01 94.1016 2691.64 98.1914 2688.58 104.738 2687.82 113.762L2696.8 113.762C2697.17 107.68 2699.38 103.09 2703.41 100.02 2707.44 96.9297 2712.45 95.3906 2718.44 95.3906 2720.62 95.3906 2722.87 95.6289 2725.21 96.1016 2727.53 96.5703 2729.69 97.3789 2731.67 98.5195 2733.67 99.6719 2735.31 101.109 2736.59 102.871 2737.88 104.621 2738.51 106.77 2738.51 109.328 2738.51 111.531 2738.06 113.359 2737.17 114.828 2736.26 116.301 2735.05 117.531 2733.54 118.531 2732 119.531 2730.29 120.359 2728.33 121.02 2726.39 121.691 2724.42 122.25 2722.42 122.73L2710.89 125.289C2707.95 126.051 2705.24 126.93 2702.78 127.93 2700.31 128.922 2698.15 130.148 2696.3 131.629 2694.46 133.09 2693 134.898 2691.96 137.039 2690.91 139.18 2690.38 141.801 2690.38 144.941 2690.38 148.641 2691.22 151.82 2692.87 154.48 2694.54 157.141 2696.7 159.27 2699.36 160.891 2702.01 162.512 2704.98 163.691 2708.26 164.449 2711.54 165.199 2714.79 165.578 2718.01 165.578 2721.71 165.578 2725.15 165.109 2728.33 164.16 2731.52 163.211 2734.32 161.738 2736.73 159.75 2739.15 157.75 2741.08 155.289 2742.5 152.34 2743.93 149.398 2744.74 145.941 2744.92 141.949L2735.95 141.949C2735.86 144.699 2735.29 147.102 2734.25 149.148" id="path79" fill="#231F20" transform="matrix(0.133333 0 0 -0.133333 0 270.773)"/><path d="M2810.22 141.672C2809.12 144.801 2807.58 147.578 2805.59 150 2803.6 152.418 2801.17 154.359 2798.33 155.84 2795.48 157.301 2792.25 158.031 2788.65 158.031 2784.94 158.031 2781.67 157.301 2778.82 155.84 2775.97 154.359 2773.55 152.418 2771.56 150 2769.56 147.578 2767.97 144.781 2766.79 141.602 2765.6 138.422 2764.82 135.16 2764.44 131.84L2812 131.84C2811.9 135.262 2811.31 138.531 2810.22 141.672ZM2765.79 114.25C2766.69 110.801 2768.14 107.68 2770.14 104.93 2772.12 102.172 2774.64 99.8906 2777.69 98.0898 2780.72 96.2891 2784.37 95.3906 2788.65 95.3906 2795.2 95.3906 2800.31 97.1016 2804.03 100.512 2807.73 103.93 2810.29 108.48 2811.71 114.191L2820.69 114.191C2818.78 105.828 2815.3 99.3711 2810.22 94.8086 2805.14 90.2617 2797.95 87.9805 2788.65 87.9805 2782.85 87.9805 2777.84 89 2773.62 91.0391 2769.4 93.0898 2765.95 95.8906 2763.3 99.4414 2760.65 103 2758.67 107.141 2757.4 111.828 2756.11 116.531 2755.46 121.488 2755.46 126.719 2755.46 131.559 2756.11 136.301 2757.4 140.949 2758.67 145.602 2760.65 149.75 2763.3 153.41 2765.95 157.059 2769.4 160.02 2773.62 162.238 2777.84 164.469 2782.85 165.578 2788.65 165.578 2794.52 165.578 2799.55 164.398 2803.74 162.031 2807.91 159.66 2811.31 156.539 2813.92 152.691 2816.53 148.852 2818.4 144.449 2819.54 139.461 2820.69 134.469 2821.15 129.422 2820.96 124.289L2764.44 124.289C2764.44 121.059 2764.89 117.719 2765.79 114.25" id="path80" fill="#231F20" transform="matrix(0.133333 0 0 -0.133333 0 270.773)"/><path d="M2874.07 149.148C2873.03 151.18 2871.62 152.871 2869.88 154.199 2868.12 155.52 2866.1 156.5 2863.82 157.121 2861.55 157.73 2859.12 158.031 2856.56 158.031 2854.56 158.031 2852.55 157.828 2850.51 157.398 2848.46 156.969 2846.59 156.262 2844.89 155.27 2843.18 154.262 2841.8 152.961 2840.75 151.352 2839.71 149.73 2839.19 147.738 2839.19 145.371 2839.19 143.379 2839.69 141.691 2840.69 140.309 2841.68 138.93 2842.93 137.77 2844.46 136.828 2845.98 135.879 2847.64 135.09 2849.44 134.469 2851.24 133.852 2852.91 133.359 2854.43 132.988L2866.39 130.27C2868.95 129.891 2871.49 129.211 2874.01 128.211 2876.52 127.211 2878.75 125.91 2880.7 124.289 2882.64 122.672 2884.23 120.691 2885.47 118.309 2886.7 115.941 2887.32 113.141 2887.32 109.91 2887.32 105.922 2886.41 102.539 2884.61 99.7305 2882.81 96.9297 2880.5 94.6602 2877.71 92.8984 2874.9 91.1406 2871.75 89.8906 2868.23 89.1289 2864.72 88.3594 2861.26 87.9805 2857.83 87.9805 2849.2 87.9805 2842.2 90.0313 2836.84 94.1016 2831.47 98.1914 2828.41 104.738 2827.66 113.762L2836.63 113.762C2837 107.68 2839.21 103.09 2843.24 100.02 2847.28 96.9297 2852.29 95.3906 2858.27 95.3906 2860.45 95.3906 2862.71 95.6289 2865.03 96.1016 2867.37 96.5703 2869.52 97.3789 2871.51 98.5195 2873.51 99.6719 2875.14 101.109 2876.43 102.871 2877.71 104.621 2878.34 106.77 2878.34 109.328 2878.34 111.531 2877.89 113.359 2876.99 114.828 2876.1 116.301 2874.88 117.531 2873.36 118.531 2871.84 119.531 2870.11 120.359 2868.17 121.02 2866.22 121.691 2864.25 122.25 2862.26 122.73L2850.73 125.289C2847.79 126.051 2845.07 126.93 2842.6 127.93 2840.13 128.922 2837.97 130.148 2836.13 131.629 2834.28 133.09 2832.82 134.898 2831.78 137.039 2830.73 139.18 2830.22 141.801 2830.22 144.941 2830.22 148.641 2831.05 151.82 2832.71 154.48 2834.37 157.141 2836.53 159.27 2839.19 160.891 2841.85 162.512 2844.81 163.691 2848.09 164.449 2851.36 165.199 2854.61 165.578 2857.83 165.578 2861.55 165.578 2864.98 165.109 2868.17 164.16 2871.35 163.211 2874.14 161.738 2876.56 159.75 2878.99 157.75 2880.91 155.289 2882.34 152.34 2883.76 149.398 2884.56 145.941 2884.76 141.949L2875.78 141.949C2875.7 144.699 2875.12 147.102 2874.07 149.148" id="path81" fill="#231F20" transform="matrix(0.133333 0 0 -0.133333 0 270.773)"/></g></g></svg>