<?xml version="1.0" encoding="UTF-8" standalone="no"?>
<svg
   version="1.0"
   width="372.57999mm"
   height="330.42001mm"
   id="svg10"
   sodipodi:docname="contentdeco3.svg"
   inkscape:version="1.4 (unknown)"
   xmlns:inkscape="http://www.inkscape.org/namespaces/inkscape"
   xmlns:sodipodi="http://sodipodi.sourceforge.net/DTD/sodipodi-0.dtd"
   xmlns="http://www.w3.org/2000/svg"
   xmlns:svg="http://www.w3.org/2000/svg">
  <sodipodi:namedview
     id="namedview12"
     pagecolor="#ffffff"
     bordercolor="#000000"
     borderopacity="0.25"
     inkscape:showpageshadow="2"
     inkscape:pageopacity="0.0"
     inkscape:pagecheckerboard="0"
     inkscape:deskcolor="#d1d1d1"
     inkscape:document-units="mm"
     inkscape:zoom="7.4245402"
     inkscape:cx="500.97379"
     inkscape:cy="1191.5216"
     inkscape:window-width="2560"
     inkscape:window-height="1368"
     inkscape:window-x="0"
     inkscape:window-y="0"
     inkscape:window-maximized="1"
     inkscape:current-layer="svg10" />
  <defs
     id="defs6">
    <clipPath
       clipPathUnits="userSpaceOnUse"
       id="clipEmfPath1">
      <path
         d="  M 0,0   L 0,0   L 0,1250.5638   L 1409.9039,1250.5638   L 1409.9039,0 "
         id="path2" />
    </clipPath>
    <pattern
       id="EMFhbasepattern"
       patternUnits="userSpaceOnUse"
       width="6"
       height="6"
       x="0"
       y="0" />
  </defs>
  <path
     style="fill:#003088;fill-opacity:1;fill-rule:nonzero;stroke:none"
     clip-path="url(#clipEmfPath1)"
     d="m 1253.1034,-0.50002552 v 0 H 0 V 1249.7638 H 742.20203 V 897.14578 H 227.20062 L 1253.1034,118.30604 1409.8039,-0.50002552 Z"
     id="path8"
     transform="rotate(180,704.90195,624.8819)" />
  <path
     fill="#ff9d1b"
     opacity="1"
     stroke="none"
     d="m 1360.4402,-0.31613789 c 2.3086,2.50656799 3.7236,5.59988819 6.0283,7.41400779 8.2158,6.4675471 10.3001,14.6592231 10.2807,25.5031551 -0.3374,188.361905 -0.2431,376.724705 -0.2431,565.087285 0,2.20523 -10e-5,4.41047 -10e-5,7.02708 8.0008,1.78724 14.537,5.8465 18.729,13.71315 3.2999,6.19279 5.0984,12.66677 4.0158,19.69016 -2.1084,13.67753 -15.9661,26.5878 -28.4151,25.56343 -14.784,-1.21647 -24.3033,-9.61525 -27.3003,-24.57899 -2.8324,-14.14193 4.8815,-29.75131 21.5556,-34.47712 0,-2.30358 1e-4,-4.68148 1e-4,-7.05933 0,-189.46735 -0.017,-378.93472 0.077,-568.402023 0,-5.944382 -2.2899,-9.636286 -6.5861,-13.10227 -3.8159,-3.078484 -6.7516,-7.377021 -10.162,-11.0461814 -1.5318,-1.6479624 -3.2742,-3.0743409 -5.0367,-4.96677873 5.4467,-0.36557697 11.0088,-0.36557697 17.057,-0.36557476 z"
     id="path3"
     style="stroke-width:1.0714" />
  <path
     fill="#ff9d1b"
     opacity="1"
     stroke="none"
     d="m 1140.5604,300.52216 c 7.2498,2.77604 13.6921,6.64604 17.928,13.85676 7.1636,12.19516 4.8845,25.9422 -2.8257,35.47718 -1.033,1.27735 -3.175,2.14962 -4.8203,2.17966 -10.5476,0.1924 -21.0997,0.0941 -31.6505,0.0977 -6.3667,0.002 -8.475,-5.95366 -10.0178,-10.1614 -6.3982,-17.45101 1.3226,-35.59173 20.1239,-40.84321 0,-100.07242 0,-200.24371 0,-300.92958467 3.1446,-0.51456983 6.2926,-0.51456983 9.9122,1.098e-5 0.4717,97.76568269 0.4646,195.01679369 0.5086,292.26786369 0,2.68516 0.5512,5.37002 0.845,8.05502 z"
     id="path4"
     style="stroke-width:1.06794" />
  <path
     fill="#ff9d1b"
     opacity="1"
     stroke="none"
     d="m 1210.8744,-0.3161401 c 0.4755,52.2609511 0.5264,104.5220601 0.3787,156.7825501 -0.012,4.24496 0.8191,6.62246 4.8983,7.87112 10.5317,3.22371 15.0196,12.01831 16.955,22.55364 2.2755,12.38649 -2.9353,21.65915 -11.6886,29.16157 -8.2236,7.04833 -24.1405,6.44957 -32.5566,-1.01822 -6.7424,-5.98282 -10.5134,-13.68992 -11.7166,-22.77109 -1.2241,-9.23753 8.3212,-25.29073 17.0317,-27.7225 4.9115,-1.37118 5.8689,-3.74529 5.8524,-8.69505 -0.1716,-51.70821 -0.1062,-103.41732 -0.1056,-155.64410106 3.4925,-0.51791904 6.9839,-0.51791904 10.9513,-0.51791904 z"
     id="path5"
     style="stroke-width:1.0714" />
  <path
     fill="#ff9e1b"
     opacity="1"
     stroke="none"
     d="m 992.74726,-0.3161401 c 0.47335,57.1549171 0.44136,114.3099001 0.54357,171.4646201 0.0104,4.34818 -1.29466,7.50265 -4.1902,10.54204 -19.99754,20.99081 -39.72459,42.27319 -59.89861,63.07018 -3.55938,3.66937 -4.67382,7.03963 -4.64214,12.02901 0.20172,31.68454 0.10283,63.37125 0.10283,95.48371 -3.30707,0 -6.48535,0 -10.12606,0 -0.0769,-1.32122 -0.24618,-2.89667 -0.24691,-4.47217 -0.0156,-32.97399 -0.0644,-65.94832 0.0976,-98.92139 0.0125,-2.40915 1.00081,-5.38536 2.52835,-7.11423 6.50602,-7.36298 13.45682,-14.28226 20.10879,-21.50454 6.44079,-6.99289 12.58855,-14.29099 19.09904,-21.20818 5.69624,-6.05218 11.84193,-11.62985 17.54512,-17.67512 3.04605,-3.22873 5.57647,-7.00294 8.52446,-11.2873 0.33613,-3.11774 0.61804,-5.479 0.61918,-7.84043 0.0251,-54.18873 0.0194,-108.377465 0.0194,-162.5662001 3.14794,0 6.29589,0 9.91551,0 z"
     id="path6"
     style="stroke-width:1.0688" />
  <path
     fill="#ff9d1b"
     opacity="1"
     stroke="none"
     d="m 1065.4536,-0.3161401 c 0.4757,117.3469801 0.4757,234.6939501 0.4757,352.4345801 -3.7027,0 -7.2066,0 -11.4168,0 0,-117.18904 0,-234.29669 0,-351.91946387 3.4824,-0.51511623 6.9737,-0.51511623 10.9411,-0.51511623 z"
     id="path7"
     style="stroke-width:1.06852" />
  <path
     fill="#ff9e1b"
     opacity="1"
     stroke="none"
     d="m 833.80994,-0.31613347 c 1.20471,1.30742339 1.70922,2.83824257 2.67948,3.88609747 6.41514,6.928205 13.01392,13.66819 19.34159,20.682809 1.25363,1.389604 2.25537,3.703172 2.25714,5.591836 0.10387,106.912941 0.0893,213.826031 0.081,320.739091 0,0.35987 -0.0852,0.71973 -0.18292,1.50395 -3.11429,0 -6.29308,0 -10.18216,0 0,-2.06688 0,-4.36851 0,-6.67014 0,-102.70252 -0.0208,-205.40506 0.0831,-308.10747 0,-3.796468 -1.0141,-6.410072 -3.55772,-9.018295 -8.9414,-9.16864 -17.66384,-18.5760385 -26.56172,-28.25034858 5.1241,-0.35753648 10.34066,-0.35753648 16.04219,-0.35752989 z"
     id="path8-9"
     style="stroke-width:1.06852" />
  <path
     fill="#ff9d1c"
     opacity="1"
     stroke="none"
     d="m 707.65735,350.9039 c -3.26514,0.47666 -6.53022,0.95337 -10.46391,1.52766 0,-117.78747 0,-234.75283 -0.005,-352.23251068 3.14348,-0.51428652 6.29146,-0.51428652 9.91043,2.086e-5 0.47061,76.32532482 0.46027,152.13633982 0.47378,227.94735982 0.007,40.91915 0.0553,81.83831 0.0849,122.75747 z"
     id="path9"
     style="stroke-width:1.06766" />
  <path
     fill="#ff9e1b"
     opacity="1"
     stroke="none"
     d="m 924.19176,-0.3161401 c 0.47158,28.1478901 0.50637,56.2958901 0.42805,84.4435331 -0.0104,3.646203 0.60412,5.146333 4.55074,6.672693 20.66419,7.991709 22.89349,34.561884 10.88703,48.424124 -11.77877,13.59947 -38.51885,10.93885 -45.62629,-8.13754 -3.23634,-8.68694 -2.89314,-26.21239 5.06636,-32.244937 3.6028,-2.730616 6.91766,-6.256284 10.91507,-7.92037 3.35725,-1.397505 3.92003,-3.057982 3.91078,-6.310297 -0.08,-27.963579 -0.0457,-55.927528 -0.0467,-84.40928706 3.14743,-0.51791904 6.29537,-0.51791904 9.915,-0.51791904 z"
     id="path10"
     style="stroke-width:1.0714" />
  <path
     fill="#feb624"
     opacity="1"
     stroke="none"
     d="m 1140.6325,301.96072 c -0.3659,-2.1902 -0.9157,-4.89248 -0.9171,-7.59505 -0.044,-97.88197 -0.037,-195.763976 -0.037,-294.16389106 0,-0.51791904 0.5194,-0.51791904 0.7791,-0.51791904 0.2554,100.5882101 0.251,201.1764201 0.175,302.2768601 z"
     id="path12"
     style="stroke-width:1.0714" />
  <path
     fill="#ffaa00"
     opacity="1"
     stroke="none"
     d="m 982.57207,-0.3161401 c 0.25968,54.4522031 0.26539,108.9044101 0.24057,163.3566001 0,2.37291 -0.28306,4.74566 -0.6303,7.52192 -0.26051,-14.83593 -0.37072,-30.07525 -0.38017,-45.31464 -0.026,-41.509336 -0.0104,-83.018692 -0.0104,-125.04596106 10e-4,-0.51791904 0.52061,-0.51791904 0.78029,-0.51791904 z"
     id="path14"
     style="stroke-width:1.0714" />
  <path
     fill="#ff9e1b"
     opacity="1"
     stroke="none"
     d="m 1300.3454,443.63016 c 0,188.8845 -0.014,377.25858 0.089,565.63254 0,4.0845 -1.1207,6.8317 -3.8081,9.674 -25.4889,26.9582 -50.7914,54.117 -76.2882,81.0668 -3.0351,3.208 -4.391,6.3247 -4.3708,10.9948 0.1862,43.0512 0.1096,86.1037 0.1094,129.1558 0,1.8516 3e-4,3.7033 3e-4,5.4153 -1.4653,0.5917 -2.582,1.2098 -3.7692,1.4924 -4.4141,1.0514 -5.7927,-0.145 -5.794,-5.0379 -0.013,-46.2853 -0.045,-92.5705 0.11,-138.8551 0.01,-2.1635 1.2615,-4.8226 2.7342,-6.4054 26.0761,-28.0242 52.3071,-55.8851 78.3742,-83.9188 1.5707,-1.6891 2.914,-4.5307 2.9154,-6.837 0.1316,-214.23922 0.1223,-428.47856 0.1223,-642.71785 0,-0.84471 -3e-4,-1.68943 -3e-4,-2.92767 -7.9291,-1.16726 -13.7787,-6.49808 -17.4078,-13.16647 -2.7169,-4.99233 -3.929,-11.94959 -3.343,-17.74838 1.466,-14.5042 14.4896,-25.31298 28.236,-23.51339 11.3329,1.48354 20.2669,9.5651 22.1993,22.0019 2.8419,18.29125 -8.0329,29.43902 -20.1089,32.59287 0,27.48664 0,55.03884 0,83.10155 z"
     id="path16"
     style="stroke-width:0.988766" />
  <path
     fill="#ff9e1a"
     opacity="1"
     stroke="none"
     d="m 1142.9955,756.49614 c -1.1115,1.40801 -2.1282,2.9161 -3.3481,4.20933 -31.7043,33.60578 -63.4892,67.12636 -95.1347,100.79379 -33.3087,35.43673 -66.46139,71.03779 -99.77337,106.47106 -2.5927,2.75767 -3.59415,5.52618 -3.58986,9.4043 0.0981,86.55988 0.0751,173.11998 0.0751,259.67988 0,2.0551 0,4.1101 0,6.2742 -1.26064,0.5358 -2.3656,1.1665 -3.54566,1.4785 -4.72856,1.2508 -6.20382,0.021 -6.2043,-5.1723 -0.01,-89.6576 0.0429,-179.3154 -0.14184,-268.9726 -0.01,-4.73495 2.74673,-7.00239 5.06501,-9.61194 6.58211,-7.40941 13.53902,-14.44702 20.38685,-21.58977 3.54001,-3.69253 7.23424,-7.22091 10.73406,-10.95461 17.6966,-18.87878 35.27551,-37.8818 53.04241,-56.68584 19.5721,-20.71464 39.3354,-41.22677 58.9559,-61.89011 16.762,-17.65262 33.4937,-35.33866 50.0683,-53.18719 1.5707,-1.69139 2.7258,-4.64727 2.7291,-7.0182 0.135,-96.71306 0.1014,-193.42624 0.1764,-290.13937 0,-3.2532 -0.4432,-5.47385 -3.6925,-6.65591 -14.4536,-5.25858 -19.2826,-19.19688 -16.6068,-32.5067 2.2273,-11.0786 11.8257,-19.14497 22.2012,-20.29442 16.7969,-1.86092 28.9874,9.7566 29.6955,26.8797 0.4978,12.03961 -6.1007,21.74059 -17.3291,26.69132 -1.1757,0.51831 -2.32,1.11658 -3.8144,2.3927 -0.4793,2.41736 -0.7484,4.11975 -0.7488,5.82224 -0.021,96.1815 -0.024,192.36307 0.016,288.54456 8e-4,2.0126 0.511,4.0249 0.7834,6.03738 z"
     id="path18"
     style="stroke-width:1.0037" />
  <path
     fill="#ff9e1b"
     opacity="1"
     stroke="none"
     d="m 1298.6003,155.50482 c 0,16.76044 0.1296,32.97071 -0.1343,49.17371 -0.042,2.54456 -1.2757,5.6793 -2.9582,7.48942 -24.2206,26.06022 -48.648,51.90264 -72.8823,77.94869 -1.5847,1.70326 -2.8422,4.63363 -2.8445,6.99488 -0.1342,134.81996 -0.119,269.64003 -0.1186,404.46012 0,0.73205 0,1.46416 0,2.64185 9.1898,1.42935 15.3336,7.30904 19.9227,15.56264 3.3383,6.00447 3.8809,12.68804 2.6888,18.96547 -2.5685,13.52455 -14.4796,26.72689 -30.6361,24.46709 -13.4037,-1.87487 -22.7858,-11.08512 -25.1814,-28.89725 -1.6651,-12.38093 9.3157,-26.70464 22.8201,-30.33814 0,-2.13496 0,-4.33291 0,-6.53086 0,-134.08336 0.038,-268.1668 -0.1344,-402.2499 -0.01,-5.67335 1.6212,-9.42071 5.3157,-13.30153 23.7748,-24.97278 47.3468,-50.16423 70.884,-75.39103 1.4064,-1.50739 2.7464,-3.936 2.7552,-5.94252 0.1626,-37.93284 0.1199,-75.86669 0.1199,-113.988923 -8.179,-2.742775 -15.5059,-7.227913 -19.1817,-15.46301 -2.3715,-5.31275 -3.974,-11.938725 -3.3545,-17.661668 1.7397,-16.071901 13.9026,-27.566764 30.5992,-26.169984 11.3368,0.948392 22.5695,10.848451 24.0981,23.168066 2.5626,20.65088 -6.1049,30.090166 -21.7777,36.138636 0,22.723693 0,45.547693 0,68.924243 z"
     id="path19"
     style="stroke-width:1.0714" />
  <path
     fill="#ff9e1b"
     opacity="1"
     stroke="none"
     d="m 783.47554,938.47415 c 0,82.90805 0.0249,165.28215 -0.0789,247.65625 0,3.7542 0.62552,5.7671 4.43855,7.3355 12.21265,5.0236 18.74775,15.974 17.3272,29.5113 -1.09055,10.3926 -7.88648,20.9746 -20.57091,24.5283 -9.93837,2.7843 -18.87747,0.4819 -26.02462,-6.8369 -7.76453,-7.9507 -10.20771,-17.8435 -7.34243,-28.9138 2.57619,-9.9531 8.49976,-16.4679 18.2596,-19.319 1.06302,-0.3106 2.05323,-1.9791 2.46914,-3.231 0.42359,-1.2752 0.0976,-2.8137 0.0976,-4.2371 2e-4,-169.73 0.0779,-339.46017 -0.21003,-509.18964 -0.0156,-9.31303 3.70958,-14.25005 11.63501,-18.29575 0,93.83322 0,187.14565 0,280.99184 z"
     id="path20"
     style="stroke-width:1.05304" />
  <path
     fill="#ff9d1b"
     opacity="1"
     stroke="none"
     d="m 1359.8392,795.02235 c -10.5978,-4.99352 -15.6095,-13.53986 -16.2099,-23.36049 -0.7518,-12.29456 11.6082,-25.66279 25.3649,-26.17061 12.5041,-0.46161 20.8519,4.11056 27.557,13.92421 7.3673,10.78248 0.4492,30.02206 -11.1169,34.44566 -2.6142,0.99978 -5.0813,2.33011 -7.9383,3.65808 0,150.299 0,300.86 0,451.3539 -1.3257,0.4757 -2.3763,0.9546 -3.4853,1.2333 -5.503,1.3831 -7.8901,-0.3219 -7.8901,-5.5963 0,-147.2157 0,-294.43135 0,-441.64708 0,-1.91464 0,-3.82928 0,-5.68855 -2.1614,-0.69815 -4.0603,-1.31151 -6.2802,-2.15212 z"
     id="path21"
     style="stroke-width:1.00031" />
  <path
     fill="#ff9e1b"
     opacity="1"
     stroke="none"
     d="m 854.26883,614.81734 c 0,-1.98392 -8.3e-4,-3.47745 0,-4.971 0,-7.31262 1.92267,-9.8369 10.15847,-12.93645 0.0779,1.69494 0.21222,3.26221 0.21222,4.82948 0.0104,205.61024 0,411.22033 0.0779,616.83053 0,3.0555 -0.83524,5.1849 -3.15283,7.3063 -6.63015,6.0688 -12.98088,12.4175 -19.48119,18.6179 -4.48529,4.2783 -10.80954,5.0447 -17.40624,1.7764 4.84469,-4.6647 9.55207,-9.1726 14.23015,-13.7084 5.09752,-4.9424 12.07927,-9.1357 14.70453,-15.0886 2.55006,-5.7829 0.6517,-13.3825 0.65201,-20.1844 0.0104,-193.9938 0,-387.98754 0,-582.47176 z"
     id="path22"
     style="stroke-width:1.01712" />
  <path
     fill="#ff9e1b"
     opacity="1"
     stroke="none"
     d="m 1195.0092,854.58724 c -13.2358,-14.30784 -9.1924,-34.02275 5.3227,-42.32715 14.5488,-8.32376 32.7244,-3.22101 39.9058,11.95945 7.1322,15.07653 -1.2173,31.53773 -17.1584,36.52241 -3.2931,1.02974 -3.4537,2.84019 -3.4505,5.45317 0.047,39.57554 10e-5,79.15121 0.093,118.72663 0.01,3.17475 -0.8255,5.45562 -3.2622,7.77201 -28.1089,26.72014 -56.0536,53.59824 -84.1575,80.32304 -2.3078,2.1946 -3.0737,4.3456 -3.0694,7.3459 0.079,55.1409 0.059,110.2817 0.055,165.4226 -3e-4,4.8056 -2.6315,6.9641 -7.2633,5.5038 -1.3099,-0.413 -2.2351,-2.2772 -3.0537,-3.6325 -0.3748,-0.6208 -0.065,-1.6206 -0.065,-2.4485 -10e-5,-56.6312 -0.038,-113.2625 0.1336,-169.8933 0.01,-2.42 1.3306,-5.4379 3.1134,-7.1613 27.8765,-26.9468 55.9699,-53.6877 83.8476,-80.63337 1.7858,-1.7259 3.1279,-4.73191 3.1402,-7.14956 0.1946,-37.91878 0.091,-75.8389 0.2118,-113.75828 0.01,-3.43112 -0.7939,-5.04118 -4.5246,-6.14731 -3.4593,-1.02561 -6.3899,-3.68379 -9.8181,-5.87774 z"
     id="path23"
     style="stroke-width:1.01612" />
  <path
     fill="#ff9c1b"
     opacity="1"
     stroke="none"
     d="m 1051.9715,782.5124 c -6.9764,7.04828 -13.6544,13.8689 -20.3336,20.68806 -3.8393,3.91955 -7.7502,7.76676 -11.4968,11.77983 -2.4871,2.66403 -4.7406,5.56411 -7.0348,8.28309 7.8746,16.49474 3.8243,30.87661 -6.8584,39.35162 -11.44917,9.08314 -25.76729,7.65741 -36.21796,-2.13511 -10.84247,-10.15974 -10.07714,-28.15665 -4.56206,-36.69062 7.35373,-11.37884 20.26283,-18.9296 39.59392,-9.59084 15.9008,-16.49257 31.8676,-32.94676 47.6352,-49.60481 1.297,-1.37033 1.7377,-4.12426 1.7427,-6.23734 0.099,-41.40779 0.074,-82.81584 0.074,-124.22389 -10e-5,-58.51133 0.048,-117.02283 -0.086,-175.53384 -0.011,-4.91792 0.897,-8.49713 5.4697,-10.76126 1.8825,-0.93206 3.2489,-2.99182 6.033,-5.68142 0,3.75827 0,5.81404 0,7.8698 10e-5,103.34001 -0.074,206.68027 0.1859,310.01956 0.016,6.14322 -2.2186,10.11244 -5.8942,13.98227 -2.632,2.77127 -5.2999,5.50575 -8.2495,8.4849 z"
     id="path24"
     style="stroke-width:1.05942" />
  <path
     fill="#ff9c19"
     opacity="1"
     stroke="none"
     d="m 1064.0079,1202.9018 c 0,13.0736 0,25.5947 -8e-4,38.1156 0,7.0173 -2.3206,8.649 -8.8753,6.2699 -0.6416,-0.2328 -1.3122,-0.3745 -2.5199,-0.7127 0,-1.8711 0,-3.8549 0,-5.8385 0,-92.803 0.022,-185.606 -0.066,-278.40885 0,-4.5638 1.3149,-7.9203 4.3583,-11.122 17.722,-18.6417 35.2697,-37.47089 52.9418,-56.16642 2.077,-2.19741 3.0092,-3.59823 1.5731,-7.24313 -6.2926,-15.97099 -1.7242,-29.58276 10.8476,-38.37685 10.9855,-7.68426 26.513,-5.20099 35.3479,6.08751 13.078,16.71024 5.9841,42.00717 -13.5124,48.20044 -7.8002,2.47787 -15.8348,1.40216 -23.4483,-3.88996 -13.9544,14.91896 -27.9729,29.89341 -41.9757,44.88441 -4.8703,5.2138 -11.5829,9.6434 -14.0225,15.9368 -2.4452,6.3074 -0.6413,14.4938 -0.6422,21.8567 -0.01,73.28485 -0.01,146.56975 -0.01,220.40705 z"
     id="path25"
     style="stroke-width:1.0714" />
  <path
     fill="#ff9d1c"
     opacity="1"
     stroke="none"
     d="m 708.53426,1246.0405 c -0.77422,0.3006 -1.52428,0.6874 -2.32672,0.8875 -5.50634,1.3724 -7.93291,-0.3878 -7.93305,-5.7396 -0.002,-140.0603 -0.002,-280.12063 -0.002,-420.18088 0,-31.83191 -1.9e-4,-63.66376 0.002,-95.49566 2.6e-4,-3.65736 5.36948,-10.72035 8.99193,-11.32019 0.58973,-0.0976 1.57083,1.91024 2.09621,3.67065 -0.42204,2.99494 -0.69808,5.26417 -0.69833,7.53334 -0.02,170.93678 -0.0179,341.87344 -0.0231,512.81034 -6e-5,2.6114 -0.0697,5.223 -0.10696,7.8345 z"
     id="path26"
     style="stroke-width:1.00909" />
  <path
     fill="#ff9e1b"
     opacity="1"
     stroke="none"
     d="m 924.66282,733.47902 c 0,50.25123 0,99.94989 0,149.5809 15.6373,4.08285 24.86051,17.21478 22.73809,33.96765 -1.71181,13.51221 -12.69149,26.74322 -30.60027,25.35927 -11.65163,-0.90047 -23.20676,-12.58942 -24.33398,-25.1536 -1.77798,-19.81899 9.67162,-31.20037 21.81083,-33.87876 0,-2.10056 -1.1e-4,-4.28725 -1.1e-4,-6.47393 -10e-5,-105.31998 0.0405,-210.64002 -0.12049,-315.95971 -0.0104,-5.18906 1.81163,-7.89624 5.8858,-9.84974 1.38908,-0.66608 2.46655,-2.0681 4.62013,-3.94961 0,62.47234 0,124.13867 0,186.35753 z"
     id="path27"
     style="stroke-width:1.0714" />
  <path
     fill="#ff9d1b"
     opacity="1"
     stroke="none"
     d="m 628.62995,797.85238 c 0,101.97947 0.0406,203.40662 -0.12255,304.83332 -0.008,4.9442 1.24552,7.1399 5.63276,8.8987 12.24464,4.9088 19.23648,17.3637 17.16493,31.5314 -2.02482,13.8487 -11.58543,23.3698 -23.9518,24.9074 -17.7967,2.2131 -29.5954,-10.2604 -31.91692,-28.1947 -1.38798,-10.7233 8.19005,-26.2825 18.43334,-28.8226 4.53845,-1.1253 4.39427,-3.3796 4.39066,-6.781 -0.0284,-26.6913 -0.0157,-53.3826 -0.0157,-80.0739 0,-77.86506 -6e-5,-155.73008 1.9e-4,-233.59517 0,-7.2372 2.99614,-11.33752 10.38511,-13.586 0,6.88895 0,13.60954 0,20.88255 z"
     id="path28"
     style="stroke-width:1.0714" />
  <path
     fill="#ff9e1a"
     opacity="1"
     stroke="none"
     d="m 538.65656,877.09712 c 0,-9.18868 0.75843,-17.94254 -0.22511,-26.56395 -0.88592,-7.76572 3.4557,-11.81312 12.2871,-15.02881 0,2.16431 7e-5,3.99138 7e-5,5.81837 2.3e-4,93.85342 0.0276,187.70697 -0.10338,281.56017 -0.005,3.5901 1.30362,5.9975 4.37668,8.4899 32.08066,26.0189 64.05464,52.1262 95.88196,78.3513 1.95534,1.6114 3.35564,4.4028 3.43023,6.6798 0.35378,10.8091 0.15803,21.6303 0.15803,32.4864 -1.59381,0.4995 -2.97497,1.0834 -4.44308,1.366 -6.10586,1.1759 -8.80372,-0.607 -8.80895,-5.7369 -0.008,-8.368 0.16445,-16.74 -0.1302,-25.1012 -0.0659,-1.8707 -1.17473,-4.1707 -2.77511,-5.4838 -22.51675,-18.4762 -45.21702,-36.8029 -67.83877,-55.1938 -9.80334,-7.9697 -19.67043,-15.8938 -29.16174,-24.1059 -1.73949,-1.5051 -2.53895,-4.2964 -2.54218,-6.4952 -0.12474,-83.5165 -0.10547,-167.03323 -0.10547,-251.04238 z"
     id="path30"
     style="stroke-width:1.09013" />
  <path
     fill="#ff9e1b"
     opacity="1"
     stroke="none"
     d="m 803.13135,88.112694 c 1.34411,15.230476 -9.02928,27.151376 -21.78766,30.993686 0,77.4651 0,155.01817 0,232.98693 -3.79258,0 -7.30906,0 -11.19585,0 0,-77.40562 0,-154.91651 0,-232.6542 -8.92092,-3.23268 -17.09443,-7.67353 -19.85593,-17.62223 -1.67836,-6.046337 -2.99445,-13.118849 -1.64989,-19.01042 3.45972,-15.159319 15.60799,-24.040295 30.45138,-22.321646 11.83538,1.370377 23.4543,13.564771 24.03795,27.62788 z"
     id="path31"
     style="stroke-width:1.06792" />
  <path
     fill="#ff9e1b"
     opacity="1"
     stroke="none"
     d="m 986.29688,1049.38 c -1.15318,-1.0984 -2.14329,-2.7801 -3.48501,-3.2043 -12.82289,-4.0564 -17.77322,-14.8588 -19.3822,-27.3251 -1.65644,-12.8336 11.3797,-27.80455 23.74555,-30.40435 13.54108,-2.8467 26.58648,7.9019 30.13088,17.48195 4.5525,12.3051 2.7409,24.1069 -6.7258,34.353 -2.2983,2.4878 -5.5194,4.721 -8.6502,5.4522 -4.15297,0.9701 -4.45098,3.2522 -4.44704,6.8874 0.0696,63.2894 0.0509,126.5789 0.0509,189.8684 0,2.017 0,4.0337 0,7.1966 -3.2621,0 -6.42116,0 -9.96662,-0.7176 -0.39939,-64.4875 -0.40271,-128.2569 -0.46077,-192.0265 0,-2.5209 -0.52747,-5.0412 -0.80917,-7.5617 z"
     id="path32"
     style="stroke-width:1.0714" />
  <path
     fill="#ff9d1b"
     opacity="1"
     stroke="none"
     d="m 988.02628,520.13129 c 0,-6.85129 0,-13.16164 0,-19.40713 3.54972,-2.72946 6.98747,-5.37274 11.42363,-8.78366 0,3.36326 0,5.27635 0,7.18944 0,55.00888 0.0447,110.01786 -0.0987,165.02633 -0.0104,3.79574 1.08279,5.75157 4.36129,7.09773 8.3807,3.44105 14.3491,9.77038 16.7666,18.68395 5.027,18.53563 -7.781,36.55555 -25.73285,37.18007 -16.55605,0.57605 -28.5248,-13.82094 -28.95141,-29.06489 -0.22197,-7.92936 6.44152,-22.37292 15.14121,-25.98038 2.32632,-0.96467 4.60932,-2.04256 7.08979,-3.14761 0,-49.4372 0,-98.84501 0,-148.79385 z"
     id="path33"
     style="stroke-width:1.06029" />
  <path
     fill="#ff9c1b"
     opacity="1"
     stroke="none"
     d="m 468.33744,1166.188 c 1.42696,1.7631 2.60391,3.7444 4.31852,5.2564 22.83824,20.1385 45.75202,40.211 68.64554,60.301 2.70015,2.3695 5.31393,13.5474 3.01141,15.9135 -1.29175,1.3275 -4.44057,1.7459 -6.71427,1.6716 -1.32382,-0.043 -3.83365,-2.0959 -3.65612,-2.8587 1.54774,-6.6517 -3.49626,-10.1606 -7.97236,-14.0652 -21.75276,-18.9746 -43.42319,-38.0218 -65.25434,-56.9265 -2.54823,-2.2068 -3.50447,-4.3944 -3.50146,-7.4855 0.0837,-85.8624 0.0795,-171.7248 0.0314,-257.58716 -0.002,-4.44294 -0.30865,-8.69973 5.82392,-10.57146 1.26348,-0.38563 2.05158,-1.96994 4.2587,-4.23095 0.54657,2.51798 0.8611,3.96678 1.04902,6.19702 -0.14333,84.02606 -0.16246,167.27075 -0.17113,250.51555 -4.6e-4,4.6234 0.0855,9.247 0.13112,13.8704 z"
     id="path34"
     style="stroke-width:1.02301" />
  <path
     fill="#ff9d1b"
     opacity="1"
     stroke="none"
     d="m 267.15368,1163.9832 c 0,-35.0883 0.0467,-69.5412 -0.0485,-103.9934 -0.0148,-5.3685 -0.21081,-10.2362 4.94577,-12.6389 2.08067,-0.9696 3.70792,-3.4094 6.35405,-5.9648 0,47.5508 0,93.594 0,139.4362 17.64619,9.4853 24.55002,22.4213 21.56872,41.5505 -2.46469,15.8149 -12.33956,29.448 -31.95269,27.1172 -12.50848,-1.4864 -22.74484,-16.5196 -23.54154,-32.8458 -0.85047,-17.4283 9.77203,-30.7874 22.67419,-35.5854 0,-5.4138 0,-10.9269 0,-17.0756 z"
     id="path35"
     style="stroke-width:1.15161" />
  <path
     fill="#ff9d1b"
     opacity="1"
     stroke="none"
     d="m 371.10057,975.03021 c -6e-5,91.48259 -6e-5,182.54229 -6e-5,273.99889 -1.86924,0.4411 -3.73765,1.1131 -5.66091,1.287 -3.77619,0.3415 -5.85674,-0.6658 -5.85103,-4.847 0.12032,-87.7729 0.0902,-175.5459 0.0944,-263.31902 1.3e-4,-2.4513 6.67383,-10.05302 9.25142,-10.12896 0.69035,-0.0204 1.44251,1.67714 2.16619,3.00909 z"
     id="path36"
     style="stroke-width:0.988739" />
  <path
     fill="#ff9d1b"
     opacity="1"
     stroke="none"
     d="m 1302.1106,1182.2727 c -2.224,0.9157 -4.1522,1.5253 -6.3917,2.2331 0,19.8315 -0.1172,39.7023 0.091,59.5695 0.046,4.3989 -1.0753,6.3555 -5.3566,6.352 -4.4088,0 -5.241,-2.2835 -5.2019,-6.505 0.1817,-19.6923 0.081,-39.3875 0.081,-59.0006 -17.3504,-7.3195 -24.6092,-19.4183 -21.7781,-36.0163 2.2828,-13.3838 14.2986,-22.7502 24.9636,-23.347 15.4933,-0.8668 27.1249,9.4369 29.7266,24.3047 2.1242,12.1392 -2.8859,25.4604 -16.1333,32.4096 z"
     id="path37"
     style="stroke-width:1.0714" />
  <path
     fill="#ff9d1b"
     opacity="1"
     stroke="none"
     d="m 969.29733,299.06622 c -2.24228,-6.17343 -4.74497,-11.55128 -3.25109,-18.38534 2.66972,-12.21185 10.42979,-22.35635 22.13616,-24.37919 16.5733,-2.86382 28.3698,5.85654 32.3949,20.65381 3.89,14.30088 -1.4853,30.1875 -19.7641,36.3334 -0.436,0.14663 -0.84351,0.38523 -1.49531,0.6884 0,12.59995 0,25.11937 0,37.89155 -3.69784,0 -7.09705,0 -10.99505,0 0,-12.54673 0,-25.2038 0,-38.03519 -8.49507,-2.13785 -14.66995,-6.9565 -19.02551,-14.76744 z"
     id="path38"
     style="stroke-width:1.05888" />
  <path
     fill="#ff9c19"
     opacity="1"
     stroke="none"
     d="m 161.86843,1130.9181 c -0.20026,-0.5935 -0.76559,-1.5213 -0.54515,-1.7292 2.70218,-2.5505 5.51945,-4.9956 8.30699,-7.468 0.32493,0.1885 0.64989,0.3771 0.97482,0.5655 0,1.4173 -2e-5,2.8345 -2e-5,4.2518 5e-5,19.2385 -0.0663,38.4774 0.10704,57.7147 0.0165,1.8433 1.02635,4.1345 2.41776,5.4431 19.5956,18.4311 39.32828,36.7361 59.06819,55.0342 1.10205,1.0215 2.55702,1.714 3.9949,2.6562 -4.59943,3.1182 -10.79946,3.0673 -13.66111,0.409 -19.6041,-18.2121 -39.19809,-36.4337 -58.71952,-54.7222 -1.01548,-0.9512 -1.33876,-2.5416 -1.92952,-4.4644 0.0318,-19.6502 0.009,-38.6705 -0.0144,-57.6907 z"
     id="path39"
     style="stroke-width:0.83215" />
  <path
     fill="#ff9e1b"
     opacity="1"
     stroke="none"
     d="m 78.991191,1242.1705 c -2.18e-4,1.3912 -0.191083,2.4813 0.03698,3.5364 0.570455,2.6402 -1.247814,3.6632 -5.413558,3.6314 -3.976001,-0.03 -5.111436,-1.1175 -5.086839,-3.5271 0.15212,-14.9312 0.07624,-29.8634 0.07676,-44.7953 1.87e-4,-4.2709 3.029052,-6.625 10.386658,-7.7927 0,16.2574 0,32.4438 -10e-7,48.9473 z"
     id="path40"
     style="stroke-width:0.819211" />
</svg>
