<?xml version="1.0" encoding="UTF-8" standalone="no"?>
<svg
   version="1.0"
   width="274.04001mm"
   height="444.95999mm"
   id="svg65"
   sodipodi:docname="image19.emf"
   xmlns:inkscape="http://www.inkscape.org/namespaces/inkscape"
   xmlns:sodipodi="http://sodipodi.sourceforge.net/DTD/sodipodi-0.dtd"
   xmlns="http://www.w3.org/2000/svg"
   xmlns:svg="http://www.w3.org/2000/svg">
  <sodipodi:namedview
     id="namedview67"
     pagecolor="#F3F2F1"
     bordercolor="#000000"
     borderopacity="0.25"
     inkscape:showpageshadow="2"
     inkscape:pageopacity="0.0"
     inkscape:pagecheckerboard="0"
     inkscape:deskcolor="#d1d1d1"
     inkscape:document-units="mm" />
  <defs
     id="defs9">
    <clipPath
       clipPathUnits="userSpaceOnUse"
       id="clipEmfPath1">
      <path
         d="  M 0,0   L 0,0   L 0,1683.4697   L 1037.4705,1683.4697   L 1037.4705,0 "
         id="path2" />
    </clipPath>
    <clipPath
       clipPathUnits="userSpaceOnUse"
       id="clipEmfPath2">
      <path
         d="M 475.63281,791.73242 V 1042.9434 H 842.6582 L 111.60742,1597.8652 0,1682.6699 H 111.60742 1004.5684 V 791.73242 Z"
         id="path5" />
    </clipPath>
    <pattern
       id="EMFhbasepattern"
       patternUnits="userSpaceOnUse"
       width="6"
       height="6"
       x="0"
       y="0" />
  </defs>
  <path
     style="fill:#F3F2F1;fill-rule:nonzero;fill-opacity:1;stroke:none;"
     clip-path="url(#clipEmfPath2)"
     d="  M 713.64847,640.82653   L 713.64847,640.82653   C 713.64847,643.42664 715.5486,645.62673 718.04877,646.02675   L 718.04877,820.63398   L 732.34975,834.93457   L 732.34975,964.63994   L 599.04069,1097.9455   L 598.84068,1098.1455   L 598.84068,1367.3566   C 596.34051,1367.7566 594.44038,1369.8567 594.44038,1372.4568   C 594.44038,1375.3569 596.84054,1377.757 599.64073,1377.757   C 602.54093,1377.757 604.94109,1375.3569 604.94109,1372.4568   C 604.94109,1369.8567 603.04096,1367.7566 600.54079,1367.3566   L 600.54079,1098.8455   L 733.74984,965.63998   L 734.04986,965.33997   L 734.04986,834.13454   L 719.74889,819.93395   L 719.74889,646.02675   C 722.24906,645.62673 724.14919,643.42664 724.14919,640.82653   C 724.14919,637.92641 721.74903,635.62632 718.84883,635.62632   C 715.94863,635.62632 713.64847,637.92641 713.64847,640.82653   z "
     id="path11" />
  <path
     style="fill:#F3F2F1;fill-rule:nonzero;fill-opacity:1;stroke:none;"
     clip-path="url(#clipEmfPath2)"
     d="  M 713.34845,843.0349   L 713.34845,843.0349   C 713.34845,845.63501 715.24858,847.8351 717.74875,848.23512   L 717.74875,945.93916   L 678.54609,985.14079   L 678.34608,985.3408   L 678.34608,1200.5497   C 675.84591,1200.9497 673.94578,1203.1498 673.94578,1205.7499   C 673.94578,1208.65 676.24593,1210.9501 679.14613,1210.9501   C 682.04633,1210.9501 684.44649,1208.65 684.44649,1205.7499   C 684.44649,1203.1498 682.54636,1200.9497 680.04619,1200.5497   L 680.04619,986.04082   L 719.14885,946.8392   L 719.44887,946.63919   L 719.44887,848.23512   C 721.94904,847.8351 723.84917,845.63501 723.84917,843.0349   C 723.84917,840.13478 721.449,837.73468 718.54881,837.73468   C 715.64861,837.73468 713.34845,840.13478 713.34845,843.0349   z "
     id="path13" />
  <path
     style="fill:#F3F2F1;fill-rule:nonzero;fill-opacity:1;stroke:none;"
     clip-path="url(#clipEmfPath2)"
     d="  M 760.85168,875.23624   L 760.85168,875.23624   C 760.85168,877.83634 762.75181,879.93643 765.25198,880.43645   L 765.25198,1013.842   L 699.64752,1079.5447   L 699.3475,1079.7447   L 699.3475,1302.1539   C 696.84733,1302.5539 694.9472,1304.654 694.9472,1307.2541   C 694.9472,1310.1542 697.34737,1312.5543 700.24756,1312.5543   C 703.14776,1312.5543 705.44792,1310.1542 705.44792,1307.2541   C 705.44792,1304.654 703.54779,1302.5539 701.04762,1302.1539   L 701.04762,1080.5447   L 766.75208,1014.842   L 766.9521,1014.542   L 766.9521,880.43645   C 769.45227,879.93643 771.35239,877.83634 771.35239,875.23624   C 771.35239,872.33612 769.05224,869.93602 766.15204,869.93602   C 763.25184,869.93602 760.85168,872.33612 760.85168,875.23624   z "
     id="path15" />
  <path
     style="fill:#F3F2F1;fill-rule:nonzero;fill-opacity:1;stroke:none;"
     clip-path="url(#clipEmfPath2)"
     d="  M 728.04945,580.82405   L 728.04945,580.82405   C 728.04945,583.42416 729.94958,585.62425 732.44975,586.02426   L 732.44975,676.02799   L 765.25198,708.92935   L 765.25198,850.33521   L 781.85311,866.83589   L 781.85311,954.23951   L 726.14932,1009.9418   L 725.8493,1010.2418   L 725.8493,1248.8517   C 723.34913,1249.2517 721.449,1251.4518 721.449,1254.0519   C 721.449,1256.952 723.84917,1259.3521 726.74936,1259.3521   C 729.64956,1259.3521 731.94972,1256.952 731.94972,1254.0519   C 731.94972,1251.4518 730.04959,1249.2517 727.54942,1248.8517   L 727.54942,1010.9419   L 783.2532,955.23955   L 783.55322,955.03954   L 783.55322,866.13586   L 766.9521,849.63518   L 766.9521,708.12932   L 734.14987,675.32796   L 734.14987,586.02426   C 736.65004,585.62425 738.55017,583.42416 738.55017,580.82405   C 738.55017,577.92393 736.15,575.62383 733.24981,575.62383   C 730.34961,575.62383 728.04945,577.92393 728.04945,580.82405   z "
     id="path17" />
  <path
     style="fill:#F3F2F1;fill-rule:nonzero;fill-opacity:1;stroke:none;"
     clip-path="url(#clipEmfPath2)"
     d="  M 845.35742,676.42801   L 845.35742,676.42801   C 845.35742,679.02811 847.25755,681.2282 849.75772,681.62822   L 849.75772,740.53066   L 807.75487,782.5324   L 807.75487,853.13532   L 794.75398,866.13586   L 794.75398,1090.3451   L 763.65187,1121.3464   L 763.65187,1408.3583   C 761.1517,1408.7583 759.25157,1410.9584 759.25157,1413.5585   C 759.25157,1416.4586 761.65174,1418.7587 764.55193,1418.7587   C 767.45213,1418.7587 769.75229,1416.4586 769.75229,1413.5585   C 769.75229,1410.9584 767.85216,1408.7583 765.35199,1408.3583   L 765.35199,1122.1465   L 796.4541,1091.0452   L 796.4541,866.83589   L 809.45498,853.83535   L 809.45498,783.23243   L 851.25782,741.5307   L 851.45784,741.23069   L 851.45784,681.62822   C 853.95801,681.1282 855.85813,679.02811 855.85813,676.42801   C 855.85813,673.52789 853.45797,671.22779 850.55777,671.22779   C 847.65758,671.22779 845.35742,673.52789 845.35742,676.42801   z "
     id="path19" />
  <path
     style="fill:#F3F2F1;fill-rule:nonzero;fill-opacity:1;stroke:none;"
     clip-path="url(#clipEmfPath2)"
     d="  M 803.25456,877.23632   L 803.25456,877.23632   C 803.25456,879.83643 805.15469,882.03652 807.65486,882.43653   L 807.65486,1001.7415   L 912.16196,1106.2458   L 912.16196,1338.8554   C 909.66179,1339.2554 907.76166,1341.4555 907.76166,1344.0556   C 907.76166,1346.9558 910.16182,1349.2559 913.06202,1349.2559   C 915.96222,1349.2559 918.26237,1346.9558 918.26237,1344.0556   C 918.26237,1341.4555 916.36224,1339.2554 913.86207,1338.8554   L 913.86207,1105.5458   L 809.35498,1001.0414   L 809.35498,882.43653   C 811.85515,882.03652 813.75527,879.83643 813.75527,877.23632   C 813.75527,874.3362 811.45512,872.0361 808.55492,872.0361   C 805.65472,872.0361 803.25456,874.3362 803.25456,877.23632   z "
     id="path21" />
  <path
     style="fill:#F3F2F1;fill-rule:nonzero;fill-opacity:1;stroke:none;"
     clip-path="url(#clipEmfPath2)"
     d="  M 816.45546,794.43289   L 816.45546,794.43289   C 816.45546,797.033 818.35559,799.23309 820.85576,799.63311   L 820.85576,908.63762   L 888.16033,975.94041   L 888.16033,1245.9516   C 885.76017,1246.4516 883.86004,1248.5517 883.86004,1251.0518   C 883.86004,1253.9519 886.2602,1256.352 889.1604,1256.352   C 892.06059,1256.352 894.36075,1253.9519 894.36075,1251.0518   C 894.36075,1248.4517 892.46062,1246.2516 889.86044,1245.9516   L 889.86044,975.24038   L 822.55587,907.93759   L 822.55587,799.63311   C 825.05604,799.23309 826.95617,797.033 826.95617,794.43289   C 826.95617,791.53277 824.65602,789.23268 821.75582,789.23268   C 818.85562,789.23268 816.45546,791.53277 816.45546,794.43289   z "
     id="path23" />
  <path
     style="fill:#F3F2F1;fill-rule:nonzero;fill-opacity:1;stroke:none;"
     clip-path="url(#clipEmfPath2)"
     d="  M 844.75738,768.53182   L 844.75738,768.53182   C 844.75738,769.73187 845.15741,770.73191 845.75745,771.63195   L 833.95665,783.43244   L 833.95665,976.64044   L 988.76716,1131.3468   L 988.76716,1383.5573   C 986.26699,1384.0573 984.46687,1386.1574 984.46687,1388.7575   C 984.46687,1391.6576 986.76703,1394.0577 989.66722,1394.0577   C 992.56742,1394.0577 994.96758,1391.6576 994.96758,1388.7575   C 994.96758,1386.1574 992.96745,1383.9573 990.46728,1383.5573   L 990.46728,1130.6468   L 835.65676,975.8404   L 835.65676,784.13246   L 846.95753,772.832   C 847.85759,773.43202 848.85766,773.83204 850.05774,773.83204   C 852.95794,773.83204 855.25809,771.43194 855.25809,768.53182   C 855.25809,765.6317 852.95794,763.3316 850.05774,763.3316   C 847.15754,763.3316 844.75738,765.6317 844.75738,768.53182   z "
     id="path25" />
  <path
     style="fill:#F3F2F1;fill-rule:nonzero;fill-opacity:1;stroke:none;"
     clip-path="url(#clipEmfPath2)"
     d="  M 874.4594,819.63393   L 874.4594,819.63393   C 874.4594,822.23404 876.45953,824.43413 878.8597,824.83415   L 878.8597,938.93887   L 907.76166,967.74007   L 907.76166,1019.7422   C 905.3615,1020.1422 903.46137,1022.3423 903.46137,1024.8424   C 903.46137,1027.7426 905.76152,1030.1427 908.66172,1030.1427   C 911.56192,1030.1427 913.96208,1027.7426 913.96208,1024.8424   C 913.96208,1022.2423 911.96195,1020.0422 909.46178,1019.7422   L 909.46178,967.04004   L 880.65982,938.13884   L 880.65982,824.83415   C 883.05998,824.43413 884.96011,822.23404 884.96011,819.63393   C 884.96011,816.73381 882.65995,814.43372 879.75976,814.43372   C 876.85956,814.43372 874.4594,816.73381 874.4594,819.63393   z "
     id="path27" />
  <path
     style="fill:#F3F2F1;fill-rule:nonzero;fill-opacity:1;stroke:none;"
     clip-path="url(#clipEmfPath2)"
     d="  M 777.45281,586.32428   L 777.45281,586.32428   C 777.45281,589.2244 779.75296,591.62449 782.65316,591.62449   C 783.75324,591.62449 784.85331,591.22448 785.65337,590.62445   L 794.75398,599.62483   L 794.75398,831.03441   L 785.75337,840.03478   C 784.85331,839.43475 783.85324,839.03474 782.65316,839.03474   C 779.75296,839.03474 777.45281,841.33483 777.45281,844.23495   C 777.45281,847.13507 779.75296,849.53517 782.65316,849.53517   C 785.55336,849.53517 787.95352,847.13507 787.95352,844.23495   C 787.95352,843.13491 787.55349,842.03486 786.95345,841.23483   L 796.4541,831.73444   L 796.4541,598.9248   L 786.95345,589.4244   C 787.55349,588.52437 787.95352,587.52432 787.95352,586.32428   C 787.95352,583.42416 785.55336,581.12406 782.65316,581.12406   C 779.75296,581.12406 777.45281,583.42416 777.45281,586.32428   z "
     id="path29" />
  <path
     style="fill:#F3F2F1;fill-rule:nonzero;fill-opacity:1;stroke:none;"
     clip-path="url(#clipEmfPath2)"
     d="  M 785.55336,822.63406   L 785.55336,822.63406   C 785.55336,820.03395 783.65323,817.83386 781.15306,817.43384   L 781.15306,615.52548   C 783.65323,615.12547 785.55336,613.02538 785.55336,610.42527   C 785.55336,607.52515 783.1532,605.12505 780.253,605.12505   C 777.3528,605.12505 775.05265,607.52515 775.05265,610.42527   C 775.05265,613.02538 776.95277,615.12547 779.45294,615.52548   L 779.45294,817.43384   C 776.95277,817.83386 775.05265,820.03395 775.05265,822.63406   C 775.05265,825.53418 777.3528,827.83427 780.253,827.83427   C 783.1532,827.83427 785.55336,825.53418 785.55336,822.63406   z "
     id="path31" />
  <path
     style="fill:#F3F2F1;fill-rule:nonzero;fill-opacity:1;stroke:none;"
     clip-path="url(#clipEmfPath2)"
     d="  M 694.44717,768.53182   L 694.44717,768.53182   C 694.44717,771.13193 696.3473,773.33202 698.84747,773.73203   L 698.84747,937.1388   L 603.14097,1032.8428   C 602.34091,1032.2427 601.24084,1031.8427 600.14076,1031.8427   C 597.24057,1031.8427 594.8404,1034.2428 594.8404,1037.0429   C 594.8404,1039.9431 597.24057,1042.3432 600.14076,1042.3432   C 603.04096,1042.3432 605.34112,1039.9431 605.34112,1037.0429   C 605.34112,1035.9429 605.0411,1034.9428 604.34105,1034.0428   L 700.34757,938.13884   L 700.54758,937.83883   L 700.54758,773.73203   C 703.04775,773.33202 704.94788,771.13193 704.94788,768.53182   C 704.94788,765.6317 702.64773,763.2316 699.74753,763.2316   C 696.84733,763.2316 694.44717,765.6317 694.44717,768.53182   z "
     id="path33" />
  <path
     style="fill:#F3F2F1;fill-rule:nonzero;fill-opacity:1;stroke:none;"
     clip-path="url(#clipEmfPath2)"
     d="  M 649.2441,929.33848   L 649.2441,929.33848   C 649.2441,926.43836 646.94394,924.03826 644.04375,924.03826   C 641.14355,924.03826 638.74339,926.43836 638.74339,929.33848   C 638.74339,931.93858 640.64352,934.13868 643.14369,934.53869   L 643.14369,1153.5478   L 567.13852,1229.5509   C 566.33847,1228.9509 565.23839,1228.5509 564.13832,1228.5509   C 561.23812,1228.5509 558.83796,1230.851 558.83796,1233.7511   C 558.83796,1236.6512 561.23812,1239.0513 564.13832,1239.0513   C 567.03852,1239.0513 569.33867,1236.6512 569.33867,1233.7511   C 569.33867,1232.651 569.03865,1231.651 568.3386,1230.751   L 644.64379,1154.4478   L 644.8438,1154.2478   L 644.8438,934.53869   C 647.34397,934.13868 649.2441,931.93858 649.2441,929.33848   z "
     id="path35" />
  <path
     style="fill:#F3F2F1;fill-rule:nonzero;fill-opacity:1;stroke:none;"
     clip-path="url(#clipEmfPath2)"
     d="  M 638.74339,716.32966   L 638.74339,716.32966   C 638.74339,718.92977 640.64352,721.02985 643.14369,721.42987   L 643.14369,901.73733   C 640.64352,902.13735 638.74339,904.23744 638.74339,906.83755   C 638.74339,909.73767 641.14355,912.13776 644.04375,912.13776   C 646.94394,912.13776 649.2441,909.73767 649.2441,906.83755   C 649.2441,904.23744 647.34397,902.13735 644.8438,901.73733   L 644.8438,721.42987   C 647.34397,721.02985 649.2441,718.92977 649.2441,716.32966   C 649.2441,713.42954 646.94394,711.02944 644.04375,711.02944   C 641.14355,711.02944 638.74339,713.42954 638.74339,716.32966   z "
     id="path37" />
  <path
     style="fill:#F3F2F1;fill-rule:nonzero;fill-opacity:1;stroke:none;"
     clip-path="url(#clipEmfPath2)"
     d="  M 657.84468,789.23268   L 657.84468,789.23268   C 657.84468,791.83278 659.74481,794.03287 662.24498,794.43289   L 662.24498,822.23404   L 681.24627,841.23483   L 681.24627,924.13826   C 678.6461,924.53828 676.74597,926.73837 676.74597,929.33848   C 676.74597,932.2386 679.14613,934.53869 682.04633,934.53869   C 684.84652,934.53869 687.24668,932.2386 687.24668,929.33848   C 687.24668,926.73837 685.34655,924.63828 682.94639,924.13826   L 682.94639,840.5348   L 663.9451,821.53401   L 663.9451,794.43289   C 666.44527,794.03287 668.3454,791.83278 668.3454,789.23268   C 668.3454,786.33256 665.94523,784.03246 663.04504,784.03246   C 660.14484,784.03246 657.84468,786.33256 657.84468,789.23268   z "
     id="path39" />
  <path
     style="fill:#F3F2F1;fill-rule:nonzero;fill-opacity:1;stroke:none;"
     clip-path="url(#clipEmfPath2)"
     d="  M 663.9451,848.23512   L 663.9451,848.23512   C 666.44527,847.8351 668.3454,845.63501 668.3454,843.0349   C 668.3454,840.13478 665.94523,837.73468 663.04504,837.73468   C 660.14484,837.73468 657.84468,840.13478 657.84468,843.0349   C 657.84468,845.63501 659.74481,847.8351 662.24498,848.23512   L 662.24498,1110.546   C 659.74481,1110.946 657.84468,1113.0461 657.84468,1115.6462   C 657.84468,1118.5463 660.14484,1120.9464 663.04504,1120.9464   C 665.94523,1120.9464 668.3454,1118.5463 668.3454,1115.6462   C 668.3454,1113.0461 666.44527,1110.946 663.9451,1110.546   L 663.9451,848.23512   z "
     id="path41" />
  <path
     style="fill:#F3F2F1;fill-rule:nonzero;fill-opacity:1;stroke:none;"
     clip-path="url(#clipEmfPath2)"
     d="  M 943.76411,940.63894   L 943.76411,940.63894   C 943.76411,943.23905 945.66423,945.43914 948.1644,945.83916   L 948.1644,1163.1482   L 1027.6698,1242.6514   C 1027.0698,1243.5515 1026.6697,1244.5515 1026.6697,1245.7516   C 1026.6697,1248.6517 1029.0699,1250.9518 1031.9701,1250.9518   C 1034.8703,1250.9518 1037.1705,1248.6517 1037.1705,1245.7516   C 1037.1705,1242.8515 1034.8703,1240.4514 1031.9701,1240.4514   C 1030.77,1240.4514 1029.7699,1240.8514 1028.8699,1241.4514   L 949.86452,1162.4481   L 949.86452,945.83916   C 952.36469,945.43914 954.26482,943.23905 954.26482,940.63894   C 954.26482,937.73882 951.96466,935.43873 949.06447,935.43873   C 946.16427,935.43873 943.76411,937.73882 943.76411,940.63894   z "
     id="path43" />
  <path
     style="fill:#F3F2F1;fill-rule:nonzero;fill-opacity:1;stroke:none;"
     clip-path="url(#clipEmfPath2)"
     d="  M 943.76411,721.02985   L 943.76411,721.02985   C 943.76411,723.62996 945.66423,725.83005 948.1644,726.23007   L 948.1644,910.43769   C 945.66423,910.83771 943.76411,913.0378 943.76411,915.63791   C 943.76411,918.53803 946.16427,920.83812 949.06447,920.83812   C 951.96466,920.83812 954.26482,918.53803 954.26482,915.63791   C 954.26482,913.0378 952.36469,910.83771 949.86452,910.43769   L 949.86452,726.23007   C 952.36469,725.83005 954.26482,723.62996 954.26482,721.02985   C 954.26482,718.12973 951.96466,715.82964 949.06447,715.82964   C 946.16427,715.82964 943.76411,718.12973 943.76411,721.02985   z "
     id="path45" />
  <path
     style="fill:#F3F2F1;fill-rule:nonzero;fill-opacity:1;stroke:none;"
     clip-path="url(#clipEmfPath2)"
     d="  M 935.66356,1124.3466   L 935.66356,1124.3466   C 935.66356,1121.7464 933.76343,1119.5464 931.26326,1119.1463   L 931.26326,870.33603   C 933.76343,869.93602 935.66356,867.73593 935.66356,865.13582   C 935.66356,862.2357 933.26339,859.9356 930.3632,859.9356   C 927.463,859.9356 925.16284,862.2357 925.16284,865.13582   C 925.16284,867.73593 927.06297,869.93602 929.56314,870.33603   L 929.56314,1119.1463   C 927.06297,1119.5464 925.16284,1121.7464 925.16284,1124.3466   C 925.16284,1127.2467 927.463,1129.5468 930.3632,1129.5468   C 933.26339,1129.5468 935.66356,1127.2467 935.66356,1124.3466   z "
     id="path47" />
  <path
     style="fill:#F3F2F1;fill-rule:nonzero;fill-opacity:1;stroke:none;"
     clip-path="url(#clipEmfPath2)"
     d="  M 919.36245,917.838   L 919.36245,917.838   C 919.36245,915.13789 917.46232,913.0378 915.06216,912.63779   L 915.06216,857.63551   L 931.26326,841.43484   L 931.26326,778.93225   C 933.76343,778.53223 935.66356,776.33214 935.66356,773.73203   C 935.66356,770.83191 933.26339,768.53182 930.3632,768.53182   C 927.463,768.53182 925.16284,770.83191 925.16284,773.73203   C 925.16284,776.33214 927.06297,778.53223 929.56314,778.93225   L 929.56314,840.73481   L 913.26203,856.93548   L 913.26203,912.63779   C 910.76186,913.0378 908.86173,915.13789 908.86173,917.838   C 908.86173,920.63812 911.2619,923.03822 914.16209,923.03822   C 917.06229,923.03822 919.36245,920.63812 919.36245,917.838   z "
     id="path49" />
  <path
     style="fill:#F3F2F1;fill-rule:nonzero;fill-opacity:1;stroke:none;"
     clip-path="url(#clipEmfPath2)"
     d="  M 745.35063,717.82972   L 745.35063,717.82972   C 745.35063,720.42983 747.25076,722.62992 749.75093,723.02994   L 749.75093,799.73311   C 747.25076,800.13313 745.35063,802.33322 745.35063,804.93333   C 745.35063,807.83345 747.75079,810.23355 750.65099,810.23355   C 753.55119,810.23355 755.85134,807.83345 755.85134,804.93333   C 755.85134,802.33322 753.95121,800.13313 751.45104,799.73311   L 751.45104,723.02994   C 753.95121,722.62992 755.85134,720.42983 755.85134,717.82972   C 755.85134,714.9296 753.55119,712.6295 750.65099,712.6295   C 747.75079,712.6295 745.35063,714.9296 745.35063,717.82972   z "
     id="path51" />
  <path
     style="fill:#F3F2F1;fill-rule:nonzero;fill-opacity:1;stroke:none;"
     clip-path="url(#clipEmfPath2)"
     d="  M 727.74943,699.62897   L 727.74943,699.62897   C 727.74943,702.22907 729.64956,704.32916 732.14973,704.82918   L 732.14973,812.53364   L 749.55091,830.03437   L 749.55091,1135.047   L 817.0555,1202.5498   L 817.0555,1338.8554   C 814.55533,1339.2554 812.6552,1341.4555 812.6552,1344.0556   C 812.6552,1346.9558 815.05536,1349.2559 817.95556,1349.2559   C 820.85576,1349.2559 823.15591,1346.9558 823.15591,1344.0556   C 823.15591,1341.4555 821.25578,1339.2554 818.75561,1338.8554   L 818.75561,1201.8498   L 751.25103,1134.347   L 751.25103,829.23433   L 733.84985,811.83361   L 733.84985,704.82918   C 736.35002,704.32916 738.25015,702.22907 738.25015,699.62897   C 738.25015,696.72885 735.94999,694.32875 733.04979,694.32875   C 730.1496,694.32875 727.74943,696.72885 727.74943,699.62897   z "
     id="path53" />
  <path
     style="fill:#F3F2F1;fill-rule:nonzero;fill-opacity:1;stroke:none;"
     clip-path="url(#clipEmfPath2)"
     d="  M 891.66057,736.23048   L 891.66057,736.23048   C 891.66057,738.83059 893.5607,740.93068 896.06087,741.33069   L 896.06087,926.73837   L 985.66695,1016.3421   C 984.9669,1017.2421 984.66688,1018.2422 984.66688,1019.4422   C 984.66688,1022.3423 986.96704,1024.6424 989.86724,1024.6424   C 992.76743,1024.6424 995.1676,1022.3423 995.1676,1019.4422   C 995.1676,1016.5421 992.76743,1014.142 989.86724,1014.142   C 988.76716,1014.142 987.66709,1014.542 986.86703,1015.142   L 897.76098,926.03834   L 897.76098,741.33069   C 900.26115,740.93068 902.16128,738.83059 902.16128,736.23048   C 902.16128,733.33036 899.76112,730.93026 896.86092,730.93026   C 893.96072,730.93026 891.66057,733.33036 891.66057,736.23048   z "
     id="path55" />
  <path
     style="fill:#F3F2F1;fill-rule:nonzero;fill-opacity:1;stroke:none;"
     clip-path="url(#clipEmfPath2)"
     d="  M 849.35769,1024.4424   L 849.35769,1024.4424   L 849.35769,801.13317   L 867.0589,783.43244   L 867.0589,757.33136   C 869.45906,756.93134 871.45919,754.73125 871.45919,752.13114   C 871.45919,749.23102 869.05903,746.83092 866.15883,746.83092   C 863.25864,746.83092 860.95848,749.23102 860.95848,752.13114   C 860.95848,754.73125 862.85861,756.93134 865.25877,757.33136   L 865.25877,782.73241   L 847.65758,800.43314   L 847.65758,1023.7424   L 825.05604,1046.2433   L 825.05604,1132.1469   C 822.65588,1132.5469 820.75575,1134.747 820.75575,1137.3471   C 820.75575,1140.2472 823.05591,1142.5473 825.9561,1142.5473   C 828.8563,1142.5473 831.25646,1140.2472 831.25646,1137.3471   C 831.25646,1134.747 829.25633,1132.5469 826.85616,1132.1469   L 826.85616,1046.9433   L 849.35769,1024.4424   z "
     id="path57" />
  <path
     style="fill:#F3F2F1;fill-rule:nonzero;fill-opacity:1;stroke:none;"
     clip-path="url(#clipEmfPath2)"
     d="  M 876.25952,655.42714   L 876.25952,655.42714   C 876.25952,658.02724 878.15965,660.22733 880.65982,660.62735   L 880.65982,790.03271   L 862.7586,808.03345   L 862.7586,1119.5464   L 937.36367,1194.1494   L 937.36367,1288.9534   C 934.96351,1289.4534 933.06338,1291.5535 933.06338,1294.1536   C 933.06338,1297.0537 935.46354,1299.3538 938.36374,1299.3538   C 941.26394,1299.3538 943.56409,1297.0537 943.56409,1294.1536   C 943.56409,1291.4535 941.66396,1289.3534 939.06379,1288.9534   L 939.06379,1193.4494   L 864.45872,1118.8463   L 864.45872,808.73348   L 882.35993,790.83274   L 882.35993,660.62735   C 884.8601,660.22733 886.76023,658.02724 886.76023,655.42714   C 886.76023,652.52702 884.46008,650.22692 881.55988,650.22692   C 878.65968,650.22692 876.25952,652.52702 876.25952,655.42714   z "
     id="path59" />
  <path
     style="fill:#F3F2F1;fill-rule:nonzero;fill-opacity:1;stroke:none;"
     clip-path="url(#clipEmfPath2)"
     d="  M 914.96215,595.32465   L 914.96215,595.32465   L 893.26068,573.62375   L 893.26068,538.5223   C 895.76084,538.12228 897.66097,536.02219 897.66097,533.42208   C 897.66097,530.52196 895.26081,528.12187 892.36061,528.12187   C 889.46042,528.12187 887.16026,530.52196 887.16026,533.42208   C 887.16026,536.02219 889.06039,538.12228 891.56056,538.5223   L 891.56056,574.32378   L 913.26203,596.02468   L 913.26203,823.23408   C 910.76186,823.6341 908.86173,825.73419 908.86173,828.33429   C 908.86173,831.23441 911.2619,833.63451 914.16209,833.63451   C 917.06229,833.63451 919.36245,831.23441 919.36245,828.33429   C 919.36245,825.73419 917.46232,823.6341 914.96215,823.23408   L 914.96215,595.32465   z "
     id="path61" />
  <path
     style="fill:#F3F2F1;fill-rule:nonzero;fill-opacity:1;stroke:none;"
     clip-path="url(#clipEmfPath2)"
     d="  M 687.24668,817.93386   L 687.24668,817.93386   C 687.24668,815.33376 685.34655,813.13367 682.84638,812.73365   L 682.84638,630.3261   L 705.84794,607.32514   L 705.84794,556.12302   C 708.24811,555.72301 710.14824,553.52292 710.14824,550.92281   C 710.14824,548.02269 707.84808,545.72259 704.94788,545.72259   C 702.04769,545.72259 699.64752,548.02269 699.64752,550.92281   C 699.64752,553.52292 701.64766,555.72301 704.04782,556.12302   L 704.04782,606.62512   L 681.14627,629.62607   L 681.14627,812.73365   C 678.6461,813.13367 676.74597,815.33376 676.74597,817.93386   C 676.74597,820.83398 679.14613,823.13408 682.04633,823.13408   C 684.84652,823.13408 687.24668,820.83398 687.24668,817.93386   z "
     id="path63" />
</svg>
