<?xml version="1.0" encoding="utf-8"?>
<!-- Generator: Adobe Illustrator 28.2.0, SVG Export Plug-In . SVG Version: 6.00 Build 0)  -->
<svg version="1.1" id="Janus" xmlns="http://www.w3.org/2000/svg" xmlns:xlink="http://www.w3.org/1999/xlink" x="0px" y="0px"
	 viewBox="0 0 913 981.2" style="enable-background:new 0 0 913 981.2;" xml:space="preserve">
<style type="text/css">
	.st0{fill:url(#SVGID_1_);}
	.st1{fill:url(#SVGID_00000058576910408070806550000011480967786214242214_);}
	.st2{fill:none;stroke:#A7BBFB;stroke-width:9;stroke-miterlimit:10;}
	.st3{fill:url(#SVGID_00000021827521374021966900000012477277791191500167_);}
	.st4{fill:url(#SVGID_00000080902008107312054060000009477154226934866326_);}
	.st5{fill:url(#SVGID_00000017512673091458390290000004674449806050249857_);}
	.st6{fill:url(#SVGID_00000054952531774123331740000005249953365681152128_);}
	.st7{fill:url(#SVGID_00000052067414142945234950000008615404357581556894_);}
	.st8{fill:url(#SVGID_00000145759062584483791650000010739095254376845745_);}
	.st9{fill:url(#SVGID_00000106869241709792477610000003242480345787983748_);}
	.st10{fill:url(#SVGID_00000033354548658226219500000015881447826324146111_);}
	.st11{fill:url(#SVGID_00000173853098240389140540000016673713003468394371_);}
	.st12{fill:url(#SVGID_00000074433953474382240560000006435497533276828289_);}
	.st13{fill:url(#SVGID_00000031902952602095801580000017683490673676011438_);}
	.st14{fill:url(#SVGID_00000038408031412694913380000008493214719822405542_);}
	.st15{fill:url(#SVGID_00000057150189738964107850000007447208797139686311_);}
	.st16{fill:url(#SVGID_00000116215723286348395550000012572655720006733996_);}
	.st17{fill:url(#SVGID_00000050624336488488620460000003003270363893883806_);}
	.st18{fill:url(#SVGID_00000114069599586292393540000000645358155680319155_);}
	.st19{fill:url(#SVGID_00000032645556495651021240000007444716823341536941_);}
	.st20{fill:url(#SVGID_00000126324036934304524250000004432375795540483231_);}
	.st21{fill:url(#SVGID_00000151537020358878252300000018297578600661234844_);}
	.st22{fill:#F9F9F9;}
</style>
<g>
	<g>
		
			<linearGradient id="SVGID_1_" gradientUnits="userSpaceOnUse" x1="393.5599" y1="436.3603" x2="69.9899" y2="307.6104" gradientTransform="matrix(1 0 0 -1 0 984)">
			<stop  offset="4.000000e-02" style="stop-color:#003088"/>
			<stop  offset="1" style="stop-color:#1E5DF8"/>
		</linearGradient>
		<path class="st0" d="M412,881.6c-24.1-6.5-44.9-13.5-62-20c-7.4-2.8-34.6-19.7-53-33.7c-1.9-1.4-3.9-4-4-6.3
			c-0.4-8.2-1.4-19.3-6-32c-3-8.2-7.2-19.8-18-31c-4.3-4.5-16-15.5-36-20c-4.8-1.1-17-3-33,0c-6.6,1.2-10.9,2.9-22,5
			c-12.4,2.3-16.3,1.3-19,0c-6.1-2.9-9.5-8.4-11-13c-4-12-1.4-14.2-4-27c-1-5-4-15-14-24c-5.8-5.2-7-7-8-12c-1.3-6.8,4.4-14.2,6-16
			c0.8-0.9,1.5-1.7,2.2-2.3c0.7-0.7,0.4-1.8-0.6-2.1c-1.6-0.4-3.6-1.2-5.6-2.6c-0.3-0.2-6.2-3.3-6-10c0.1-3.5,1.1-6.5,8-16
			c4.4-6.2,5.5-8.3,6-11c1-5-1-12-4-15c-4-4-7.6-6-17-10c-7-3-15-4-18-16c-1.8-7.2,2.8-15.8,10-25c18-23,21.7-27.1,30-40
			c13-20.2,14-39,14-56c0-8-1-17-4-43c-2-17.5-1.6-27.5,1-39c3.1-13.5,9.2-24.6,18-38c7.1-10.8,16.6-24.2,29-39
			c5.9,3.8,14.3,10.2,22,20c11.9,15.2,15.5,30.3,19,46c3,13.5,6.1,34.2,4,60c-0.7,4-1.3,8-2,12c-3.4-0.5-15.5-1.6-27,6
			c-15,10-16.7,26.9-17,30c-1.6,15.8,5.6,34.7,21,42c6.7,3.1,13.1,3.3,17,3c-0.2,11.4,0.1,27.6,2,47c3,29.9,5.8,58,18,85
			c18.1,40,50.6,63.9,85,89c24.1,17.6,35.9,21.8,56,42c24.2,24.2,34.4,42.2,39,52c7.2,15.5,10.4,29.4,12,39c-2.6,4.5-8,12.5-18,18
			C418.4,879.6,415,880.8,412,881.6L412,881.6z"/>
		
			<linearGradient id="SVGID_00000132787701591871591260000007963423233236971164_" gradientUnits="userSpaceOnUse" x1="582.8281" y1="523.9848" x2="723.428" y2="470.8048" gradientTransform="matrix(1 0 0 -1 0 984)">
			<stop  offset="2.000000e-02" style="stop-color:#003088"/>
			<stop  offset="1" style="stop-color:#1E5DF8"/>
		</linearGradient>
		<path style="fill:url(#SVGID_00000132787701591871591260000007963423233236971164_);" d="M508,775.6c8.3-2.3,16.7-4.7,25-7
			c12.7-5.7,25.3-11.3,38-17c0,0,16.1-8.2,49-56c1.3-2,3.3-4.5,3.7-6.8c1.3-8.2-0.3-7.3,3.3-20.2c2-7,6.2-15.8,17-27
			c4.3-4.5,12-12.5,32-17c4.8-1.1,21.8-3,32-2c10,1,13,2,27,3c12.6,0.9,19.3-1.7,22-3c6.1-2.9,8.5-6.4,10-11c4-12-0.6-17.1,1-30
			c1-8,2.3-11.9,13-19c9-6,11-8,12-14c1.1-6.8-2-14-5.3-17.8c-0.8-0.9-1.5-1.7-2.2-2.3c-0.7-0.7-0.4-1.8,0.6-2.1
			c1.6-0.4,3.6-1.2,5.6-2.6c0.3-0.2,5.3-4.2,6.3-10.2c0.6-3.5-1-8-5-14c-3.7-5.5-5.9-7.4-8-12c-2.1-4.6-1-11,2-14c4-4,7.2-6.1,17-9
			c10-3,15-6,18-18c1.8-7.2-1.2-16.4-9-25c-20-22-22.1-24-30.3-36.8c-13-20.2-14-39-14-56c0-8,1-17,4-43c2-17.5,1.6-27.5-1-39
			c-3.1-13.5-9.2-24.6-18-38c-7.1-10.8-16.6-24.2-29-39c-6,3-14.6,8.2-22.7,16.8c-12.5,13.4-17,27.9-20,39
			c-11.4,41.8-13.7,79.3-14,85c-2.1,36.7,0.8,46.9-3,86c-1.3,13.5-2.9,24.5-4,32c4.2,0.3,11.4,1.5,19,6c15.4,9.2,19.5,24.8,20,27
			c0.6,2.6,5,22-8,37c-9.2,10.5-21.4,12.5-25,13c-10.7,1.5-19.2-1.4-23-3c-2.6,9-6.6,21.8-12,37c-4.7,13.1-12.1,33.9-21,51
			c-12.8,24.6-18.9,23.3-44,57c-31.5,42.4-44.3,74.9-47,82C513.7,752,510.1,766.1,508,775.6L508,775.6z"/>
		<path class="st2" d="M412,881.6c-17-3.9-39.1-9.2-62-20c-22.2-10.4-39.2-23.2-53-33.7c-1.9-1.4-3.9-4-4-6.3
			c-0.4-8.2-1.4-19.3-6-32c-3-8.2-7.2-19.8-18-31c-4.3-4.5-16-15.5-36-20c-4.8-1.1-17-3-33,0c-6.6,1.2-10.9,2.9-22,5
			c-12.4,2.3-16.3,1.3-19,0c-6.1-2.9-9.5-8.4-11-13c-4-12-1.4-14.2-4-27c-1-5-4-15-14-24c-5.8-5.2-7-7-8-12c-1.3-6.8,4.4-14.2,6-16
			c0.8-0.9,1.5-1.7,2.2-2.3s0.4-1.8-0.6-2.1c-1.6-0.4-3.6-1.2-5.6-2.6c-0.3-0.2-6.2-3.3-6-10c0.1-3.5,1.1-6.5,8-16
			c4.4-6.2,5.5-8.3,6-11c1-5-1-12-4-15c-4-4-7.6-6-17-10c-7-3-15-4-18-16c-1.8-7.2,2.8-15.8,10-25c18-23,21.7-27.1,30-40
			c13-20.2,14-39,14-56c0-8-1-17-4-43c-2-17.5-1.6-27.5,1-39c1.8-8,9.9-26.3,18-38c9-13,14-19,29-39"/>
		<path class="st2" d="M508,775.6c17-3.9,39.8-10.3,63-24c22-13,40.4-43.5,49-56c1.3-2,3.3-4.5,3.7-6.8c1.3-8.2-0.3-7.3,3.3-20.2
			c2-7,6.2-15.8,17-27c4.3-4.5,12-12.5,32-17c4.8-1.1,21.8-3,32-2s13,2,27,3c12.6,0.9,19.3-1.7,22-3c6.1-2.9,8.5-6.4,10-11
			c4-12-0.6-17.1,1-30c1-8,2.3-11.9,13-19c9-6,11-8,12-14c1.1-6.8-2-14-5.3-17.8c-0.8-0.9-1.5-1.7-2.2-2.3s-0.4-1.8,0.6-2.1
			c1.6-0.4,3.6-1.2,5.6-2.6c0.3-0.2,5.3-4.2,6.3-10.2c0.6-3.5-1-8-5-14c-3.7-5.5-5.9-7.4-8-12c-2.1-4.6-1-11,2-14c4-4,7.2-6.1,17-9
			s15-6,18-18c1.8-7.2-1.2-16.4-9-25c-20-22-22.1-24-30.3-36.8c-13-20.2-14-39-14-56c0-8,1-17,4-43c2-17.5,1.6-27.5-1-39
			c-1.8-8-9.9-26.3-18-38c-9-13-14-19-29-39"/>
		
			<linearGradient id="SVGID_00000021808163921903099380000015991864321203722400_" gradientUnits="userSpaceOnUse" x1="300.6526" y1="335.3693" x2="417.7326" y2="790.7793" gradientTransform="matrix(1 0 0 -1 0 984)">
			<stop  offset="0.24" style="stop-color:#003088"/>
			<stop  offset="1" style="stop-color:#1E5DF8"/>
		</linearGradient>
		<path style="fill:url(#SVGID_00000021808163921903099380000015991864321203722400_);" d="M264.5,661.1c-23.2-34.8-29.5-67.3-34-91
			c-3.8-19.8-4.2-34.1-3-47c0.7-8,2-14.6,3-19c3.4,0.7,14.9,2.7,25-4c14.2-9.3,14-27.8,14-34c0-4.1-0.7-23.1-16-36
			c-6.7-5.6-13.7-8-18-9c3.2-21.1,1.8-38.5,0-50c-2.1-13.1-5.3-33.9-19-55c-8.9-13.7-16.3-18.5-22-35c-2.5-7.1-5.5-16.3-3-27
			c0.9-3.6,3.2-11.2,18-25c8.5-7.9,22.5-20.8,46-30c15.8-6.1,28.4-11.1,45-9c24.7,3.1,40.5,19.3,48,27c15,15.4,21.2,31.6,25,42
			c6.7,18.2,6.3,28.5,10,55c6.6,46.7,9.9,55.3,12,61c7.7,21.4,17.3,35.5,23,43c4.5,6,8.8,10.7,12,14c-3,2.2-12.9,10-16,24
			c-4.5,20.2,9.5,35.4,11,37c9.8,10.4,22,12.5,26,13c-1.4,8.8-3.6,22-7,38c-4,19-5.2,21.2-8,35c-4.3,20.9-8,39.3-7,60
			c0.6,11.7,2.4,17,9,43c9,35,15.5,60.7,19,80c3.4,18.6,6.4,45.7,4,80c-1.3,4.3-2.7,8.7-4,13c-6,1.3-12,2.7-18,4
			c-2.9-13.7-8.8-34.2-22-56c-15.4-25.5-33.6-40.9-47-52c-30.7-25.5-40.8-22.7-69-48C293.5,695.9,278.7,682.4,264.5,661.1z"/>
		
			<linearGradient id="SVGID_00000147213760161118980870000008887213424996877474_" gradientUnits="userSpaceOnUse" x1="333.4595" y1="549.2501" x2="401.2295" y2="812.8801" gradientTransform="matrix(1 0 0 -1 0 984)">
			<stop  offset="6.000000e-02" style="stop-color:#003088"/>
			<stop  offset="1" style="stop-color:#1E5DF8"/>
		</linearGradient>
		<path style="fill:url(#SVGID_00000147213760161118980870000008887213424996877474_);" d="M441.5,427.1l-18-6
			c-17.3-21-26.1-40.4-31-54c-7.2-20.2-9.8-39.5-13-64c-3.9-29.6-1.4-29-5-41c-2.4-8-11.2-36.1-39-56c-17.5-12.5-35.2-16.6-46-18
			c11.8-4.3,28.9-9.3,50-11c7.4-0.6,31.3-2.1,61,5c26.3,6.3,45.1,16.4,61,25c11.7,6.3,21.2,12.4,28,17c-0.8,7.7-2.3,19.3-6,33
			c-4.6,17.1-8.2,21.7-15,40c-7.4,20-14.2,38.3-16,62c-1.2,15.9,0.6,23.1-3,41C447.2,411.7,443.9,421,441.5,427.1z"/>
		
			<linearGradient id="SVGID_00000071517425178755058180000003674465978415037871_" gradientUnits="userSpaceOnUse" x1="713.1407" y1="123.8602" x2="423.2308" y2="975.7503" gradientTransform="matrix(1 0 0 -1 0 984)">
			<stop  offset="0.36" style="stop-color:#003088"/>
			<stop  offset="1" style="stop-color:#1E5DF8"/>
		</linearGradient>
		<path style="fill:url(#SVGID_00000071517425178755058180000003674465978415037871_);" d="M472.5,860.1c-5-1.7-10-3.3-15-5
			c5.9-22,7-40,7-52c0-37.9-11.3-72.5-20-99c-5.9-18-10.7-29.1-13-49c-1.9-15.8-1.2-28.5,0-41c3.8-41,13-81.1,20-108
			c5,0,12.9-0.6,21-5c1.3-0.7,24.5-13.3,24-38c-0.4-22.3-19.8-34.3-21-35c1.9-8.8,5.1-20.6,11-34c3.7-8.4,10.4-23.7,23-38
			c16.6-18.9,25.8-16,43-32c5.7-5.3,24.3-23.8,31-52c9-38-9.1-70.7-17-85c-10.8-19.5-23.6-32-33-41c-17.4-16.7-34.5-27.4-47-34
			c2.6-2.5,9.5-9.5,12-21c2.8-12.8-1.5-22.9-3-26c16.6-0.9,40.1-1.4,68,1c26.4,2.3,56,5,91,19c35.7,14.3,50.3,29.5,58,40
			c6.3,8.5,13.2,18.2,12,30c-1.8,17.3-19.2,22.8-33,40c-12.5,15.7-14.8,32-18,67c-3.7,40-6.9,85.2-9,135c-1.3,10.7-2.7,21.3-4,32
			c-3.5-0.2-17.3-0.7-29,9c-12.6,10.5-16.6,27.6-13,42c5,19.9,22.7,28,25,29c-3.5,12-9.2,29.1-18,49c-6.7,15-14.9,31-41,73
			c-28.4,45.7-25.5,37.7-39,61c-17.1,29.5-34,59-40,89c-2.2,11-5.2,21.9-7,33c-2.3,13.7-2.6,20.2-7,28
			C486.2,851.3,478.4,856.9,472.5,860.1z"/>
		
			<linearGradient id="SVGID_00000121960696711760016340000012256832765909914027_" gradientUnits="userSpaceOnUse" x1="567.7902" y1="556.5101" x2="412.4702" y2="880.5001" gradientTransform="matrix(1 0 0 -1 0 984)">
			<stop  offset="6.000000e-02" style="stop-color:#003088"/>
			<stop  offset="0.89" style="stop-color:#1E5DF8"/>
		</linearGradient>
		<path style="fill:url(#SVGID_00000121960696711760016340000012256832765909914027_);" d="M486.5,248.1c4.5-20.3,2.8-36.5,1-46
			c-3.2-17.1-9.6-29.2-17-43c-8.2-15.4-16.7-27.1-23-35c3,0.6,11.1,1.8,20-2c6.9-3,11.1-7.6,13-10c10.7,4.9,25.4,12.8,41,25
			c13.3,10.4,31.2,24.7,45,50c13,23.7,15.8,44.8,17,55c2.3,19.1,4,33.2-3,48c-4.5,9.6-9.8,13.4-34,33c-26.6,21.6-39.9,32.4-44,37
			c-10.9,12.1-23.3,32.5-27,68c-5-2.3-10-4.7-15-7c-3,0.7-6,1.3-9,2c-3.9-19.8-4.2-37-3-51c0.6-6.9,2.4-23.6,20-75
			C475,278.3,481.1,261.8,486.5,248.1z"/>
		
			<linearGradient id="SVGID_00000063606539488385703910000018176314702282257057_" gradientUnits="userSpaceOnUse" x1="312.2139" y1="128.6585" x2="847.5538" y2="1576.5586" gradientTransform="matrix(1 0 0 -1 0 984)">
			<stop  offset="0" style="stop-color:#F4F3F2"/>
			<stop  offset="1" style="stop-color:#6B6B6B"/>
		</linearGradient>
		<path style="fill:url(#SVGID_00000063606539488385703910000018176314702282257057_);" d="M456.5,517.1c-28.7,0-52-23.3-52-52
			s23.3-52,52-52s52,23.3,52,52S485.2,517.1,456.5,517.1z M456.5,434.1c-17.1,0-31,13.9-31,31s13.9,31,31,31s31-13.9,31-31
			S473.6,434.1,456.5,434.1z"/>
		
			<linearGradient id="SVGID_00000093154532824643319510000017775323769497103538_" gradientUnits="userSpaceOnUse" x1="113.9474" y1="201.961" x2="649.2875" y2="1649.8708" gradientTransform="matrix(1 0 0 -1 0 984)">
			<stop  offset="0" style="stop-color:#F4F3F2"/>
			<stop  offset="1" style="stop-color:#6B6B6B"/>
		</linearGradient>
		<path style="fill:url(#SVGID_00000093154532824643319510000017775323769497103538_);" d="M231.5,516.1c-28.7,0-52-23.3-52-52
			s23.3-52,52-52s52,23.3,52,52S260.2,516.1,231.5,516.1z M231.5,433.1c-17.1,0-31,13.9-31,31s13.9,31,31,31s31-13.9,31-31
			S248.6,433.1,231.5,433.1z"/>
		
			<linearGradient id="SVGID_00000101800755346732667960000015189930415628600475_" gradientUnits="userSpaceOnUse" x1="492.4279" y1="62.0308" x2="1027.7679" y2="1509.9307" gradientTransform="matrix(1 0 0 -1 0 984)">
			<stop  offset="0" style="stop-color:#F4F3F2"/>
			<stop  offset="1" style="stop-color:#6B6B6B"/>
		</linearGradient>
		<path style="fill:url(#SVGID_00000101800755346732667960000015189930415628600475_);" d="M659.5,522.1c-28.7,0-52-23.3-52-52
			s23.3-52,52-52s52,23.3,52,52S688.2,522.1,659.5,522.1z M659.5,439.1c-17.1,0-31,13.9-31,31s13.9,31,31,31s31-13.9,31-31
			S676.6,439.1,659.5,439.1z"/>
		
			<linearGradient id="SVGID_00000098194089837937106970000005559008950029376644_" gradientUnits="userSpaceOnUse" x1="275.5575" y1="142.2146" x2="810.8976" y2="1590.1145" gradientTransform="matrix(1 0 0 -1 0 984)">
			<stop  offset="0" style="stop-color:#F4F3F2"/>
			<stop  offset="1" style="stop-color:#6B6B6B"/>
		</linearGradient>
		<path style="fill:url(#SVGID_00000098194089837937106970000005559008950029376644_);" d="M428.8,860.2
			c-4.6-17.7-19.2-57.3-41.4-80.4c-4.9-5-7.4-7-21.8-17.5c-3.8-2.8-8.3-6.2-13.9-10.3c-48.3-35.9-70.1-52.3-80.7-64.6
			c-0.7-0.8-1.5-1.7-2.4-2.7c-8-8.8-23-25.1-34.6-59.9c-6.8-20.5-10.6-44.6-12.5-61.1c-1.9-16-3.2-40.2-3.1-50.3l21,0.2
			c-0.1,9.3,1.2,32.7,2.9,47.7c2.5,22,6.6,42.2,11.5,56.9c10.2,30.6,23.2,44.7,30.2,52.3c1.1,1.2,2,2.2,2.8,3.1
			c9.5,11,35,30,77.3,61.4c5.5,4.1,10.1,7.5,13.9,10.3c14.8,11,18.4,13.5,24.4,19.9c25.1,26.1,41.1,68.6,46.6,89.6L428.8,860.2
			L428.8,860.2z"/>
		
			<linearGradient id="SVGID_00000060710254016024039870000015364175824356431492_" gradientUnits="userSpaceOnUse" x1="140.1689" y1="192.273" x2="675.509" y2="1640.173" gradientTransform="matrix(1 0 0 -1 0 984)">
			<stop  offset="0" style="stop-color:#F4F3F2"/>
			<stop  offset="1" style="stop-color:#6B6B6B"/>
		</linearGradient>
		<path style="fill:url(#SVGID_00000060710254016024039870000015364175824356431492_);" d="M420.2,432.7
			c-14.8-16.1-26.5-34.3-34.9-54c-5.9-13.8-10.1-28.4-12.7-43.4c-1.9-11-1.9-16.9-1.9-22.6c0-4.6,0-9-1.1-16.6
			c-1.4-9.9-5.5-29.5-16.9-50.5c-8-14.8-15.7-23.2-29.5-32.2c-0.5-0.3-1-0.6-1.5-1c-4.8-3.2-14.6-9.9-31.4-9.3
			c-12.3,0.5-23.8,2.1-51,18.5c-18.8,11.3-29.9,21-33.9,29.5c-0.3,0.6-0.6,1.3-1,2c-1.6,3-3.4,6.4-3,12.9c0.5,9,4.9,15.3,12.3,25.6
			c2.8,3.9,5.9,8.3,9.1,13.4c15.1,23.8,19.7,46.8,22.4,60.6c3.3,16.5,4.3,33.5,3.2,50.8l-20.9-1.4c1-15.4,0.1-30.6-2.8-45.2
			c-2.6-13.1-6.5-32.9-19.6-53.4c-2.9-4.6-5.8-8.6-8.5-12.5c-8.2-11.5-15.2-21.5-16.1-36.5c-0.7-12.3,3.2-19.8,5.4-23.9
			c0.2-0.4,0.5-0.9,0.6-1.2c6.1-12.7,19-24.6,42.1-38.5c28.6-17.2,43.5-20.9,61-21.5c23.6-0.9,37.9,8.8,43.9,12.9
			c0.4,0.3,0.8,0.6,1.2,0.8c16.7,10.8,26.9,22,36.5,39.8c12.2,22.6,17.1,43.8,19.1,57.5c1.3,9.2,1.4,14.7,1.4,19.6
			c0,5.3,0,9.9,1.6,19.1c2.3,13.4,6.1,26.4,11.3,38.6c7.5,17.5,17.9,33.6,31.1,48L420.2,432.7L420.2,432.7z"/>
		
			<linearGradient id="SVGID_00000133507185509940584970000005219924581221137561_" gradientUnits="userSpaceOnUse" x1="383.0057" y1="102.4816" x2="918.3456" y2="1550.3817" gradientTransform="matrix(1 0 0 -1 0 984)">
			<stop  offset="0" style="stop-color:#F4F3F2"/>
			<stop  offset="1" style="stop-color:#6B6B6B"/>
		</linearGradient>
		<path style="fill:url(#SVGID_00000133507185509940584970000005219924581221137561_);" d="M471.4,851.2l-20.8-3.1
			c3.5-23.5,3.9-46.8,1-69.1c-3.2-24.9-10.2-48.2-13.6-59.3c-3.2-10.7-6-18.2-8.1-24.2c-3.8-10.5-6.5-18-8.2-31.5
			c-2.3-18.3-0.9-32.4,1-50.4c0.8-7.9,2.4-19.7,11.2-61.1c2.9-13.7,6-27.6,9-41.1l20.5,4.6c-3.1,13.5-6.1,27.2-9,40.8
			c-9.3,43.7-10.3,53.6-10.8,58.9c-1.8,17.9-3,29.7-1,45.6c1.4,11.2,3.5,16.8,7.1,27c2.3,6.3,5.1,14,8.5,25.3
			c3.5,11.7,10.9,36,14.4,62.7C475.5,800.5,475.2,825.7,471.4,851.2L471.4,851.2z"/>
		
			<linearGradient id="SVGID_00000109028212335922583310000001316077668829360301_" gradientUnits="userSpaceOnUse" x1="244.0556" y1="153.8579" x2="779.3957" y2="1601.7579" gradientTransform="matrix(1 0 0 -1 0 984)">
			<stop  offset="0" style="stop-color:#F4F3F2"/>
			<stop  offset="1" style="stop-color:#6B6B6B"/>
		</linearGradient>
		<path style="fill:url(#SVGID_00000109028212335922583310000001316077668829360301_);" d="M442.7,420.4c-2.4-13.7-4.3-43.3-1-66.3
			c2.3-16.2,5-28.5,13.6-50.4c4.7-11.9,8.1-19.6,10.9-25.8c3.8-8.5,6-13.5,8.8-23.3l0.4-1.4c3.7-13,6.9-24.2,4.3-44.3
			c-3-22.9-15.3-43.2-19.9-50.8L459,157c-4.1-6.9-18.2-24.2-22-28.6l15.9-13.7c3.6,4.2,18.9,22.8,24,31.4l0.6,1.1
			c5.2,8.7,19.2,31.7,22.8,59c3.2,24.4-0.9,38.9-4.9,52.9l-0.4,1.4c-3.2,11.1-6,17.4-9.8,26.1c-2.7,6-6,13.4-10.5,24.9
			c-7.9,20.1-10.3,30.7-12.4,45.6c-2.9,20.5-1.1,47.8,1,59.7L442.7,420.4L442.7,420.4z"/>
		
			<linearGradient id="SVGID_00000032621763143675655830000009653541001349933755_" gradientUnits="userSpaceOnUse" x1="295.7134" y1="134.7561" x2="831.0533" y2="1582.6562" gradientTransform="matrix(1 0 0 -1 0 984)">
			<stop  offset="0" style="stop-color:#F4F3F2"/>
			<stop  offset="1" style="stop-color:#6B6B6B"/>
		</linearGradient>
		<path style="fill:url(#SVGID_00000032621763143675655830000009653541001349933755_);" d="M488.3,427.7l-20.6-4.2
			c5.9-28.5,19.8-56.4,27.9-67.2c9.7-12.9,20.8-21.4,39.2-35.4l4.9-3.7c20.8-15.9,22.8-19.4,26.9-26.5c0.4-0.8,0.9-1.5,1.4-2.4
			c8-13.8,6.9-28.7,5.6-45.9c-0.7-9.6-2.7-35.1-20.2-60.9c-10.1-14.8-21.4-23.8-28.8-29.7c-12.5-9.9-38.6-25.5-47.8-29.7l8.7-19.1
			c10.6,4.8,38.2,21.2,52.2,32.3c8,6.3,21.3,16.9,33.2,34.3c20.7,30.4,23,61,23.8,71.1c1.5,19,2.9,38.6-8.4,58.1
			c-0.5,0.8-0.9,1.5-1.3,2.2c-5.6,9.7-9.2,15.2-32.4,32.8l-4.9,3.7c-17.5,13.3-27.2,20.6-35.1,31.2
			C505.4,378.2,493.2,403.8,488.3,427.7L488.3,427.7z"/>
		
			<linearGradient id="SVGID_00000005256033001897370780000003292455553218321800_" gradientUnits="userSpaceOnUse" x1="474.1647" y1="68.7746" x2="1009.5048" y2="1516.6846" gradientTransform="matrix(1 0 0 -1 0 984)">
			<stop  offset="0" style="stop-color:#F4F3F2"/>
			<stop  offset="1" style="stop-color:#6B6B6B"/>
		</linearGradient>
		<path style="fill:url(#SVGID_00000005256033001897370780000003292455553218321800_);" d="M497.5,868l-21-0.8
			c1.5-39.6,15.3-88.7,23.7-110.4c11.7-30.3,22.5-53.3,46.1-88.1c13.2-19.4,22.2-31.1,29.4-40.4c8.6-11,14.7-19,23.1-33.8
			c16-28.5,27.8-62.7,33-83.4l20.4,5.1c-5.5,22-18,58.3-35,88.6c-9.1,16.2-16,25.1-24.8,36.4c-7.1,9.1-15.9,20.5-28.7,39.3
			c-22.6,33.3-32.5,54.4-43.9,83.9C511.4,786.3,498.9,832.9,497.5,868L497.5,868z"/>
		
			<linearGradient id="SVGID_00000058551429385145912800000000954683227378306477_" gradientUnits="userSpaceOnUse" x1="352.5013" y1="113.7695" x2="887.8414" y2="1561.6694" gradientTransform="matrix(1 0 0 -1 0 984)">
			<stop  offset="0" style="stop-color:#F4F3F2"/>
			<stop  offset="1" style="stop-color:#6B6B6B"/>
		</linearGradient>
		<path style="fill:url(#SVGID_00000058551429385145912800000000954683227378306477_);" d="M672.5,424.6l-20.9-2
			c1.1-11.7,2.7-36.1,4-60.6c1-18.4,1.3-32,1.5-43c0.5-20.2,0.8-33.5,4.6-54.4c5.8-31.2,11.7-54.1,23.6-71.9
			c3.6-5.4,8.6-10.7,13.4-15.9c7.4-7.9,17.5-18.8,16.1-24.9c-3.4-14.6-4.3-16-17.9-28.7c-19.3-18-31.4-22.8-43.2-27.4
			c-2.9-1.1-5.9-2.3-8.9-3.7c-1.5-0.7-37-16.1-90.8-16.1c-25.5,0-39.3,0.2-51.1,3.6l-5.9-20.2c14.5-4.2,30.2-4.4,56.9-4.4
			c58.1,0,97.6,17.2,99.2,17.9c2.6,1.2,5.3,2.2,8.1,3.3c12.9,5.1,27.6,10.8,49.8,31.6c15.9,14.8,19.4,19.5,24.1,39.3
			c4,16.9-9.4,31.3-21.2,44c-4.5,4.8-8.7,9.3-11.3,13.3c-8.5,12.8-14.3,30.8-20.4,64.1c-3.5,19.2-3.8,31.2-4.3,51.1
			c-0.3,11.1-0.6,24.9-1.5,43.6C675.2,387.9,673.6,412.6,672.5,424.6L672.5,424.6z"/>
		
			<linearGradient id="SVGID_00000088824780057276370380000007840913610518617753_" gradientUnits="userSpaceOnUse" x1="161.6627" y1="184.3264" x2="697.0027" y2="1632.2263" gradientTransform="matrix(1 0 0 -1 0 984)">
			<stop  offset="0" style="stop-color:#F4F3F2"/>
			<stop  offset="1" style="stop-color:#6B6B6B"/>
		</linearGradient>
		<path style="fill:url(#SVGID_00000088824780057276370380000007840913610518617753_);" d="M483.4,234.8
			c-14.4-15.3-32.6-23.5-50.1-31.4l-0.5-0.2c-15.3-6.9-41.3-15.1-78.7-15.1c-26.9,0-53.8,5.8-79.8,17.1l-8.4-19.2
			c28.7-12.5,58.4-18.9,88.2-18.9c41.1,0,70.1,9.2,87.3,16.9l0.5,0.2c18.5,8.3,39.5,17.8,56.8,36.1L483.4,234.8L483.4,234.8z"/>
		
			<linearGradient id="SVGID_00000046316011998917695610000005716474571803597241_" gradientUnits="userSpaceOnUse" x1="746.2085" y1="42.6497" x2="553.0786" y2="982.8897" gradientTransform="matrix(1 0 0 -1 0 984)">
			<stop  offset="0" style="stop-color:#003088"/>
			<stop  offset="1" style="stop-color:#1E5DF8"/>
		</linearGradient>
		<path style="fill:url(#SVGID_00000046316011998917695610000005716474571803597241_);" d="M503.2,911l-2.5-20.8
			C548.2,884.5,618,868.4,681,824c71.7-50.5,110.3-108.5,126.8-138.5c18.1-32.8,28.1-61.5,31.9-73.4c14.8-46.1,19.6-86.5,22.8-121
			c1.8-18.9,4.2-63.8,5-75c0.9-11.3,1.5-20.7,2-27l6,30c1.4,8.1,3,20.6,4,33c0.1,1.6,1.7,18.8,1,41c-2.1,66.4-20,123.1-20,123.1
			c-5.7,18-16.4,47-34.3,79.5c-17.5,31.6-58,92.6-133.1,145.5C626.5,888.1,553.1,905,503.2,911L503.2,911z"/>
		
			<linearGradient id="SVGID_00000129207128906028747640000005580128196566931889_" gradientUnits="userSpaceOnUse" x1="367.9189" y1="-35.0502" x2="174.7989" y2="905.1898" gradientTransform="matrix(1 0 0 -1 0 984)">
			<stop  offset="0" style="stop-color:#003088"/>
			<stop  offset="1" style="stop-color:#1E5DF8"/>
		</linearGradient>
		<path style="fill:url(#SVGID_00000129207128906028747640000005580128196566931889_);" d="M409.8,70.2l2.5,20.8
			C364.8,96.7,295,112.8,232,157.2c-71.7,50.5-110.3,108.5-126.8,138.5c-18.1,32.8-28.1,61.5-31.9,73.4
			c-14.8,46.1-19.6,86.5-22.8,121c-1.8,18.9-4.2,63.8-5,75c-0.9,11.3-1.5,20.7-2,27l-6-30c-1.4-8.1-3-20.6-4-33
			c-0.1-1.6-1.7-18.8-1-41c2.1-66.4,20-123.1,20-123.1c5.7-18,16.4-47,34.3-79.5c17.5-31.6,58-92.6,133.1-145.5
			C286.5,93.1,359.9,76.2,409.8,70.2L409.8,70.2z"/>
		
			<linearGradient id="SVGID_00000004507072389780548850000015516076608327940251_" gradientUnits="userSpaceOnUse" x1="476.5541" y1="-12.7312" x2="283.4242" y2="927.4988" gradientTransform="matrix(1 0 0 -1 0 984)">
			<stop  offset="0" style="stop-color:#003088"/>
			<stop  offset="1" style="stop-color:#1E5DF8"/>
		</linearGradient>
		<path style="fill:url(#SVGID_00000004507072389780548850000015516076608327940251_);" d="M456.5,951.1c-28.7,0-52-23.3-52-52
			s23.3-52,52-52s52,23.3,52,52S485.2,951.1,456.5,951.1z M456.5,868.1c-17.1,0-31,13.9-31,31s13.9,31,31,31s31-13.9,31-31
			S473.6,868.1,456.5,868.1z"/>
		
			<linearGradient id="SVGID_00000080904455923153471350000016126403042911244682_" gradientUnits="userSpaceOnUse" x1="637.5788" y1="20.3398" x2="444.4488" y2="960.5698" gradientTransform="matrix(1 0 0 -1 0 984)">
			<stop  offset="0" style="stop-color:#003088"/>
			<stop  offset="1" style="stop-color:#1E5DF8"/>
		</linearGradient>
		<path style="fill:url(#SVGID_00000080904455923153471350000016126403042911244682_);" d="M456.5,134.1c-28.7,0-52-23.3-52-52
			s23.3-52,52-52s52,23.3,52,52S485.2,134.1,456.5,134.1z M456.5,51.1c-17.1,0-31,13.9-31,31s13.9,31,31,31s31-13.9,31-31
			S473.6,51.1,456.5,51.1z"/>
	</g>
	<g>
		<ellipse class="st22" cx="456.6" cy="899.2" rx="31.1" ry="31.6"/>
		<ellipse class="st22" cx="456.5" cy="465.1" rx="31" ry="31.5"/>
		
			<ellipse transform="matrix(0.9996 -2.722377e-02 2.722377e-02 0.9996 -12.5486 6.4743)" class="st22" cx="231.5" cy="464.1" rx="31" ry="31.5"/>
		<ellipse class="st22" cx="659.5" cy="470.1" rx="31" ry="31.5"/>
		<ellipse class="st22" cx="456.5" cy="82.1" rx="31" ry="31.5"/>
	</g>
</g>
</svg>
