<svg width="917.083" height="1147.03" viewBox="0 0 917.083 1147.03" xmlns="http://www.w3.org/2000/svg" xmlns:xlink="http://www.w3.org/1999/xlink" id="Janus" xml:space="preserve" overflow="hidden"><defs id="defs48"></defs><g id="g48" transform="translate(8.08264 -30.1)"><g id="g43"><linearGradient x1="393.56" y1="436.36" x2="69.9899" y2="307.61" gradientUnits="userSpaceOnUse" id="SVGID_1_" gradientTransform="matrix(1 0 0 -1 0 984)"><stop offset="0.04" stop-color="#003088"/><stop offset="1" stop-color="#1E5DF8"/></linearGradient><linearGradient x1="582.828" y1="523.985" x2="723.428" y2="470.805" gradientUnits="userSpaceOnUse" id="SVGID_00000132787701591871591260000007963423233236971164_" gradientTransform="matrix(1 0 0 -1 0 984)"><stop offset="0.02" stop-color="#003088"/><stop offset="1" stop-color="#1E5DF8"/></linearGradient><linearGradient x1="300.653" y1="335.369" x2="417.733" y2="790.779" gradientUnits="userSpaceOnUse" id="SVGID_00000021808163921903099380000015991864321203722400_" gradientTransform="matrix(1 0 0 -1 0 984)"><stop offset="0.24" stop-color="#003088"/><stop offset="1" stop-color="#1E5DF8"/></linearGradient><linearGradient x1="333.459" y1="549.25" x2="401.229" y2="812.88" gradientUnits="userSpaceOnUse" id="SVGID_00000147213760161118980870000008887213424996877474_" gradientTransform="matrix(1 0 0 -1 0 984)"><stop offset="0.06" stop-color="#003088"/><stop offset="1" stop-color="#1E5DF8"/></linearGradient><linearGradient x1="713.141" y1="123.86" x2="423.231" y2="975.75" gradientUnits="userSpaceOnUse" id="SVGID_00000071517425178755058180000003674465978415037871_" gradientTransform="matrix(1 0 0 -1 0 984)"><stop offset="0.36" stop-color="#003088"/><stop offset="1" stop-color="#1E5DF8"/></linearGradient><linearGradient x1="567.79" y1="556.51" x2="412.47" y2="880.5" gradientUnits="userSpaceOnUse" id="SVGID_00000121960696711760016340000012256832765909914027_" gradientTransform="matrix(1 0 0 -1 0 984)"><stop offset="0.06" stop-color="#003088"/><stop offset="0.89" stop-color="#1E5DF8"/></linearGradient><linearGradient x1="312.214" y1="128.658" x2="847.554" y2="1576.56" gradientUnits="userSpaceOnUse" id="SVGID_00000063606539488385703910000018176314702282257057_" gradientTransform="matrix(1 0 0 -1 0 984)"><stop offset="0" stop-color="#F4F3F2"/><stop offset="1" stop-color="#6B6B6B"/></linearGradient><linearGradient x1="113.947" y1="201.961" x2="649.287" y2="1649.87" gradientUnits="userSpaceOnUse" id="SVGID_00000093154532824643319510000017775323769497103538_" gradientTransform="matrix(1 0 0 -1 0 984)"><stop offset="0" stop-color="#F4F3F2"/><stop offset="1" stop-color="#6B6B6B"/></linearGradient><linearGradient x1="492.428" y1="62.0308" x2="1027.77" y2="1509.93" gradientUnits="userSpaceOnUse" id="SVGID_00000101800755346732667960000015189930415628600475_" gradientTransform="matrix(1 0 0 -1 0 984)"><stop offset="0" stop-color="#F4F3F2"/><stop offset="1" stop-color="#6B6B6B"/></linearGradient><linearGradient x1="275.558" y1="142.215" x2="810.898" y2="1590.11" gradientUnits="userSpaceOnUse" id="SVGID_00000098194089837937106970000005559008950029376644_" gradientTransform="matrix(1 0 0 -1 0 984)"><stop offset="0" stop-color="#F4F3F2"/><stop offset="1" stop-color="#6B6B6B"/></linearGradient><linearGradient x1="140.169" y1="192.273" x2="675.509" y2="1640.17" gradientUnits="userSpaceOnUse" id="SVGID_00000060710254016024039870000015364175824356431492_" gradientTransform="matrix(1 0 0 -1 0 984)"><stop offset="0" stop-color="#F4F3F2"/><stop offset="1" stop-color="#6B6B6B"/></linearGradient><linearGradient x1="383.006" y1="102.482" x2="918.346" y2="1550.38" gradientUnits="userSpaceOnUse" id="SVGID_00000133507185509940584970000005219924581221137561_" gradientTransform="matrix(1 0 0 -1 0 984)"><stop offset="0" stop-color="#F4F3F2"/><stop offset="1" stop-color="#6B6B6B"/></linearGradient><linearGradient x1="244.056" y1="153.858" x2="779.396" y2="1601.76" gradientUnits="userSpaceOnUse" id="SVGID_00000109028212335922583310000001316077668829360301_" gradientTransform="matrix(1 0 0 -1 0 984)"><stop offset="0" stop-color="#F4F3F2"/><stop offset="1" stop-color="#6B6B6B"/></linearGradient><linearGradient x1="295.713" y1="134.756" x2="831.053" y2="1582.66" gradientUnits="userSpaceOnUse" id="SVGID_00000032621763143675655830000009653541001349933755_" gradientTransform="matrix(1 0 0 -1 0 984)"><stop offset="0" stop-color="#F4F3F2"/><stop offset="1" stop-color="#6B6B6B"/></linearGradient><linearGradient x1="474.165" y1="68.7746" x2="1009.5" y2="1516.68" gradientUnits="userSpaceOnUse" id="SVGID_00000005256033001897370780000003292455553218321800_" gradientTransform="matrix(1 0 0 -1 0 984)"><stop offset="0" stop-color="#F4F3F2"/><stop offset="1" stop-color="#6B6B6B"/></linearGradient><linearGradient x1="352.501" y1="113.769" x2="887.841" y2="1561.67" gradientUnits="userSpaceOnUse" id="SVGID_00000058551429385145912800000000954683227378306477_" gradientTransform="matrix(1 0 0 -1 0 984)"><stop offset="0" stop-color="#F4F3F2"/><stop offset="1" stop-color="#6B6B6B"/></linearGradient><linearGradient x1="161.663" y1="184.326" x2="697.003" y2="1632.23" gradientUnits="userSpaceOnUse" id="SVGID_00000088824780057276370380000007840913610518617753_" gradientTransform="matrix(1 0 0 -1 0 984)"><stop offset="0" stop-color="#F4F3F2"/><stop offset="1" stop-color="#6B6B6B"/></linearGradient><linearGradient x1="746.208" y1="42.6497" x2="553.079" y2="982.89" gradientUnits="userSpaceOnUse" id="SVGID_00000046316011998917695610000005716474571803597241_" gradientTransform="matrix(1 0 0 -1 0 984)"><stop offset="0" stop-color="#003088"/><stop offset="1" stop-color="#1E5DF8"/></linearGradient><linearGradient x1="367.919" y1="-35.0502" x2="174.799" y2="905.19" gradientUnits="userSpaceOnUse" id="SVGID_00000129207128906028747640000005580128196566931889_" gradientTransform="matrix(1 0 0 -1 0 984)"><stop offset="0" stop-color="#003088"/><stop offset="1" stop-color="#1E5DF8"/></linearGradient><linearGradient x1="476.554" y1="-12.7312" x2="283.424" y2="927.499" gradientUnits="userSpaceOnUse" id="SVGID_00000004507072389780548850000015516076608327940251_" gradientTransform="matrix(1 0 0 -1 0 984)"><stop offset="0" stop-color="#003088"/><stop offset="1" stop-color="#1E5DF8"/></linearGradient><linearGradient x1="637.579" y1="20.3398" x2="444.449" y2="960.57" gradientUnits="userSpaceOnUse" id="SVGID_00000080904455923153471350000016126403042911244682_" gradientTransform="matrix(1 0 0 -1 0 984)"><stop offset="0" stop-color="#003088"/><stop offset="1" stop-color="#1E5DF8"/></linearGradient><path d="M412 881.6C387.9 875.1 367.1 868.1 350 861.6 342.6 858.8 315.4 841.9 297 827.9 295.1 826.5 293.1 823.9 293 821.6 292.6 813.4 291.6 802.3 287 789.6 284 781.4 279.8 769.8 269 758.6 264.7 754.1 253 743.1 233 738.6 228.2 737.5 216 735.6 200 738.6 193.4 739.8 189.1 741.5 178 743.6 165.6 745.9 161.7 744.9 159 743.6 152.9 740.7 149.5 735.2 148 730.6 144 718.6 146.6 716.4 144 703.6 143 698.6 140 688.6 130 679.6 124.2 674.4 123 672.6 122 667.6 120.7 660.8 126.4 653.4 128 651.6 128.8 650.7 129.5 649.9 130.2 649.3 130.9 648.6 130.6 647.5 129.6 647.2 128 646.8 126 646 124 644.6 123.7 644.4 117.8 641.3 118 634.6 118.1 631.1 119.1 628.1 126 618.6 130.4 612.4 131.5 610.3 132 607.6 133 602.6 131 595.6 128 592.6 124 588.6 120.4 586.6 111 582.6 104 579.6 96 578.6 93 566.6 91.2 559.4 95.8 550.8 103 541.6 121 518.6 124.7 514.5 133 501.6 146 481.4 147 462.6 147 445.6 147 437.6 146 428.6 143 402.6 141 385.1 141.4 375.1 144 363.6 147.1 350.1 153.2 339 162 325.6 169.1 314.8 178.6 301.4 191 286.6 196.9 290.4 205.3 296.8 213 306.6 224.9 321.8 228.5 336.9 232 352.6 235 366.1 238.1 386.8 236 412.6 235.3 416.6 234.7 420.6 234 424.6 230.6 424.1 218.5 423 207 430.6 192 440.6 190.3 457.5 190 460.6 188.4 476.4 195.6 495.3 211 502.6 217.7 505.7 224.1 505.9 228 505.6 227.8 517 228.1 533.2 230 552.6 233 582.5 235.8 610.6 248 637.6 266.1 677.6 298.6 701.5 333 726.6 357.1 744.2 368.9 748.4 389 768.6 413.2 792.8 423.4 810.8 428 820.6 435.2 836.1 438.4 850 440 859.6 437.4 864.1 432 872.1 422 877.6 418.4 879.6 415 880.8 412 881.6Z" id="path2" fill="url(#SVGID_1_)"/><path d="M508 775.6C516.3 773.3 524.7 770.9 533 768.6 545.7 762.9 558.3 757.3 571 751.6 571 751.6 587.1 743.4 620 695.6 621.3 693.6 623.3 691.1 623.7 688.8 625 680.6 623.4 681.5 627 668.6 629 661.6 633.2 652.8 644 641.6 648.3 637.1 656 629.1 676 624.6 680.8 623.5 697.8 621.6 708 622.6 718 623.6 721 624.6 735 625.6 747.6 626.5 754.3 623.9 757 622.6 763.1 619.7 765.5 616.2 767 611.6 771 599.6 766.4 594.5 768 581.6 769 573.6 770.3 569.7 781 562.6 790 556.6 792 554.6 793 548.6 794.1 541.8 791 534.6 787.7 530.8 786.9 529.9 786.2 529.1 785.5 528.5 784.8 527.8 785.1 526.7 786.1 526.4 787.7 526 789.7 525.2 791.7 523.8 792 523.6 797 519.6 798 513.6 798.6 510.1 797 505.6 793 499.6 789.3 494.1 787.1 492.2 785 487.6 782.9 483 784 476.6 787 473.6 791 469.6 794.2 467.5 804 464.6 814 461.6 819 458.6 822 446.6 823.8 439.4 820.8 430.2 813 421.6 793 399.6 790.9 397.6 782.7 384.8 769.7 364.6 768.7 345.8 768.7 328.8 768.7 320.8 769.7 311.8 772.7 285.8 774.7 268.3 774.3 258.3 771.7 246.8 768.6 233.3 762.5 222.2 753.7 208.8 746.6 198 737.1 184.6 724.7 169.8 718.7 172.8 710.1 178 702 186.6 689.5 200 685 214.5 682 225.6 670.6 267.4 668.3 304.9 668 310.6 665.9 347.3 668.8 357.5 665 396.6 663.7 410.1 662.1 421.1 661 428.6 665.2 428.9 672.4 430.1 680 434.6 695.4 443.8 699.5 459.4 700 461.6 700.6 464.2 705 483.6 692 498.6 682.8 509.1 670.6 511.1 667 511.6 656.3 513.1 647.8 510.2 644 508.6 641.4 517.6 637.4 530.4 632 545.6 627.3 558.7 619.9 579.5 611 596.6 598.2 621.2 592.1 619.9 567 653.6 535.5 696 522.7 728.5 520 735.6 513.7 752 510.1 766.1 508 775.6Z" id="path4" fill="url(#SVGID_00000132787701591871591260000007963423233236971164_)"/><path d="M412 881.6C395 877.7 372.9 872.4 350 861.6 327.8 851.2 310.8 838.4 297 827.9 295.1 826.5 293.1 823.9 293 821.6 292.6 813.4 291.6 802.3 287 789.6 284 781.4 279.8 769.8 269 758.6 264.7 754.1 253 743.1 233 738.6 228.2 737.5 216 735.6 200 738.6 193.4 739.8 189.1 741.5 178 743.6 165.6 745.9 161.7 744.9 159 743.6 152.9 740.7 149.5 735.2 148 730.6 144 718.6 146.6 716.4 144 703.6 143 698.6 140 688.6 130 679.6 124.2 674.4 123 672.6 122 667.6 120.7 660.8 126.4 653.4 128 651.6 128.8 650.7 129.5 649.9 130.2 649.3 130.9 648.7 130.6 647.5 129.6 647.2 128 646.8 126 646 124 644.6 123.7 644.4 117.8 641.3 118 634.6 118.1 631.1 119.1 628.1 126 618.6 130.4 612.4 131.5 610.3 132 607.6 133 602.6 131 595.6 128 592.6 124 588.6 120.4 586.6 111 582.6 104 579.6 96 578.6 93 566.6 91.2 559.4 95.8 550.8 103 541.6 121 518.6 124.7 514.5 133 501.6 146 481.4 147 462.6 147 445.6 147 437.6 146 428.6 143 402.6 141 385.1 141.4 375.1 144 363.6 145.8 355.6 153.9 337.3 162 325.6 171 312.6 176 306.6 191 286.6" id="path5" stroke="#A7BBFB" stroke-width="9" stroke-miterlimit="10" fill="none"/><path d="M508 775.6C525 771.7 547.8 765.3 571 751.6 593 738.6 611.4 708.1 620 695.6 621.3 693.6 623.3 691.1 623.7 688.8 625 680.6 623.4 681.5 627 668.6 629 661.6 633.2 652.8 644 641.6 648.3 637.1 656 629.1 676 624.6 680.8 623.5 697.8 621.6 708 622.6 718.2 623.6 721 624.6 735 625.6 747.6 626.5 754.3 623.9 757 622.6 763.1 619.7 765.5 616.2 767 611.6 771 599.6 766.4 594.5 768 581.6 769 573.6 770.3 569.7 781 562.6 790 556.6 792 554.6 793 548.6 794.1 541.8 791 534.6 787.7 530.8 786.9 529.9 786.2 529.1 785.5 528.5 784.8 527.9 785.1 526.7 786.1 526.4 787.7 526 789.7 525.2 791.7 523.8 792 523.6 797 519.6 798 513.6 798.6 510.1 797 505.6 793 499.6 789.3 494.1 787.1 492.2 785 487.6 782.9 483 784 476.6 787 473.6 791 469.6 794.2 467.5 804 464.6 813.8 461.7 819 458.6 822 446.6 823.8 439.4 820.8 430.2 813 421.6 793 399.6 790.9 397.6 782.7 384.8 769.7 364.6 768.7 345.8 768.7 328.8 768.7 320.8 769.7 311.8 772.7 285.8 774.7 268.3 774.3 258.3 771.7 246.8 769.9 238.8 761.8 220.5 753.7 208.8 744.7 195.8 739.7 189.8 724.7 169.8" id="path6" stroke="#A7BBFB" stroke-width="9" stroke-miterlimit="10" fill="none"/><path d="M264.5 661.1C241.3 626.3 235 593.8 230.5 570.1 226.7 550.3 226.3 536 227.5 523.1 228.2 515.1 229.5 508.5 230.5 504.1 233.9 504.8 245.4 506.8 255.5 500.1 269.7 490.8 269.5 472.3 269.5 466.1 269.5 462 268.8 443 253.5 430.1 246.8 424.5 239.8 422.1 235.5 421.1 238.7 400 237.3 382.6 235.5 371.1 233.4 358 230.2 337.2 216.5 316.1 207.6 302.4 200.2 297.6 194.5 281.1 192 274 189 264.8 191.5 254.1 192.4 250.5 194.7 242.9 209.5 229.1 218 221.2 232 208.3 255.5 199.1 271.3 193 283.9 188 300.5 190.1 325.2 193.2 341 209.4 348.5 217.1 363.5 232.5 369.7 248.7 373.5 259.1 380.2 277.3 379.8 287.6 383.5 314.1 390.1 360.8 393.4 369.4 395.5 375.1 403.2 396.5 412.8 410.6 418.5 418.1 423 424.1 427.3 428.8 430.5 432.1 427.5 434.3 417.6 442.1 414.5 456.1 410 476.3 424 491.5 425.5 493.1 435.3 503.5 447.5 505.6 451.5 506.1 450.1 514.9 447.9 528.1 444.5 544.1 440.5 563.1 439.3 565.3 436.5 579.1 432.2 600 428.5 618.4 429.5 639.1 430.1 650.8 431.9 656.1 438.5 682.1 447.5 717.1 454 742.8 457.5 762.1 460.9 780.7 463.9 807.8 461.5 842.1 460.2 846.4 458.8 850.8 457.5 855.1 451.5 856.4 445.5 857.8 439.5 859.1 436.6 845.4 430.7 824.9 417.5 803.1 402.1 777.6 383.9 762.2 370.5 751.1 339.8 725.6 329.7 728.4 301.5 703.1 293.5 695.9 278.7 682.4 264.5 661.1Z" id="path7" fill="url(#SVGID_00000021808163921903099380000015991864321203722400_)"/><path d="M441.5 427.1 423.5 421.1C406.2 400.1 397.4 380.7 392.5 367.1 385.3 346.9 382.7 327.6 379.5 303.1 375.6 273.5 378.1 274.1 374.5 262.1 372.1 254.1 363.3 226 335.5 206.1 318 193.6 300.3 189.5 289.5 188.1 301.3 183.8 318.4 178.8 339.5 177.1 346.9 176.5 370.8 175 400.5 182.1 426.8 188.4 445.6 198.5 461.5 207.1 473.2 213.4 482.7 219.5 489.5 224.1 488.7 231.8 487.2 243.4 483.5 257.1 478.9 274.2 475.3 278.8 468.5 297.1 461.1 317.1 454.3 335.4 452.5 359.1 451.3 375 453.1 382.2 449.5 400.1 447.2 411.7 443.9 421 441.5 427.1Z" id="path9" fill="url(#SVGID_00000147213760161118980870000008887213424996877474_)"/><path d="M472.5 860.1C467.5 858.4 462.5 856.8 457.5 855.1 463.4 833.1 464.5 815.1 464.5 803.1 464.5 765.2 453.2 730.6 444.5 704.1 438.6 686.1 433.8 675 431.5 655.1 429.6 639.3 430.3 626.6 431.5 614.1 435.3 573.1 444.5 533 451.5 506.1 456.5 506.1 464.4 505.5 472.5 501.1 473.8 500.4 497 487.8 496.5 463.1 496.1 440.8 476.7 428.8 475.5 428.1 477.4 419.3 480.6 407.5 486.5 394.1 490.2 385.7 496.9 370.4 509.5 356.1 526.1 337.2 535.3 340.1 552.5 324.1 558.2 318.8 576.8 300.3 583.5 272.1 592.5 234.1 574.4 201.4 566.5 187.1 555.7 167.6 542.9 155.1 533.5 146.1 516.1 129.4 499 118.7 486.5 112.1 489.1 109.6 496 102.6 498.5 91.1 501.3 78.3 497 68.2 495.5 65.1 512.1 64.2 535.6 63.7 563.5 66.1 589.9 68.4 619.5 71.1 654.5 85.1 690.2 99.4 704.8 114.6 712.5 125.1 718.8 133.6 725.7 143.3 724.5 155.1 722.7 172.4 705.3 177.9 691.5 195.1 679 210.8 676.7 227.1 673.5 262.1 669.8 302.1 666.6 347.3 664.5 397.1 663.2 407.8 661.8 418.4 660.5 429.1 657 428.9 643.2 428.4 631.5 438.1 618.9 448.6 614.9 465.7 618.5 480.1 623.5 500 641.2 508.1 643.5 509.1 640 521.1 634.3 538.2 625.5 558.1 618.8 573.1 610.6 589.1 584.5 631.1 556.1 676.8 559 668.8 545.5 692.1 528.4 721.6 511.5 751.1 505.5 781.1 503.3 792.1 500.3 803 498.5 814.1 496.2 827.8 495.9 834.3 491.5 842.1 486.2 851.3 478.4 856.9 472.5 860.1Z" id="path11" fill="url(#SVGID_00000071517425178755058180000003674465978415037871_)"/><path d="M486.5 248.1C491 227.8 489.3 211.6 487.5 202.1 484.3 185 477.9 172.9 470.5 159.1 462.3 143.7 453.8 132 447.5 124.1 450.5 124.7 458.6 125.9 467.5 122.1 474.4 119.1 478.6 114.5 480.5 112.1 491.2 117 505.9 124.9 521.5 137.1 534.8 147.5 552.7 161.8 566.5 187.1 579.5 210.8 582.3 231.9 583.5 242.1 585.8 261.2 587.5 275.3 580.5 290.1 576 299.7 570.7 303.5 546.5 323.1 519.9 344.7 506.6 355.5 502.5 360.1 491.6 372.2 479.2 392.6 475.5 428.1 470.5 425.8 465.5 423.4 460.5 421.1 457.5 421.8 454.5 422.4 451.5 423.1 447.6 403.3 447.3 386.1 448.5 372.1 449.1 365.2 450.9 348.5 468.5 297.1 475 278.3 481.1 261.8 486.5 248.1Z" id="path13" fill="url(#SVGID_00000121960696711760016340000012256832765909914027_)"/><path d="M456.5 517.1C427.8 517.1 404.5 493.8 404.5 465.1 404.5 436.4 427.8 413.1 456.5 413.1 485.2 413.1 508.5 436.4 508.5 465.1 508.5 493.8 485.2 517.1 456.5 517.1ZM456.5 434.1C439.4 434.1 425.5 448 425.5 465.1 425.5 482.2 439.4 496.1 456.5 496.1 473.6 496.1 487.5 482.2 487.5 465.1 487.5 448 473.6 434.1 456.5 434.1Z" id="path15" fill="url(#SVGID_00000063606539488385703910000018176314702282257057_)"/><path d="M231.5 516.1C202.8 516.1 179.5 492.8 179.5 464.1 179.5 435.4 202.8 412.1 231.5 412.1 260.2 412.1 283.5 435.4 283.5 464.1 283.5 492.8 260.2 516.1 231.5 516.1ZM231.5 433.1C214.4 433.1 200.5 447 200.5 464.1 200.5 481.2 214.4 495.1 231.5 495.1 248.6 495.1 262.5 481.2 262.5 464.1 262.5 447 248.6 433.1 231.5 433.1Z" id="path17" fill="url(#SVGID_00000093154532824643319510000017775323769497103538_)"/><path d="M659.5 522.1C630.8 522.1 607.5 498.8 607.5 470.1 607.5 441.4 630.8 418.1 659.5 418.1 688.2 418.1 711.5 441.4 711.5 470.1 711.5 498.8 688.2 522.1 659.5 522.1ZM659.5 439.1C642.4 439.1 628.5 453 628.5 470.1 628.5 487.2 642.4 501.1 659.5 501.1 676.6 501.1 690.5 487.2 690.5 470.1 690.5 453 676.6 439.1 659.5 439.1Z" id="path19" fill="url(#SVGID_00000101800755346732667960000015189930415628600475_)"/><path d="M428.8 860.2C424.2 842.5 409.6 802.9 387.4 779.8 382.5 774.8 380 772.8 365.6 762.3 361.8 759.5 357.3 756.1 351.7 752 303.4 716.1 281.6 699.7 271 687.4 270.3 686.6 269.5 685.7 268.6 684.7 260.6 675.9 245.6 659.6 234 624.8 227.2 604.3 223.4 580.2 221.5 563.7 219.6 547.7 218.3 523.5 218.4 513.4L239.4 513.6C239.3 522.9 240.6 546.3 242.3 561.3 244.8 583.3 248.9 603.5 253.8 618.2 264 648.8 277 662.9 284 670.5 285.1 671.7 286 672.7 286.8 673.6 296.3 684.6 321.8 703.6 364.1 735 369.6 739.1 374.2 742.5 378 745.3 392.8 756.3 396.4 758.8 402.4 765.2 427.5 791.3 443.5 833.8 449 854.8Z" id="path21" fill="url(#SVGID_00000098194089837937106970000005559008950029376644_)"/><path d="M420.2 432.7C405.4 416.6 393.7 398.4 385.3 378.7 379.4 364.9 375.2 350.3 372.6 335.3 370.7 324.3 370.7 318.4 370.7 312.7 370.7 308.1 370.7 303.7 369.6 296.1 368.2 286.2 364.1 266.6 352.7 245.6 344.7 230.8 337 222.4 323.2 213.4 322.7 213.1 322.2 212.8 321.7 212.4 316.9 209.2 307.1 202.5 290.3 203.1 278 203.6 266.5 205.2 239.3 221.6 220.5 232.9 209.4 242.6 205.4 251.1 205.1 251.7 204.8 252.4 204.4 253.1 202.8 256.1 201 259.5 201.4 266 201.9 275 206.3 281.3 213.7 291.6 216.5 295.5 219.6 299.9 222.8 305 237.9 328.8 242.5 351.8 245.2 365.6 248.5 382.1 249.5 399.1 248.4 416.4L227.5 415C228.5 399.6 227.6 384.4 224.7 369.8 222.1 356.7 218.2 336.9 205.1 316.4 202.2 311.8 199.3 307.8 196.6 303.9 188.4 292.4 181.4 282.4 180.5 267.4 179.8 255.1 183.7 247.6 185.9 243.5 186.1 243.1 186.4 242.6 186.5 242.3 192.6 229.6 205.5 217.7 228.6 203.8 257.2 186.6 272.1 182.9 289.6 182.3 313.2 181.4 327.5 191.1 333.5 195.2 333.9 195.5 334.3 195.8 334.7 196 351.4 206.8 361.6 218 371.2 235.8 383.4 258.4 388.3 279.6 390.3 293.3 391.6 302.5 391.7 308 391.7 312.9 391.7 318.2 391.7 322.8 393.3 332 395.6 345.4 399.4 358.4 404.6 370.6 412.1 388.1 422.5 404.2 435.7 418.6Z" id="path23" fill="url(#SVGID_00000060710254016024039870000015364175824356431492_)"/><path d="M471.4 851.2 450.6 848.1C454.1 824.6 454.5 801.3 451.6 779 448.4 754.1 441.4 730.8 438 719.7 434.8 709 432 701.5 429.9 695.5 426.1 685 423.4 677.5 421.7 664 419.4 645.7 420.8 631.6 422.7 613.6 423.5 605.7 425.1 593.9 433.9 552.5 436.8 538.8 439.9 524.9 442.9 511.4L463.4 516C460.3 529.5 457.3 543.2 454.4 556.8 445.1 600.5 444.1 610.4 443.6 615.7 441.8 633.6 440.6 645.4 442.6 661.3 444 672.5 446.1 678.1 449.7 688.3 452 694.6 454.8 702.3 458.2 713.6 461.7 725.3 469.1 749.6 472.6 776.3 475.5 800.5 475.2 825.7 471.4 851.2Z" id="path25" fill="url(#SVGID_00000133507185509940584970000005219924581221137561_)"/><path d="M442.7 420.4C440.3 406.7 438.4 377.1 441.7 354.1 444 337.9 446.7 325.6 455.3 303.7 460 291.8 463.4 284.1 466.2 277.9 470 269.4 472.2 264.4 475 254.6L475.4 253.2C479.1 240.2 482.3 229 479.7 208.9 476.7 186 464.4 165.7 459.8 158.1L459 157C454.9 150.1 440.8 132.8 437 128.4L452.9 114.7C456.5 118.9 471.8 137.5 476.9 146.1L477.5 147.2C482.7 155.9 496.7 178.9 500.3 206.2 503.5 230.6 499.4 245.1 495.4 259.1L495 260.5C491.8 271.6 489 277.9 485.2 286.6 482.5 292.6 479.2 300 474.7 311.5 466.8 331.6 464.4 342.2 462.3 357.1 459.4 377.6 461.2 404.9 463.3 416.8Z" id="path27" fill="url(#SVGID_00000109028212335922583310000001316077668829360301_)"/><path d="M488.3 427.7 467.7 423.5C473.6 395 487.5 367.1 495.6 356.3 505.3 343.4 516.4 334.9 534.8 320.9L539.7 317.2C560.5 301.3 562.5 297.8 566.6 290.7 567 289.9 567.5 289.2 568 288.3 576 274.5 574.9 259.6 573.6 242.4 572.9 232.8 570.9 207.3 553.4 181.5 543.3 166.7 532 157.7 524.6 151.8 512.1 141.9 486 126.3 476.8 122.1L485.5 103C496.1 107.8 523.7 124.2 537.7 135.3 545.7 141.6 559 152.2 570.9 169.6 591.6 200 593.9 230.6 594.7 240.7 596.2 259.7 597.6 279.3 586.3 298.8 585.8 299.6 585.4 300.3 585 301 579.4 310.7 575.8 316.2 552.6 333.8L547.7 337.5C530.2 350.8 520.5 358.1 512.6 368.7 505.4 378.2 493.2 403.8 488.3 427.7Z" id="path29" fill="url(#SVGID_00000032621763143675655830000009653541001349933755_)"/><path d="M497.5 868 476.5 867.2C478 827.6 491.8 778.5 500.2 756.8 511.9 726.5 522.7 703.5 546.3 668.7 559.5 649.3 568.5 637.6 575.7 628.3 584.3 617.3 590.4 609.3 598.8 594.5 614.8 566 626.6 531.8 631.8 511.1L652.2 516.2C646.7 538.2 634.2 574.5 617.2 604.8 608.1 621 601.2 629.9 592.4 641.2 585.3 650.3 576.5 661.7 563.7 680.5 541.1 713.8 531.2 734.9 519.8 764.4 511.4 786.3 498.9 832.9 497.5 868Z" id="path31" fill="url(#SVGID_00000005256033001897370780000003292455553218321800_)"/><path d="M672.5 424.6 651.6 422.6C652.7 410.9 654.3 386.5 655.6 362 656.6 343.6 656.9 330 657.1 319 657.6 298.8 657.9 285.5 661.7 264.6 667.5 233.4 673.4 210.5 685.3 192.7 688.9 187.3 693.9 182 698.7 176.8 706.1 168.9 716.2 158 714.8 151.9 711.4 137.3 710.5 135.9 696.9 123.2 677.6 105.2 665.5 100.4 653.7 95.8 650.8 94.7 647.8 93.5 644.8 92.1 643.3 91.4 607.8 76 554 76 528.5 76 514.7 76.2 502.9 79.6L497 59.4C511.5 55.2 527.2 55 553.9 55 612 55 651.5 72.2 653.1 72.9 655.7 74.1 658.4 75.1 661.2 76.2 674.1 81.3 688.8 87 711 107.8 726.9 122.6 730.4 127.3 735.1 147.1 739.1 164 725.7 178.4 713.9 191.1 709.4 195.9 705.2 200.4 702.6 204.4 694.1 217.2 688.3 235.2 682.2 268.5 678.7 287.7 678.4 299.7 677.9 319.6 677.6 330.7 677.3 344.5 676.4 363.2 675.2 387.9 673.6 412.6 672.5 424.6Z" id="path33" fill="url(#SVGID_00000058551429385145912800000000954683227378306477_)"/><path d="M483.4 234.8C469 219.5 450.8 211.3 433.3 203.4L432.8 203.2C417.5 196.3 391.5 188.1 354.1 188.1 327.2 188.1 300.3 193.9 274.3 205.2L265.9 186C294.6 173.5 324.3 167.1 354.1 167.1 395.2 167.1 424.2 176.3 441.4 184L441.9 184.2C460.4 192.5 481.4 202 498.7 220.3Z" id="path35" fill="url(#SVGID_00000088824780057276370380000007840913610518617753_)"/><path d="M503.2 911 500.7 890.2C548.2 884.5 618 868.4 681 824 752.7 773.5 791.3 715.5 807.8 685.5 825.9 652.7 835.9 624 839.7 612.1 854.5 566 859.3 525.6 862.5 491.1 864.3 472.2 866.7 427.3 867.5 416.1 868.4 404.8 869 395.4 869.5 389.1L875.5 419.1C876.9 427.2 878.5 439.7 879.5 452.1 879.6 453.7 881.2 470.9 880.5 493.1 878.4 559.5 860.5 616.2 860.5 616.2 854.8 634.2 844.1 663.2 826.2 695.7 808.7 727.3 768.2 788.3 693.1 841.2 626.5 888.1 553.1 905 503.2 911Z" id="path37" fill="url(#SVGID_00000046316011998917695610000005716474571803597241_)"/><path d="M409.8 70.2 412.3 91C364.8 96.7 295 112.8 232 157.2 160.3 207.7 121.7 265.7 105.2 295.7 87.1 328.5 77.1 357.2 73.3 369.1 58.5 415.2 53.7 455.6 50.5 490.1 48.7 509 46.3 553.9 45.5 565.1 44.6 576.4 44 585.8 43.5 592.1L37.5 562.1C36.1 554 34.5 541.5 33.5 529.1 33.4 527.5 31.8 510.3 32.5 488.1 34.6 421.7 52.5 365 52.5 365 58.2 347 68.9 318 86.8 285.5 104.3 253.9 144.8 192.9 219.9 140 286.5 93.1 359.9 76.2 409.8 70.2Z" id="path39" fill="url(#SVGID_00000129207128906028747640000005580128196566931889_)"/><path d="M456.5 951.1C427.8 951.1 404.5 927.8 404.5 899.1 404.5 870.4 427.8 847.1 456.5 847.1 485.2 847.1 508.5 870.4 508.5 899.1 508.5 927.8 485.2 951.1 456.5 951.1ZM456.5 868.1C439.4 868.1 425.5 882 425.5 899.1 425.5 916.2 439.4 930.1 456.5 930.1 473.6 930.1 487.5 916.2 487.5 899.1 487.5 882 473.6 868.1 456.5 868.1Z" id="path41" fill="url(#SVGID_00000004507072389780548850000015516076608327940251_)"/><path d="M456.5 134.1C427.8 134.1 404.5 110.8 404.5 82.1 404.5 53.4 427.8 30.1 456.5 30.1 485.2 30.1 508.5 53.4 508.5 82.1 508.5 110.8 485.2 134.1 456.5 134.1ZM456.5 51.1C439.4 51.1 425.5 65 425.5 82.1 425.5 99.2 439.4 113.1 456.5 113.1 473.6 113.1 487.5 99.2 487.5 82.1 487.5 65 473.6 51.1 456.5 51.1Z" id="path43" fill="url(#SVGID_00000080904455923153471350000016126403042911244682_)"/></g><g id="g47"><ellipse cx="456.6" cy="899.2" rx="31.1" ry="31.6" id="ellipse43" fill="#F9F9F9"/><ellipse cx="456.5" cy="465.1" rx="31" ry="31.5" id="ellipse44" fill="#F9F9F9"/><ellipse cx="231.5" cy="464.1" rx="31" ry="31.5" id="ellipse45" fill="#F9F9F9" transform="matrix(0.9996 -0.0272238 0.0272238 0.9996 -12.5486 6.4743)"/><ellipse cx="659.5" cy="470.1" rx="31" ry="31.5" id="ellipse46" fill="#F9F9F9"/><ellipse cx="456.5" cy="82.1" rx="31" ry="31.5" id="ellipse47" fill="#F9F9F9"/></g></g><g id="g39" stroke="#000000" transform="matrix(1.2078 0 0 1.6381 0.724678 918.514)"><path d="M52.3 26.6C52.3 42 43.2 51.8 27.8 51.8L10.1 51.8 10.1 1.4 27.7 1.4C43.2 1.4 52.3 10.9 52.3 26.6ZM42.6 26.3C42.6 16.6 38 9.9 27.4 9.9L19.6 9.9 19.6 43.3 27.4 43.3C38 43.3 42.6 36.1 42.6 26.3Z" id="path1"/><path d="M94.3 44.9 94.3 51.8 90.4 51.8C87 51.8 84.3 50.8 83.1 47.5 80.7 50.6 76.9 52.5 71.2 52.5 63.9 52.5 58.4 49 58.4 41.9 58.4 34.8 63.8 31.6 70.4 31L81.6 29.9 81.6 28.4C81.6 24.4 79.1 22.5 75.5 22.5 71.6 22.5 69.6 24.7 69 27.9L59.8 27.9C60.5 20.4 66.3 15.1 75.5 15.1 83.9 15.1 90.8 19.3 90.8 29L90.8 42.2C90.8 44.1 91.7 44.9 93.4 44.9ZM81.6 36.2 73.6 37C70.3 37.4 67.8 38.7 67.8 41.5 67.8 44.3 70 45.4 72.9 45.4 76.8 45.4 81.7 43.5 81.7 37.8L81.7 36.2Z" id="path2-3"/><path d="M102.9 42 102.9 23 95.2 23 95.2 15.7 97.6 15.7C102 15.7 103.7 14.1 103.7 10.2L103.7 6 112 6 112 15.8 121.4 15.8 121.4 23 112 23 112 40.7C112 42.7 112.5 45.2 116.8 45.2 117.9 45.2 119.2 45 120.3 44.7L120.3 51.7C118.7 52.1 116.6 52.5 114 52.5 104.1 52.5 102.9 45.9 102.9 42Z" id="path3"/><path d="M161.1 44.9 161.1 51.8 157.2 51.8C153.8 51.8 151.1 50.8 149.9 47.5 147.5 50.6 143.7 52.5 138 52.5 130.7 52.5 125.2 49 125.2 41.9 125.2 34.8 130.5 31.6 137.1 31L148.3 29.9 148.3 28.4C148.3 24.4 145.8 22.5 142.2 22.5 138.3 22.5 136.3 24.7 135.7 27.9L126.5 27.9C127.2 20.4 133 15.1 142.2 15.1 150.6 15.1 157.5 19.3 157.5 29L157.5 42.2C157.5 44.1 158.4 44.9 160.1 44.9ZM148.4 36.2 140.3 37.1C137 37.5 134.5 38.8 134.5 41.6 134.5 44.4 136.7 45.5 139.6 45.5 143.5 45.5 148.4 43.6 148.4 37.9Z" id="path4-6"/><path d="M192.1 25.6 192.1 33.2 164.7 33.2 164.7 25.6Z" id="path5-7"/><path d="M234.8 0.6 234.8 51.7 227.3 51.7 226.5 47.5 225.9 47.5C224.2 49.8 220.8 52.5 215.2 52.5 205.6 52.5 198.3 45.2 198.3 33.7 198.3 22.2 205.8 15.1 215.2 15.1 220.1 15.1 223.7 17 225.6 19.2L225.6 0.6ZM225.6 33.7C225.6 27.4 222.1 23 216.6 23 211.1 23 207.5 27.3 207.5 33.7 207.5 40.1 211.2 44.5 216.6 44.5 222 44.5 225.6 40.2 225.6 33.7Z" id="path6-5"/><path d="M242.8 15.8 251.2 15.8 252.1 20.9 252.7 20.9C254.9 17.3 257.4 15.1 263.4 15.1L266 15.1 266 24.3C264.7 24.1 263.4 24 262.1 24 254.2 24 252.1 29.8 252.1 35L252.1 51.8 242.9 51.8Z" id="path7-3"/><path d="M269.7 5.6C269.7 2.4 272.4 0 275.4 0 278.4 0 280.9 2.5 280.9 5.6 280.9 8.5 278.4 11.1 275.4 11.1 272.4 11.1 269.7 8.6 269.7 5.6ZM270.8 15.8 280 15.8 280 51.8 270.8 51.8Z" id="path8"/><path d="M284.6 15.8 294.1 15.8 303.7 42.2 304.3 42.2 313.7 15.8 323.1 15.8 309.3 51.8 298.3 51.8Z" id="path9-5"/><path d="M359.9 40.4C358.5 47.8 352.3 52.5 343.1 52.5 332.4 52.5 324.6 45.2 324.6 34.1 324.6 22.2 332.8 15 342.7 15 351.6 15 359.8 20.6 359.8 33.5 359.8 34.4 359.7 35.2 359.7 36.2L333.8 36.2C334.2 41.4 337.5 45.1 343.2 45.1 347.2 45.1 350.1 43.4 351.1 40.3ZM333.8 30 351 30C350.8 25.5 347.5 22.4 342.7 22.4 337.9 22.4 334.5 25.7 333.8 30Z" id="path10"/><path d="M366.8 15.8 375.2 15.8 376 20 376.6 20C378.8 17.2 381.8 15 387.2 15 395.8 15 401.2 20.5 401.2 29.9L401.2 51.7 392 51.7 392 31.7C392 25.8 388.6 22.9 384.3 22.9 380 22.9 376 25.7 376 32.1L376 51.6 366.8 51.6Z" id="path11-6"/><path d="M484 51.8 474.7 51.8 474.7 18.3 474.1 18.3 461.6 46 452 46 439.4 18.3 438.8 18.3 438.8 51.8 429.5 51.8 429.5 1.4 441.2 1.4 456.5 36 457.1 36 472.4 1.4 484 1.4Z" id="path12"/><path d="M528.3 44.9 528.3 51.8 524.4 51.8C521 51.8 518.4 50.8 517.1 47.5 514.6 50.6 510.9 52.5 505.2 52.5 497.9 52.5 492.4 49 492.4 41.9 492.4 34.8 497.7 31.6 504.3 31L515.5 29.9 515.5 28.4C515.5 24.4 513 22.5 509.5 22.5 505.6 22.5 503.6 24.7 503 27.9L493.8 27.9C494.5 20.4 500.3 15.1 509.5 15.1 517.9 15.1 524.8 19.3 524.8 29L524.8 42.2C524.8 44.1 525.7 44.9 527.4 44.9ZM515.6 36.2 507.5 37.1C504.2 37.5 501.7 38.8 501.7 41.6 501.7 44.4 503.9 45.5 506.8 45.5 510.7 45.5 515.6 43.6 515.6 37.9Z" id="path13-2"/><path d="M536.9 42 536.9 23 529.2 23 529.2 15.7 531.7 15.7C536.1 15.7 537.8 14.1 537.8 10.2L537.8 6 546.1 6 546.1 15.8 555.5 15.8 555.5 23 546.1 23 546.1 40.7C546.1 42.7 546.6 45.2 550.9 45.2 552 45.2 553.4 45 554.4 44.7L554.4 51.7C552.8 52.1 550.7 52.5 548.1 52.5 538.1 52.5 536.9 45.9 536.9 42Z" id="path14"/><path d="M593.7 40.4C592.3 47.8 586.1 52.5 576.9 52.5 566.2 52.5 558.4 45.2 558.4 34.1 558.4 22.2 566.6 15 576.6 15 585.5 15 593.7 20.6 593.7 33.5 593.7 34.4 593.6 35.2 593.6 36.2L567.7 36.2C568.1 41.4 571.4 45.1 577.1 45.1 581.1 45.1 584 43.4 585 40.3ZM567.6 30 584.8 30C584.6 25.5 581.3 22.4 576.5 22.4 571.7 22.4 568.3 25.7 567.6 30Z" id="path15-9"/><path d="M600.6 15.8 608.9 15.8 609.8 20.9 610.4 20.9C612.6 17.3 615.1 15.1 621.1 15.1L623.7 15.1 623.7 24.3C622.4 24.1 621.1 24 619.8 24 611.9 24 609.8 29.8 609.8 35L609.8 51.8 600.6 51.8Z" id="path16"/><path d="M627.4 5.6C627.4 2.4 630.1 0 633.1 0 636.1 0 638.6 2.5 638.6 5.6 638.6 8.5 636.1 11.1 633.1 11.1 630.1 11.1 627.4 8.6 627.4 5.6ZM628.5 15.8 637.7 15.8 637.7 51.8 628.5 51.8Z" id="path17-1"/><path d="M680.2 44.9 680.2 51.8 676.3 51.8C672.9 51.8 670.3 50.8 669 47.5 666.5 50.6 662.8 52.5 657.1 52.5 649.8 52.5 644.3 49 644.3 41.9 644.3 34.8 649.6 31.6 656.2 31L667.4 29.9 667.4 28.4C667.4 24.4 664.9 22.5 661.4 22.5 657.5 22.5 655.5 24.7 654.9 27.9L645.7 27.9C646.4 20.4 652.2 15.1 661.4 15.1 669.8 15.1 676.7 19.3 676.7 29L676.7 42.2C676.7 44.1 677.6 44.9 679.3 44.9ZM667.5 36.2 659.4 37.1C656.1 37.5 653.6 38.8 653.6 41.6 653.6 44.4 655.8 45.5 658.7 45.5 662.6 45.5 667.5 43.6 667.5 37.9Z" id="path18"/><path d="M685.6 0.6 694.8 0.6 694.8 51.7 685.6 51.7Z" id="path19-2"/><path d="M701.3 40.2 710.2 40.2C710.7 44.1 713.6 45.6 717.3 45.6 720.1 45.6 722.6 44.5 722.6 41.9 722.6 39.2 720.1 38 716.3 37L712.9 36.1C708.1 34.9 702.6 33 702.6 26 702.6 19 708.9 15 716.1 15 725.8 15 730.3 20.1 730.8 26L721.9 26C721.5 23.4 719.5 21.8 716.1 21.8 713.3 21.8 711.3 23.2 711.3 25.5 711.3 28 713.8 28.7 717.2 29.6L720.6 30.5C726.9 32.1 731.3 35 731.3 41.7 731.3 49.1 725 52.4 717.3 52.4 707.2 52.5 701.8 47.7 701.3 40.2Z" id="path20"/><path d="M35.8 131.3 35.8 138.2 31.9 138.2C28.5 138.2 25.9 137.2 24.6 133.9 22.1 137 18.4 138.9 12.7 138.9 5.4 138.9-0.1 135.4-0.1 128.3-0.1 121.2 5.2 118 11.8 117.4L23 116.2 23 114.7C23 110.7 20.5 108.8 17 108.8 13.1 108.8 11.1 111 10.5 114.2L1.4 114.2C2.1 106.7 7.9 101.4 17.1 101.4 25.5 101.4 32.4 105.6 32.4 115.3L32.4 128.5C32.4 130.4 33.3 131.2 35 131.2ZM23.1 122.6 15 123.5C11.7 123.9 9.2 125.2 9.2 128 9.2 130.8 11.4 131.9 14.3 131.9 18.2 131.9 23.1 130 23.1 124.3 23.1 124.3 23.1 122.6 23.1 122.6Z" id="path21-7"/><path d="M41.2 102.2 49.6 102.2 50.4 106.4 51 106.4C53.2 103.6 56.2 101.4 61.6 101.4 70.2 101.4 75.6 106.9 75.6 116.3L75.6 138.1 66.4 138.1 66.4 118.2C66.4 112.3 63 109.4 58.7 109.4 54.4 109.4 50.4 112.2 50.4 118.6L50.4 138.1 41.2 138.1Z" id="path22"/><path d="M118.7 87.1 118.7 138.2 111.2 138.2 110.4 134 109.7 134C108 136.3 104.6 139 99 139 89.3 139 82.1 131.7 82.1 120.2 82.1 108.7 89.6 101.5 99 101.5 103.9 101.5 107.5 103.4 109.4 105.6L109.4 87C109.4 87 118.7 87 118.7 87.1ZM109.4 120.1C109.4 113.8 105.9 109.4 100.4 109.4 94.9 109.4 91.3 113.7 91.3 120.1 91.3 126.5 95 130.9 100.4 130.9 105.8 130.9 109.4 126.6 109.4 120.1Z" id="path23-0"/><path d="M201.5 138.2 192.2 138.2 192.2 104.7 191.6 104.7 179.1 132.4 169.5 132.4 156.9 104.7 156.3 104.7 156.3 138.2 147 138.2 147 87.8 158.7 87.8 174 122.4 174.6 122.4 189.9 87.8 201.5 87.8Z" id="path24"/><path d="M208.9 120.1C208.9 109 217.1 101.4 227.9 101.4 238.7 101.4 246.9 109 246.9 120.1 246.9 131.2 238.8 138.9 227.9 138.9 217 138.9 208.9 131.2 208.9 120.1ZM237.8 120.1C237.8 114.1 233.8 109.4 227.9 109.4 222 109.4 218.1 114.1 218.1 120.1 218.1 126.1 222 130.9 227.9 130.9 233.8 130.9 237.8 126.2 237.8 120.1Z" id="path25-9"/><path d="M253.7 87.1 262.9 87.1 262.9 138.2 253.7 138.2Z" id="path26"/><path d="M304.7 126.8C303.3 134.2 297.1 138.9 287.9 138.9 277.2 138.9 269.4 131.6 269.4 120.5 269.4 108.6 277.6 101.4 287.5 101.4 296.4 101.4 304.6 107 304.6 119.9 304.6 120.8 304.5 121.6 304.5 122.6L278.6 122.6C279 127.8 282.3 131.5 288 131.5 292 131.5 294.9 129.8 295.9 126.7ZM278.6 116.4 295.8 116.4C295.6 111.9 292.3 108.8 287.5 108.8 282.7 108.8 279.3 112.1 278.6 116.4Z" id="path27-3"/><path d="M309.9 120.3C309.9 109 318.1 101.4 328.6 101.4 337 101.4 344.9 105.9 346 115.3L336.8 115.3C336 112 332.9 109.4 328.6 109.4 323.1 109.4 319.1 113.9 319.1 120.3 319.1 126.7 322.8 130.9 328.7 130.9 332.9 130.9 335.7 129 336.8 125.7L346.1 125.7C344.9 133.8 338 138.9 328.7 138.9 317.5 138.9 309.9 131.2 309.9 120.3Z" id="path28"/><path d="M386.5 138.2 378.1 138.2 377.3 134 376.7 134C374.5 136.8 371.5 139 366.1 139 357.5 139 352.1 133.5 352.1 124.1L352.1 102.3 361.3 102.3 361.3 122.3C361.3 128.2 364.7 131.1 369.1 131.1 373.5 131.1 377.3 128.3 377.3 121.9L377.3 102.4 386.5 102.4Z" id="path29-6"/><path d="M394.6 87.1 403.8 87.1 403.8 138.2 394.6 138.2Z" id="path30"/><path d="M446.2 131.3 446.2 138.2 442.3 138.2C438.9 138.2 436.3 137.2 435 133.9 432.5 137 428.8 138.9 423.1 138.9 415.8 138.9 410.3 135.4 410.3 128.3 410.3 121.2 415.6 118 422.2 117.4L433.4 116.2 433.4 114.7C433.4 110.7 430.9 108.8 427.4 108.8 423.5 108.8 421.5 111 420.9 114.2L411.7 114.2C412.4 106.7 418.2 101.4 427.4 101.4 435.8 101.4 442.7 105.6 442.7 115.3L442.7 128.5C442.7 130.4 443.6 131.2 445.3 131.2ZM433.5 122.6 425.4 123.5C422.1 123.9 419.6 125.2 419.6 128 419.6 130.8 421.8 131.9 424.7 131.9 428.6 131.9 433.5 130 433.5 124.3Z" id="path31-0"/><path d="M451.6 102.2 460 102.2 460.9 107.3 461.5 107.3C463.7 103.7 466.2 101.5 472.2 101.5L474.8 101.5 474.8 110.7C473.5 110.5 472.2 110.4 470.9 110.4 463 110.4 460.9 116.2 460.9 121.4L460.9 138.2 451.7 138.2Z" id="path32"/><path d="M517.8 138.9C505.8 138.9 499.4 132.4 499 122.8L508.4 122.8C508.8 127.8 512.1 130.9 517.8 130.9 522.1 130.9 525.7 129.1 525.7 124.7 525.7 119.6 520.7 117.9 516.1 116.6L513.2 115.7C507 113.8 500.5 110 500.5 101.7 500.5 92.7 507.8 87.2 517.6 87.2 528 87.2 534.5 93.5 534.8 102L525.4 102C525 98 522.4 95.2 517.6 95.2 513.1 95.2 510 97.6 510 101.3 510 105.6 514.4 107.1 518.6 108.4L521.1 109.2C525.9 110.6 535.1 114 535.1 124.5 535.3 134.2 527.1 138.9 517.8 138.9Z" id="path33-6"/><path d="M540.7 120.3C540.7 109 548.9 101.4 559.4 101.4 567.7 101.4 575.7 105.9 576.8 115.3L567.6 115.3C566.8 112 563.7 109.4 559.4 109.4 553.9 109.4 549.9 113.9 549.9 120.3 549.9 126.7 553.6 130.9 559.6 130.9 563.8 130.9 566.6 129 567.7 125.7L577 125.7C575.8 133.8 568.9 138.9 559.6 138.9 548.4 138.9 540.7 131.2 540.7 120.3Z" id="path34"/><path d="M582.2 92C582.2 88.8 584.9 86.4 587.9 86.4 590.9 86.4 593.4 88.8 593.4 92 593.4 94.9 590.9 97.5 587.9 97.5 584.9 97.5 582.2 95 582.2 92ZM583.3 102.2 592.5 102.2 592.5 138.2 583.3 138.2Z" id="path35-2"/><path d="M634.3 126.8C632.9 134.2 626.7 138.9 617.5 138.9 606.8 138.9 599 131.6 599 120.5 599 108.6 607.2 101.4 617.2 101.4 626.1 101.4 634.3 107 634.3 119.9 634.3 120.8 634.2 121.6 634.2 122.6L608.3 122.6C608.7 127.8 612.1 131.5 617.7 131.5 621.7 131.5 624.6 129.8 625.6 126.7ZM608.3 116.4 625.5 116.4C625.3 111.9 622 108.8 617.2 108.8 612.4 108.8 608.9 112.1 608.3 116.4Z" id="path36"/><path d="M641.2 102.2 649.6 102.2 650.4 106.4 651 106.4C653.2 103.6 656.2 101.4 661.6 101.4 670.2 101.4 675.6 106.9 675.6 116.3L675.6 138.1 666.4 138.1 666.4 118.2C666.4 112.3 663 109.4 658.7 109.4 654.4 109.4 650.4 112.2 650.4 118.6L650.4 138.1 641.2 138.1Z" id="path37-6"/><path d="M682.1 120.3C682.1 109 690.3 101.4 700.8 101.4 709.1 101.4 717.1 105.9 718.2 115.3L709 115.3C708.2 112 705.1 109.4 700.8 109.4 695.3 109.4 691.3 113.9 691.3 120.3 691.3 126.7 695 130.9 701 130.9 705.2 130.9 708 129 709.1 125.7L718.4 125.7C717.2 133.8 710.3 138.9 701 138.9 689.7 138.9 682.1 131.2 682.1 120.3Z" id="path38"/><path d="M758.1 126.8C756.7 134.2 750.5 138.9 741.3 138.9 730.6 138.9 722.8 131.6 722.8 120.5 722.8 108.6 731 101.4 741 101.4 749.9 101.4 758.1 107 758.1 119.9 758.1 120.8 758 121.6 758 122.6L732 122.6C732.4 127.8 735.8 131.5 741.4 131.5 745.4 131.5 748.3 129.8 749.3 126.7ZM732 116.4 749.2 116.4C749 111.9 745.7 108.8 740.9 108.8 736.1 108.8 732.7 112.1 732 116.4Z" id="path39-1"/></g></svg>