<?xml version="1.0" encoding="UTF-8" standalone="no"?>
<svg
   version="1.1"
   id="Layer_1"
   x="0px"
   y="0px"
   width="100%"
   viewBox="0 0 1093 182"
   enable-background="new 0 0 1093 182"
   xml:space="preserve"
   sodipodi:docname="q.svg"
   inkscape:version="1.4 (unknown)"
   xmlns:inkscape="http://www.inkscape.org/namespaces/inkscape"
   xmlns:sodipodi="http://sodipodi.sourceforge.net/DTD/sodipodi-0.dtd"
   xmlns="http://www.w3.org/2000/svg"
   xmlns:svg="http://www.w3.org/2000/svg"><defs
   id="defs17" /><sodipodi:namedview
   id="namedview17"
   pagecolor="#ffffff"
   bordercolor="#000000"
   borderopacity="0.25"
   inkscape:showpageshadow="2"
   inkscape:pageopacity="0.0"
   inkscape:pagecheckerboard="0"
   inkscape:deskcolor="#d1d1d1"
   inkscape:zoom="0.40324794"
   inkscape:cx="789.83664"
   inkscape:cy="69.436188"
   inkscape:window-width="1920"
   inkscape:window-height="992"
   inkscape:window-x="0"
   inkscape:window-y="0"
   inkscape:window-maximized="1"
   inkscape:current-layer="Layer_1" />

<path
   fill="#F3F2F1"
   opacity="1.000000"
   stroke="none"
   d=" M1.000000,72.467606   C2.322283,66.667206 3.543872,61.307034 4.984859,56.006504   C10.283035,36.517696 22.179441,22.155272 39.514771,12.165298   C54.869629,3.316631 71.753708,1.492000 88.873405,3.181882   C103.925247,4.667646 117.449898,10.513360 129.213120,20.558741   C143.872131,33.077042 152.418411,49.006775 154.777176,67.645546   C158.148834,94.288048 151.906372,118.659622 131.648056,137.487946   C124.344238,144.276199 115.018181,148.888641 106.565079,154.527283   C117.245819,164.071594 130.504532,160.653717 143.714569,159.585373   C143.714569,166.434555 143.714569,173.451401 143.714569,180.777130   C140.971054,181.253433 138.136398,181.745560 135.150879,182.618835   C125.979103,183.000000 116.958214,183.000000 107.360291,182.635559   C106.270332,181.877121 105.806206,181.238861 105.237259,181.125183   C93.605453,178.801025 85.379799,172.067413 80.298042,161.531540   C79.089470,159.025848 77.951103,157.957947 74.986107,157.860138   C70.312798,157.705963 65.616280,156.913925 61.022366,155.949799   C47.998539,153.216446 36.142178,147.768784 26.348360,138.724396   C12.149931,125.612480 3.457224,109.525047 1.905074,89.957481   C1.878029,89.616531 1.313649,89.318214 1.000000,89.000000   C1.000000,83.645073 1.000000,78.290138 1.000000,72.467606  M58.704941,34.038376   C54.170818,37.161697 48.773708,39.530750 45.262474,43.548100   C34.206982,56.197151 29.169870,70.859039 31.862789,88.027000   C33.582355,98.989616 37.483589,108.771507 45.206123,116.504776   C54.956810,126.269012 66.895927,130.804291 81.054550,130.152695   C93.317078,129.588348 103.750221,125.150101 111.753014,116.456932   C122.650696,104.619141 127.155785,90.313377 125.091255,73.968689   C123.327209,60.002876 117.834984,48.290001 106.836197,39.341152   C93.528244,28.513540 73.069839,27.030008 58.704941,34.038376  z"
   id="path2" />
<path
   fill="#F3F2F1"
   opacity="1.000000"
   stroke="none"
   d=" M1094.000000,50.531601   C1091.710815,54.784393 1089.959595,59.067028 1087.015747,62.244965   C1081.601685,68.089508 1075.837891,73.734398 1069.571411,78.633049   C1062.102539,84.471748 1058.023560,91.572174 1058.001221,101.017059   C1057.993042,104.490829 1058.000000,107.964638 1058.000000,111.716156   C1049.333130,111.716156 1040.934448,111.716156 1032.197388,111.716156   C1031.491211,98.894058 1031.173584,85.879181 1039.230103,75.164803   C1043.946655,68.892273 1050.789795,64.145576 1056.971313,59.071774   C1061.739258,55.158192 1065.797119,50.896103 1067.613037,44.888237   C1070.109619,36.628319 1063.067261,27.386204 1054.402588,26.943399   C1042.476440,26.333921 1036.682861,30.496223 1033.832031,41.817394   C1033.585938,42.794312 1031.421265,43.866028 1030.119629,43.902977   C1022.975708,44.105801 1015.822937,43.999725 1008.104065,43.999725   C1007.481812,34.732647 1010.284058,26.577166 1015.300842,19.333117   C1023.463745,7.546314 1035.221313,2.778637 1049.379761,2.938194   C1057.912964,3.034359 1066.213623,3.235699 1074.267578,6.923927   C1084.794922,11.744866 1090.432495,20.025688 1093.639160,30.875385   C1094.000000,37.354397 1094.000000,43.708797 1094.000000,50.531601  z"
   id="path3" />

<path
   fill="#F3F2F1"
   opacity="1.000000"
   stroke="none"
   d=" M629.539368,1.000000   C636.988831,5.116220 641.637512,10.546822 641.050293,19.333118   C640.693665,24.668962 636.090454,31.812738 630.877136,33.564407   C624.596497,35.674721 618.760681,35.376362 613.156433,30.809355   C602.740479,22.321209 605.665833,6.119292 617.900024,1.340296   C621.692932,1.000000 625.385803,1.000000 629.539368,1.000000  z"
   id="path5" />
<path
   fill="#F3F2F1"
   opacity="1.000000"
   stroke="none"
   d=" M339.199982,47.001484   C355.701324,43.576698 370.840607,45.229446 384.632568,54.931126   C394.774017,62.064930 400.506378,72.100967 402.837524,83.874779   C404.425110,91.892899 404.505585,100.209412 405.306976,108.901962   C378.345245,108.901962 352.904358,108.901962 327.461975,108.901962   C327.647369,125.748817 343.366333,137.583694 359.772705,134.239197   C367.681946,132.626877 373.687592,129.640778 377.091766,122.143555   C377.364624,121.542702 378.581970,121.057068 379.365326,121.049896   C387.832611,120.972366 396.300934,121.001511 404.870789,121.001511   C402.684326,133.727097 396.353912,143.677261 385.538239,149.566330   C378.652313,153.315674 370.541534,155.106110 362.774994,156.874619   C352.885498,159.126541 343.057190,157.462662 333.565826,154.149948   C313.932312,147.297333 303.297882,133.172134 299.922211,112.892792   C298.076324,101.803406 299.195007,91.245789 302.664368,80.601662   C308.088043,63.961563 319.588959,53.817474 335.557220,48.008076   C336.609802,47.625137 337.696594,47.336102 339.199982,47.001484  M330.926392,80.607460   C329.736633,83.495224 328.546844,86.382980 327.133606,89.813057   C344.694672,89.813057 361.141205,89.813057 377.599030,89.813057   C375.071411,74.253471 365.411835,69.511604 356.500793,68.165245   C347.664978,66.830261 336.582428,70.993034 330.926392,80.607460  z"
   id="path6" />
<path
   fill="#F3F2F1"
   opacity="1.000000"
   stroke="none"
   d=" M740.646729,151.746124   C718.741150,161.125534 697.733826,159.877563 678.473755,146.541107   C668.112305,139.366440 661.163879,128.825180 658.535156,116.062515   C655.161865,99.685265 656.253723,83.964897 665.811768,69.603317   C675.789917,54.610371 690.032898,47.505375 707.779663,45.877373   C722.782104,44.501114 736.566895,47.279221 748.706787,56.058556   C760.981018,64.935074 768.009338,77.058502 770.166687,92.358231   C771.747314,103.568138 770.216187,114.000519 766.269104,124.365479   C761.506470,136.871887 752.903381,145.735443 740.646729,151.746124  M741.007324,111.390480   C745.851929,96.007759 739.548828,77.297325 722.872559,71.485176   C708.383667,66.435402 693.671082,73.591614 688.144531,87.051003   C679.791870,107.393150 689.810852,125.528214 703.662415,131.041718   C718.414673,136.913727 735.927307,129.066437 741.007324,111.390480  z"
   id="path7" />
<path
   fill="#F3F2F1"
   opacity="1.000000"
   stroke="none"
   d=" M178.021606,124.672607   C178.003876,99.019203 178.003876,73.804703 178.003876,48.293037   C186.649017,48.293037 196.047058,48.293037 205.783875,48.293037   C205.855118,49.710606 205.989563,51.151814 205.990631,52.593121   C206.004700,71.585289 205.891113,90.578346 206.045654,109.569260   C206.123611,119.148003 209.474121,126.974838 219.011139,131.032593   C228.185364,134.935974 236.863754,133.261642 243.982483,127.160393   C249.295410,122.606873 251.994720,115.844376 251.997467,108.469131   C252.004898,88.503281 252.000000,68.537430 252.000000,48.286385   C261.662720,48.286385 271.060608,48.286385 280.730560,48.286385   C280.730560,83.692490 280.730560,119.082069 280.730560,154.736160   C271.945221,154.736160 263.201721,154.736160 254.513168,154.736160   C253.673080,151.062973 252.848099,147.455887 251.739044,142.606705   C245.458160,149.494873 239.617096,154.445923 231.532944,156.144791   C213.426086,159.949905 192.964355,156.922226 182.253204,137.401154   C180.200562,133.660172 179.411392,129.225922 178.021606,124.672607  z"
   id="path8" />
<path
   fill="#F3F2F1"
   opacity="1.000000"
   stroke="none"
   d=" M859.735474,46.001972   C867.923218,47.598896 875.097412,50.507732 880.671082,56.256222   C887.429993,63.227100 891.686646,71.654610 891.918396,81.428040   C892.489258,105.498177 892.641785,129.578232 892.946960,153.654495   C892.950623,153.947952 892.748047,154.244034 892.559875,154.766327   C883.228271,154.766327 873.831360,154.766327 864.000000,154.766327   C864.000000,148.482391 864.000000,142.363846 864.000000,136.245300   C864.000000,121.584831 864.221497,106.919884 863.925415,92.265396   C863.713196,81.760803 858.494446,74.196960 849.087280,71.103020   C839.341492,67.897713 826.966492,72.495972 822.724915,79.631516   C819.732056,84.666389 817.977783,89.795448 817.987549,95.619659   C818.020386,115.243629 818.000000,134.867691 818.000000,154.744934   C808.272339,154.744934 798.875183,154.744934 789.238281,154.744934   C789.238281,119.244850 789.238281,83.855644 789.238281,48.233047   C798.122314,48.233047 806.869507,48.233047 815.562622,48.233047   C816.327026,51.918530 817.062866,55.466286 818.068481,60.315113   C820.574036,57.859592 822.132446,56.265514 823.761719,54.747540   C829.542358,49.361763 836.257629,46.109428 844.280762,46.011345   C849.283752,45.950180 854.288025,46.000221 859.735474,46.001972  z"
   id="path9" />
<path
   fill="#F3F2F1"
   opacity="1.000000"
   stroke="none"
   d=" M914.209961,120.000359   C922.181213,120.000061 929.671570,120.000061 937.570190,120.000061   C939.224731,127.383583 942.448242,133.789429 950.778687,135.216278   C957.478455,136.363831 964.447632,137.963654 970.190735,132.307358   C975.019531,127.551643 974.695251,121.414146 968.928467,117.599823   C965.784790,115.520477 962.033325,114.213486 958.398071,113.052765   C949.515808,110.216782 940.437378,107.971786 931.627014,104.939339   C915.068481,99.239990 910.316040,81.242455 916.106445,66.887772   C921.810547,52.747055 933.764343,47.602081 948.058838,45.914265   C959.143616,44.605438 969.798035,45.735687 979.810669,50.463947   C989.535706,55.056362 995.736267,62.858421 997.994385,73.551338   C998.325928,75.121292 998.685486,76.685326 999.118530,78.643173   C989.848328,78.643173 980.804443,78.643173 971.694641,78.643173   C968.563232,67.827347 955.276062,62.837833 945.565491,69.202553   C940.411926,72.580460 937.978699,79.379059 945.542969,83.633270   C951.988098,87.257988 959.729736,88.545395 966.843384,91.022850   C973.512573,93.345512 980.492188,95.160004 986.658386,98.462013   C998.619324,104.867073 1003.319580,120.844337 999.452576,134.183258   C995.210449,148.816040 983.790100,154.381943 970.588989,156.786026   C959.007812,158.895111 947.352539,157.821991 935.891602,154.136292   C922.356567,149.783600 914.676514,140.442307 911.343811,127.233063   C910.844849,125.255310 908.248291,120.783188 914.209961,120.000359  z"
   id="path10" />
<path
   fill="#F3F2F1"
   opacity="1.000000"
   stroke="none"
   d=" M476.758850,71.271057   C469.715668,65.926956 462.451050,65.323952 454.980347,69.064362   C451.747589,70.682930 449.809723,73.488609 449.975891,77.433563   C450.134827,81.206779 452.191101,83.686058 455.493042,84.743195   C463.611176,87.342262 471.851685,89.556160 480.016724,92.012238   C489.558350,94.882408 498.845306,98.364037 504.583832,107.212570   C506.552460,110.248077 508.455811,113.821106 508.827972,117.314835   C510.937744,137.120331 505.401184,150.323288 482.773102,155.954178   C468.294037,159.557205 453.886688,158.300140 440.259888,152.527069   C428.323792,147.470276 421.653381,137.792099 419.990143,124.822029   C419.806641,123.391014 419.489563,121.977119 419.185516,120.282654   C428.241150,120.282654 437.317230,120.282654 446.413849,120.282654   C449.878510,135.141541 468.299103,141.819855 479.210327,132.540863   C483.822510,128.618637 482.450928,118.908699 476.684875,116.959358   C469.844574,114.646820 463.038300,112.228897 456.163025,110.025803   C447.911407,107.381645 439.349945,105.909142 432.185455,100.172302   C426.501831,95.621269 423.809357,89.821442 423.107361,83.202827   C420.616486,59.717552 437.631958,47.668667 457.039459,45.892090   C467.272675,44.955330 477.003632,45.749622 486.489655,49.807606   C498.544464,54.964474 505.947540,63.518806 507.047455,76.927544   C507.097900,77.542694 507.394379,78.137650 507.616821,78.876587   C498.562195,78.876587 489.584717,78.876587 480.881317,78.876587   C479.539093,76.322739 478.284363,73.935356 476.758850,71.271057  z"
   id="path11" />
<path
   fill="#F3F2F1"
   opacity="1.000000"
   stroke="none"
   d=" M575.621826,157.713287   C567.852356,157.153183 560.412720,157.422684 553.323303,154.153030   C542.644836,149.228058 538.407532,140.352142 538.139648,129.628922   C537.649231,110.000237 538.000000,90.350525 538.000000,70.274727   C530.486877,70.274727 523.082092,70.274727 515.341248,70.274727   C515.341248,62.789375 515.341248,55.725719 515.341248,48.334671   C519.333801,47.902985 523.500061,47.243820 527.688293,47.043587   C536.122559,46.640354 540.731873,41.141014 540.984192,30.688688   C541.080505,26.700377 540.999878,22.707790 540.999878,18.358807   C549.171631,18.358807 557.237610,18.358807 565.739624,18.358807   C565.739624,27.864754 565.739624,37.599461 565.739624,47.762936   C575.221375,47.762936 584.290161,47.762936 593.676758,47.762936   C593.676758,55.248852 593.676758,62.313076 593.676758,69.814865   C584.724670,69.814865 575.656250,69.814865 566.000000,69.814865   C566.000000,76.329842 566.000000,82.423752 566.000000,88.517654   C566.000000,98.841309 565.998474,109.164970 566.000427,119.488625   C566.002747,131.693817 573.575989,137.620529 585.504639,134.785828   C587.163696,134.391571 588.859802,134.153473 590.997620,133.758255   C590.997620,140.537949 591.164185,146.678299 590.846375,152.793472   C590.788147,153.914398 588.906616,155.589493 587.615845,155.875153   C583.816589,156.715973 579.891235,156.987015 575.621826,157.713287  z"
   id="path12" />
<path
   fill="#F3F2F1"
   opacity="1.000000"
   stroke="none"
   d=" M638.000000,101.000000   C638.000000,119.130127 638.000000,136.760254 638.000000,154.694702   C628.713074,154.694702 619.650940,154.694702 610.292908,154.694702   C610.292908,119.367157 610.292908,83.989426 610.292908,48.305458   C619.286316,48.305458 628.348450,48.305458 638.000000,48.305458   C638.000000,65.666817 638.000000,83.083405 638.000000,101.000000  z"
   id="path13" />
<path
   fill="#F3F2F1"
   opacity="1.000000"
   stroke="none"
   d=" M1040.392944,155.985123   C1031.803955,152.219345 1028.049683,145.869614 1029.022461,136.903854   C1029.726318,130.414886 1033.788696,126.444824 1039.446777,123.881882   C1045.055176,121.341446 1052.347778,122.889214 1057.005127,127.499252   C1062.100830,132.543228 1063.537598,139.364487 1061.216431,145.376556   C1058.217651,153.144318 1053.624878,157.332245 1040.392944,155.985123  z"
   id="path14" />



</svg>
