<?xml version="1.0" encoding="UTF-8" standalone="no"?>
<svg
   version="1.1"
   id="Layer_1"
   x="0px"
   y="0px"
   width="100%"
   viewBox="0 0 1329 1159"
   enable-background="new 0 0 1329 1159"
   xml:space="preserve"
   sodipodi:docname="qdeco.svg"
   inkscape:version="1.4 (unknown)"
   xmlns:inkscape="http://www.inkscape.org/namespaces/inkscape"
   xmlns:sodipodi="http://sodipodi.sourceforge.net/DTD/sodipodi-0.dtd"
   xmlns="http://www.w3.org/2000/svg"
   xmlns:svg="http://www.w3.org/2000/svg"><defs
   id="defs34" /><sodipodi:namedview
   id="namedview34"
   inkscape:current-layer="Layer_1" />

<path
   fill="#F3F2F1"
   opacity="1.000000"
   stroke="none"
   d=" M1330.000000,867.562500   C1271.678101,868.000000 1213.356079,868.023193 1155.034302,867.937439   C1151.827515,867.932739 1149.569458,868.809937 1147.272949,871.119690   C1120.017578,898.532715 1092.675781,925.859924 1065.233521,953.085693   C1063.695557,954.611450 1061.082886,955.881714 1058.969849,955.882690   C785.189941,956.005554 511.410004,955.998352 237.630066,955.995483   C237.297348,955.995483 236.964630,955.964050 235.921783,955.911621   C239.723419,952.545715 242.804565,949.888550 248.108200,949.891052   C516.055847,950.015137 784.003601,949.991150 1051.951294,950.085449   C1055.902954,950.086853 1058.620239,949.027283 1061.430298,946.192749   C1088.529175,918.857605 1115.833008,891.725586 1142.942749,864.401184   C1145.520264,861.803345 1148.052124,860.924866 1151.600830,860.930664   C1210.754761,861.027771 1269.908691,861.000000 1329.531372,861.000000   C1330.000000,863.041687 1330.000000,865.083313 1330.000000,867.562500  z"
   id="path2" />
<path
   fill="#F3F2F1"
   opacity="1.000000"
   stroke="none"
   d=" M1330.000000,767.539368   C1318.158325,756.334229 1306.254028,744.730713 1294.531494,732.946472   C1292.362427,730.765869 1290.257568,729.931885 1287.204102,729.934143   C1180.721191,730.013062 1074.238159,730.013977 967.755249,729.929749   C964.680359,729.927307 962.590515,730.800720 960.442993,732.979004   C947.108459,746.504700 933.669678,759.929199 920.115967,773.234924   C918.664490,774.659790 916.248901,775.886536 914.279419,775.888184   C767.969604,776.010498 621.659729,775.999939 475.349792,775.999878   C474.738403,775.999878 474.126984,775.999817 472.493805,775.999817   C477.060120,772.142334 480.750702,769.851624 486.388885,769.858826   C626.866150,770.038696 767.343750,769.985779 907.821228,770.083374   C911.283813,770.085754 913.614258,769.054199 915.989136,766.639709   C929.217407,753.190613 942.552307,739.844788 956.010071,726.625793   C957.448364,725.213013 959.916931,724.108276 961.908936,724.106140   C1072.224487,723.986572 1182.540161,723.984619 1292.855713,724.114746   C1294.983154,724.117249 1297.588623,725.333130 1299.156860,726.833862   C1309.378174,736.614990 1319.374268,746.631409 1329.721924,756.285400   C1330.000000,759.692932 1330.000000,763.385803 1330.000000,767.539368  z"
   id="path3" />
<path
   fill="#F3F2F1"
   opacity="1.000000"
   stroke="none"
   d=" M1330.000000,643.562500   C1320.668091,644.000000 1311.332153,643.857239 1302.007202,644.112549   C1299.983643,644.167969 1297.508423,645.150330 1296.073608,646.555603   C1283.338867,659.028992 1270.853394,671.757324 1258.107666,684.219666   C1256.566772,685.726257 1253.919434,686.887085 1251.784180,686.888245   C1032.316284,687.007629 812.848389,687.000000 593.380493,687.000000   C592.427673,687.000000 591.474915,687.000000 589.553162,687.000000   C594.043457,683.150818 597.721069,680.856812 603.358154,680.861084   C817.660034,681.025330 1031.962036,680.990906 1246.264038,681.073914   C1250.020752,681.075378 1252.648804,680.047729 1255.304077,677.328918   C1267.643188,664.693787 1280.151123,652.219849 1292.805176,639.900330   C1294.445923,638.302917 1297.262573,637.199036 1299.573120,637.128113   C1309.395020,636.826538 1319.231567,637.000000 1329.531372,637.000000   C1330.000000,639.041687 1330.000000,641.083313 1330.000000,643.562500  z"
   id="path4" />
<path
   fill="#F3F2F1"
   opacity="1.000000"
   stroke="none"
   d=" M1330.000000,556.571533   C1322.668091,557.000000 1315.329346,556.824585 1308.008911,557.113525   C1305.977173,557.193665 1303.510010,558.150574 1302.074341,559.555237   C1289.808716,571.554688 1277.689453,583.705444 1265.645386,595.928223   C1263.537598,598.067322 1261.511475,599.093750 1258.373413,599.083984   C1217.715210,598.957153 1177.056274,599.047119 1136.398438,598.874756   C1134.129150,598.865173 1131.338989,597.585999 1129.686523,595.977844   C1117.389526,584.010742 1105.361328,571.768005 1093.118286,559.744690   C1091.752930,558.403809 1089.572144,557.116333 1087.766846,557.112549   C1023.450684,556.978149 959.134094,557.000000 896.598572,557.000000   C892.099548,561.850037 889.041016,566.597168 884.710510,569.324829   C881.631287,571.264404 876.632202,571.489014 872.850342,570.715820   C863.628357,568.830261 858.404419,562.372986 858.976868,552.032288   C859.339111,545.488220 865.490112,537.587524 871.542297,537.085938   C882.749329,536.157043 889.476135,537.159302 894.629822,551.000000   C899.720154,551.000000 904.877808,551.000000 910.035461,551.000000   C970.023499,551.000000 1030.011597,551.023743 1089.999512,550.934631   C1093.220947,550.929871 1095.479980,551.823364 1097.753418,554.141846   C1109.301270,565.918030 1120.970093,577.578308 1132.778320,589.092957   C1134.333374,590.609314 1136.926880,591.870422 1139.045166,591.879456   C1177.703369,592.044617 1216.362793,592.037231 1255.021240,591.893738   C1257.023560,591.886353 1259.504517,590.831299 1260.943115,589.425415   C1272.976074,577.665344 1284.741699,565.631226 1296.804077,553.902161   C1298.446411,552.305359 1301.255493,551.217590 1303.571655,551.128784   C1312.057861,550.803589 1320.564087,551.000000 1329.531372,551.000000   C1330.000000,552.714355 1330.000000,554.428711 1330.000000,556.571533  z"
   id="path5" />
<path
   fill="#F3F2F1"
   opacity="1.000000"
   stroke="none"
   d=" M1330.000000,1043.562500   C1307.512817,1044.000000 1285.024780,1044.081421 1262.539429,1043.876221   C1260.251343,1043.855347 1257.429321,1042.677490 1255.786743,1041.079224   C1243.254517,1028.885010 1230.907349,1016.498474 1218.625366,1004.050598   C1216.509033,1001.905701 1214.470459,1000.916199 1211.347412,1000.920044   C1130.393555,1001.021057 1049.439453,1001.009766 968.485413,1000.962341   C965.466187,1000.960632 963.801208,1001.275818 962.406921,1004.818604   C959.437500,1012.364197 952.968445,1015.299805 944.915100,1015.031067   C938.293762,1014.810120 931.799133,1010.831726 929.778870,1004.099304   C926.746277,993.992981 930.274597,982.682495 942.630981,981.039551   C953.396667,979.608154 959.334106,982.238525 964.385193,995.000000   C966.041260,995.000000 967.836609,995.000000 969.632019,995.000000   C1051.418945,995.000000 1133.205811,995.017273 1214.992676,994.935974   C1218.209106,994.932800 1220.471069,995.814514 1222.745972,998.134888   C1234.522095,1010.145935 1246.553101,1021.907166 1258.317261,1033.929810   C1260.616333,1036.279297 1262.917969,1037.077515 1266.098389,1037.059937   C1287.085938,1036.943848 1308.074463,1037.000000 1329.531372,1037.000000   C1330.000000,1039.041626 1330.000000,1041.083374 1330.000000,1043.562500  z"
   id="path6" />
<path
   fill="#F3F2F1"
   opacity="1.000000"
   stroke="none"
   d=" M1330.000000,447.571533   C1307.174683,448.000000 1284.348755,447.919525 1261.525269,448.124207   C1259.238647,448.144714 1256.408203,449.326202 1254.775513,450.930817   C1237.785767,467.627563 1221.029053,484.561310 1204.068970,501.288666   C1202.627197,502.710785 1200.187134,503.888275 1198.209595,503.890259   C1076.586060,504.012451 954.962280,503.999908 833.338562,503.999847   C832.729980,503.999847 832.121460,503.999817 830.660278,503.999817   C835.132690,499.843353 839.135559,497.846161 844.896606,497.855743   C960.855347,498.048492 1076.814453,497.983490 1192.773315,498.080475   C1196.216187,498.083344 1198.562866,497.099854 1200.955811,494.677002   C1217.344727,478.083008 1233.932007,461.684875 1250.309692,445.079987   C1252.613647,442.744110 1254.902222,441.924438 1258.087524,441.939484   C1281.745483,442.051147 1305.404297,442.000000 1329.531372,442.000000   C1330.000000,443.714355 1330.000000,445.428711 1330.000000,447.571533  z"
   id="path7" />
<path
   fill="#F3F2F1"
   opacity="1.000000"
   stroke="none"
   d=" M1330.000000,396.571533   C1299.837769,397.000000 1269.675293,396.938416 1239.514160,397.123108   C1237.230957,397.137085 1234.400146,398.333801 1232.767090,399.939850   C1215.423950,416.997040 1198.312012,434.289093 1180.993896,451.372070   C1179.559448,452.787048 1177.087280,453.890778 1175.095581,453.893433   C1083.442627,454.016144 991.789673,454.000000 900.136658,454.000000   C899.241638,454.000000 898.346619,454.000000 896.964966,454.000000   C901.139160,449.528656 905.371704,447.847626 911.102173,447.861023   C997.088928,448.061737 1083.076294,447.981842 1169.063354,448.070160   C1172.313477,448.073486 1174.817627,447.388885 1176.764404,444.775146   C1177.354980,443.982269 1178.150757,443.340454 1178.864136,442.641144   C1195.712769,426.122375 1212.516846,409.557312 1229.498169,393.175934   C1230.910034,391.813904 1233.519531,391.098175 1235.576782,391.089661   C1266.738403,390.960541 1297.900635,391.000000 1329.531372,391.000000   C1330.000000,392.714355 1330.000000,394.428711 1330.000000,396.571533  z"
   id="path8" />
<path
   fill="#F3F2F1"
   opacity="1.000000"
   stroke="none"
   d=" M1330.000000,1001.571533   C1315.002808,1002.000000 1300.004272,1002.092346 1285.009766,1001.890259   C1282.996216,1001.863159 1280.507935,1000.854431 1279.076538,999.448181   C1265.291016,985.905273 1251.717285,972.147095 1237.973755,958.560791   C1236.714233,957.315613 1234.702515,956.116333 1233.033447,956.107239   C1205.546997,955.956299 1178.059570,956.000000 1150.630615,956.000000   C1146.988525,966.781067 1139.320679,971.717224 1128.548706,969.945007   C1120.757324,968.663147 1114.744995,961.870117 1114.949097,953.460266   C1115.156128,944.926270 1120.675781,937.032104 1127.607788,936.005920   C1139.387085,934.262207 1146.713867,938.665894 1150.687134,950.000000   C1178.620239,950.000000 1206.608398,950.075378 1234.595093,949.907959   C1238.244995,949.886108 1240.673950,951.002747 1243.180664,953.555725   C1256.254639,966.870361 1269.450684,980.068054 1282.805298,993.100281   C1284.443359,994.698792 1287.270142,995.828186 1289.571777,995.873657   C1302.731079,996.133789 1315.898315,996.000000 1329.531372,996.000000   C1330.000000,997.714355 1330.000000,999.428711 1330.000000,1001.571533  z"
   id="path9" />
<path
   fill="#F3F2F1"
   opacity="1.000000"
   stroke="none"
   d=" M1330.000000,314.541931   C1328.783813,314.283203 1327.159302,313.853271 1326.420532,312.801270   C1322.758179,307.586670 1317.761841,306.845093 1311.762573,306.882904   C1274.787109,307.116241 1237.809448,307.034241 1200.832764,306.936401   C1197.799927,306.928375 1195.668579,307.710999 1193.498413,309.919830   C1180.777344,322.867584 1167.923462,335.686371 1154.978516,348.410522   C1153.628418,349.737579 1151.390625,350.886200 1149.560059,350.892914   C1110.918579,351.034454 1072.276611,351.000000 1032.469238,351.000000   C1036.254028,347.866119 1038.614014,344.890778 1043.482178,344.914551   C1076.793945,345.077484 1110.107056,345.054993 1143.418701,344.879700   C1145.708130,344.867676 1148.547974,343.707977 1150.184692,342.111267   C1163.534668,329.087738 1176.599243,315.771545 1189.934570,302.732727   C1191.470703,301.230865 1194.132080,300.120605 1196.276489,300.112732   C1237.750122,299.960571 1279.224976,300.113342 1320.697266,299.833099   C1325.076904,299.803497 1326.594116,302.875702 1329.701904,304.288269   C1330.000000,307.361298 1330.000000,310.722565 1330.000000,314.541931  z"
   id="path10" />
<path
   fill="#F3F2F1"
   opacity="1.000000"
   stroke="none"
   d=" M1330.000000,503.571533   C1313.335693,504.000000 1296.670532,503.916351 1280.008423,504.109131   C1277.996338,504.132416 1275.504028,505.144653 1274.074951,506.552094   C1258.049316,522.334717 1242.245972,538.343323 1226.195801,554.100647   C1224.564453,555.702271 1221.732910,556.819519 1219.428345,556.872986   C1207.603027,557.147339 1195.766846,557.091064 1183.937378,556.930420   C1181.273193,556.894226 1179.891724,557.550903 1178.948730,560.161987   C1176.179077,567.829956 1168.539429,572.034668 1159.843506,570.997742   C1152.823486,570.160645 1146.136353,564.110413 1145.009033,557.575684   C1143.577148,549.276733 1147.212524,540.853394 1154.875366,538.219727   C1165.316284,534.631165 1175.796387,536.488342 1180.588379,551.000000   C1192.681030,551.000000 1204.838867,551.095093 1216.991577,550.890015   C1218.674438,550.861572 1220.691284,549.712708 1221.947144,548.469788   C1237.935059,532.648254 1253.754517,516.656189 1269.804688,500.898865   C1271.436035,499.297363 1274.275146,498.154205 1276.570923,498.124420   C1294.065796,497.897308 1311.564941,498.000000 1329.531372,498.000000   C1330.000000,499.714355 1330.000000,501.428711 1330.000000,503.571533  z"
   id="path11" />
<path
   fill="#F3F2F1"
   opacity="1.000000"
   stroke="none"
   d=" M1330.000000,955.571533   C1320.336182,956.000000 1310.668945,956.138123 1301.011597,955.887817   C1298.988892,955.835327 1296.510620,954.854004 1295.077148,953.448975   C1281.753052,940.389709 1268.677246,927.076904 1255.333496,914.037964   C1253.684082,912.426086 1250.901123,911.156799 1248.626831,911.130066   C1229.308594,910.902588 1209.986572,911.000000 1190.718506,911.000000   C1186.432739,922.886169 1178.660522,927.645264 1167.147949,924.896729   C1160.882446,923.400818 1154.236206,916.207275 1154.932495,907.061340   C1155.536621,899.126953 1161.872803,891.647583 1169.197144,891.000549   C1180.536133,889.998962 1187.475586,894.521545 1190.324951,905.000000   C1211.228149,905.000000 1232.208862,905.061462 1253.188599,904.931946   C1256.236084,904.913147 1258.353516,905.738281 1260.518433,907.937134   C1273.491333,921.113831 1286.563843,934.195251 1299.805664,947.100525   C1301.444824,948.698181 1304.252808,949.763611 1306.574829,949.870972   C1314.056763,950.217224 1321.564819,950.000000 1329.531372,950.000000   C1330.000000,951.714355 1330.000000,953.428711 1330.000000,955.571533  z"
   id="path12" />
<path
   fill="#F3F2F1"
   opacity="1.000000"
   stroke="none"
   d=" M1330.000000,252.571533   C1288.505615,253.000000 1247.011230,252.954956 1205.517456,253.121552   C1203.235840,253.130707 1200.404785,254.332962 1198.769531,255.937698   C1182.595703,271.808655 1166.584717,287.846649 1150.632446,303.941132   C1148.513794,306.078674 1146.488037,307.117767 1143.354126,307.085999   C1125.748779,306.907593 1108.140625,307.000000 1090.500366,307.000000   C1095.644775,299.898560 1102.838501,299.631744 1110.510010,299.912659   C1120.328857,300.272247 1130.174194,300.136566 1140.000000,299.887451   C1142.021240,299.836212 1144.502075,298.848541 1145.931763,297.440399   C1161.957153,281.657318 1177.760620,265.648621 1193.811401,249.891632   C1195.442017,248.290756 1198.291016,247.128052 1200.579834,247.119385   C1243.406982,246.956924 1286.234985,247.000000 1329.531372,247.000000   C1330.000000,248.714355 1330.000000,250.428711 1330.000000,252.571533  z"
   id="path13" />
<path
   fill="#F3F2F1"
   opacity="1.000000"
   stroke="none"
   d=" M1330.000000,820.571533   C1292.531128,821.000000 1255.062256,821.025208 1217.593506,820.953491   C1214.503174,820.947571 1212.845825,821.376770 1211.813843,824.977051   C1209.483887,833.106323 1200.729980,837.479309 1191.421509,835.990051   C1183.549805,834.730652 1178.419067,827.832153 1177.892456,819.374329   C1177.256348,809.157227 1184.621582,803.361267 1190.348633,802.111328   C1200.716553,799.848389 1208.135132,803.867676 1212.159546,812.614502   C1212.752441,813.903076 1215.435059,814.892700 1217.156250,814.901062   C1245.631836,815.040222 1274.108398,815.000000 1302.584717,815.000000   C1311.410767,815.000000 1320.236694,815.000000 1329.531372,815.000000   C1330.000000,816.714355 1330.000000,818.428711 1330.000000,820.571533  z"
   id="path14" />
<path
   fill="#F3F2F1"
   opacity="1.000000"
   stroke="none"
   d=" M1330.000000,200.571533   C1320.525024,201.000000 1311.050049,201.000000 1301.619873,201.000000   C1298.986084,212.433685 1291.267456,216.145981 1282.933350,215.773788   C1272.723267,215.317810 1266.527222,207.820511 1266.018677,201.184113   C1265.084106,188.987167 1270.880737,183.008301 1280.075317,181.181259   C1288.829102,179.441772 1297.956909,183.231720 1301.676270,195.000000   C1310.771484,195.000000 1319.917114,195.000000 1329.531372,195.000000   C1330.000000,196.714355 1330.000000,198.428711 1330.000000,200.571533  z"
   id="path15" />
<path
   fill="#F3F2F1"
   opacity="1.000000"
   stroke="none"
   d=" M1330.000000,919.531372   C1328.783325,920.701721 1327.476562,921.284485 1326.365601,922.125732   C1321.545532,925.775940 1311.620361,926.335510 1306.070190,923.000916   C1299.240723,918.897644 1297.105347,912.462952 1298.070068,904.975586   C1298.782227,899.449646 1302.367676,893.563354 1310.120850,891.500488   C1317.259766,889.601196 1323.957520,891.166077 1329.703613,896.288574   C1330.000000,903.687561 1330.000000,911.375183 1330.000000,919.531372  z"
   id="path16" />
<path
   fill="#F3F2F1"
   opacity="1.000000"
   stroke="none"
   d=" M1330.000000,700.531372   C1319.746704,699.980896 1314.533447,693.311768 1314.129517,684.399841   C1313.730225,675.588257 1320.205688,668.145813 1329.599243,667.000000   C1330.000000,678.020874 1330.000000,689.041809 1330.000000,700.531372  z"
   id="path17" />
<path
   fill="#F3F2F1"
   opacity="1.000000"
   stroke="none"
   d=" M1330.000000,611.531372   C1325.069092,609.011353 1321.043945,605.553833 1319.889526,599.291382   C1318.316650,590.758118 1321.404541,583.781738 1329.632324,580.001465   C1330.000000,590.354248 1330.000000,600.708435 1330.000000,611.531372  z"
   id="path18" />
<path
   fill="#F3F2F1"
   opacity="1.000000"
   stroke="none"
   d=" M1330.000000,157.571533   C1315.857666,158.000000 1301.715210,158.000000 1286.675415,158.000000   C1290.384521,154.688354 1292.975952,151.689270 1298.088623,151.883392   C1308.399902,152.274887 1318.736572,152.000000 1329.531372,152.000000   C1330.000000,153.714355 1330.000000,155.428711 1330.000000,157.571533  z"
   id="path19" />
<path
   fill="#F3F2F1"
   opacity="1.000000"
   stroke="none"
   d=" M529.000000,905.000000   C695.471436,905.000000 861.442871,904.989746 1027.414307,905.069031   C1030.969604,905.070740 1033.542358,904.242981 1036.071289,901.588684   C1043.884766,893.387817 1051.915527,885.386169 1060.070679,877.523682   C1062.484619,875.196289 1063.189575,873.170410 1062.029053,869.951233   C1058.216919,859.376953 1064.553345,851.324890 1071.752197,848.217773   C1081.457031,844.029236 1092.657104,850.172241 1095.172852,857.321106   C1097.734131,864.599426 1096.796753,871.225525 1091.791748,876.413757   C1087.034180,881.345459 1080.635132,883.785645 1073.660522,880.917419   C1070.170410,879.482178 1068.027344,880.318665 1065.546143,882.878723   C1057.314453,891.371704 1048.769531,899.561096 1040.533203,908.049805   C1038.387695,910.260986 1036.261841,911.067871 1033.207031,911.065979   C906.228882,910.989014 779.250732,911.000000 652.272583,911.000000   C550.290161,911.000000 448.307709,911.008972 346.325287,910.960144   C343.022797,910.958618 341.063995,911.110718 339.673492,915.201843   C336.932251,923.267029 325.085388,927.611633 316.993317,924.480591   C308.791443,921.307068 303.341461,911.817993 306.362030,903.871338   C307.618805,900.564941 311.761353,898.256592 314.798309,895.744141   C323.917816,888.199646 333.956299,890.389465 339.552856,901.034546   C340.157074,902.183838 340.692505,903.369385 341.484070,905.000000   C403.645538,905.000000 466.072754,905.000000 529.000000,905.000000  z"
   id="path20" />
<path
   fill="#F3F2F1"
   opacity="1.000000"
   stroke="none"
   d=" M554.000000,821.000000   C507.190125,821.000000 460.880249,821.000000 413.676758,821.000000   C417.389038,817.680420 420.005707,814.887146 425.100494,814.889954   C657.232544,815.016785 889.364624,814.991638 1121.496704,815.076599   C1125.092285,815.077942 1127.612427,814.145874 1130.116577,811.517761   C1142.255981,798.777527 1154.664795,786.294067 1166.818481,773.567139   C1169.292603,770.976196 1171.743530,769.884583 1175.397583,769.907227   C1202.892334,770.077454 1230.388794,769.974365 1257.884521,770.037842   C1260.782471,770.044556 1262.347168,769.655212 1263.493164,766.262207   C1266.032837,758.742737 1275.676147,754.184509 1283.955933,756.063477   C1292.226440,757.940308 1297.904053,765.446838 1297.960327,773.128784   C1298.028564,782.445190 1292.475342,788.422729 1282.681152,790.002380   C1273.059814,791.554138 1266.664429,787.816406 1262.909424,778.807129   C1262.398560,777.581665 1260.535034,776.124512 1259.290283,776.117493   C1232.128540,775.963623 1204.965332,775.954285 1177.803589,776.112671   C1176.153320,776.122253 1174.188599,777.426025 1172.917236,778.681519   C1159.757568,791.675903 1146.646362,804.721313 1133.692261,817.919861   C1131.392578,820.262878 1129.096313,821.057983 1125.912109,821.056885   C935.441406,820.993408 744.970703,821.000000 554.000000,821.000000  z"
   id="path21" />
<path
   fill="#F3F2F1"
   opacity="1.000000"
   stroke="none"
   d=" M637.000000,1001.000000   C483.540680,1001.000000 330.581360,1001.000000 176.726318,1001.000000   C180.659073,997.886047 183.162689,994.852356 188.497055,994.856323   C412.938171,995.023743 637.379456,995.000000 861.820679,995.000000   C863.647583,995.000000 865.474548,995.000000 867.604736,995.000000   C868.715759,989.391907 871.361938,984.611938 876.646240,982.253357   C879.632935,980.920288 883.286255,979.863403 886.418091,980.293518   C897.325439,981.791565 903.325439,988.461487 902.944702,998.249023   C902.572083,1007.826660 896.952454,1013.306580 888.432922,1014.898071   C878.391663,1016.773804 870.975830,1011.633057 867.356934,1001.000000   C790.776794,1001.000000 714.138367,1001.000000 637.000000,1001.000000  z"
   id="path22" />
<path
   fill="#F3F2F1"
   opacity="1.000000"
   stroke="none"
   d=" M976.000000,643.000000   C919.674988,643.000000 863.849854,642.975464 808.025024,643.063477   C804.813965,643.068542 802.545654,642.199097 800.263794,639.875061   C787.657227,627.035583 774.933960,614.308228 762.064819,601.732605   C760.527649,600.230408 757.871826,599.145447 755.718201,599.117310   C739.309326,598.903259 722.896362,599.000000 706.090271,599.000000   C710.179871,594.285400 714.694824,592.692871 720.515564,592.872437   C733.667786,593.278137 746.842773,592.895264 760.003967,593.110962   C762.018250,593.143982 764.498657,594.156311 765.932922,595.562744   C779.017639,608.393372 791.867249,621.463684 804.944885,634.301697   C806.390259,635.720642 808.830994,636.889221 810.811279,636.890930   C945.957703,637.009338 1081.104248,636.996399 1216.250732,636.990356   C1216.579346,636.990295 1216.907837,636.926758 1216.398438,636.113953   C1219.725708,632.380249 1222.470093,627.680969 1226.560669,625.211548   C1229.972046,623.152100 1235.192993,622.539856 1239.206299,623.335693   C1248.963379,625.270569 1253.750244,632.221130 1253.004395,642.532654   C1252.508423,649.388733 1245.718140,656.526245 1239.399048,657.020325   C1225.568604,658.101624 1220.080444,653.282776 1217.380859,643.000000   C1137.121216,643.000000 1056.810547,643.000000 976.000000,643.000000  z"
   id="path23" />
<path
   fill="#F3F2F1"
   opacity="1.000000"
   stroke="none"
   d=" M811.000000,1037.000000   C931.811462,1037.000000 1052.122925,1037.000000 1172.374756,1037.000000   C1175.495605,1027.718872 1183.736328,1021.725098 1191.572388,1023.023315   C1203.433105,1024.988281 1208.697144,1033.677246 1208.057495,1041.848022   C1207.573120,1048.032349 1201.325073,1056.368896 1196.194092,1056.996826   C1182.546997,1058.666992 1175.686157,1054.946655 1172.653931,1044.000000   C1170.411133,1044.000000 1168.090820,1044.000000 1165.770508,1044.000000   C1037.951538,1044.000000 910.132629,1044.016846 782.313721,1043.923706   C778.230774,1043.920776 774.870728,1044.453979 772.440735,1048.021362   C771.704041,1049.103027 770.476990,1049.838867 769.654114,1050.875732   C765.789246,1055.744751 761.182800,1058.686890 754.076355,1056.432251   C760.442688,1050.078369 766.738647,1043.684326 773.216919,1037.480591   C773.955444,1036.773438 775.716492,1037.021362 777.003967,1037.017822   C788.169189,1036.987061 799.334656,1037.000000 811.000000,1037.000000  z"
   id="path24" />
<path
   fill="#F3F2F1"
   opacity="1.000000"
   stroke="none"
   d=" M820.000000,868.000000   C786.340454,868.000000 753.180725,868.056396 720.021790,867.917236   C716.498901,867.902466 714.605835,868.548401 713.145874,872.163330   C710.009888,879.928711 699.600342,884.059814 690.815063,880.789185   C683.503906,878.067383 679.002808,872.605835 680.013794,862.810547   C680.961609,853.627014 686.382202,847.998901 694.861145,847.001526   C703.244385,846.015442 710.827942,850.585938 714.080322,858.293518   C714.565735,859.443970 716.098511,860.317749 717.339783,860.925110   C718.146545,861.319885 719.302979,861.000000 720.302795,861.000000   C806.117676,861.000061 891.932495,860.987061 977.747314,861.047852   C981.118774,861.050232 983.024963,860.769104 984.345093,856.725159   C986.640076,849.694763 996.898865,845.288269 1004.330383,847.140930   C1012.883118,849.273071 1018.424744,857.182312 1018.107788,864.144226   C1017.679077,873.560181 1012.436157,879.818726 1002.093689,881.973511   C995.246033,883.400208 987.077332,878.343811 983.973450,870.574768   C982.870911,867.815308 980.764771,867.980713 978.465942,867.982056   C935.808472,868.006470 893.151001,868.000000 850.493530,868.000000   C840.495667,868.000000 830.497864,868.000000 820.000000,868.000000  z"
   id="path25" />
<path
   fill="#F3F2F1"
   opacity="1.000000"
   stroke="none"
   d=" M704.685059,1030.814941   C708.458008,1025.077393 716.850525,1021.622070 722.683167,1023.256775   C731.675110,1025.776855 736.992493,1031.986328 737.000000,1039.975464   C737.010315,1050.934448 731.079651,1056.509277 720.444458,1057.142822   C710.503174,1057.735107 704.738953,1053.433716 701.927673,1044.205078   C614.017700,1044.205078 526.259888,1044.205078 438.478607,1044.205078   C432.125885,1056.536621 424.983124,1060.191772 413.614532,1056.895752   C407.978607,1055.261719 402.936340,1046.987427 402.985382,1039.646118   C403.029846,1032.988770 407.812897,1025.323853 417.619537,1023.124817   C425.208893,1021.423035 433.623352,1026.909302 438.354340,1036.892090   C526.103638,1036.892090 613.902649,1036.892090 701.597046,1036.892090   C702.573608,1034.869019 703.488281,1032.974121 704.685059,1030.814941  z"
   id="path26" />
<path
   fill="#F3F2F1"
   opacity="1.000000"
   stroke="none"
   d=" M975.825684,393.664764   C978.645752,392.582245 981.203064,391.106750 983.763916,391.100677   C1039.584351,390.968628 1095.405396,390.974365 1151.226074,391.069366   C1154.291382,391.074585 1156.391602,390.221222 1158.544189,388.035187   C1171.402588,374.976898 1184.486328,362.140442 1197.325684,349.063904   C1199.628906,346.718140 1201.915405,345.920135 1205.111694,345.934998   C1230.261841,346.052155 1255.412842,346.000000 1280.510620,346.000000   C1283.526367,333.380890 1298.376221,326.571960 1310.049683,334.882965   C1317.475464,340.169830 1319.039062,357.043884 1309.367065,362.897858   C1298.898804,369.233826 1285.432007,365.786896 1281.866821,354.265350   C1281.548340,353.236084 1279.502319,352.101959 1278.252563,352.095123   C1254.758545,351.966095 1231.263184,351.946869 1207.769653,352.114380   C1206.122437,352.126129 1204.167847,353.448608 1202.894775,354.706512   C1189.266235,368.171997 1175.793701,381.795410 1162.127563,395.221985   C1160.675659,396.648315 1158.265747,397.881653 1156.297119,397.886139   C1095.311035,398.025238 1034.324707,397.999878 973.338379,397.999847   C972.731079,397.999847 972.123840,397.999847 970.158997,397.999847   C972.629456,396.151794 974.097046,395.053955 975.825684,393.664764  z"
   id="path27" />
<path
   fill="#F3F2F1"
   opacity="1.000000"
   stroke="none"
   d=" M738.000000,723.000000   C782.817871,723.000000 827.135742,722.982849 871.453552,723.040222   C874.272400,723.043884 876.107727,722.833618 877.120789,719.462036   C879.563110,711.333984 888.079102,707.263855 898.436768,709.058350   C904.350098,710.082886 911.331360,718.059082 911.245544,725.004639   C911.125732,734.707825 905.706543,741.582642 897.896606,742.814941   C889.528687,744.135193 881.017273,742.832458 876.815186,731.598816   C876.372009,730.414062 874.339966,729.677856 872.903503,729.065857   C872.057373,728.705444 870.932190,729.000000 869.932556,729.000000   C760.304138,729.000000 650.675720,729.000000 541.047302,729.000000   C539.219788,729.000000 537.392273,729.000000 534.720703,729.000000   C538.814697,725.813416 541.527588,722.803345 547.067078,722.827026   C610.543823,723.098816 674.022095,723.000000 738.000000,723.000000  z"
   id="path28" />
<path
   fill="#F3F2F1"
   opacity="1.000000"
   stroke="none"
   d=" M1085.068115,603.719727   C1078.082275,613.616882 1070.986694,614.565552 1062.447510,611.905762   C1056.456421,610.039673 1053.008789,605.392639 1051.594727,599.000000   C1049.330322,599.000000 1047.010254,599.000000 1044.690186,599.000000   C978.857849,599.000000 913.025452,598.970154 847.193298,599.084045   C843.734802,599.090027 841.394897,598.071655 839.018188,595.651062   C827.226868,583.641785 815.336487,571.726501 803.274902,559.989868   C801.625366,558.384766 798.839233,557.187317 796.546875,557.131287   C784.893188,556.846558 773.228821,557.000000 761.490112,557.000000   C765.425659,551.866150 770.583008,550.607666 776.751831,550.903259   C786.047546,551.348511 796.398315,548.650452 804.396606,551.930908   C812.217224,555.138489 817.655945,564.159119 824.133057,570.635254   C830.849121,577.350342 837.485352,584.148132 844.332153,590.726929   C845.587280,591.932922 847.681519,592.904968 849.390076,592.907654   C916.388916,593.013245 983.387878,592.993958 1050.386841,592.984619   C1050.711304,592.984558 1051.035889,592.892761 1051.359741,592.839722   C1054.104004,581.298218 1064.622437,575.366394 1075.720215,579.279175   C1084.939819,582.529663 1090.181030,595.065308 1085.068115,603.719727  z"
   id="path29" />
<path
   fill="#F3F2F1"
   opacity="1.000000"
   stroke="none"
   d=" M587.000000,861.000000   C596.496399,861.000000 605.495300,860.883911 614.487732,861.072937   C617.079224,861.127319 618.180359,860.143494 619.017883,857.904358   C621.880920,850.249756 630.285645,845.511841 638.590759,847.051208   C647.016541,848.612793 652.627930,856.423645 653.085815,862.385925   C653.911072,873.130554 646.406799,879.425232 639.573669,881.120850   C630.442139,883.386902 621.945068,879.626099 617.481079,867.892212   C529.222900,867.892212 440.852356,867.892212 352.245544,867.892212   C356.780731,862.286743 362.211945,860.824280 369.087067,860.847656   C441.557404,861.093750 514.028870,861.000000 587.000000,861.000000  z"
   id="path30" />
<path
   fill="#F3F2F1"
   opacity="1.000000"
   stroke="none"
   d=" M1005.012817,776.000000   C1000.525085,776.000000 996.534973,776.000000 992.610718,776.000000   C989.254211,786.122314 981.094971,792.342468 973.413696,790.779602   C962.249512,788.508118 956.583191,782.478882 957.069275,772.572449   C957.540466,762.969360 963.157043,757.566772 971.751099,756.101379   C981.769470,754.393188 989.515564,759.849426 992.322144,769.865845   C1026.263672,769.865845 1060.243286,769.865845 1094.230591,769.865845   C1097.034546,760.413757 1103.209595,755.882446 1113.153442,755.999939   C1121.054321,756.093323 1127.428223,761.629211 1129.791870,770.450623   C1131.867920,778.199585 1124.755493,788.578918 1116.398804,789.995300   C1105.283691,791.879089 1100.217896,788.932861 1094.825562,778.053223   C1094.236450,776.864563 1091.662964,776.092834 1090.005371,776.085022   C1064.340576,775.963318 1038.675171,776.000000 1013.009888,776.000000   C1010.510071,776.000000 1008.010193,776.000000 1005.012817,776.000000  z"
   id="path31" />
<path
   fill="#F3F2F1"
   opacity="1.000000"
   stroke="none"
   d=" M119.409256,1044.434814   C120.888359,1042.969727 122.341110,1041.930054 123.706818,1040.786499   C127.060410,1037.978149 130.696487,1036.871704 135.254852,1036.884644   C195.881149,1037.057251 256.508118,1037.000000 317.134918,1037.000000   C318.960846,1037.000000 320.786804,1037.000000 322.514252,1037.000000   C327.777893,1026.301147 334.846985,1021.384094 342.301361,1023.109253   C352.527679,1025.475952 357.885071,1031.841431 358.069244,1041.072266   C358.197144,1047.479614 352.579987,1055.329102 345.856049,1056.910400   C334.445984,1059.594238 328.402557,1056.126099 322.583984,1044.000000   C321.139099,1044.000000 319.515350,1044.000000 317.891571,1044.000000   C253.933640,1044.000000 189.975708,1043.991943 126.017792,1044.034302   C123.792793,1044.035767 121.568115,1044.541870 119.409256,1044.434814  z"
   id="path32" />
<path
   fill="#F3F2F1"
   opacity="1.000000"
   stroke="none"
   d=" M718.556152,656.843384   C713.381042,654.121216 709.035583,651.261719 707.596802,645.356567   C707.332581,644.272217 704.691040,643.140076 703.122009,643.103760   C693.960449,642.891907 684.791504,643.000000 675.625061,643.000000   C666.625854,643.000000 657.626648,643.000000 647.667725,643.000000   C651.675537,639.826660 654.424805,636.783081 659.617432,636.887024   C675.270935,637.200256 690.934753,637.000000 706.624817,637.000000   C710.110291,627.830872 716.056580,622.355530 726.334595,622.990173   C734.749512,623.509827 742.459961,631.228210 742.955444,639.727905   C743.360901,646.683044 736.608582,655.555725 729.342834,656.890137   C725.981995,657.507385 722.411926,656.985596 718.556152,656.843384  z"
   id="path33" />
<path
   fill="#F3F2F1"
   opacity="1.000000"
   stroke="none"
   d=" M115.305893,1050.196655   C111.541489,1053.251099 109.498871,1058.743774 103.213593,1056.671265   C105.550697,1054.887817 107.828262,1053.190796 110.059784,1051.435303   C112.232239,1049.726196 114.357529,1047.957153 117.185280,1046.557861   C116.648346,1047.689575 116.111412,1048.821411 115.305893,1050.196655  z"
   id="path34" />
</svg>
