<?xml version="1.0" encoding="UTF-8" standalone="no"?>
<!-- Created with Inkscape (http://www.inkscape.org/) -->

<svg
   version="1.1"
   id="svg1"
   width="3424.2505"
   height="98.267067"
   viewBox="0 0 3424.2504 98.267066"
   xmlns="http://www.w3.org/2000/svg"
   xmlns:svg="http://www.w3.org/2000/svg">
  <defs
     id="defs1">
    <clipPath
       clipPathUnits="userSpaceOnUse"
       id="clipPath14">
      <path
         d="m 15,17.008 h 527.242 v 73.7 H 15 Z"
         transform="translate(-132.1028,-82.201102)"
         id="path14" />
    </clipPath>
    <clipPath
       clipPathUnits="userSpaceOnUse"
       id="clipPath16">
      <path
         d="m 15,17.008 h 527.242 v 73.7 H 15 Z"
         transform="translate(-162.2392,-40.174501)"
         id="path16" />
    </clipPath>
    <clipPath
       clipPathUnits="userSpaceOnUse"
       id="clipPath18">
      <path
         d="m 15,17.008 h 527.242 v 73.7 H 15 Z"
         transform="translate(-231.25361,-82.203902)"
         id="path18" />
    </clipPath>
    <clipPath
       clipPathUnits="userSpaceOnUse"
       id="clipPath20">
      <path
         d="m 15,17.008 h 527.242 v 73.7 H 15 Z"
         transform="translate(-284.7497,-75.846102)"
         id="path20" />
    </clipPath>
    <clipPath
       clipPathUnits="userSpaceOnUse"
       id="clipPath22">
      <path
         d="m 15,17.008 h 527.242 v 73.7 H 15 Z"
         transform="translate(-332.66781,-82.203902)"
         id="path22" />
    </clipPath>
    <clipPath
       clipPathUnits="userSpaceOnUse"
       id="clipPath24">
      <path
         d="m 15,17.008 h 527.242 v 73.7 H 15 Z"
         transform="translate(-397.56791,-82.203902)"
         id="path24" />
    </clipPath>
    <clipPath
       clipPathUnits="userSpaceOnUse"
       id="clipPath26">
      <path
         d="m 15,17.008 h 527.242 v 73.7 H 15 Z"
         transform="translate(-448.16861,-68.428802)"
         id="path26" />
    </clipPath>
    <clipPath
       clipPathUnits="userSpaceOnUse"
       id="clipPath28">
      <path
         d="m 15,17.008 h 527.242 v 73.7 H 15 Z"
         transform="translate(-488.54061,-82.203302)"
         id="path28" />
    </clipPath>
    <clipPath
       clipPathUnits="userSpaceOnUse"
       id="clipPath32">
      <path
         d="m 15,17.008 h 527.242 v 73.7 H 15 Z"
         transform="translate(-132.1057,-82.201102)"
         id="path32" />
    </clipPath>
    <clipPath
       clipPathUnits="userSpaceOnUse"
       id="clipPath34">
      <path
         d="m 15,17.008 h 527.242 v 73.7 H 15 Z"
         transform="translate(-136.8896,-82.201102)"
         id="path34" />
    </clipPath>
    <clipPath
       clipPathUnits="userSpaceOnUse"
       id="clipPath38">
      <path
         d="m 15,17.008 h 527.242 v 73.7 H 15 Z"
         transform="translate(-231.25361,-82.203902)"
         id="path38" />
    </clipPath>
    <clipPath
       clipPathUnits="userSpaceOnUse"
       id="clipPath40">
      <path
         d="m 15,17.008 h 527.242 v 73.7 H 15 Z"
         transform="translate(-193.5808,-53.439602)"
         id="path40" />
    </clipPath>
    <clipPath
       clipPathUnits="userSpaceOnUse"
       id="clipPath42">
      <path
         d="m 15,17.008 h 527.242 v 73.7 H 15 Z"
         transform="translate(-231.25361,-82.203902)"
         id="path42" />
    </clipPath>
    <clipPath
       clipPathUnits="userSpaceOnUse"
       id="clipPath44">
      <path
         d="m 15,17.008 h 527.242 v 73.7 H 15 Z"
         transform="matrix(1.3333333,0,0,-1.3333333,-31.338533,109.60693)"
         id="path44" />
    </clipPath>
    <clipPath
       clipPathUnits="userSpaceOnUse"
       id="clipPath47">
      <path
         d="m 15,17.008 h 527.242 v 73.7 H 15 Z"
         transform="translate(-397.56791,-82.203902)"
         id="path47" />
    </clipPath>
    <clipPath
       clipPathUnits="userSpaceOnUse"
       id="clipPath49">
      <path
         d="m 15,17.008 h 527.242 v 73.7 H 15 Z"
         transform="translate(-397.56791,-82.203902)"
         id="path49" />
    </clipPath>
    <clipPath
       clipPathUnits="userSpaceOnUse"
       id="clipPath51">
      <path
         d="m 15,17.008 h 527.242 v 73.7 H 15 Z"
         transform="translate(-363.66091,-54.408701)"
         id="path51" />
    </clipPath>
    <clipPath
       clipPathUnits="userSpaceOnUse"
       id="clipPath66">
      <path
         d="m 533.74,17.008 h 518.738 v 73.7 H 533.74 Z"
         transform="translate(-642.33902,-82.201102)"
         id="path66" />
    </clipPath>
    <clipPath
       clipPathUnits="userSpaceOnUse"
       id="clipPath68">
      <path
         d="m 533.74,17.008 h 518.738 v 73.7 H 533.74 Z"
         transform="translate(-672.47541,-40.174501)"
         id="path68" />
    </clipPath>
    <clipPath
       clipPathUnits="userSpaceOnUse"
       id="clipPath70">
      <path
         d="m 533.74,17.008 h 518.738 v 73.7 H 533.74 Z"
         transform="translate(-741.48982,-82.203902)"
         id="path70" />
    </clipPath>
    <clipPath
       clipPathUnits="userSpaceOnUse"
       id="clipPath72">
      <path
         d="m 533.74,17.008 h 518.738 v 73.7 H 533.74 Z"
         transform="translate(-794.98602,-75.846102)"
         id="path72" />
    </clipPath>
    <clipPath
       clipPathUnits="userSpaceOnUse"
       id="clipPath74">
      <path
         d="m 533.74,17.008 h 518.738 v 73.7 H 533.74 Z"
         transform="translate(-842.90412,-82.203902)"
         id="path74" />
    </clipPath>
    <clipPath
       clipPathUnits="userSpaceOnUse"
       id="clipPath76">
      <path
         d="m 533.74,17.008 h 518.738 v 73.7 H 533.74 Z"
         transform="translate(-907.8041,-82.203902)"
         id="path76" />
    </clipPath>
    <clipPath
       clipPathUnits="userSpaceOnUse"
       id="clipPath78">
      <path
         d="m 533.74,17.008 h 518.738 v 73.7 H 533.74 Z"
         transform="translate(-958.4048,-68.428802)"
         id="path78" />
    </clipPath>
    <clipPath
       clipPathUnits="userSpaceOnUse"
       id="clipPath80">
      <path
         d="m 533.74,17.008 h 518.738 v 73.7 H 533.74 Z"
         transform="translate(-998.77685,-82.203302)"
         id="path80" />
    </clipPath>
    <clipPath
       clipPathUnits="userSpaceOnUse"
       id="clipPath84">
      <path
         d="m 533.74,17.008 h 518.738 v 73.7 H 533.74 Z"
         transform="translate(-642.34191,-82.201102)"
         id="path84" />
    </clipPath>
    <clipPath
       clipPathUnits="userSpaceOnUse"
       id="clipPath86">
      <path
         d="m 533.74,17.008 h 518.738 v 73.7 H 533.74 Z"
         transform="translate(-647.12571,-82.201102)"
         id="path86" />
    </clipPath>
    <clipPath
       clipPathUnits="userSpaceOnUse"
       id="clipPath90">
      <path
         d="m 533.74,17.008 h 518.738 v 73.7 H 533.74 Z"
         transform="translate(-741.48982,-82.203902)"
         id="path90" />
    </clipPath>
    <clipPath
       clipPathUnits="userSpaceOnUse"
       id="clipPath92">
      <path
         d="m 533.74,17.008 h 518.738 v 73.7 H 533.74 Z"
         transform="translate(-703.81702,-53.439602)"
         id="path92" />
    </clipPath>
    <clipPath
       clipPathUnits="userSpaceOnUse"
       id="clipPath94">
      <path
         d="m 533.74,17.008 h 518.738 v 73.7 H 533.74 Z"
         transform="translate(-741.48982,-82.203902)"
         id="path94" />
    </clipPath>
    <clipPath
       clipPathUnits="userSpaceOnUse"
       id="clipPath96">
      <path
         d="m 533.74,17.008 h 518.738 v 73.7 H 533.74 Z"
         transform="matrix(1.3333333,0,0,-1.3333333,-31.338533,109.60693)"
         id="path96" />
    </clipPath>
    <clipPath
       clipPathUnits="userSpaceOnUse"
       id="clipPath99">
      <path
         d="m 533.74,17.008 h 518.738 v 73.7 H 533.74 Z"
         transform="translate(-907.8041,-82.203902)"
         id="path99" />
    </clipPath>
    <clipPath
       clipPathUnits="userSpaceOnUse"
       id="clipPath101">
      <path
         d="m 533.74,17.008 h 518.738 v 73.7 H 533.74 Z"
         transform="translate(-907.8041,-82.203902)"
         id="path101" />
    </clipPath>
    <clipPath
       clipPathUnits="userSpaceOnUse"
       id="clipPath103">
      <path
         d="m 533.74,17.008 h 518.738 v 73.7 H 533.74 Z"
         transform="translate(-873.8972,-54.408701)"
         id="path103" />
    </clipPath>
    <clipPath
       clipPathUnits="userSpaceOnUse"
       id="clipPath118">
      <path
         d="m 1043.977,17.008 h 518.738 v 73.7 h -518.738 z"
         transform="translate(-1152.5752,-82.201102)"
         id="path118" />
    </clipPath>
    <clipPath
       clipPathUnits="userSpaceOnUse"
       id="clipPath120">
      <path
         d="m 1043.977,17.008 h 518.738 v 73.7 h -518.738 z"
         transform="translate(-1182.7117,-40.174501)"
         id="path120" />
    </clipPath>
    <clipPath
       clipPathUnits="userSpaceOnUse"
       id="clipPath122">
      <path
         d="m 1043.977,17.008 h 518.738 v 73.7 h -518.738 z"
         transform="translate(-1251.7261,-82.203902)"
         id="path122" />
    </clipPath>
    <clipPath
       clipPathUnits="userSpaceOnUse"
       id="clipPath124">
      <path
         d="m 1043.977,17.008 h 518.738 v 73.7 h -518.738 z"
         transform="translate(-1305.2222,-75.846102)"
         id="path124" />
    </clipPath>
    <clipPath
       clipPathUnits="userSpaceOnUse"
       id="clipPath126">
      <path
         d="m 1043.977,17.008 h 518.738 v 73.7 h -518.738 z"
         transform="translate(-1353.1403,-82.203902)"
         id="path126" />
    </clipPath>
    <clipPath
       clipPathUnits="userSpaceOnUse"
       id="clipPath128">
      <path
         d="m 1043.977,17.008 h 518.738 v 73.7 h -518.738 z"
         transform="translate(-1418.0404,-82.203902)"
         id="path128" />
    </clipPath>
    <clipPath
       clipPathUnits="userSpaceOnUse"
       id="clipPath130">
      <path
         d="m 1043.977,17.008 h 518.738 v 73.7 h -518.738 z"
         transform="translate(-1468.6411,-68.428802)"
         id="path130" />
    </clipPath>
    <clipPath
       clipPathUnits="userSpaceOnUse"
       id="clipPath132">
      <path
         d="m 1043.977,17.008 h 518.738 v 73.7 h -518.738 z"
         transform="translate(-1509.013,-82.203302)"
         id="path132" />
    </clipPath>
    <clipPath
       clipPathUnits="userSpaceOnUse"
       id="clipPath136">
      <path
         d="m 1043.977,17.008 h 518.738 v 73.7 h -518.738 z"
         transform="translate(-1152.5782,-82.201102)"
         id="path136" />
    </clipPath>
    <clipPath
       clipPathUnits="userSpaceOnUse"
       id="clipPath138">
      <path
         d="m 1043.977,17.008 h 518.738 v 73.7 h -518.738 z"
         transform="translate(-1157.362,-82.201102)"
         id="path138" />
    </clipPath>
    <clipPath
       clipPathUnits="userSpaceOnUse"
       id="clipPath142">
      <path
         d="m 1043.977,17.008 h 518.738 v 73.7 h -518.738 z"
         transform="translate(-1251.7261,-82.203902)"
         id="path142" />
    </clipPath>
    <clipPath
       clipPathUnits="userSpaceOnUse"
       id="clipPath144">
      <path
         d="m 1043.977,17.008 h 518.738 v 73.7 h -518.738 z"
         transform="translate(-1214.0533,-53.439602)"
         id="path144" />
    </clipPath>
    <clipPath
       clipPathUnits="userSpaceOnUse"
       id="clipPath146">
      <path
         d="m 1043.977,17.008 h 518.738 v 73.7 h -518.738 z"
         transform="translate(-1251.7261,-82.203902)"
         id="path146" />
    </clipPath>
    <clipPath
       clipPathUnits="userSpaceOnUse"
       id="clipPath148">
      <path
         d="m 1043.977,17.008 h 518.738 v 73.7 h -518.738 z"
         transform="matrix(1.3333333,0,0,-1.3333333,-31.338533,109.60693)"
         id="path148" />
    </clipPath>
    <clipPath
       clipPathUnits="userSpaceOnUse"
       id="clipPath151">
      <path
         d="m 1043.977,17.008 h 518.738 v 73.7 h -518.738 z"
         transform="translate(-1418.0404,-82.203902)"
         id="path151" />
    </clipPath>
    <clipPath
       clipPathUnits="userSpaceOnUse"
       id="clipPath153">
      <path
         d="m 1043.977,17.008 h 518.738 v 73.7 h -518.738 z"
         transform="translate(-1418.0404,-82.203902)"
         id="path153" />
    </clipPath>
    <clipPath
       clipPathUnits="userSpaceOnUse"
       id="clipPath155">
      <path
         d="m 1043.977,17.008 h 518.738 v 73.7 h -518.738 z"
         transform="translate(-1384.1333,-54.408701)"
         id="path155" />
    </clipPath>
    <clipPath
       clipPathUnits="userSpaceOnUse"
       id="clipPath170">
      <path
         d="m 1554.213,17.008 h 518.739 v 73.7 h -518.739 z"
         transform="translate(-1662.8116,-82.201102)"
         id="path170" />
    </clipPath>
    <clipPath
       clipPathUnits="userSpaceOnUse"
       id="clipPath172">
      <path
         d="m 1554.213,17.008 h 518.739 v 73.7 h -518.739 z"
         transform="translate(-1692.9481,-40.174501)"
         id="path172" />
    </clipPath>
    <clipPath
       clipPathUnits="userSpaceOnUse"
       id="clipPath174">
      <path
         d="m 1554.213,17.008 h 518.739 v 73.7 h -518.739 z"
         transform="translate(-1761.9625,-82.203902)"
         id="path174" />
    </clipPath>
    <clipPath
       clipPathUnits="userSpaceOnUse"
       id="clipPath176">
      <path
         d="m 1554.213,17.008 h 518.739 v 73.7 h -518.739 z"
         transform="translate(-1815.4585,-75.846102)"
         id="path176" />
    </clipPath>
    <clipPath
       clipPathUnits="userSpaceOnUse"
       id="clipPath178">
      <path
         d="m 1554.213,17.008 h 518.739 v 73.7 h -518.739 z"
         transform="translate(-1863.3766,-82.203902)"
         id="path178" />
    </clipPath>
    <clipPath
       clipPathUnits="userSpaceOnUse"
       id="clipPath180">
      <path
         d="m 1554.213,17.008 h 518.739 v 73.7 h -518.739 z"
         transform="translate(-1928.2766,-82.203902)"
         id="path180" />
    </clipPath>
    <clipPath
       clipPathUnits="userSpaceOnUse"
       id="clipPath182">
      <path
         d="m 1554.213,17.008 h 518.739 v 73.7 h -518.739 z"
         transform="translate(-1978.8773,-68.428802)"
         id="path182" />
    </clipPath>
    <clipPath
       clipPathUnits="userSpaceOnUse"
       id="clipPath184">
      <path
         d="m 1554.213,17.008 h 518.739 v 73.7 h -518.739 z"
         transform="translate(-2019.2494,-82.203302)"
         id="path184" />
    </clipPath>
    <clipPath
       clipPathUnits="userSpaceOnUse"
       id="clipPath188">
      <path
         d="m 1554.213,17.008 h 518.739 v 73.7 h -518.739 z"
         transform="translate(-1662.8146,-82.201102)"
         id="path188" />
    </clipPath>
    <clipPath
       clipPathUnits="userSpaceOnUse"
       id="clipPath190">
      <path
         d="m 1554.213,17.008 h 518.739 v 73.7 h -518.739 z"
         transform="translate(-1667.5984,-82.201102)"
         id="path190" />
    </clipPath>
    <clipPath
       clipPathUnits="userSpaceOnUse"
       id="clipPath194">
      <path
         d="m 1554.213,17.008 h 518.739 v 73.7 h -518.739 z"
         transform="translate(-1761.9625,-82.203902)"
         id="path194" />
    </clipPath>
    <clipPath
       clipPathUnits="userSpaceOnUse"
       id="clipPath196">
      <path
         d="m 1554.213,17.008 h 518.739 v 73.7 h -518.739 z"
         transform="translate(-1724.2897,-53.439602)"
         id="path196" />
    </clipPath>
    <clipPath
       clipPathUnits="userSpaceOnUse"
       id="clipPath198">
      <path
         d="m 1554.213,17.008 h 518.739 v 73.7 h -518.739 z"
         transform="translate(-1761.9625,-82.203902)"
         id="path198" />
    </clipPath>
    <clipPath
       clipPathUnits="userSpaceOnUse"
       id="clipPath200">
      <path
         d="m 1554.213,17.008 h 518.739 v 73.7 h -518.739 z"
         transform="matrix(1.3333333,0,0,-1.3333333,-31.338533,109.60693)"
         id="path200" />
    </clipPath>
    <clipPath
       clipPathUnits="userSpaceOnUse"
       id="clipPath203">
      <path
         d="m 1554.213,17.008 h 518.739 v 73.7 h -518.739 z"
         transform="translate(-1928.2766,-82.203902)"
         id="path203" />
    </clipPath>
    <clipPath
       clipPathUnits="userSpaceOnUse"
       id="clipPath205">
      <path
         d="m 1554.213,17.008 h 518.739 v 73.7 h -518.739 z"
         transform="translate(-1928.2766,-82.203902)"
         id="path205" />
    </clipPath>
    <clipPath
       clipPathUnits="userSpaceOnUse"
       id="clipPath207">
      <path
         d="m 1554.213,17.008 h 518.739 v 73.7 h -518.739 z"
         transform="translate(-1894.3696,-54.408701)"
         id="path207" />
    </clipPath>
    <clipPath
       clipPathUnits="userSpaceOnUse"
       id="clipPath222">
      <path
         d="m 2064.449,17.008 h 518.739 v 73.7 h -518.739 z"
         transform="translate(-2173.0477,-82.201102)"
         id="path222" />
    </clipPath>
    <clipPath
       clipPathUnits="userSpaceOnUse"
       id="clipPath224">
      <path
         d="m 2064.449,17.008 h 518.739 v 73.7 h -518.739 z"
         transform="translate(-2203.1842,-40.174501)"
         id="path224" />
    </clipPath>
    <clipPath
       clipPathUnits="userSpaceOnUse"
       id="clipPath226">
      <path
         d="m 2064.449,17.008 h 518.739 v 73.7 h -518.739 z"
         transform="translate(-2272.1986,-82.203902)"
         id="path226" />
    </clipPath>
    <clipPath
       clipPathUnits="userSpaceOnUse"
       id="clipPath228">
      <path
         d="m 2064.449,17.008 h 518.739 v 73.7 h -518.739 z"
         transform="translate(-2325.6947,-75.846102)"
         id="path228" />
    </clipPath>
    <clipPath
       clipPathUnits="userSpaceOnUse"
       id="clipPath230">
      <path
         d="m 2064.449,17.008 h 518.739 v 73.7 h -518.739 z"
         transform="translate(-2373.6128,-82.203902)"
         id="path230" />
    </clipPath>
    <clipPath
       clipPathUnits="userSpaceOnUse"
       id="clipPath232">
      <path
         d="m 2064.449,17.008 h 518.739 v 73.7 h -518.739 z"
         transform="translate(-2438.5127,-82.203902)"
         id="path232" />
    </clipPath>
    <clipPath
       clipPathUnits="userSpaceOnUse"
       id="clipPath234">
      <path
         d="m 2064.449,17.008 h 518.739 v 73.7 h -518.739 z"
         transform="translate(-2489.1136,-68.428802)"
         id="path234" />
    </clipPath>
    <clipPath
       clipPathUnits="userSpaceOnUse"
       id="clipPath236">
      <path
         d="m 2064.449,17.008 h 518.739 v 73.7 h -518.739 z"
         transform="translate(-2529.4855,-82.203302)"
         id="path236" />
    </clipPath>
    <clipPath
       clipPathUnits="userSpaceOnUse"
       id="clipPath240">
      <path
         d="m 2064.449,17.008 h 518.739 v 73.7 h -518.739 z"
         transform="translate(-2173.0505,-82.201102)"
         id="path240" />
    </clipPath>
    <clipPath
       clipPathUnits="userSpaceOnUse"
       id="clipPath242">
      <path
         d="m 2064.449,17.008 h 518.739 v 73.7 h -518.739 z"
         transform="translate(-2177.8346,-82.201102)"
         id="path242" />
    </clipPath>
    <clipPath
       clipPathUnits="userSpaceOnUse"
       id="clipPath246">
      <path
         d="m 2064.449,17.008 h 518.739 v 73.7 h -518.739 z"
         transform="translate(-2272.1986,-82.203902)"
         id="path246" />
    </clipPath>
    <clipPath
       clipPathUnits="userSpaceOnUse"
       id="clipPath248">
      <path
         d="m 2064.449,17.008 h 518.739 v 73.7 h -518.739 z"
         transform="translate(-2234.5256,-53.439602)"
         id="path248" />
    </clipPath>
    <clipPath
       clipPathUnits="userSpaceOnUse"
       id="clipPath250">
      <path
         d="m 2064.449,17.008 h 518.739 v 73.7 h -518.739 z"
         transform="translate(-2272.1986,-82.203902)"
         id="path250" />
    </clipPath>
    <clipPath
       clipPathUnits="userSpaceOnUse"
       id="clipPath252">
      <path
         d="m 2064.449,17.008 h 518.739 v 73.7 h -518.739 z"
         transform="matrix(1.3333333,0,0,-1.3333333,-31.338533,109.60693)"
         id="path252" />
    </clipPath>
    <clipPath
       clipPathUnits="userSpaceOnUse"
       id="clipPath255">
      <path
         d="m 2064.449,17.008 h 518.739 v 73.7 h -518.739 z"
         transform="translate(-2438.5127,-82.203902)"
         id="path255" />
    </clipPath>
    <clipPath
       clipPathUnits="userSpaceOnUse"
       id="clipPath257">
      <path
         d="m 2064.449,17.008 h 518.739 v 73.7 h -518.739 z"
         transform="translate(-2438.5127,-82.203902)"
         id="path257" />
    </clipPath>
    <clipPath
       clipPathUnits="userSpaceOnUse"
       id="clipPath259">
      <path
         d="m 2064.449,17.008 h 518.739 v 73.7 h -518.739 z"
         transform="translate(-2404.6058,-54.408701)"
         id="path259" />
    </clipPath>
  </defs>
  <g
     id="g1"
     transform="translate(11.338534,11.337467)">
    <g
       id="group-MC0">
      <path
         id="path2"
         d="m 15,17.008 h 65.197 v 73.7 H 15 Z"
         style="fill:#1c428b;fill-opacity:1;fill-rule:nonzero;stroke:none"
         transform="matrix(1.3333333,0,0,-1.3333333,-31.338533,109.60693)" />
      <path
         id="path3"
         d="m 80.19,17.008 h 56.696 v 73.7 H 80.19 Z"
         style="fill:#f68512;fill-opacity:1;fill-rule:nonzero;stroke:none"
         transform="matrix(1.3333333,0,0,-1.3333333,-31.338533,109.60693)" />
      <path
         id="path4"
         d="m 136.885,17.008 h 56.696 v 73.7 h -56.696 z"
         style="fill:#339d89;fill-opacity:1;fill-rule:nonzero;stroke:none"
         transform="matrix(1.3333333,0,0,-1.3333333,-31.338533,109.60693)" />
      <path
         id="path5"
         d="m 193.578,17.008 h 56.696 v 73.7 h -56.696 z"
         style="fill:#1c428b;fill-opacity:1;fill-rule:nonzero;stroke:none"
         transform="matrix(1.3333333,0,0,-1.3333333,-31.338533,109.60693)" />
      <path
         id="path6"
         d="m 193.578,17.008 h 56.696 v 73.7 h -56.696 z"
         style="fill:#6d2e98;fill-opacity:1;fill-rule:nonzero;stroke:none"
         transform="matrix(1.3333333,0,0,-1.3333333,-31.338533,109.60693)" />
      <path
         id="path7"
         d="m 250.273,17.008 h 56.696 v 73.7 h -56.696 z"
         style="fill:#ca1f66;fill-opacity:1;fill-rule:nonzero;stroke:none"
         transform="matrix(1.3333333,0,0,-1.3333333,-31.338533,109.60693)" />
      <path
         id="path8"
         d="m 306.967,17.008 h 56.696 v 73.7 h -56.696 z"
         style="fill:#c02f2f;fill-opacity:1;fill-rule:nonzero;stroke:none"
         transform="matrix(1.3333333,0,0,-1.3333333,-31.338533,109.60693)" />
      <path
         id="path9"
         d="m 363.659,17.008 h 56.696 v 73.7 h -56.696 z"
         style="fill:#339130;fill-opacity:1;fill-rule:nonzero;stroke:none"
         transform="matrix(1.3333333,0,0,-1.3333333,-31.338533,109.60693)" />
      <path
         id="path10"
         d="m 420.351,17.008 h 56.696 v 73.7 h -56.696 z"
         style="fill:#491454;fill-opacity:1;fill-rule:nonzero;stroke:none"
         transform="matrix(1.3333333,0,0,-1.3333333,-31.338533,109.60693)" />
      <path
         id="path11"
         d="m 477.045,17.008 h 65.199 v 73.7 h -65.199 z"
         style="fill:#0594b1;fill-opacity:1;fill-rule:nonzero;stroke:none"
         transform="matrix(1.3333333,0,0,-1.3333333,-31.338533,109.60693)" />
      <path
         id="path12"
         d="M 0,0 V -73.7 H 65.197 L 65.19,-31.621 H 49.207 V -54.916 L 13.895,-8.513 7.443,0 Z"
         style="fill:#4271c0;fill-opacity:1;fill-rule:nonzero;stroke:none"
         transform="matrix(1.3333333,0,0,-1.3333333,-11.338133,-11.337467)" />
      <path
         id="path13"
         d="m 0,0 c 0.808,2.248 1.754,6.021 2.235,8.507 h -54.141 v -73.7 h 33.657 l -25.981,34.12 C -20.868,-26.771 -5.98,-16.634 0,0"
         style="fill:#fbbc09;fill-opacity:1;fill-rule:nonzero;stroke:none"
         transform="matrix(1.3333333,0,0,-1.3333333,144.79853,0.00546667)"
         clip-path="url(#clipPath14)" />
      <path
         id="path15"
         d="m 0,0 v 42.029 8.505 H -25.352 V 42.029 -23.166 H 31.341 V 0 Z"
         style="fill:#59c69c;fill-opacity:1;fill-rule:nonzero;stroke:none"
         transform="matrix(1.3333333,0,0,-1.3333333,184.9804,56.040933)"
         clip-path="url(#clipPath16)" />
      <path
         id="path17"
         d="M 0,0 C -1.088,2.177 -2.23,5.952 -2.789,8.505 H -37.673 V 0 -28.764 c 13.407,-15.85 34.257,-25.266 56.692,-27.8 v 41.296 C 10.515,-12.752 3.764,-7.532 0,0"
         style="fill:#d03ea7;fill-opacity:1;fill-rule:nonzero;stroke:none"
         transform="matrix(1.3333333,0,0,-1.3333333,276.9996,0.00173333)"
         clip-path="url(#clipPath18)" />
      <path
         id="path19"
         d="m 0,0 6.229,6.358 8.332,8.505 h -49.035 l -0.001,-8.505 0.001,-65.196 h 49.089 l -36.072,36.936 21.454,21.899"
         style="fill:#f14358;fill-opacity:1;fill-rule:nonzero;stroke:none"
         transform="matrix(1.3333333,0,0,-1.3333333,348.32773,8.4788)"
         clip-path="url(#clipPath20)" />
      <path
         id="path21"
         d="M 0,0 V 8.505 H -25.7 V -65.196 H 0 v 21.076 h 21.656 l 9.336,-12.52 v 46.009 H 0 Z"
         style="fill:#f25c19;fill-opacity:1;fill-rule:nonzero;stroke:none"
         transform="matrix(1.3333333,0,0,-1.3333333,412.21853,0.00173333)"
         clip-path="url(#clipPath22)" />
      <path
         id="path23"
         d="m 0,0 c -9.111,3.783 -20.775,7.521 -33.907,8.505 v -36.3 c 8.423,-2.875 12.051,-8.755 12.051,-16.611 0,-6 -2.772,-12.286 -12.01,-19.187 l -0.039,-1.603 h 56.692 l -0.002,46.681 C 17.974,-10.406 10.311,-4.281 0,0"
         style="fill:#5ec452;fill-opacity:1;fill-rule:nonzero;stroke:none"
         transform="matrix(1.3333333,0,0,-1.3333333,498.752,0.00173333)"
         clip-path="url(#clipPath24)" />
      <path
         id="path25"
         d="M 0,0 V 13.775 22.28 H -27.814 V 13.775 -33.488 H 8.536 V -51.421 H 28.878 V 0 Z"
         style="fill:#a9319e;fill-opacity:1;fill-rule:nonzero;stroke:none"
         transform="matrix(1.3333333,0,0,-1.3333333,566.2196,18.368533)"
         clip-path="url(#clipPath26)" />
      <path
         id="path27"
         d="m 0,0 -8.306,8.505 h -3.186 L -11.493,0 v -65.195 h 39.156 v 36.869 z"
         style="fill:#3bbece;fill-opacity:1;fill-rule:nonzero;stroke:none"
         transform="matrix(1.3333333,0,0,-1.3333333,620.04893,0.00253333)"
         clip-path="url(#clipPath28)" />
      <path
         id="path29"
         d="m 0,0 35.312,-46.403 v 23.294 H 51.294 V 0 Z"
         style="fill:#1c428b;fill-opacity:1;fill-rule:nonzero;stroke:none"
         transform="matrix(1.3333333,0,0,-1.3333333,7.1978667,0.01306667)" />
      <path
         id="path30"
         d="m 0,0 v -23.297 l -35.316,46.408 -5.392,7.115 v -7.115 -56.69 H 15.984 V 0 Z"
         style="fill:#4271c0;fill-opacity:1;fill-rule:nonzero;stroke:none"
         transform="matrix(1.3333333,0,0,-1.3333333,54.277867,30.819333)" />
      <path
         id="path31"
         d="m 0,0 c 0.808,2.248 1.445,4.621 1.927,7.108 h -53.836 v -63.797 h 27.224 l -19.546,25.616 C -20.868,-26.771 -5.98,-16.634 0,0"
         style="fill:#fbbc09;fill-opacity:1;fill-rule:nonzero;stroke:none"
         transform="matrix(1.3333333,0,0,-1.3333333,144.8024,0.00546667)"
         clip-path="url(#clipPath32)" />
      <path
         id="path33"
         d="m 0,0 h -4.784 c -5.98,-16.634 -20.867,-26.771 -44.23,-31.073 l 19.545,-25.616 H 0 Z"
         style="fill:#f68512;fill-opacity:1;fill-rule:nonzero;stroke:none"
         transform="matrix(1.3333333,0,0,-1.3333333,151.18093,0.00546667)"
         clip-path="url(#clipPath34)" />
      <path
         id="path35"
         d="M 193.58,82.204 H 162.239 V 40.175 h 31.341 z"
         style="fill:#339d89;fill-opacity:1;fill-rule:nonzero;stroke:none"
         transform="matrix(1.3333333,0,0,-1.3333333,-31.338533,109.60693)" />
      <path
         id="path36"
         d="m 0,0 v 42.029 7.105 H -25.352 V 42.029 -14.662 H 31.341 V 0 Z"
         style="fill:#59c69c;fill-opacity:1;fill-rule:nonzero;stroke:none"
         transform="matrix(1.3333333,0,0,-1.3333333,184.9804,56.040933)" />
      <path
         id="path37"
         d="M 0,0 C -1.088,2.177 -1.918,4.552 -2.477,7.105 H -37.673 V 0 -28.764 c 13.407,-15.85 34.257,-25.266 56.692,-27.8 v 41.296 C 10.515,-12.752 3.764,-7.532 0,0"
         style="fill:#d03ea7;fill-opacity:1;fill-rule:nonzero;stroke:none"
         transform="matrix(1.3333333,0,0,-1.3333333,276.9996,0.00173333)"
         clip-path="url(#clipPath38)" />
      <path
         id="path39"
         d="M 0,0 V -27.928 H 56.692 V -27.8 C 34.257,-25.266 13.407,-15.849 0,0"
         style="fill:#6d2e98;fill-opacity:1;fill-rule:nonzero;stroke:none"
         transform="matrix(1.3333333,0,0,-1.3333333,226.7692,38.354133)"
         clip-path="url(#clipPath40)" />
      <path
         id="path41"
         d="M 0,0 C 3.764,-7.532 10.515,-12.752 19.019,-15.268 V 0 Z"
         style="fill:#6d2e98;fill-opacity:1;fill-rule:nonzero;stroke:none"
         transform="matrix(1.3333333,0,0,-1.3333333,276.9996,0.00173333)"
         clip-path="url(#clipPath42)" />
      <path
         id="path43"
         d="m 0,0 6.229,6.358 6.961,7.105 H 0 -0.003 -34.475 V 6.358 -50.334 H 6.31 l -27.767,28.432 21.454,21.899"
         style="fill:#f14358;fill-opacity:1;fill-rule:nonzero;stroke:none"
         transform="matrix(1.3333333,0,0,-1.3333333,348.32773,8.4788)" />
      <g
         id="g43"
         clip-path="url(#clipPath44)" />
      <path
         id="path45"
         d="M 0,0 V 7.104 H -25.7 V -56.692 H 0 v 12.572 h 21.656 l 9.336,-12.52 v 46.009 H 0 Z"
         style="fill:#f25c19;fill-opacity:1;fill-rule:nonzero;stroke:none"
         transform="matrix(1.3333333,0,0,-1.3333333,412.21853,0.00173333)" />
      <path
         id="path46"
         d="M 0,0 C 10.311,-4.281 17.974,-10.406 22.785,-18.515 V 0 Z"
         style="fill:#339130;fill-opacity:1;fill-rule:nonzero;stroke:none"
         transform="matrix(1.3333333,0,0,-1.3333333,498.752,0.00173333)"
         clip-path="url(#clipPath47)" />
      <path
         id="path48"
         d="m 0,0 c -9.111,3.783 -20.296,6.122 -33.427,7.105 h -0.48 v -34.9 c 8.423,-2.875 12.051,-8.755 12.051,-16.611 0,-4.926 -1.427,-9.118 -4.566,-12.286 h 49.207 v 38.177 C 17.974,-10.406 10.311,-4.281 0,0"
         style="fill:#5ec452;fill-opacity:1;fill-rule:nonzero;stroke:none"
         transform="matrix(1.3333333,0,0,-1.3333333,498.752,0.00173333)"
         clip-path="url(#clipPath49)" />
      <path
         id="path50"
         d="m 0,0 v -28.897 h 7.485 c 3.138,3.168 4.566,7.36 4.566,12.286 C 12.051,-8.755 8.422,-2.875 0,0"
         style="fill:#339130;fill-opacity:1;fill-rule:nonzero;stroke:none"
         transform="matrix(1.3333333,0,0,-1.3333333,453.54267,37.062)"
         clip-path="url(#clipPath51)" />
      <path
         id="path52"
         d="m 0,0 v 13.775 7.104 h -27.814 v -7.104 -47.263 h 36.35 v -9.429 H 28.878 V 0 Z"
         style="fill:#a9319e;fill-opacity:1;fill-rule:nonzero;stroke:none"
         transform="matrix(1.3333333,0,0,-1.3333333,566.2196,18.368533)" />
      <path
         id="path53"
         d="m 0,0 -6.938,7.105 h -4.555 V 0 -56.691 h 39.156 v 28.365 z"
         style="fill:#3bbece;fill-opacity:1;fill-rule:nonzero;stroke:none"
         transform="matrix(1.3333333,0,0,-1.3333333,620.04893,0.00253333)" />
    </g>
    <g
       id="group-MC1">
      <path
         id="path54"
         d="m 533.74,17.008 h 56.693 v 73.7 H 533.74 Z"
         style="fill:#1c428b;fill-opacity:1;fill-rule:nonzero;stroke:none"
         transform="matrix(1.3333333,0,0,-1.3333333,-31.338533,109.60693)" />
      <path
         id="path55"
         d="m 590.426,17.008 h 56.696 v 73.7 h -56.696 z"
         style="fill:#f68512;fill-opacity:1;fill-rule:nonzero;stroke:none"
         transform="matrix(1.3333333,0,0,-1.3333333,-31.338533,109.60693)" />
      <path
         id="path56"
         d="m 647.122,17.008 h 56.696 v 73.7 h -56.696 z"
         style="fill:#339d89;fill-opacity:1;fill-rule:nonzero;stroke:none"
         transform="matrix(1.3333333,0,0,-1.3333333,-31.338533,109.60693)" />
      <path
         id="path57"
         d="m 703.815,17.008 h 56.695 v 73.7 h -56.695 z"
         style="fill:#1c428b;fill-opacity:1;fill-rule:nonzero;stroke:none"
         transform="matrix(1.3333333,0,0,-1.3333333,-31.338533,109.60693)" />
      <path
         id="path58"
         d="m 703.815,17.008 h 56.695 v 73.7 h -56.695 z"
         style="fill:#6d2e98;fill-opacity:1;fill-rule:nonzero;stroke:none"
         transform="matrix(1.3333333,0,0,-1.3333333,-31.338533,109.60693)" />
      <path
         id="path59"
         d="m 760.51,17.008 h 56.696 v 73.7 H 760.51 Z"
         style="fill:#ca1f66;fill-opacity:1;fill-rule:nonzero;stroke:none"
         transform="matrix(1.3333333,0,0,-1.3333333,-31.338533,109.60693)" />
      <path
         id="path60"
         d="m 817.203,17.008 h 56.696 v 73.7 h -56.696 z"
         style="fill:#c02f2f;fill-opacity:1;fill-rule:nonzero;stroke:none"
         transform="matrix(1.3333333,0,0,-1.3333333,-31.338533,109.60693)" />
      <path
         id="path61"
         d="m 873.895,17.008 h 56.696 v 73.7 h -56.696 z"
         style="fill:#339130;fill-opacity:1;fill-rule:nonzero;stroke:none"
         transform="matrix(1.3333333,0,0,-1.3333333,-31.338533,109.60693)" />
      <path
         id="path62"
         d="m 930.588,17.008 h 56.696 v 73.7 h -56.696 z"
         style="fill:#491454;fill-opacity:1;fill-rule:nonzero;stroke:none"
         transform="matrix(1.3333333,0,0,-1.3333333,-31.338533,109.60693)" />
      <path
         id="path63"
         d="m 987.281,17.008 h 65.199 v 73.7 h -65.199 z"
         style="fill:#0594b1;fill-opacity:1;fill-rule:nonzero;stroke:none"
         transform="matrix(1.3333333,0,0,-1.3333333,-31.338533,109.60693)" />
      <path
         id="path64"
         d="M 0,0 H 56.693 L 56.686,42.079 H 40.703 V 18.784 L 5.391,65.187 0,72.3 Z"
         style="fill:#4271c0;fill-opacity:1;fill-rule:nonzero;stroke:none"
         transform="matrix(1.3333333,0,0,-1.3333333,680.31547,86.929333)" />
      <path
         id="path65"
         d="m 0,0 c 0.808,2.248 1.754,6.021 2.236,8.507 h -54.142 v -73.7 h 33.657 l -25.981,34.12 C -20.868,-26.771 -5.98,-16.634 0,0"
         style="fill:#fbbc09;fill-opacity:1;fill-rule:nonzero;stroke:none"
         transform="matrix(1.3333333,0,0,-1.3333333,825.11347,0.00546667)"
         clip-path="url(#clipPath66)" />
      <path
         id="path67"
         d="m 0,0 v 42.029 8.505 H -25.352 V 42.029 -23.166 H 31.341 V 0 Z"
         style="fill:#59c69c;fill-opacity:1;fill-rule:nonzero;stroke:none"
         transform="matrix(1.3333333,0,0,-1.3333333,865.29533,56.040933)"
         clip-path="url(#clipPath68)" />
      <path
         id="path69"
         d="M 0,0 C -1.088,2.177 -2.229,5.952 -2.789,8.505 H -37.673 V 0 -28.764 c 13.407,-15.85 34.257,-25.266 56.692,-27.8 v 41.296 C 10.515,-12.752 3.764,-7.532 0,0"
         style="fill:#d03ea7;fill-opacity:1;fill-rule:nonzero;stroke:none"
         transform="matrix(1.3333333,0,0,-1.3333333,957.31453,0.00173333)"
         clip-path="url(#clipPath70)" />
      <path
         id="path71"
         d="m 0,0 6.229,6.358 8.332,8.505 h -49.035 l -0.001,-8.505 0.001,-65.196 h 49.089 l -36.073,36.936 21.455,21.899"
         style="fill:#f14358;fill-opacity:1;fill-rule:nonzero;stroke:none"
         transform="matrix(1.3333333,0,0,-1.3333333,1028.6428,8.4788)"
         clip-path="url(#clipPath72)" />
      <path
         id="path73"
         d="M 0,0 V 8.505 H -25.7 V -65.196 H 0 v 21.076 h 21.656 l 9.336,-12.52 v 46.009 H 0 Z"
         style="fill:#f25c19;fill-opacity:1;fill-rule:nonzero;stroke:none"
         transform="matrix(1.3333333,0,0,-1.3333333,1092.5336,0.00173333)"
         clip-path="url(#clipPath74)" />
      <path
         id="path75"
         d="m 0,0 c -9.111,3.783 -20.775,7.521 -33.907,8.505 v -36.3 c 8.423,-2.875 12.051,-8.755 12.051,-16.611 0,-6 -2.772,-12.286 -12.01,-19.187 l -0.039,-1.603 h 56.692 l -0.002,46.681 C 17.974,-10.406 10.311,-4.281 0,0"
         style="fill:#5ec452;fill-opacity:1;fill-rule:nonzero;stroke:none"
         transform="matrix(1.3333333,0,0,-1.3333333,1179.0669,0.00173333)"
         clip-path="url(#clipPath76)" />
      <path
         id="path77"
         d="M 0,0 V 13.775 22.28 H -27.814 V 13.775 -33.488 H 8.536 V -51.421 H 28.878 V 0 Z"
         style="fill:#a9319e;fill-opacity:1;fill-rule:nonzero;stroke:none"
         transform="matrix(1.3333333,0,0,-1.3333333,1246.5345,18.368533)"
         clip-path="url(#clipPath78)" />
      <path
         id="path79"
         d="m 0,0 -8.306,8.505 h -3.186 L -11.493,0 v -65.195 h 39.156 v 36.869 z"
         style="fill:#3bbece;fill-opacity:1;fill-rule:nonzero;stroke:none"
         transform="matrix(1.3333333,0,0,-1.3333333,1300.3639,0.00253333)"
         clip-path="url(#clipPath80)" />
      <path
         id="path81"
         d="m 0,0 35.312,-46.403 v 23.294 H 51.294 V 0 Z"
         style="fill:#1c428b;fill-opacity:1;fill-rule:nonzero;stroke:none"
         transform="matrix(1.3333333,0,0,-1.3333333,687.5128,0.01306667)" />
      <path
         id="path82"
         d="m 0,0 v -56.69 h 56.693 v 33.578 H 40.708 V -46.409 L 5.392,0 0,7.114 Z"
         style="fill:#4271c0;fill-opacity:1;fill-rule:nonzero;stroke:none"
         transform="matrix(1.3333333,0,0,-1.3333333,680.31547,0.00373333)" />
      <path
         id="path83"
         d="m 0,0 c 0.808,2.248 1.445,4.621 1.927,7.108 h -53.836 v -63.797 h 27.224 l -19.546,25.616 C -20.868,-26.771 -5.98,-16.634 0,0"
         style="fill:#fbbc09;fill-opacity:1;fill-rule:nonzero;stroke:none"
         transform="matrix(1.3333333,0,0,-1.3333333,825.11733,0.00546667)"
         clip-path="url(#clipPath84)" />
      <path
         id="path85"
         d="m 0,0 h -4.784 c -5.98,-16.634 -20.867,-26.771 -44.23,-31.073 l 19.545,-25.616 H 0 Z"
         style="fill:#f68512;fill-opacity:1;fill-rule:nonzero;stroke:none"
         transform="matrix(1.3333333,0,0,-1.3333333,831.49573,0.00546667)"
         clip-path="url(#clipPath86)" />
      <path
         id="path87"
         d="M 703.816,82.204 H 672.475 V 40.175 h 31.341 z"
         style="fill:#339d89;fill-opacity:1;fill-rule:nonzero;stroke:none"
         transform="matrix(1.3333333,0,0,-1.3333333,-31.338533,109.60693)" />
      <path
         id="path88"
         d="m 0,0 v 42.029 7.105 H -25.352 V 42.029 -14.662 H 31.341 V 0 Z"
         style="fill:#59c69c;fill-opacity:1;fill-rule:nonzero;stroke:none"
         transform="matrix(1.3333333,0,0,-1.3333333,865.29533,56.040933)" />
      <path
         id="path89"
         d="M 0,0 C -1.088,2.177 -1.918,4.552 -2.477,7.105 H -37.673 V 0 -28.764 c 13.407,-15.85 34.257,-25.266 56.692,-27.8 v 41.296 C 10.515,-12.752 3.764,-7.532 0,0"
         style="fill:#d03ea7;fill-opacity:1;fill-rule:nonzero;stroke:none"
         transform="matrix(1.3333333,0,0,-1.3333333,957.31453,0.00173333)"
         clip-path="url(#clipPath90)" />
      <path
         id="path91"
         d="M 0,0 V -27.928 H 56.692 V -27.8 C 34.257,-25.266 13.407,-15.849 0,0"
         style="fill:#6d2e98;fill-opacity:1;fill-rule:nonzero;stroke:none"
         transform="matrix(1.3333333,0,0,-1.3333333,907.08413,38.354133)"
         clip-path="url(#clipPath92)" />
      <path
         id="path93"
         d="M 0,0 C 3.764,-7.532 10.515,-12.752 19.019,-15.268 V 0 Z"
         style="fill:#6d2e98;fill-opacity:1;fill-rule:nonzero;stroke:none"
         transform="matrix(1.3333333,0,0,-1.3333333,957.31453,0.00173333)"
         clip-path="url(#clipPath94)" />
      <path
         id="path95"
         d="m 0,0 6.229,6.358 6.961,7.105 H 0 -0.003 -34.475 V 6.358 -50.334 H 6.31 l -27.768,28.432 21.455,21.899"
         style="fill:#f14358;fill-opacity:1;fill-rule:nonzero;stroke:none"
         transform="matrix(1.3333333,0,0,-1.3333333,1028.6428,8.4788)" />
      <g
         id="g95"
         clip-path="url(#clipPath96)" />
      <path
         id="path97"
         d="M 0,0 V 7.104 H -25.7 V -56.692 H 0 v 12.572 h 21.656 l 9.336,-12.52 v 46.009 H 0 Z"
         style="fill:#f25c19;fill-opacity:1;fill-rule:nonzero;stroke:none"
         transform="matrix(1.3333333,0,0,-1.3333333,1092.5336,0.00173333)" />
      <path
         id="path98"
         d="M 0,0 C 10.311,-4.281 17.974,-10.406 22.785,-18.515 V 0 Z"
         style="fill:#339130;fill-opacity:1;fill-rule:nonzero;stroke:none"
         transform="matrix(1.3333333,0,0,-1.3333333,1179.0669,0.00173333)"
         clip-path="url(#clipPath99)" />
      <path
         id="path100"
         d="m 0,0 c -9.111,3.783 -20.296,6.122 -33.427,7.105 h -0.48 v -34.9 c 8.423,-2.875 12.051,-8.755 12.051,-16.611 0,-4.926 -1.427,-9.118 -4.566,-12.286 h 49.207 v 38.177 C 17.974,-10.406 10.311,-4.281 0,0"
         style="fill:#5ec452;fill-opacity:1;fill-rule:nonzero;stroke:none"
         transform="matrix(1.3333333,0,0,-1.3333333,1179.0669,0.00173333)"
         clip-path="url(#clipPath101)" />
      <path
         id="path102"
         d="m 0,0 v -28.897 h 7.485 c 3.138,3.168 4.566,7.36 4.566,12.286 C 12.051,-8.755 8.422,-2.875 0,0"
         style="fill:#339130;fill-opacity:1;fill-rule:nonzero;stroke:none"
         transform="matrix(1.3333333,0,0,-1.3333333,1133.8577,37.062)"
         clip-path="url(#clipPath103)" />
      <path
         id="path104"
         d="m 0,0 v 13.775 7.104 h -27.814 v -7.104 -47.263 h 36.35 v -9.429 H 28.878 V 0 Z"
         style="fill:#a9319e;fill-opacity:1;fill-rule:nonzero;stroke:none"
         transform="matrix(1.3333333,0,0,-1.3333333,1246.5345,18.368533)" />
      <path
         id="path105"
         d="m 0,0 -6.938,7.105 h -4.555 V 0 -56.691 h 39.156 v 28.365 z"
         style="fill:#3bbece;fill-opacity:1;fill-rule:nonzero;stroke:none"
         transform="matrix(1.3333333,0,0,-1.3333333,1300.3639,0.00253333)" />
    </g>
    <g
       id="group-MC2">
      <path
         id="path106"
         d="m 1043.977,17.008 h 56.693 v 73.7 h -56.693 z"
         style="fill:#1c428b;fill-opacity:1;fill-rule:nonzero;stroke:none"
         transform="matrix(1.3333333,0,0,-1.3333333,-31.338533,109.60693)" />
      <path
         id="path107"
         d="m 1100.662,17.008 h 56.696 v 73.7 h -56.696 z"
         style="fill:#f68512;fill-opacity:1;fill-rule:nonzero;stroke:none"
         transform="matrix(1.3333333,0,0,-1.3333333,-31.338533,109.60693)" />
      <path
         id="path108"
         d="m 1157.358,17.008 h 56.696 v 73.7 h -56.696 z"
         style="fill:#339d89;fill-opacity:1;fill-rule:nonzero;stroke:none"
         transform="matrix(1.3333333,0,0,-1.3333333,-31.338533,109.60693)" />
      <path
         id="path109"
         d="m 1214.051,17.008 h 56.696 v 73.7 h -56.696 z"
         style="fill:#1c428b;fill-opacity:1;fill-rule:nonzero;stroke:none"
         transform="matrix(1.3333333,0,0,-1.3333333,-31.338533,109.60693)" />
      <path
         id="path110"
         d="m 1214.051,17.008 h 56.696 v 73.7 h -56.696 z"
         style="fill:#6d2e98;fill-opacity:1;fill-rule:nonzero;stroke:none"
         transform="matrix(1.3333333,0,0,-1.3333333,-31.338533,109.60693)" />
      <path
         id="path111"
         d="m 1270.746,17.008 h 56.696 v 73.7 h -56.696 z"
         style="fill:#ca1f66;fill-opacity:1;fill-rule:nonzero;stroke:none"
         transform="matrix(1.3333333,0,0,-1.3333333,-31.338533,109.60693)" />
      <path
         id="path112"
         d="m 1327.439,17.008 h 56.696 v 73.7 h -56.696 z"
         style="fill:#c02f2f;fill-opacity:1;fill-rule:nonzero;stroke:none"
         transform="matrix(1.3333333,0,0,-1.3333333,-31.338533,109.60693)" />
      <path
         id="path113"
         d="m 1384.132,17.008 h 56.696 v 73.7 h -56.696 z"
         style="fill:#339130;fill-opacity:1;fill-rule:nonzero;stroke:none"
         transform="matrix(1.3333333,0,0,-1.3333333,-31.338533,109.60693)" />
      <path
         id="path114"
         d="m 1440.824,17.008 h 56.696 v 73.7 h -56.696 z"
         style="fill:#491454;fill-opacity:1;fill-rule:nonzero;stroke:none"
         transform="matrix(1.3333333,0,0,-1.3333333,-31.338533,109.60693)" />
      <path
         id="path115"
         d="m 1497.517,17.008 h 65.199 v 73.7 h -65.199 z"
         style="fill:#0594b1;fill-opacity:1;fill-rule:nonzero;stroke:none"
         transform="matrix(1.3333333,0,0,-1.3333333,-31.338533,109.60693)" />
      <path
         id="path116"
         d="M 0,0 H 56.693 L 56.686,42.079 H 40.703 V 18.784 L 5.391,65.187 0,72.3 Z"
         style="fill:#4271c0;fill-opacity:1;fill-rule:nonzero;stroke:none"
         transform="matrix(1.3333333,0,0,-1.3333333,1360.6303,86.929333)" />
      <path
         id="path117"
         d="m 0,0 c 0.808,2.248 1.754,6.021 2.235,8.507 h -54.141 v -73.7 h 33.657 l -25.981,34.12 C -20.868,-26.771 -5.98,-16.634 0,0"
         style="fill:#fbbc09;fill-opacity:1;fill-rule:nonzero;stroke:none"
         transform="matrix(1.3333333,0,0,-1.3333333,1505.4284,0.00546667)"
         clip-path="url(#clipPath118)" />
      <path
         id="path119"
         d="m 0,0 v 42.029 8.505 H -25.352 V 42.029 -23.166 H 31.341 V 0 Z"
         style="fill:#59c69c;fill-opacity:1;fill-rule:nonzero;stroke:none"
         transform="matrix(1.3333333,0,0,-1.3333333,1545.6104,56.040933)"
         clip-path="url(#clipPath120)" />
      <path
         id="path121"
         d="M 0,0 C -1.088,2.177 -2.229,5.952 -2.789,8.505 H -37.673 V 0 -28.764 c 13.407,-15.85 34.257,-25.266 56.692,-27.8 v 41.296 C 10.515,-12.752 3.764,-7.532 0,0"
         style="fill:#d03ea7;fill-opacity:1;fill-rule:nonzero;stroke:none"
         transform="matrix(1.3333333,0,0,-1.3333333,1637.6296,0.00173333)"
         clip-path="url(#clipPath122)" />
      <path
         id="path123"
         d="m 0,0 6.229,6.358 8.332,8.505 h -49.035 l -0.001,-8.505 0.001,-65.196 h 49.089 l -36.073,36.936 21.455,21.899"
         style="fill:#f14358;fill-opacity:1;fill-rule:nonzero;stroke:none"
         transform="matrix(1.3333333,0,0,-1.3333333,1708.9577,8.4788)"
         clip-path="url(#clipPath124)" />
      <path
         id="path125"
         d="M 0,0 V 8.505 H -25.7 V -65.196 H 0 v 21.076 h 21.656 l 9.336,-12.52 v 46.009 H 0 Z"
         style="fill:#f25c19;fill-opacity:1;fill-rule:nonzero;stroke:none"
         transform="matrix(1.3333333,0,0,-1.3333333,1772.8485,0.00173333)"
         clip-path="url(#clipPath126)" />
      <path
         id="path127"
         d="m 0,0 c -9.111,3.783 -20.775,7.521 -33.907,8.505 v -36.3 c 8.423,-2.875 12.051,-8.755 12.051,-16.611 0,-6 -2.772,-12.286 -12.01,-19.187 l -0.039,-1.603 h 56.692 l -0.002,46.681 C 17.974,-10.406 10.311,-4.281 0,0"
         style="fill:#5ec452;fill-opacity:1;fill-rule:nonzero;stroke:none"
         transform="matrix(1.3333333,0,0,-1.3333333,1859.3819,0.00173333)"
         clip-path="url(#clipPath128)" />
      <path
         id="path129"
         d="M 0,0 V 13.775 22.28 H -27.814 V 13.775 -33.488 H 8.536 V -51.421 H 28.878 V 0 Z"
         style="fill:#a9319e;fill-opacity:1;fill-rule:nonzero;stroke:none"
         transform="matrix(1.3333333,0,0,-1.3333333,1926.8495,18.368533)"
         clip-path="url(#clipPath130)" />
      <path
         id="path131"
         d="m 0,0 -8.306,8.505 h -3.186 L -11.493,0 v -65.195 h 39.157 v 36.869 z"
         style="fill:#3bbece;fill-opacity:1;fill-rule:nonzero;stroke:none"
         transform="matrix(1.3333333,0,0,-1.3333333,1980.6787,0.00253333)"
         clip-path="url(#clipPath132)" />
      <path
         id="path133"
         d="m 0,0 35.312,-46.403 v 23.294 H 51.294 V 0 Z"
         style="fill:#1c428b;fill-opacity:1;fill-rule:nonzero;stroke:none"
         transform="matrix(1.3333333,0,0,-1.3333333,1367.8279,0.01306667)" />
      <path
         id="path134"
         d="m 0,0 v -56.69 h 56.693 v 33.578 H 40.708 V -46.409 L 5.392,0 0,7.114 Z"
         style="fill:#4271c0;fill-opacity:1;fill-rule:nonzero;stroke:none"
         transform="matrix(1.3333333,0,0,-1.3333333,1360.6303,0.00373333)" />
      <path
         id="path135"
         d="m 0,0 c 0.808,2.248 1.445,4.621 1.927,7.108 h -53.836 v -63.797 h 27.224 l -19.546,25.616 C -20.868,-26.771 -5.98,-16.634 0,0"
         style="fill:#fbbc09;fill-opacity:1;fill-rule:nonzero;stroke:none"
         transform="matrix(1.3333333,0,0,-1.3333333,1505.4323,0.00546667)"
         clip-path="url(#clipPath136)" />
      <path
         id="path137"
         d="m 0,0 h -4.784 c -5.981,-16.634 -20.867,-26.771 -44.23,-31.073 l 19.545,-25.616 H 0 Z"
         style="fill:#f68512;fill-opacity:1;fill-rule:nonzero;stroke:none"
         transform="matrix(1.3333333,0,0,-1.3333333,1511.8107,0.00546667)"
         clip-path="url(#clipPath138)" />
      <path
         id="path139"
         d="m 1214.053,82.204 h -31.341 V 40.175 h 31.341 z"
         style="fill:#339d89;fill-opacity:1;fill-rule:nonzero;stroke:none"
         transform="matrix(1.3333333,0,0,-1.3333333,-31.338533,109.60693)" />
      <path
         id="path140"
         d="m 0,0 v 42.029 7.105 H -25.352 V 42.029 -14.662 H 31.341 V 0 Z"
         style="fill:#59c69c;fill-opacity:1;fill-rule:nonzero;stroke:none"
         transform="matrix(1.3333333,0,0,-1.3333333,1545.6104,56.040933)" />
      <path
         id="path141"
         d="M 0,0 C -1.088,2.177 -1.918,4.552 -2.477,7.105 H -37.673 V 0 -28.764 c 13.407,-15.85 34.257,-25.266 56.692,-27.8 v 41.296 C 10.515,-12.752 3.764,-7.532 0,0"
         style="fill:#d03ea7;fill-opacity:1;fill-rule:nonzero;stroke:none"
         transform="matrix(1.3333333,0,0,-1.3333333,1637.6296,0.00173333)"
         clip-path="url(#clipPath142)" />
      <path
         id="path143"
         d="M 0,0 V -27.928 H 56.692 V -27.8 C 34.257,-25.266 13.407,-15.849 0,0"
         style="fill:#6d2e98;fill-opacity:1;fill-rule:nonzero;stroke:none"
         transform="matrix(1.3333333,0,0,-1.3333333,1587.3991,38.354133)"
         clip-path="url(#clipPath144)" />
      <path
         id="path145"
         d="M 0,0 C 3.764,-7.532 10.515,-12.752 19.019,-15.268 V 0 Z"
         style="fill:#6d2e98;fill-opacity:1;fill-rule:nonzero;stroke:none"
         transform="matrix(1.3333333,0,0,-1.3333333,1637.6296,0.00173333)"
         clip-path="url(#clipPath146)" />
      <path
         id="path147"
         d="m 0,0 6.229,6.358 6.961,7.105 H 0 -0.003 -34.475 V 6.358 -50.334 H 6.31 l -27.768,28.432 21.455,21.899"
         style="fill:#f14358;fill-opacity:1;fill-rule:nonzero;stroke:none"
         transform="matrix(1.3333333,0,0,-1.3333333,1708.9577,8.4788)" />
      <g
         id="g147"
         clip-path="url(#clipPath148)" />
      <path
         id="path149"
         d="M 0,0 V 7.104 H -25.7 V -56.692 H 0 v 12.572 h 21.656 l 9.336,-12.52 v 46.009 H 0 Z"
         style="fill:#f25c19;fill-opacity:1;fill-rule:nonzero;stroke:none"
         transform="matrix(1.3333333,0,0,-1.3333333,1772.8485,0.00173333)" />
      <path
         id="path150"
         d="M 0,0 C 10.311,-4.281 17.974,-10.406 22.785,-18.515 V 0 Z"
         style="fill:#339130;fill-opacity:1;fill-rule:nonzero;stroke:none"
         transform="matrix(1.3333333,0,0,-1.3333333,1859.3819,0.00173333)"
         clip-path="url(#clipPath151)" />
      <path
         id="path152"
         d="m 0,0 c -9.111,3.783 -20.296,6.122 -33.427,7.105 h -0.48 v -34.9 c 8.423,-2.875 12.051,-8.755 12.051,-16.611 0,-4.926 -1.427,-9.118 -4.566,-12.286 h 49.207 v 38.177 C 17.974,-10.406 10.311,-4.281 0,0"
         style="fill:#5ec452;fill-opacity:1;fill-rule:nonzero;stroke:none"
         transform="matrix(1.3333333,0,0,-1.3333333,1859.3819,0.00173333)"
         clip-path="url(#clipPath153)" />
      <path
         id="path154"
         d="m 0,0 v -28.897 h 7.485 c 3.139,3.168 4.566,7.36 4.566,12.286 C 12.051,-8.755 8.423,-2.875 0,0"
         style="fill:#339130;fill-opacity:1;fill-rule:nonzero;stroke:none"
         transform="matrix(1.3333333,0,0,-1.3333333,1814.1725,37.062)"
         clip-path="url(#clipPath155)" />
      <path
         id="path156"
         d="m 0,0 v 13.775 7.104 h -27.814 v -7.104 -47.263 h 36.35 v -9.429 H 28.878 V 0 Z"
         style="fill:#a9319e;fill-opacity:1;fill-rule:nonzero;stroke:none"
         transform="matrix(1.3333333,0,0,-1.3333333,1926.8495,18.368533)" />
      <path
         id="path157"
         d="m 0,0 -6.938,7.105 h -4.555 V 0 -56.691 h 39.157 v 28.365 z"
         style="fill:#3bbece;fill-opacity:1;fill-rule:nonzero;stroke:none"
         transform="matrix(1.3333333,0,0,-1.3333333,1980.6787,0.00253333)" />
    </g>
    <g
       id="group-MC3">
      <path
         id="path158"
         d="m 1554.213,17.008 h 56.693 v 73.7 h -56.693 z"
         style="fill:#1c428b;fill-opacity:1;fill-rule:nonzero;stroke:none"
         transform="matrix(1.3333333,0,0,-1.3333333,-31.338533,109.60693)" />
      <path
         id="path159"
         d="m 1610.899,17.008 h 56.696 v 73.7 h -56.696 z"
         style="fill:#f68512;fill-opacity:1;fill-rule:nonzero;stroke:none"
         transform="matrix(1.3333333,0,0,-1.3333333,-31.338533,109.60693)" />
      <path
         id="path160"
         d="m 1667.594,17.008 h 56.696 v 73.7 h -56.696 z"
         style="fill:#339d89;fill-opacity:1;fill-rule:nonzero;stroke:none"
         transform="matrix(1.3333333,0,0,-1.3333333,-31.338533,109.60693)" />
      <path
         id="path161"
         d="m 1724.287,17.008 h 56.696 v 73.7 h -56.696 z"
         style="fill:#1c428b;fill-opacity:1;fill-rule:nonzero;stroke:none"
         transform="matrix(1.3333333,0,0,-1.3333333,-31.338533,109.60693)" />
      <path
         id="path162"
         d="m 1724.287,17.008 h 56.696 v 73.7 h -56.696 z"
         style="fill:#6d2e98;fill-opacity:1;fill-rule:nonzero;stroke:none"
         transform="matrix(1.3333333,0,0,-1.3333333,-31.338533,109.60693)" />
      <path
         id="path163"
         d="m 1780.982,17.008 h 56.696 v 73.7 h -56.696 z"
         style="fill:#ca1f66;fill-opacity:1;fill-rule:nonzero;stroke:none"
         transform="matrix(1.3333333,0,0,-1.3333333,-31.338533,109.60693)" />
      <path
         id="path164"
         d="m 1837.675,17.008 h 56.696 v 73.7 h -56.696 z"
         style="fill:#c02f2f;fill-opacity:1;fill-rule:nonzero;stroke:none"
         transform="matrix(1.3333333,0,0,-1.3333333,-31.338533,109.60693)" />
      <path
         id="path165"
         d="m 1894.368,17.008 h 56.696 v 73.7 h -56.696 z"
         style="fill:#339130;fill-opacity:1;fill-rule:nonzero;stroke:none"
         transform="matrix(1.3333333,0,0,-1.3333333,-31.338533,109.60693)" />
      <path
         id="path166"
         d="m 1951.061,17.008 h 56.696 v 73.7 h -56.696 z"
         style="fill:#491454;fill-opacity:1;fill-rule:nonzero;stroke:none"
         transform="matrix(1.3333333,0,0,-1.3333333,-31.338533,109.60693)" />
      <path
         id="path167"
         d="m 2007.753,17.008 h 65.199 v 73.7 h -65.199 z"
         style="fill:#0594b1;fill-opacity:1;fill-rule:nonzero;stroke:none"
         transform="matrix(1.3333333,0,0,-1.3333333,-31.338533,109.60693)" />
      <path
         id="path168"
         d="M 0,0 H 56.693 L 56.687,42.079 H 40.703 V 18.784 L 5.392,65.187 0,72.3 Z"
         style="fill:#4271c0;fill-opacity:1;fill-rule:nonzero;stroke:none"
         transform="matrix(1.3333333,0,0,-1.3333333,2040.9449,86.929333)" />
      <path
         id="path169"
         d="m 0,0 c 0.808,2.248 1.754,6.021 2.235,8.507 h -54.141 v -73.7 h 33.657 l -25.981,34.12 C -20.868,-26.771 -5.98,-16.634 0,0"
         style="fill:#fbbc09;fill-opacity:1;fill-rule:nonzero;stroke:none"
         transform="matrix(1.3333333,0,0,-1.3333333,2185.7435,0.00546667)"
         clip-path="url(#clipPath170)" />
      <path
         id="path171"
         d="m 0,0 v 42.029 8.505 H -25.352 V 42.029 -23.166 H 31.341 V 0 Z"
         style="fill:#59c69c;fill-opacity:1;fill-rule:nonzero;stroke:none"
         transform="matrix(1.3333333,0,0,-1.3333333,2225.9255,56.040933)"
         clip-path="url(#clipPath172)" />
      <path
         id="path173"
         d="M 0,0 C -1.088,2.177 -2.229,5.952 -2.789,8.505 H -37.673 V 0 -28.764 c 13.407,-15.85 34.257,-25.266 56.692,-27.8 v 41.296 C 10.515,-12.752 3.764,-7.532 0,0"
         style="fill:#d03ea7;fill-opacity:1;fill-rule:nonzero;stroke:none"
         transform="matrix(1.3333333,0,0,-1.3333333,2317.9447,0.00173333)"
         clip-path="url(#clipPath174)" />
      <path
         id="path175"
         d="m 0,0 6.229,6.358 8.332,8.505 h -49.035 l -0.001,-8.505 0.001,-65.196 h 49.089 l -36.073,36.936 21.455,21.899"
         style="fill:#f14358;fill-opacity:1;fill-rule:nonzero;stroke:none"
         transform="matrix(1.3333333,0,0,-1.3333333,2389.2728,8.4788)"
         clip-path="url(#clipPath176)" />
      <path
         id="path177"
         d="M 0,0 V 8.505 H -25.7 V -65.196 H 0 v 21.076 h 21.656 l 9.336,-12.52 v 46.009 H 0 Z"
         style="fill:#f25c19;fill-opacity:1;fill-rule:nonzero;stroke:none"
         transform="matrix(1.3333333,0,0,-1.3333333,2453.1636,0.00173333)"
         clip-path="url(#clipPath178)" />
      <path
         id="path179"
         d="m 0,0 c -9.111,3.783 -20.775,7.521 -33.907,8.505 v -36.3 c 8.423,-2.875 12.051,-8.755 12.051,-16.611 0,-6 -2.772,-12.286 -12.01,-19.187 l -0.039,-1.603 h 56.692 l -0.002,46.681 C 17.974,-10.406 10.311,-4.281 0,0"
         style="fill:#5ec452;fill-opacity:1;fill-rule:nonzero;stroke:none"
         transform="matrix(1.3333333,0,0,-1.3333333,2539.6969,0.00173333)"
         clip-path="url(#clipPath180)" />
      <path
         id="path181"
         d="M 0,0 V 13.775 22.28 H -27.814 V 13.775 -33.488 H 8.536 V -51.421 H 28.878 V 0 Z"
         style="fill:#a9319e;fill-opacity:1;fill-rule:nonzero;stroke:none"
         transform="matrix(1.3333333,0,0,-1.3333333,2607.1645,18.368533)"
         clip-path="url(#clipPath182)" />
      <path
         id="path183"
         d="m 0,0 -8.306,8.505 h -3.186 L -11.493,0 v -65.195 h 39.157 v 36.869 z"
         style="fill:#3bbece;fill-opacity:1;fill-rule:nonzero;stroke:none"
         transform="matrix(1.3333333,0,0,-1.3333333,2660.9939,0.00253333)"
         clip-path="url(#clipPath184)" />
      <path
         id="path185"
         d="m 0,0 35.312,-46.403 v 23.294 H 51.294 V 0 Z"
         style="fill:#1c428b;fill-opacity:1;fill-rule:nonzero;stroke:none"
         transform="matrix(1.3333333,0,0,-1.3333333,2048.1429,0.01306667)" />
      <path
         id="path186"
         d="m 0,0 v -56.69 h 56.693 v 33.578 H 40.708 V -46.409 L 5.392,0 0,7.114 Z"
         style="fill:#4271c0;fill-opacity:1;fill-rule:nonzero;stroke:none"
         transform="matrix(1.3333333,0,0,-1.3333333,2040.9449,0.00373333)" />
      <path
         id="path187"
         d="m 0,0 c 0.808,2.248 1.445,4.621 1.927,7.108 h -53.836 v -63.797 h 27.224 l -19.546,25.616 C -20.868,-26.771 -5.98,-16.634 0,0"
         style="fill:#fbbc09;fill-opacity:1;fill-rule:nonzero;stroke:none"
         transform="matrix(1.3333333,0,0,-1.3333333,2185.7475,0.00546667)"
         clip-path="url(#clipPath188)" />
      <path
         id="path189"
         d="m 0,0 h -4.784 c -5.981,-16.634 -20.867,-26.771 -44.23,-31.073 l 19.545,-25.616 H 0 Z"
         style="fill:#f68512;fill-opacity:1;fill-rule:nonzero;stroke:none"
         transform="matrix(1.3333333,0,0,-1.3333333,2192.1259,0.00546667)"
         clip-path="url(#clipPath190)" />
      <path
         id="path191"
         d="m 1724.289,82.204 h -31.341 V 40.175 h 31.341 z"
         style="fill:#339d89;fill-opacity:1;fill-rule:nonzero;stroke:none"
         transform="matrix(1.3333333,0,0,-1.3333333,-31.338533,109.60693)" />
      <path
         id="path192"
         d="m 0,0 v 42.029 7.105 H -25.352 V 42.029 -14.662 H 31.341 V 0 Z"
         style="fill:#59c69c;fill-opacity:1;fill-rule:nonzero;stroke:none"
         transform="matrix(1.3333333,0,0,-1.3333333,2225.9255,56.040933)" />
      <path
         id="path193"
         d="M 0,0 C -1.088,2.177 -1.918,4.552 -2.477,7.105 H -37.673 V 0 -28.764 c 13.407,-15.85 34.257,-25.266 56.692,-27.8 v 41.296 C 10.515,-12.752 3.764,-7.532 0,0"
         style="fill:#d03ea7;fill-opacity:1;fill-rule:nonzero;stroke:none"
         transform="matrix(1.3333333,0,0,-1.3333333,2317.9447,0.00173333)"
         clip-path="url(#clipPath194)" />
      <path
         id="path195"
         d="M 0,0 V -27.928 H 56.692 V -27.8 C 34.257,-25.266 13.407,-15.849 0,0"
         style="fill:#6d2e98;fill-opacity:1;fill-rule:nonzero;stroke:none"
         transform="matrix(1.3333333,0,0,-1.3333333,2267.7143,38.354133)"
         clip-path="url(#clipPath196)" />
      <path
         id="path197"
         d="M 0,0 C 3.764,-7.532 10.515,-12.752 19.019,-15.268 V 0 Z"
         style="fill:#6d2e98;fill-opacity:1;fill-rule:nonzero;stroke:none"
         transform="matrix(1.3333333,0,0,-1.3333333,2317.9447,0.00173333)"
         clip-path="url(#clipPath198)" />
      <path
         id="path199"
         d="m 0,0 6.229,6.358 6.961,7.105 H 0 -0.003 -34.475 V 6.358 -50.334 H 6.31 l -27.768,28.432 21.455,21.899"
         style="fill:#f14358;fill-opacity:1;fill-rule:nonzero;stroke:none"
         transform="matrix(1.3333333,0,0,-1.3333333,2389.2728,8.4788)" />
      <g
         id="g199"
         clip-path="url(#clipPath200)" />
      <path
         id="path201"
         d="M 0,0 V 7.104 H -25.7 V -56.692 H 0 v 12.572 h 21.656 l 9.336,-12.52 v 46.009 H 0 Z"
         style="fill:#f25c19;fill-opacity:1;fill-rule:nonzero;stroke:none"
         transform="matrix(1.3333333,0,0,-1.3333333,2453.1636,0.00173333)" />
      <path
         id="path202"
         d="M 0,0 C 10.311,-4.281 17.974,-10.406 22.785,-18.515 V 0 Z"
         style="fill:#339130;fill-opacity:1;fill-rule:nonzero;stroke:none"
         transform="matrix(1.3333333,0,0,-1.3333333,2539.6969,0.00173333)"
         clip-path="url(#clipPath203)" />
      <path
         id="path204"
         d="m 0,0 c -9.111,3.783 -20.296,6.122 -33.427,7.105 h -0.48 v -34.9 c 8.423,-2.875 12.051,-8.755 12.051,-16.611 0,-4.926 -1.427,-9.118 -4.566,-12.286 h 49.207 v 38.177 C 17.974,-10.406 10.311,-4.281 0,0"
         style="fill:#5ec452;fill-opacity:1;fill-rule:nonzero;stroke:none"
         transform="matrix(1.3333333,0,0,-1.3333333,2539.6969,0.00173333)"
         clip-path="url(#clipPath205)" />
      <path
         id="path206"
         d="m 0,0 v -28.897 h 7.485 c 3.139,3.168 4.566,7.36 4.566,12.286 C 12.051,-8.755 8.423,-2.875 0,0"
         style="fill:#339130;fill-opacity:1;fill-rule:nonzero;stroke:none"
         transform="matrix(1.3333333,0,0,-1.3333333,2494.4876,37.062)"
         clip-path="url(#clipPath207)" />
      <path
         id="path208"
         d="m 0,0 v 13.775 7.104 h -27.814 v -7.104 -47.263 h 36.35 v -9.429 H 28.878 V 0 Z"
         style="fill:#a9319e;fill-opacity:1;fill-rule:nonzero;stroke:none"
         transform="matrix(1.3333333,0,0,-1.3333333,2607.1645,18.368533)" />
      <path
         id="path209"
         d="m 0,0 -6.938,7.105 h -4.555 V 0 -56.691 h 39.157 v 28.365 z"
         style="fill:#3bbece;fill-opacity:1;fill-rule:nonzero;stroke:none"
         transform="matrix(1.3333333,0,0,-1.3333333,2660.9939,0.00253333)" />
    </g>
    <g
       id="group-MC4">
      <path
         id="path210"
         d="m 2064.449,17.008 h 56.693 v 73.7 h -56.693 z"
         style="fill:#1c428b;fill-opacity:1;fill-rule:nonzero;stroke:none"
         transform="matrix(1.3333333,0,0,-1.3333333,-31.338533,109.60693)" />
      <path
         id="path211"
         d="m 2121.135,17.008 h 56.696 v 73.7 h -56.696 z"
         style="fill:#f68512;fill-opacity:1;fill-rule:nonzero;stroke:none"
         transform="matrix(1.3333333,0,0,-1.3333333,-31.338533,109.60693)" />
      <path
         id="path212"
         d="m 2177.83,17.008 h 56.697 v 73.7 h -56.697 z"
         style="fill:#339d89;fill-opacity:1;fill-rule:nonzero;stroke:none"
         transform="matrix(1.3333333,0,0,-1.3333333,-31.338533,109.60693)" />
      <path
         id="path213"
         d="m 2234.523,17.008 h 56.697 v 73.7 h -56.697 z"
         style="fill:#1c428b;fill-opacity:1;fill-rule:nonzero;stroke:none"
         transform="matrix(1.3333333,0,0,-1.3333333,-31.338533,109.60693)" />
      <path
         id="path214"
         d="m 2234.523,17.008 h 56.697 v 73.7 h -56.697 z"
         style="fill:#6d2e98;fill-opacity:1;fill-rule:nonzero;stroke:none"
         transform="matrix(1.3333333,0,0,-1.3333333,-31.338533,109.60693)" />
      <path
         id="path215"
         d="m 2291.218,17.008 h 56.697 v 73.7 h -56.697 z"
         style="fill:#ca1f66;fill-opacity:1;fill-rule:nonzero;stroke:none"
         transform="matrix(1.3333333,0,0,-1.3333333,-31.338533,109.60693)" />
      <path
         id="path216"
         d="m 2347.911,17.008 h 56.697 v 73.7 h -56.697 z"
         style="fill:#c02f2f;fill-opacity:1;fill-rule:nonzero;stroke:none"
         transform="matrix(1.3333333,0,0,-1.3333333,-31.338533,109.60693)" />
      <path
         id="path217"
         d="m 2404.604,17.008 h 56.696 v 73.7 h -56.696 z"
         style="fill:#339130;fill-opacity:1;fill-rule:nonzero;stroke:none"
         transform="matrix(1.3333333,0,0,-1.3333333,-31.338533,109.60693)" />
      <path
         id="path218"
         d="m 2461.297,17.008 h 56.696 v 73.7 h -56.696 z"
         style="fill:#491454;fill-opacity:1;fill-rule:nonzero;stroke:none"
         transform="matrix(1.3333333,0,0,-1.3333333,-31.338533,109.60693)" />
      <path
         id="path219"
         d="m 2517.989,17.008 h 65.199 v 73.7 h -65.199 z"
         style="fill:#0594b1;fill-opacity:1;fill-rule:nonzero;stroke:none"
         transform="matrix(1.3333333,0,0,-1.3333333,-31.338533,109.60693)" />
      <path
         id="path220"
         d="M 0,0 H 56.693 L 56.687,42.079 H 40.703 V 18.784 L 5.392,65.187 0,72.3 Z"
         style="fill:#4271c0;fill-opacity:1;fill-rule:nonzero;stroke:none"
         transform="matrix(1.3333333,0,0,-1.3333333,2721.2597,86.929333)" />
      <path
         id="path221"
         d="m 0,0 c 0.808,2.248 1.754,6.021 2.236,8.507 h -54.142 v -73.7 h 33.657 l -25.981,34.12 C -20.868,-26.771 -5.98,-16.634 0,0"
         style="fill:#fbbc09;fill-opacity:1;fill-rule:nonzero;stroke:none"
         transform="matrix(1.3333333,0,0,-1.3333333,2866.0583,0.00546667)"
         clip-path="url(#clipPath222)" />
      <path
         id="path223"
         d="m 0,0 v 42.029 8.505 H -25.352 V 42.029 -23.166 H 31.341 V 0 Z"
         style="fill:#59c69c;fill-opacity:1;fill-rule:nonzero;stroke:none"
         transform="matrix(1.3333333,0,0,-1.3333333,2906.2403,56.040933)"
         clip-path="url(#clipPath224)" />
      <path
         id="path225"
         d="M 0,0 C -1.088,2.177 -2.229,5.952 -2.789,8.505 H -37.673 V 0 -28.764 c 13.407,-15.85 34.257,-25.266 56.693,-27.8 v 41.296 C 10.515,-12.752 3.764,-7.532 0,0"
         style="fill:#d03ea7;fill-opacity:1;fill-rule:nonzero;stroke:none"
         transform="matrix(1.3333333,0,0,-1.3333333,2998.2595,0.00173333)"
         clip-path="url(#clipPath226)" />
      <path
         id="path227"
         d="m 0,0 6.229,6.358 8.332,8.505 h -49.035 l -0.001,-8.505 0.001,-65.196 h 49.089 l -36.073,36.936 21.455,21.899"
         style="fill:#f14358;fill-opacity:1;fill-rule:nonzero;stroke:none"
         transform="matrix(1.3333333,0,0,-1.3333333,3069.5876,8.4788)"
         clip-path="url(#clipPath228)" />
      <path
         id="path229"
         d="M 0,0 V 8.505 H -25.7 V -65.196 H 0 v 21.076 h 21.656 l 9.335,-12.52 v 46.009 H 0 Z"
         style="fill:#f25c19;fill-opacity:1;fill-rule:nonzero;stroke:none"
         transform="matrix(1.3333333,0,0,-1.3333333,3133.4785,0.00173333)"
         clip-path="url(#clipPath230)" />
      <path
         id="path231"
         d="m 0,0 c -9.111,3.783 -20.775,7.521 -33.907,8.505 v -36.3 c 8.423,-2.875 12.051,-8.755 12.051,-16.611 0,-6 -2.772,-12.286 -12.01,-19.187 l -0.039,-1.603 h 56.692 l -0.002,46.681 C 17.974,-10.406 10.311,-4.281 0,0"
         style="fill:#5ec452;fill-opacity:1;fill-rule:nonzero;stroke:none"
         transform="matrix(1.3333333,0,0,-1.3333333,3220.0117,0.00173333)"
         clip-path="url(#clipPath232)" />
      <path
         id="path233"
         d="M 0,0 V 13.775 22.28 H -27.814 V 13.775 -33.488 H 8.536 V -51.421 H 28.878 V 0 Z"
         style="fill:#a9319e;fill-opacity:1;fill-rule:nonzero;stroke:none"
         transform="matrix(1.3333333,0,0,-1.3333333,3287.4795,18.368533)"
         clip-path="url(#clipPath234)" />
      <path
         id="path235"
         d="m 0,0 -8.306,8.505 h -3.186 L -11.493,0 v -65.195 h 39.157 v 36.869 z"
         style="fill:#3bbece;fill-opacity:1;fill-rule:nonzero;stroke:none"
         transform="matrix(1.3333333,0,0,-1.3333333,3341.3087,0.00253333)"
         clip-path="url(#clipPath236)" />
      <path
         id="path237"
         d="m 0,0 35.312,-46.403 v 23.294 H 51.294 V 0 Z"
         style="fill:#1c428b;fill-opacity:1;fill-rule:nonzero;stroke:none"
         transform="matrix(1.3333333,0,0,-1.3333333,2728.4577,0.01306667)" />
      <path
         id="path238"
         d="m 0,0 v -56.69 h 56.693 v 33.578 H 40.709 V -46.409 L 5.392,0 0,7.114 Z"
         style="fill:#4271c0;fill-opacity:1;fill-rule:nonzero;stroke:none"
         transform="matrix(1.3333333,0,0,-1.3333333,2721.2597,0.00373333)" />
      <path
         id="path239"
         d="m 0,0 c 0.808,2.248 1.445,4.621 1.927,7.108 h -53.836 v -63.797 h 27.224 l -19.546,25.616 C -20.868,-26.771 -5.98,-16.634 0,0"
         style="fill:#fbbc09;fill-opacity:1;fill-rule:nonzero;stroke:none"
         transform="matrix(1.3333333,0,0,-1.3333333,2866.0621,0.00546667)"
         clip-path="url(#clipPath240)" />
      <path
         id="path241"
         d="m 0,0 h -4.784 c -5.981,-16.634 -20.868,-26.771 -44.23,-31.073 l 19.545,-25.616 H 0 Z"
         style="fill:#f68512;fill-opacity:1;fill-rule:nonzero;stroke:none"
         transform="matrix(1.3333333,0,0,-1.3333333,2872.4408,0.00546667)"
         clip-path="url(#clipPath242)" />
      <path
         id="path243"
         d="m 2234.525,82.204 h -31.341 V 40.175 h 31.341 z"
         style="fill:#339d89;fill-opacity:1;fill-rule:nonzero;stroke:none"
         transform="matrix(1.3333333,0,0,-1.3333333,-31.338533,109.60693)" />
      <path
         id="path244"
         d="m 0,0 v 42.029 7.105 H -25.352 V 42.029 -14.662 H 31.341 V 0 Z"
         style="fill:#59c69c;fill-opacity:1;fill-rule:nonzero;stroke:none"
         transform="matrix(1.3333333,0,0,-1.3333333,2906.2403,56.040933)" />
      <path
         id="path245"
         d="M 0,0 C -1.088,2.177 -1.918,4.552 -2.477,7.105 H -37.673 V 0 -28.764 c 13.407,-15.85 34.257,-25.266 56.693,-27.8 v 41.296 C 10.515,-12.752 3.764,-7.532 0,0"
         style="fill:#d03ea7;fill-opacity:1;fill-rule:nonzero;stroke:none"
         transform="matrix(1.3333333,0,0,-1.3333333,2998.2595,0.00173333)"
         clip-path="url(#clipPath246)" />
      <path
         id="path247"
         d="M 0,0 V -27.928 H 56.692 V -27.8 C 34.257,-25.266 13.407,-15.849 0,0"
         style="fill:#6d2e98;fill-opacity:1;fill-rule:nonzero;stroke:none"
         transform="matrix(1.3333333,0,0,-1.3333333,2948.0289,38.354133)"
         clip-path="url(#clipPath248)" />
      <path
         id="path249"
         d="M 0,0 C 3.764,-7.532 10.515,-12.752 19.02,-15.268 V 0 Z"
         style="fill:#6d2e98;fill-opacity:1;fill-rule:nonzero;stroke:none"
         transform="matrix(1.3333333,0,0,-1.3333333,2998.2595,0.00173333)"
         clip-path="url(#clipPath250)" />
      <path
         id="path251"
         d="m 0,0 6.229,6.358 6.961,7.105 H 0 -0.003 -34.475 V 6.358 -50.334 H 6.31 l -27.768,28.432 21.455,21.899"
         style="fill:#f14358;fill-opacity:1;fill-rule:nonzero;stroke:none"
         transform="matrix(1.3333333,0,0,-1.3333333,3069.5876,8.4788)" />
      <g
         id="g251"
         clip-path="url(#clipPath252)" />
      <path
         id="path253"
         d="M 0,0 V 7.104 H -25.7 V -56.692 H 0 v 12.572 h 21.656 l 9.335,-12.52 v 46.009 H 0 Z"
         style="fill:#f25c19;fill-opacity:1;fill-rule:nonzero;stroke:none"
         transform="matrix(1.3333333,0,0,-1.3333333,3133.4785,0.00173333)" />
      <path
         id="path254"
         d="M 0,0 C 10.311,-4.281 17.974,-10.406 22.785,-18.515 V 0 Z"
         style="fill:#339130;fill-opacity:1;fill-rule:nonzero;stroke:none"
         transform="matrix(1.3333333,0,0,-1.3333333,3220.0117,0.00173333)"
         clip-path="url(#clipPath255)" />
      <path
         id="path256"
         d="m 0,0 c -9.111,3.783 -20.296,6.122 -33.427,7.105 h -0.48 v -34.9 c 8.423,-2.875 12.051,-8.755 12.051,-16.611 0,-4.926 -1.427,-9.118 -4.566,-12.286 h 49.207 v 38.177 C 17.974,-10.406 10.311,-4.281 0,0"
         style="fill:#5ec452;fill-opacity:1;fill-rule:nonzero;stroke:none"
         transform="matrix(1.3333333,0,0,-1.3333333,3220.0117,0.00173333)"
         clip-path="url(#clipPath257)" />
      <path
         id="path258"
         d="m 0,0 v -28.897 h 7.485 c 3.139,3.168 4.566,7.36 4.566,12.286 C 12.051,-8.755 8.423,-2.875 0,0"
         style="fill:#339130;fill-opacity:1;fill-rule:nonzero;stroke:none"
         transform="matrix(1.3333333,0,0,-1.3333333,3174.8024,37.062)"
         clip-path="url(#clipPath259)" />
      <path
         id="path260"
         d="m 0,0 v 13.775 7.104 h -27.814 v -7.104 -47.263 h 36.35 v -9.429 H 28.878 V 0 Z"
         style="fill:#a9319e;fill-opacity:1;fill-rule:nonzero;stroke:none"
         transform="matrix(1.3333333,0,0,-1.3333333,3287.4795,18.368533)" />
      <path
         id="path261"
         d="m 0,0 -6.938,7.105 h -4.555 V 0 -56.691 h 39.157 v 28.365 z"
         style="fill:#3bbece;fill-opacity:1;fill-rule:nonzero;stroke:none"
         transform="matrix(1.3333333,0,0,-1.3333333,3341.3087,0.00253333)" />
    </g>
  </g>
</svg>
