<?xml version="1.0" encoding="UTF-8" standalone="no"?>
<svg
   version="1.1"
   id="Layer_1"
   x="0px"
   y="0px"
   width="100%"
   viewBox="0 0 1028 1140"
   enable-background="new 0 0 1028 1140"
   xml:space="preserve"
   sodipodi:docname="tdeco.svg"
   inkscape:version="1.4 (unknown)"
   xmlns:inkscape="http://www.inkscape.org/namespaces/inkscape"
   xmlns:sodipodi="http://sodipodi.sourceforge.net/DTD/sodipodi-0.dtd"
   xmlns="http://www.w3.org/2000/svg"
   xmlns:svg="http://www.w3.org/2000/svg"><defs
   id="defs53" /><sodipodi:namedview
   id="namedview53"
   pagecolor="#ffffff"
   bordercolor="#000000"
   borderopacity="0.25"
   inkscape:showpageshadow="2"
   inkscape:pageopacity="0.0"
   inkscape:pagecheckerboard="0"
   inkscape:deskcolor="#d1d1d1"
   inkscape:zoom="9.4350116"
   inkscape:cx="331.58412"
   inkscape:cy="1111.3394"
   inkscape:window-width="1536"
   inkscape:window-height="888"
   inkscape:window-x="0"
   inkscape:window-y="0"
   inkscape:window-maximized="1"
   inkscape:current-layer="Layer_1" />


<path
   fill="#FBBB10"
   opacity="1.000000"
   stroke="none"
   d=" M1029.000000,1041.571533   C982.338867,1042.000000 935.677612,1041.969727 889.016663,1042.065552   C885.785645,1042.072144 883.524597,1041.155273 881.238525,1038.845093   C863.657349,1021.078430 845.981812,1003.404114 828.182617,985.856262   C826.638123,984.333557 823.995056,983.116150 821.861572,983.114929   C602.720886,982.992188 383.580109,983.000244 164.439346,983.000366   C163.447388,983.000366 162.455429,983.000305 161.743668,983.000305   C159.859924,986.211304 158.602615,989.575806 156.332169,991.985962   C150.521942,998.153748 138.494980,996.928528 133.851242,992.457764   C126.851875,985.719177 125.979271,977.467957 131.698181,969.669067   C138.694229,960.128540 154.594955,961.649475 158.941452,972.138245   C160.558792,976.041077 162.813232,977.110291 167.004669,977.107971   C385.812073,976.985474 604.619507,977.008118 823.427002,976.928589   C827.006409,976.927307 829.531128,977.850525 832.093872,980.449158   C849.527893,998.126953 867.091980,1015.678040 884.790039,1033.091187   C886.425171,1034.699951 889.285828,1035.872070 891.582336,1035.880249   C937.075378,1036.041016 982.569031,1036.000000 1028.531250,1036.000000   C1029.000000,1037.714355 1029.000000,1039.428711 1029.000000,1041.571533  z"
   id="path3" />
<path
   fill="#FBBB10"
   opacity="1.000000"
   stroke="none"
   d=" M815.454102,1141.000000   C814.068359,1139.571655 813.162781,1138.125366 812.200806,1136.717773   C805.985901,1127.623169 797.430298,1125.746704 786.606934,1125.759399   C525.050659,1126.067871 263.493958,1126.000000 1.468657,1126.000000   C1.000000,1124.285645 1.000000,1122.571289 1.000000,1120.428467   C267.077606,1120.000000 533.155212,1120.007202 799.232788,1119.927734   C802.990906,1119.926636 805.707825,1120.856934 808.303711,1123.671753   C813.606140,1129.421387 819.301392,1134.808716 824.917419,1140.672607   C821.969421,1141.000000 818.938782,1141.000000 815.454102,1141.000000  z"
   id="path4" />
<path
   fill="#FBBB10"
   opacity="1.000000"
   stroke="none"
   d=" M1.000000,617.428467   C115.139336,617.000000 229.278687,617.015320 343.417938,616.929016   C346.991058,616.926331 349.514740,617.844910 352.086945,620.438721   C377.546417,646.112488 403.192505,671.601074 428.659851,697.267090   C431.310944,699.938843 433.897369,701.085571 437.696259,701.081543   C535.506104,700.978271 633.315979,701.026123 731.125793,700.916443   C735.621338,700.911377 738.219421,702.447388 739.657654,707.000000   C737.269470,707.000000 735.164673,707.000000 733.059814,707.000000   C633.750244,707.000000 534.440735,706.977905 435.131256,707.081665   C431.197540,707.085815 428.431824,706.092163 425.600952,703.234253   C400.390747,677.782410 374.959473,652.549683 349.733276,627.113586   C346.842194,624.198425 344.060028,622.893250 339.851837,622.898071   C227.213776,623.026184 114.575531,623.000244 1.468657,623.000183   C1.000000,621.285645 1.000000,619.571289 1.000000,617.428467  z"
   id="path5" />
<path
   fill="#FBBB10"
   opacity="1.000000"
   stroke="none"
   d=" M1.000000,933.428467   C210.095230,933.000000 419.190460,933.000000 628.225281,933.000000   C632.222473,921.876099 638.977661,918.333862 649.417664,920.038574   C655.888489,921.095276 662.272522,929.549072 661.914673,936.280945   C661.525208,943.607605 655.560547,951.068909 649.358704,951.987488   C638.436768,953.605103 631.727234,949.486877 628.608582,939.000000   C419.779205,939.000000 210.858261,939.000000 1.468657,939.000000   C1.000000,937.285645 1.000000,935.571289 1.000000,933.428467  z"
   id="path6" />
<path
   fill="#FBBB10"
   opacity="1.000000"
   stroke="none"
   d=" M1.000000,698.428467   C11.999673,698.000000 23.002052,697.875000 33.996571,698.113098   C36.021358,698.156921 38.503036,699.172485 39.945442,700.585266   C52.682690,713.061279 65.169266,725.793335 77.920860,738.254333   C79.464508,739.762878 82.139549,740.888123 84.291161,740.889648   C253.452759,741.009827 422.614410,740.996460 591.776062,741.030151   C594.627686,741.030701 596.372925,740.805176 597.484070,737.312866   C599.529907,730.882935 608.381165,725.915955 614.089844,727.049622   C623.057068,728.830383 628.250183,734.086914 629.052551,741.465515   C630.072083,750.840820 624.029358,757.645691 618.074524,759.451904   C609.256836,762.126343 600.463501,758.024536 596.909729,749.779175   C596.380005,748.550049 594.587341,747.622498 593.177063,747.090881   C592.009644,746.650696 590.544434,747.000061 589.211121,747.000061   C420.382782,747.000061 251.554474,746.987976 82.726181,747.077271   C78.944099,747.079285 76.318260,746.003784 73.671181,743.294739   C61.675903,731.018555 49.525272,718.890381 37.220634,706.924744   C35.570904,705.320435 32.750690,704.205261 30.431120,704.129456   C20.941910,703.819336 11.436659,704.000000 1.468657,704.000000   C1.000000,702.285645 1.000000,700.571289 1.000000,698.428467  z"
   id="path7" />
<path
   fill="#FBBB10"
   opacity="1.000000"
   stroke="none"
   d=" M1.000000,977.428467   C28.165390,977.000000 55.331272,976.930969 82.495277,977.124878   C84.786293,977.141235 87.610123,978.359619 89.262321,979.968567   C101.916138,992.290894 114.288231,1004.902222 126.908066,1017.260193   C128.364822,1018.686768 130.802307,1019.887329 132.786331,1019.889160   C264.779999,1020.010437 396.773804,1019.997742 528.767578,1019.991821   C529.262024,1019.991821 529.756470,1019.921875 530.486877,1019.866821   C532.619934,1012.979126 536.648621,1008.564575 544.331116,1006.717041   C555.568848,1004.014465 565.356018,1015.305603 563.900146,1024.948730   C562.811768,1032.156982 556.646057,1038.451050 550.815857,1038.997314   C540.048645,1040.005859 535.989441,1037.666504 531.763123,1028.468872   C531.244080,1027.339355 529.508179,1026.574463 528.173523,1026.076904   C527.149109,1025.695068 525.868652,1026.000000 524.702026,1026.000000   C393.541534,1025.999878 262.381012,1025.985352 131.220581,1026.080200   C127.763466,1026.082764 125.405052,1025.080933 123.017700,1022.649414   C110.876259,1010.283020 98.636070,998.010254 86.220314,985.920532   C84.572357,984.315857 81.730797,983.140137 79.431816,983.122864   C53.601463,982.928406 27.769121,982.999939 1.468657,982.999939   C1.000000,981.285645 1.000000,979.571289 1.000000,977.428467  z"
   id="path8" />
<path
   fill="#FBBB10"
   opacity="1.000000"
   stroke="none"
   d=" M1.000000,571.428467   C159.436417,571.000000 317.872833,570.989868 476.309235,571.062073   C480.045990,571.063782 482.362701,570.704895 484.082275,566.523560   C487.371094,558.526306 499.195099,555.046387 506.821136,559.419006   C513.865601,563.458130 517.576660,573.052551 513.490356,581.044556   C510.388153,587.111755 503.710541,591.655640 498.064789,590.899109   C491.112732,589.967407 485.539825,586.959412 482.905151,579.806824   C482.456055,578.587646 480.615631,577.629456 479.210876,577.091858   C478.048248,576.646912 476.580078,577.000000 475.247284,577.000000   C317.477295,577.000000 159.707306,576.999939 1.468657,576.999939   C1.000000,575.285645 1.000000,573.571289 1.000000,571.428467  z"
   id="path9" />
<path
   fill="#FBBB10"
   opacity="1.000000"
   stroke="none"
   d=" M1.000000,442.428467   C158.665024,442.000000 316.330048,441.987579 473.995056,442.071625   C477.925659,442.073730 480.413177,441.658325 482.108337,437.328705   C484.536865,431.125763 492.367004,427.894226 499.527740,429.019684   C506.152710,430.060944 512.149292,436.186279 512.991150,442.772186   C513.984924,450.546539 510.710815,456.502197 504.327545,459.975006   C495.733276,464.650696 483.934448,460.163849 481.491852,451.995789   C480.491211,448.649536 478.322327,447.917480 474.932190,447.919464   C317.267273,448.012085 159.602295,448.000000 1.468657,448.000000   C1.000000,446.285645 1.000000,444.571289 1.000000,442.428467  z"
   id="path10" />
<path
   fill="#FBBB10"
   opacity="1.000000"
   stroke="none"
   d=" M1.000000,529.428467   C200.603577,529.000000 400.207184,529.021545 599.810608,528.866394   C604.437012,528.862793 607.037598,530.368835 609.320374,535.000488   C406.529358,535.000488 204.233337,535.000488 1.468657,535.000244   C1.000000,533.285645 1.000000,531.571289 1.000000,529.428467  z"
   id="path11" />
<path
   fill="#FBBB10"
   opacity="1.000000"
   stroke="none"
   d=" M1029.000000,1096.571533   C975.021301,1097.000000 921.042542,1096.973755 867.064026,1097.065430   C863.842346,1097.070801 861.573547,1096.201172 859.273743,1093.882812   C837.685852,1072.121582 815.999207,1050.458008 794.225708,1028.882446   C792.767700,1027.437622 790.374573,1026.124878 788.412231,1026.119019   C738.599060,1025.970093 688.785339,1026.003906 638.971680,1026.013062   C638.478088,1026.013062 637.984558,1026.114990 637.378540,1026.181763   C634.986938,1031.486084 632.752380,1036.976318 626.092712,1038.437134   C619.540955,1039.874390 613.062134,1039.683960 608.390625,1034.494873   C603.772217,1029.364746 602.475281,1022.934937 605.318787,1016.271606   C608.064880,1009.836731 613.386963,1006.278076 620.081116,1006.184753   C626.250793,1006.098816 632.270081,1008.356934 634.775574,1014.708740   C636.531128,1019.159607 639.062988,1020.117493 643.530151,1020.102539   C692.343689,1019.939026 741.157959,1020.028442 789.971863,1019.935669   C793.196167,1019.929565 795.460266,1020.834412 797.751282,1023.145203   C819.098511,1044.676636 840.622253,1066.033081 861.940613,1087.592773   C864.521790,1090.203125 867.069458,1091.075317 870.623840,1091.068481   C923.103271,1090.968994 975.583008,1091.000000 1028.531250,1091.000000   C1029.000000,1092.714355 1029.000000,1094.428711 1029.000000,1096.571533  z"
   id="path12" />
<path
   fill="#FBBB10"
   opacity="1.000000"
   stroke="none"
   d=" M1.000007,742.449951   C2.717031,743.212646 4.641504,744.215149 6.117666,745.671875   C16.316053,755.736267 26.986406,765.410461 36.285717,776.255676   C40.161541,780.775818 43.857014,781.010437 48.585144,781.009949   C161.883179,780.997192 275.181213,781.000061 388.479248,781.000061   C390.469330,781.000061 392.459412,781.000061 394.565948,781.000061   C396.626221,772.894287 402.013916,768.580078 409.841888,767.059204   C414.686066,766.118164 422.854034,770.483276 425.801849,775.488708   C429.059845,781.020874 428.705994,788.943726 424.998505,793.473267   C416.131989,804.305664 401.470856,802.259399 395.808197,789.516968   C395.302460,788.378967 393.571320,787.587830 392.239868,787.078430   C391.222321,786.689209 389.936829,787.000000 388.770538,787.000000   C273.806366,786.999939 158.842148,786.984863 43.878036,787.067505   C40.156094,787.070129 37.461353,786.174133 34.764824,783.419434   C23.819635,772.238220 12.587334,761.338013 1.230466,750.667114   C1.000000,748.299988 1.000000,745.599976 1.000007,742.449951  z"
   id="path13" />
<path
   fill="#FBBB10"
   opacity="1.000000"
   stroke="none"
   d=" M1.000000,657.428467   C106.112175,657.000000 211.224365,657.021179 316.336426,656.915283   C320.150787,656.911438 322.719849,658.100281 325.368805,660.744934   C334.319275,669.681091 343.548126,678.338379 352.607666,687.041870   C362.342133,682.231567 372.564056,685.670105 376.601288,694.038025   C379.557190,700.164673 378.125275,708.829163 373.066010,713.443115   C367.543884,718.479248 359.207336,719.394287 353.142792,715.629944   C346.245453,711.348694 343.228180,703.602661 346.102112,695.836853   C347.319061,692.548340 346.444977,690.806091 344.208496,688.634521   C336.680786,681.325256 329.244446,673.915588 321.975861,666.349548   C319.611969,663.888916 317.230927,662.916260 313.775909,662.919556   C209.829788,663.018372 105.883545,663.000244 1.468657,663.000183   C1.000000,661.285645 1.000000,659.571289 1.000000,657.428467  z"
   id="path14" />
<path
   fill="#FBBB10"
   opacity="1.000000"
   stroke="none"
   d=" M1.000000,400.428467   C167.616898,400.000000 334.233795,400.019257 500.850616,399.904175   C505.685577,399.900848 509.457825,400.551117 511.505615,406.000519   C341.590210,406.000519 171.763763,406.000519 1.468657,406.000244   C1.000000,404.285645 1.000000,402.571289 1.000000,400.428467  z"
   id="path15" />
<path
   fill="#FBBB10"
   opacity="1.000000"
   stroke="none"
   d=" M1.000000,357.428467   C156.952011,357.000000 312.904022,357.016541 468.855988,356.918488   C473.427979,356.915619 476.965729,357.530243 478.352570,363.000000   C319.585907,363.000000 160.761612,363.000000 1.468657,363.000000   C1.000000,361.285645 1.000000,359.571289 1.000000,357.428467  z"
   id="path16" />
<path
   fill="#FBBB10"
   opacity="1.000000"
   stroke="none"
   d=" M1029.000000,917.545898   C1027.925659,918.582764 1026.651367,918.960388 1025.809082,919.781311   C1020.324463,925.127441 1015.095093,930.748535 1009.419250,935.878052   C1007.581238,937.539062 1004.654175,938.869202 1002.222839,938.873352   C913.115540,939.023804 824.007935,939.014954 734.900452,938.947021   C731.184814,938.944214 728.955505,939.205200 727.459106,943.660278   C725.337524,949.976440 715.723389,953.527100 708.693665,951.859009   C701.628235,950.182495 696.108154,943.485046 696.000854,936.459167   C695.874939,928.216736 701.327148,921.271912 709.562866,919.184448   C715.937622,917.568665 723.599121,921.101501 727.046021,927.315063   C727.982788,929.003662 728.735168,930.794556 729.793762,933.000122   C731.431580,933.000122 733.582336,933.000122 735.733154,933.000122   C823.008545,933.000122 910.284058,932.975403 997.559265,933.086548   C1001.206787,933.091187 1003.656616,932.002014 1006.173645,929.451172   C1013.384338,922.143677 1020.897339,915.134583 1028.645752,908.004089   C1029.000000,911.030579 1029.000000,914.061218 1029.000000,917.545898  z"
   id="path17" />
<path
   fill="#FBBB10"
   opacity="1.000000"
   stroke="none"
   d=" M1.000000,1071.428467   C103.791710,1071.000000 206.583435,1070.982056 309.375061,1071.070312   C313.172943,1071.073608 316.034973,1070.826538 316.967529,1066.393799   C318.312225,1060.001831 328.152710,1055.651978 335.102966,1057.096436   C342.592102,1058.652832 347.432465,1065.257080 348.127014,1072.837158   C348.864014,1080.880737 342.609070,1088.250488 334.933136,1089.929077   C326.295563,1091.817993 319.095123,1087.024902 315.223663,1077.000366   C210.838379,1077.000366 106.387848,1077.000366 1.468657,1077.000244   C1.000000,1075.285645 1.000000,1073.571289 1.000000,1071.428467  z"
   id="path18" />
<path
   fill="#FBBB10"
   opacity="1.000000"
   stroke="none"
   d=" M1.000000,316.428467   C20.490454,316.000000 39.981976,316.094391 59.469940,315.874115   C61.766838,315.848175 64.599693,314.662506 66.243774,313.053589   C80.885963,298.724701 95.261635,284.123535 109.890327,269.780579   C111.433083,268.267944 114.096474,267.115601 116.241760,267.112671   C211.694824,266.982330 307.148224,267.053192 402.601013,266.844910   C407.444366,266.834320 408.251953,270.098419 411.344330,273.000031   C408.581848,273.000031 406.810211,273.000031 405.038574,273.000031   C310.251678,273.000031 215.464737,273.022919 120.677948,272.916687   C116.871498,272.912415 114.280708,274.063019 111.646797,276.742065   C97.633636,290.995392 83.492676,305.125702 69.200439,319.098572   C67.559395,320.702972 64.710205,321.851959 62.407009,321.876373   C42.252274,322.090179 22.094316,322.000031 1.468657,322.000000   C1.000000,320.285645 1.000000,318.571289 1.000000,316.428467  z"
   id="path19" />
<path
   fill="#FBBB10"
   opacity="1.000000"
   stroke="none"
   d=" M1.000000,879.428467   C76.600235,879.000000 152.200485,878.987244 227.800674,879.042786   C231.116211,879.045227 233.371628,878.942139 234.793106,874.920715   C237.176910,868.176941 244.997253,864.857178 253.282867,866.011414   C258.557404,866.746216 265.235779,873.400024 265.989899,878.671692   C267.176453,886.966248 263.888672,893.376648 257.440186,896.922424   C248.386353,901.900757 236.643112,896.803040 233.895996,887.791443   C233.532852,886.600159 231.599777,885.679260 230.201935,885.082397   C229.215942,884.661377 227.905426,885.000061 226.739777,885.000061   C151.805618,885.000000 76.871468,885.000000 1.468657,885.000000   C1.000000,883.285645 1.000000,881.571289 1.000000,879.428467  z"
   id="path20" />
<path
   fill="#FBBB10"
   opacity="1.000000"
   stroke="none"
   d=" M1.000000,484.428467   C40.160793,484.000000 79.321609,483.981842 118.482330,484.035583   C121.502182,484.039734 123.366371,483.840790 124.595955,480.146606   C126.916870,473.173615 136.318390,468.909760 143.956177,471.161835   C150.361588,473.050598 156.886032,478.491455 156.052032,488.907074   C155.569290,494.935822 150.613983,502.067230 142.991013,503.141846   C134.599350,504.324829 126.048851,500.709290 123.810326,492.492737   C123.486961,491.305786 120.620995,490.126160 118.918533,490.107025   C102.922958,489.926849 86.924538,490.000000 70.926933,490.000000   C47.930393,490.000000 24.933855,490.000000 1.468657,490.000000   C1.000000,488.285645 1.000000,486.571289 1.000000,484.428467  z"
   id="path21" />
<path
   fill="#FBBB10"
   opacity="1.000000"
   stroke="none"
   d=" M1029.000000,982.571533   C992.213318,983.000000 955.426575,983.038208 918.640198,982.935791   C915.283325,982.926453 913.522217,983.635803 912.202820,987.136719   C909.125793,995.301270 898.469788,998.782227 890.437256,994.782959   C881.822021,990.493652 878.737671,980.915405 882.641113,972.680420   C885.787964,966.041931 891.328369,963.176575 897.763977,963.274719   C904.200928,963.372803 910.099915,966.141968 912.625916,973.106445   C913.069946,974.330566 913.744080,975.471313 914.480286,977.000000   C952.219910,977.000000 990.141235,977.000000 1028.531250,977.000000   C1029.000000,978.714355 1029.000000,980.428711 1029.000000,982.571533  z"
   id="path22" />
<path
   fill="#FBBB10"
   opacity="1.000000"
   stroke="none"
   d=" M1029.000000,481.571533   C1007.179810,482.000000 985.359131,482.064301 963.539856,481.925629   C960.518066,481.906433 959.058899,482.734924 957.647766,485.536285   C954.270142,492.241577 948.794739,495.682281 940.875732,495.079712   C934.604431,494.602570 930.517273,491.297791 927.732849,486.173248   C924.213806,479.696869 925.763550,473.297882 929.855225,467.869934   C933.257141,463.356873 938.648499,461.338409 944.263794,462.131378   C950.467041,463.007416 955.765747,466.077271 957.888367,472.439301   C958.858215,475.346191 960.214905,476.079529 963.102112,476.063904   C984.755066,475.946503 1006.408997,475.999969 1028.531250,476.000000   C1029.000000,477.714355 1029.000000,479.428711 1029.000000,481.571533  z"
   id="path23" />
<path
   fill="#FBBB10"
   opacity="1.000000"
   stroke="none"
   d=" M1029.000000,661.571533   C997.873657,662.000000 966.747070,662.047913 935.621155,661.931213   C932.237610,661.918518 930.473206,662.669556 929.197083,666.153870   C926.628174,673.168152 920.429260,676.379578 912.237793,675.696228   C912.237793,664.970093 912.237793,654.222595 912.237793,643.492920   C920.124573,642.386841 927.400085,645.700500 929.522705,652.279297   C930.632263,655.718567 932.293945,656.042114 935.182861,656.036621   C966.142700,655.977783 997.102661,656.000000 1028.531250,656.000000   C1029.000000,657.714355 1029.000000,659.428711 1029.000000,661.571533  z"
   id="path24" />
<path
   fill="#FBBB10"
   opacity="1.000000"
   stroke="none"
   d=" M1.000000,1020.428467   C11.800706,1020.000000 22.601412,1020.000000 33.326431,1020.000000   C36.594849,1010.933105 44.742901,1004.808228 51.718121,1006.024414   C59.809029,1007.435120 66.658203,1014.934875 66.990532,1022.747620   C67.274193,1029.415894 60.629726,1038.007935 54.434170,1038.984741   C43.610889,1040.690796 37.337318,1036.884277 33.273556,1026.000000   C22.875326,1026.000000 12.406321,1026.000000 1.468657,1026.000000   C1.000000,1024.285645 1.000000,1022.571289 1.000000,1020.428467  z"
   id="path25" />
<path
   fill="#FBBB10"
   opacity="1.000000"
   stroke="none"
   d=" M1.000000,267.428467   C10.134853,267.000000 19.269707,267.000000 28.345394,267.000000   C32.398975,252.505447 47.694740,250.998413 55.809753,257.844330   C61.390862,262.552612 62.396000,272.939728 59.346149,278.251343   C55.346844,285.216583 48.054153,288.345673 40.773540,286.406921   C34.908077,284.844971 31.320744,281.313873 28.907986,275.939545   C28.316713,274.622498 26.290092,273.181458 24.875381,273.130493   C17.237696,272.855560 9.584900,273.000122 1.468656,273.000000   C1.000000,271.285645 1.000000,269.571289 1.000000,267.428467  z"
   id="path26" />
<path
   fill="#FBBB10"
   opacity="1.000000"
   stroke="none"
   d=" M1.000000,831.428467   C7.831053,830.992981 14.662112,830.988159 21.493143,830.971802   C21.820145,830.971008 22.146908,830.868164 22.241028,830.852234   C23.917933,828.282532 25.355831,825.734924 27.120142,823.438049   C33.170486,815.561340 44.210983,817.068542 49.273960,820.886108   C56.915131,826.647583 58.452236,836.594116 52.827782,844.344299   C49.204887,849.336548 43.751404,851.614868 37.777233,850.853638   C31.576601,850.063721 26.254862,846.961975 24.112146,840.596375   C23.145922,837.725769 21.865868,836.810852 18.928953,836.932007   C13.273723,837.165344 7.602043,837.000000 1.468593,837.000000   C1.000000,835.285645 1.000000,833.571289 1.000000,831.428467  z"
   id="path27" />
<path
   fill="#FBBB10"
   opacity="1.000000"
   stroke="none"
   d=" M1029.000000,576.571533   C1027.189697,577.000000 1025.379517,577.000000 1023.624084,577.000000   C1021.593384,586.007812 1013.666748,591.887878 1005.020569,590.996460   C998.210144,590.294373 991.435120,583.253113 990.955566,576.897888   C990.007568,564.333801 996.781067,559.259277 1003.681946,558.096741   C1013.859436,556.382141 1020.411682,560.811401 1023.359985,571.000000   C1024.877930,571.000000 1026.511597,571.000000 1028.572632,571.000000   C1029.000000,572.714355 1029.000000,574.428711 1029.000000,576.571533  z"
   id="path28" />
<path
   fill="#FBBB10"
   opacity="1.000000"
   stroke="none"
   d=" M1029.000000,528.571533   C993.357483,529.000000 957.713135,528.795959 922.073730,529.129517   C911.929688,529.224426 910.971497,525.518860 912.559631,516.557983   C916.412903,524.179626 922.912720,523.028809 929.129700,523.020508   C962.107300,522.976746 995.084961,523.000000 1028.531250,523.000000   C1029.000000,524.714355 1029.000000,526.428711 1029.000000,528.571533  z"
   id="path29" />
<path
   fill="#FBBB10"
   opacity="1.000000"
   stroke="none"
   d=" M1029.000000,706.571533   C990.205139,707.000000 951.410278,707.000000 912.309265,707.000000   C912.309265,705.008667 912.309265,703.286438 912.309265,701.000000   C950.866882,701.000000 989.464783,701.000000 1028.531250,701.000000   C1029.000000,702.714355 1029.000000,704.428711 1029.000000,706.571533  z"
   id="path30" />
<path
   fill="#FBBB10"
   opacity="1.000000"
   stroke="none"
   d=" M1029.000000,836.571533   C990.205139,837.000000 951.410278,837.000000 912.309265,837.000000   C912.309265,835.008667 912.309265,833.286438 912.309265,831.000000   C950.866882,831.000000 989.464783,831.000000 1028.531250,831.000000   C1029.000000,832.714355 1029.000000,834.428711 1029.000000,836.571533  z"
   id="path31" />
<path
   fill="#FBBB10"
   opacity="1.000000"
   stroke="none"
   d=" M1029.000000,793.571533   C990.205139,794.000000 951.410278,794.000000 912.309265,794.000000   C912.309265,792.008667 912.309265,790.286438 912.309265,788.000000   C950.866882,788.000000 989.464783,788.000000 1028.531250,788.000000   C1029.000000,789.714355 1029.000000,791.428711 1029.000000,793.571533  z"
   id="path32" />
<path
   fill="#FBBB10"
   opacity="1.000000"
   stroke="none"
   d=" M1029.000000,746.571533   C990.205139,747.000000 951.410278,747.000000 912.309265,747.000000   C912.309265,745.008667 912.309265,743.286438 912.309265,741.000000   C950.866882,741.000000 989.464783,741.000000 1028.531250,741.000000   C1029.000000,742.714355 1029.000000,744.428711 1029.000000,746.571533  z"
   id="path33" />
<path
   fill="#FBBB10"
   opacity="1.000000"
   stroke="none"
   d=" M1029.000000,621.571533   C990.205139,622.000000 951.410278,622.000000 912.309265,622.000000   C912.309265,620.008667 912.309265,618.286438 912.309265,616.000000   C950.866882,616.000000 989.464783,616.000000 1028.531250,616.000000   C1029.000000,617.714355 1029.000000,619.428711 1029.000000,621.571533  z"
   id="path34" />
<path
   fill="#FBBB10"
   opacity="1.000000"
   stroke="none"
   d=" M1029.000000,434.571533   C990.205139,435.000000 951.410278,435.000000 912.309265,435.000000   C912.309265,433.005188 912.309265,431.277832 912.309265,429.000000   C950.866882,429.000000 989.464783,429.000000 1028.531250,429.000000   C1029.000000,430.714355 1029.000000,432.428711 1029.000000,434.571533  z"
   id="path35" />
<path
   fill="#FBBB10"
   opacity="1.000000"
   stroke="none"
   d=" M1029.000000,380.571533   C990.205139,381.000000 951.410278,381.000000 912.309265,381.000000   C912.309265,379.005188 912.309265,377.277832 912.309265,375.000000   C950.866882,375.000000 989.464783,375.000000 1028.531250,375.000000   C1029.000000,376.714355 1029.000000,378.428711 1029.000000,380.571533  z"
   id="path36" />
<path
   fill="#FBBB10"
   opacity="1.000000"
   stroke="none"
   d=" M1029.000000,330.571533   C990.205139,331.000000 951.410278,331.000000 912.309265,331.000000   C912.309265,329.005188 912.309265,327.277832 912.309265,325.000000   C950.866882,325.000000 989.464783,325.000000 1028.531250,325.000000   C1029.000000,326.714355 1029.000000,328.428711 1029.000000,330.571533  z"
   id="path37" />
<path
   fill="#FBBB10"
   opacity="1.000000"
   stroke="none"
   d=" M1029.000000,273.571533   C990.205139,274.000000 951.410278,274.000000 912.309265,274.000000   C912.309265,272.005188 912.309265,270.277832 912.309265,268.000000   C950.866882,268.000000 989.464783,268.000000 1028.531250,268.000000   C1029.000000,269.714355 1029.000000,271.428711 1029.000000,273.571533  z"
   id="path38" />
<path
   fill="#FBBB10"
   opacity="1.000000"
   stroke="none"
   d=" M885.468628,1141.000000   C892.421021,1133.610596 899.801453,1133.406372 909.904907,1140.656738   C901.979065,1141.000000 893.958191,1141.000000 885.468628,1141.000000  z"
   id="path39" />
<path
   fill="#FBBB10"
   opacity="1.000000"
   stroke="none"
   d=" M438.245728,823.251099   C451.334869,810.154419 464.257111,797.390259 476.942963,784.395325   C479.514771,781.760803 482.085724,780.925781 485.634552,780.932556   C537.454651,781.030762 589.275085,780.949829 641.094910,781.098022   C645.116577,781.109497 647.837769,779.941284 650.550964,777.063843   C657.063416,770.157104 663.780884,763.425720 670.713074,756.941467   C673.490662,754.343323 674.253235,751.997864 672.945984,748.446899   C670.733398,742.437012 671.719238,736.817383 676.339783,732.215027   C681.216736,727.357300 686.947754,725.523376 693.733398,727.886597   C701.816956,730.701721 706.441406,738.350647 704.974121,746.711426   C703.612427,754.470581 696.792175,760.000488 688.579224,759.998352   C687.080017,759.997986 685.093079,760.594666 684.162537,759.861267   C679.036194,755.820557 676.558228,759.916077 673.600037,762.890625   C666.668030,769.860596 659.614746,776.713013 652.806335,783.801086   C650.567993,786.131348 648.304749,787.076904 645.046204,787.070679   C592.726257,786.970581 540.406006,787.026489 488.086060,786.935791   C484.870605,786.930237 482.585663,787.770386 480.287781,790.104492   C465.910858,804.708252 451.310944,819.092468 436.934418,833.696594   C434.525024,836.143982 432.144043,837.079651 428.712738,837.076355   C331.237396,836.981506 233.761963,837.000000 136.286545,837.000000   C134.300919,837.000000 132.315308,837.000000 130.188492,837.000000   C127.367523,846.143433 121.548851,851.251221 111.858315,850.974670   C105.145866,850.783020 99.094925,845.546631 97.231003,838.598694   C95.473412,832.047241 98.901169,823.542542 104.685471,820.103210   C110.585098,816.595337 119.659073,817.359802 124.318832,821.875549   C125.718704,823.232178 127.527039,824.701721 127.958603,826.418579   C129.062119,830.808533 131.832977,831.073608 135.625122,831.070007   C230.434479,830.980896 325.244232,830.901123 420.052795,831.186707   C427.683228,831.209656 433.590790,829.773010 438.245728,823.251099  z"
   id="path40" />
<path
   fill="#FBBB10"
   opacity="1.000000"
   stroke="none"
   d=" M812.999939,831.000000   C818.332092,831.000000 823.196167,831.345703 827.987732,830.904480   C832.950012,830.447510 836.459351,831.813354 838.556763,837.000000   C836.637878,837.000000 834.888794,837.000000 833.139709,837.000000   C724.498047,837.000000 615.856384,837.017700 507.214783,836.919250   C503.755615,836.916077 501.403839,837.931030 499.016052,840.356812   C485.341156,854.249451 471.455231,867.934509 457.779724,881.826660   C455.506683,884.135803 453.252991,885.077637 450.010101,885.068420   C412.185791,884.961487 374.360992,885.017273 336.536438,884.967041   C333.535004,884.963013 331.599030,885.092346 330.418793,888.845276   C328.280029,895.646545 319.837036,900.137512 313.275909,898.975769   C305.847015,897.660400 299.386963,891.035095 299.001068,884.335693   C298.520996,876.001099 303.261169,868.455322 310.400818,866.188660   C317.851471,863.823242 328.134644,868.202393 330.602844,875.465759   C331.675995,878.623779 333.147461,879.040405 335.892181,879.036438   C373.216827,878.982117 410.541809,879.045654 447.865814,878.881287   C450.002075,878.871887 452.634064,877.660034 454.184540,876.140015   C468.341675,862.260010 482.366302,848.242920 496.277924,834.116455   C498.571655,831.787231 500.849030,830.933411 504.070282,830.935852   C606.880127,831.013855 709.690063,831.000000 812.999939,831.000000  z"
   id="path41" />
<path
   fill="#FBBB10"
   opacity="1.000000"
   stroke="none"
   d=" M568.000000,1077.000000   C518.863037,1077.000000 470.226074,1077.000000 421.648010,1077.000000   C417.674408,1091.238403 402.443939,1093.010254 394.487091,1086.226685   C389.312500,1081.815186 387.099670,1072.541992 390.289001,1066.243042   C393.928223,1059.055542 401.924286,1055.523315 409.157867,1057.571533   C415.068054,1059.244995 419.326630,1062.350098 421.102234,1068.518066   C421.397552,1069.543945 422.961884,1070.340698 424.100708,1070.934814   C424.756012,1071.276611 425.734467,1070.999878 426.567444,1070.999878   C536.354980,1071.000000 646.142578,1071.000000 755.930115,1071.000000   C757.084717,1071.000000 758.239319,1071.000000 759.339478,1071.000000   C761.555908,1061.713745 768.812805,1056.254639 777.701965,1057.002808   C784.695740,1057.591431 791.511230,1064.430176 792.042603,1070.913208   C792.970337,1082.230591 787.146545,1088.094849 779.124817,1089.771362   C771.328125,1091.401123 763.078552,1088.200195 759.326660,1077.000000   C695.762939,1077.000000 632.131470,1077.000000 568.000000,1077.000000  z"
   id="path42" />
<path
   fill="#FBBB10"
   opacity="1.000000"
   stroke="none"
   d=" M106.231712,307.276978   C114.741203,299.238953 130.485306,301.221375 134.109482,313.650238   C134.400421,314.648010 136.079102,315.328705 137.225006,315.949951   C137.740280,316.229309 138.531876,315.999908 139.198090,315.999908   C220.976349,315.999969 302.754608,315.999847 384.532867,315.999786   C385.521301,315.999786 386.509735,315.999786 387.416321,315.999786   C390.687622,306.407562 398.185242,300.443329 405.256470,302.128052   C414.317352,304.286774 420.999268,308.598175 420.069458,321.120453   C419.599335,327.451904 414.288147,334.159760 408.294495,334.990387   C397.294525,336.514771 390.827667,332.537109 387.553802,322.000000   C385.492950,322.000000 383.340881,322.000000 381.188782,322.000000   C300.909515,322.000000 220.630234,322.017670 140.351044,321.941589   C136.775406,321.938202 134.737823,322.509460 132.956116,326.306152   C128.451660,335.904907 118.245621,337.341492 109.908806,333.197968   C101.847275,329.191254 99.335938,317.897217 104.112411,310.394226   C104.720299,309.439362 105.349319,308.497925 106.231712,307.276978  z"
   id="path43" />
<path
   fill="#FBBB10"
   opacity="1.000000"
   stroke="none"
   d=" M458.000000,484.000000   C494.494324,484.000000 530.489624,484.124542 566.481812,483.847626   C571.158691,483.811646 573.014832,486.026764 575.609863,490.000000   C572.895325,490.000000 570.983582,490.000000 569.071899,490.000000   C452.923584,490.000000 336.775238,490.008820 220.626938,489.957642   C217.119904,489.956085 214.874573,490.082855 213.556854,494.469238   C211.824631,500.235352 202.819412,504.881836 197.783707,503.938446   C188.761169,502.248230 182.661560,496.369110 182.003082,488.728271   C181.354263,481.199371 185.918259,474.077179 193.090561,471.425995   C200.492172,468.690094 209.675186,472.377533 213.411194,480.024567   C214.906616,483.085480 216.621185,484.090057 220.037491,484.085297   C299.191559,483.974915 378.345795,484.000000 458.000000,484.000000  z"
   id="path44" />
<path
   fill="#FBBB10"
   opacity="1.000000"
   stroke="none"
   d=" M613.000000,879.000000   C697.649841,879.000000 781.799805,879.027466 865.949463,878.922119   C870.351807,878.916626 873.205933,880.163696 874.590149,884.811279   C763.875305,884.811279 653.345825,884.811279 542.593262,884.811279   C540.650452,891.686340 536.748779,896.231018 529.714905,898.150879   C517.784119,901.407532 507.715057,890.948242 509.085602,880.459045   C510.562927,869.152710 521.067627,863.110779 531.988770,866.964111   C536.142761,868.429871 539.184692,871.312927 540.672058,875.407471   C541.761414,878.406311 543.471497,879.095947 546.513672,879.076233   C568.508362,878.934143 590.504395,879.000000 613.000000,879.000000  z"
   id="path45" />
<path
   fill="#FBBB10"
   opacity="1.000000"
   stroke="none"
   d=" M129.067352,696.146729   C130.611298,697.039429 132.098389,697.936890 133.586914,697.939270   C179.738785,698.013306 225.890793,697.999878 270.253113,697.999878   C274.775635,693.360413 277.835876,688.768738 282.119904,686.304810   C285.309174,684.470459 290.186035,684.678589 294.127228,685.248901   C300.253754,686.135559 305.923126,694.356323 305.914703,701.005005   C305.906067,707.815796 299.633270,716.073547 293.765686,716.998535   C282.161224,718.827942 276.763397,715.605042 272.199646,704.000000   C228.947296,704.000000 185.631882,704.000000 142.316452,704.000000   C140.650223,704.000000 138.959518,704.183594 137.322327,703.965576   C132.464401,703.318604 129.045074,704.179504 127.495430,709.791321   C125.954659,715.370850 116.662834,718.363831 112.528137,717.930664   C104.362839,717.075256 97.998650,711.668274 97.074730,704.646912   C95.743599,694.530823 100.032097,688.208374 108.796341,685.235718   C117.161469,682.398376 125.734825,687.255249 129.067352,696.146729  z"
   id="path46" />
<path
   fill="#FBBB10"
   opacity="1.000000"
   stroke="none"
   d=" M643.000000,616.000000   C650.164185,616.000000 656.833862,616.166748 663.490662,615.944824   C668.415649,615.780518 673.139465,615.543884 675.501831,622.000000   C673.911621,622.000000 672.258240,622.000000 670.604919,622.000000   C591.634644,622.000000 512.664246,622.036682 433.694214,621.897827   C429.503479,621.890442 427.373810,622.767883 425.840912,626.982971   C423.485870,633.458923 414.787476,637.380798 407.962433,635.942139   C400.717896,634.415100 395.044098,627.762268 394.999847,620.742554   C394.945160,612.071228 400.432617,603.907288 407.457184,603.093445   C415.743195,602.133606 423.674316,603.845886 427.675262,616.000000   C499.238617,616.000000 570.869324,616.000000 643.000000,616.000000  z"
   id="path47" />
<path
   fill="#FBBB10"
   opacity="1.000000"
   stroke="none"
   d=" M607.000000,660.000000   C637.997864,660.000000 668.496399,660.102356 698.992798,659.892395   C703.692566,659.859985 706.896729,660.906616 708.475525,665.860229   C629.480713,665.860229 550.584839,665.860229 471.804688,665.860229   C467.248260,678.345032 460.246643,680.657776 452.949951,679.790894   C444.639465,678.803467 437.980316,670.852295 438.002197,663.483704   C438.025879,655.515869 443.902710,648.044006 451.398560,647.075562   C461.095367,645.822693 467.936981,648.872498 471.615784,660.000000   C516.526978,660.000000 561.513489,660.000000 607.000000,660.000000  z"
   id="path48" />
<path
   fill="#FBBB10"
   opacity="1.000000"
   stroke="none"
   d=" M607.002136,577.000000   C601.183105,577.000000 595.863647,577.000000 590.620728,577.000000   C586.660828,588.843506 579.054138,591.910767 571.318542,590.906555   C564.024536,589.959717 556.846008,581.326599 557.025024,574.363708   C557.227844,566.474365 562.682617,559.152832 570.015137,558.157471   C578.012268,557.071899 586.391968,558.197327 590.708801,571.000000   C604.291077,571.000000 617.945251,571.238770 631.582764,570.865662   C636.127686,570.741333 638.978455,572.129089 641.404602,577.000000   C629.789490,577.000000 618.645630,577.000000 607.002136,577.000000  z"
   id="path49" />
<path
   fill="#FBBB10"
   opacity="1.000000"
   stroke="none"
   d=" M943.985474,879.000000   C948.465149,879.000000 952.447693,879.000000 956.358948,879.000000   C960.143616,867.218140 967.896057,865.097900 976.538208,866.086670   C983.873962,866.926025 989.707275,874.135437 989.912720,881.877625   C990.123657,889.823853 983.306763,898.005005 974.682678,898.829346   C967.122559,899.551941 960.264221,896.606628 956.399170,884.994080   C941.871704,884.994080 927.262756,884.994080 912.238647,884.994080   C912.145142,883.052368 912.061951,881.324402 911.950073,879.000000   C922.638672,879.000000 933.063477,879.000000 943.985474,879.000000  z"
   id="path50" />
<path
   fill="#FBBB10"
   opacity="1.000000"
   stroke="none"
   d=" M719.432007,796.786743   C708.043274,786.211060 713.532654,770.437134 724.835632,767.797546   C727.984558,767.062134 731.591309,767.372192 734.799988,768.068726   C737.925537,768.747253 740.053589,768.719604 742.470215,766.155151   C750.223633,757.927307 758.305664,750.009033 766.164368,742.069031   C770.506836,744.758911 770.897034,747.075195 767.059509,750.600037   C759.837463,757.233582 753.025635,764.323914 746.243652,771.415955   C745.187744,772.520081 744.407166,774.880859 744.831909,776.246033   C747.563354,785.026062 746.032288,791.275024 740.214294,796.343689   C735.380005,800.555237 728.657104,801.217712 721.505920,797.814270   C720.924377,797.537537 720.348022,797.249939 719.432007,796.786743  z"
   id="path51" />
<path
   fill="#FBBB10"
   opacity="1.000000"
   stroke="none"
   d=" M919.748352,577.000000   C917.002869,577.000000 914.709167,577.000000 912.212524,577.000000   C912.212524,574.961548 912.212524,573.345459 912.212524,571.268982   C916.177429,571.268982 920.252747,571.268982 924.155212,571.268982   C929.140137,557.974060 940.151184,553.858337 950.457397,560.949036   C958.670044,566.599426 958.633667,576.472778 954.698975,583.504272   C950.714722,590.624023 938.942688,593.238892 932.225220,588.494385   C929.336060,586.453857 926.566040,583.346252 925.334412,580.116211   C924.159302,577.034546 922.570435,576.941833 919.748352,577.000000  z"
   id="path52" />
<path
   fill="#FBBB10"
   opacity="1.000000"
   stroke="none"
   d=" M787.003174,789.293213   C788.352783,785.785339 789.495361,782.592102 791.119446,779.666138   C792.224792,777.674683 793.458435,776.984619 795.415833,779.683228   C801.248474,787.724121 807.535461,795.435364 813.637512,803.265869   C810.582275,806.877808 803.045837,808.476257 798.031433,806.497864   C792.310120,804.240601 786.275208,798.506958 787.003174,789.293213  z"
   id="path53" />
</svg>
