<svg version="1.1" id="Layer_1" xmlns="http://www.w3.org/2000/svg" xmlns:xlink="http://www.w3.org/1999/xlink" x="0px" y="0px"
	 width="100%" viewBox="0 0 1920 1080" enable-background="new 0 0 1920 1080" xml:space="preserve">
<path fill="#F08900" opacity="1.000000" stroke="none" 
	d="
M1392.000000,1081.000000 
	C928.395569,1081.000000 464.791077,1081.000000 1.093315,1081.000000 
	C1.093315,721.110535 1.093315,361.221039 1.093315,1.000000 
	C189.030792,1.000000 377.061798,1.000000 565.697021,1.299569 
	C612.745117,62.261021 659.194885,122.918358 705.631104,183.586060 
	C751.561523,243.592957 797.475159,303.612732 843.401794,363.622498 
	C888.736389,422.858643 934.080750,482.087250 979.415833,541.322998 
	C1025.343262,601.332703 1071.259155,661.351074 1117.189209,721.358704 
	C1198.174805,827.166443 1279.178467,932.960327 1360.143555,1038.783813 
	C1370.855469,1052.784668 1381.385620,1066.924561 1392.000000,1081.000000 
z"/>
<path fill="#003088" opacity="1.000000" stroke="none" 
	d="
M1392.468628,1081.000000 
	C1381.385620,1066.924561 1370.855469,1052.784668 1360.143555,1038.783813 
	C1279.178467,932.960327 1198.174805,827.166443 1117.189209,721.358704 
	C1071.259155,661.351074 1025.343262,601.332703 979.415833,541.322998 
	C934.080750,482.087250 888.736389,422.858643 843.401794,363.622498 
	C797.475159,303.612732 751.561523,243.592957 705.631104,183.586060 
	C659.194885,122.918358 612.745117,62.261021 566.150635,1.299569 
	C1017.666687,1.000000 1469.333374,1.000000 1921.000000,1.000000 
	C1921.000000,67.766876 1921.000000,134.414780 1920.544434,201.649979 
	C1872.000854,202.237274 1823.912964,202.237274 1775.295654,202.237274 
	C1775.295654,205.246033 1775.295776,207.536362 1775.295776,209.826691 
	C1775.295776,497.895782 1775.296387,785.964844 1775.283447,1074.033936 
	C1775.283325,1076.355957 1775.098633,1078.677979 1775.000000,1081.000000 
	C1647.645752,1081.000000 1520.291504,1081.000000 1392.468628,1081.000000 
z"/>
<path fill="#F08900" opacity="1.000000" stroke="none" 
	d="
M1775.468628,1081.000000 
	C1775.098633,1078.677979 1775.283325,1076.355957 1775.283447,1074.033936 
	C1775.296387,785.964844 1775.295776,497.895782 1775.295776,209.826691 
	C1775.295776,207.536362 1775.295654,205.246033 1775.295654,202.237274 
	C1823.912964,202.237274 1872.000854,202.237274 1920.544434,202.118637 
	C1921.000000,495.000000 1921.000000,788.000000 1921.000000,1081.000000 
	C1872.562622,1081.000000 1824.250000,1081.000000 1775.468628,1081.000000 
z"/>
</svg>