<?xml version="1.0" encoding="UTF-8" standalone="no"?>
<svg
   version="1.1"
   id="Layer_1"
   x="0px"
   y="0px"
   width="100%"
   viewBox="0 0 4001 2250"
   enable-background="new 0 0 4001 2250"
   xml:space="preserve"
   sodipodi:docname="title.svg"
   inkscape:version="1.4 (unknown)"
   xmlns:inkscape="http://www.inkscape.org/namespaces/inkscape"
   xmlns:sodipodi="http://sodipodi.sourceforge.net/DTD/sodipodi-0.dtd"
   xmlns="http://www.w3.org/2000/svg"
   xmlns:svg="http://www.w3.org/2000/svg"><defs
   id="defs4" /><sodipodi:namedview
   id="namedview4"
   pagecolor="#ffffff"
   bordercolor="#000000"
   borderopacity="0.25"
   inkscape:showpageshadow="2"
   inkscape:pageopacity="0.0"
   inkscape:pagecheckerboard="0"
   inkscape:deskcolor="#d1d1d1"
   inkscape:zoom="0.28311111"
   inkscape:cx="1999.2151"
   inkscape:cy="1125"
   inkscape:window-width="1536"
   inkscape:window-height="888"
   inkscape:window-x="0"
   inkscape:window-y="0"
   inkscape:window-maximized="1"
   inkscape:current-layer="Layer_1" />

<path
   fill="#F08900"
   opacity="1.000000"
   stroke="none"
   d=" M2990.937256,2252.000000   C2988.502197,2249.477539 2987.235352,2246.779541 2985.473389,2244.457520   C2879.315186,2104.543701 2773.117676,1964.659668 2666.920654,1824.775635   C2583.344482,1714.688232 2499.758301,1604.608276 2416.186279,1494.517822   C2319.086670,1366.606689 2222.001465,1238.684570 2124.902832,1110.772705   C1959.092407,892.344482 1793.276489,673.920471 1627.462769,455.494843   C1599.655151,418.864044 1571.850098,382.231018 1544.037720,345.603699   C1458.436279,232.871124 1372.831055,120.141335 1287.234985,7.404698   C1286.229004,6.079715 1285.323608,4.678204 1284.185547,2.656209   C2190.445801,2.000000 3096.891357,2.000000 4004.000000,2.000000   C4004.000000,290.708130 4004.000000,579.416748 4003.511719,869.178223   C4002.714844,870.359314 4002.405762,870.487427 4001.170654,870.429565   C3999.578125,870.220947 3998.912109,870.178406 3998.245850,870.178345   C3724.922607,870.171570 3451.599121,870.166077 3178.275879,870.186646   C3175.704590,870.186890 3173.133057,870.534546 3169.678467,870.783691   C3169.678467,875.223755 3169.678467,879.146729 3169.678467,883.069702   C3169.678467,1335.719849 3169.677490,1788.370117 3169.691406,2241.020264   C3169.691406,2244.680176 3169.892578,2248.340088 3170.000000,2252.000000   C3110.624756,2252.000000 3051.249756,2252.000000 2990.937256,2252.000000  z"
   id="path2" />


</svg>
