<?xml version="1.0" encoding="UTF-8" standalone="no"?>
<svg
   version="1.0"
   width="496.76999mm"
   height="1365.08mm"
   id="svg119"
   sodipodi:docname="image5.emf"
   xmlns:inkscape="http://www.inkscape.org/namespaces/inkscape"
   xmlns:sodipodi="http://sodipodi.sourceforge.net/DTD/sodipodi-0.dtd"
   xmlns="http://www.w3.org/2000/svg"
   xmlns:svg="http://www.w3.org/2000/svg">
  <sodipodi:namedview
     id="namedview121"
     pagecolor="#F3F2F1"
     bordercolor="#000000"
     borderopacity="0.25"
     inkscape:showpageshadow="2"
     inkscape:pageopacity="0.0"
     inkscape:pagecheckerboard="0"
     inkscape:deskcolor="#d1d1d1"
     inkscape:document-units="mm" />
  <defs
     id="defs9">
    <clipPath
       clipPathUnits="userSpaceOnUse"
       id="clipEmfPath1">
      <path
         d="  M 0,0   L 0,0   L 0,5161.115   L 1879.2852,5161.115   L 1879.2852,0 "
         id="path2" />
    </clipPath>
    <clipPath
       clipPathUnits="userSpaceOnUse"
       id="clipEmfPath2">
      <path
         d="m 244.31055,1865.8047 v 1840.1055 h 460.7207 V 3032.709 l 1018.04685,1341.0039 155.5078,204.7012 V 1865.8047 Z"
         id="path5" />
    </clipPath>
    <pattern
       id="EMFhbasepattern"
       patternUnits="userSpaceOnUse"
       width="6"
       height="6"
       x="0"
       y="0" />
  </defs>
  <path
     style="fill:#F3F2F1;fill-rule:nonzero;fill-opacity:1;stroke:none;"
     clip-path="url(#clipEmfPath2)"
     d="  M 562.52551,2332.5068   L 562.52551,2332.5068   C 562.52551,2341.9068 569.52583,2349.8068 578.52624,2351.3068   L 578.52624,2985.9087   L 630.52859,3037.9088   L 630.52859,3509.6102   L 146.10663,3993.9116   L 145.20659,3994.8116   L 145.20659,4973.2144   C 136.20618,4974.7144 129.30586,4982.6144 129.30586,4992.0145   C 129.30586,5002.6145 137.80625,5011.1145 148.30673,5011.1145   C 158.90721,5011.1145 167.40759,5002.6145 167.40759,4992.0145   C 167.40759,4982.6144 160.50728,4974.7144 151.40687,4973.2144   L 151.40687,3997.4116   L 635.82883,3513.1102   L 636.72888,3512.2102   L 636.72888,3035.3088   L 584.72652,2983.3086   L 584.72652,2351.3068   C 593.82693,2349.8068 600.72724,2341.9068 600.72724,2332.5068   C 600.72724,2321.9067 592.22686,2313.4067 581.62638,2313.4067   C 571.1259,2313.4067 562.52551,2321.9067 562.52551,2332.5068   z "
     id="path11" />
  <path
     style="fill:#F3F2F1;fill-rule:nonzero;fill-opacity:1;stroke:none;"
     clip-path="url(#clipEmfPath2)"
     d="  M 561.42546,3067.4089   L 561.42546,3067.4089   C 561.42546,3076.9089 568.32577,3084.7089 577.42619,3086.2089   L 577.42619,3441.51   L 435.01973,3583.9104   L 434.11969,3584.8104   L 434.11969,4367.0127   C 425.01927,4368.5127 418.11896,4376.3127 418.11896,4385.8127   C 418.11896,4396.3127 426.71935,4404.9128 437.21983,4404.9128   C 447.7203,4404.9128 456.32069,4396.3127 456.32069,4385.8127   C 456.32069,4376.3127 449.32038,4368.5127 440.31997,4367.0127   L 440.31997,3587.4104   L 582.72643,3444.91   L 583.62647,3444.01   L 583.62647,3086.2089   C 592.72688,3084.7089 599.62719,3076.9089 599.62719,3067.4089   C 599.62719,3056.9089 591.0268,3048.4088 580.52633,3048.4088   C 570.02585,3048.4088 561.42546,3056.9089 561.42546,3067.4089   z "
     id="path13" />
  <path
     style="fill:#F3F2F1;fill-rule:nonzero;fill-opacity:1;stroke:none;"
     clip-path="url(#clipEmfPath2)"
     d="  M 734.3333,3184.4092   L 734.3333,3184.4092   C 734.3333,3193.9093 741.23361,3201.7093 750.23402,3203.2093   L 750.23402,3688.4107   L 511.5232,3927.1114   L 510.62316,3928.0114   L 510.62316,4736.2137   C 501.62275,4737.7137 494.72244,4745.5138 494.72244,4755.0138   C 494.72244,4765.5138 503.22282,4774.1138 513.7233,4774.1138   C 524.32378,4774.1138 532.82416,4765.5138 532.82416,4755.0138   C 532.82416,4745.5138 525.92385,4737.7137 516.82344,4736.2137   L 516.82344,3930.6114   L 755.63427,3691.9107   L 756.53431,3691.0107   L 756.53431,3203.2093   C 765.53472,3201.7093 772.43503,3193.9093 772.43503,3184.4092   C 772.43503,3173.9092 763.93464,3165.4092 753.43417,3165.4092   C 742.83369,3165.4092 734.3333,3173.9092 734.3333,3184.4092   z "
     id="path15" />
  <path
     style="fill:#F3F2F1;fill-rule:nonzero;fill-opacity:1;stroke:none;"
     clip-path="url(#clipEmfPath2)"
     d="  M 614.82788,2114.5061   L 614.82788,2114.5061   C 614.82788,2123.9062 621.7282,2131.8062 630.7286,2133.3062   L 630.7286,2460.4071   L 750.23402,2579.8075   L 750.23402,3093.909   L 810.33675,3154.0091   L 810.33675,3471.8101   L 607.82756,3674.3107   L 606.92752,3675.2107   L 606.92752,4542.7132   C 597.92712,4544.2132 591.0268,4552.0132 591.0268,4561.5132   C 591.0268,4572.0133 599.52719,4580.6133 610.02766,4580.6133   C 620.62815,4580.6133 629.12853,4572.0133 629.12853,4561.5132   C 629.12853,4552.0132 622.22822,4544.2132 613.22781,4542.7132   L 613.22781,3677.8107   L 815.63699,3475.3101   L 816.53703,3474.4101   L 816.53703,3151.4091   L 756.4343,3091.309   L 756.4343,2577.3075   L 637.02889,2457.8071   L 637.02889,2133.3062   C 646.0293,2131.8062 652.92961,2123.9062 652.92961,2114.5061   C 652.92961,2103.9061 644.42922,2095.4061 633.82874,2095.4061   C 623.32827,2095.4061 614.82788,2103.9061 614.82788,2114.5061   z "
     id="path17" />
  <path
     style="fill:#F3F2F1;fill-rule:nonzero;fill-opacity:1;stroke:none;"
     clip-path="url(#clipEmfPath2)"
     d="  M 1041.1472,2461.9071   L 1041.1472,2461.9071   C 1041.1472,2471.4072 1048.1475,2479.3072 1057.348,2480.7072   L 1057.348,2694.8078   L 904.64103,2847.5083   L 904.64103,3104.109   L 857.33888,3151.4091   L 857.33888,3966.3115   L 744.43376,4079.3118   L 744.43376,5122.4149   C 735.33335,5123.8149 728.33303,5131.7149 728.33303,5141.2149   C 728.33303,5151.7149 736.93342,5160.215 747.4339,5160.215   C 758.03438,5160.215 766.53476,5151.7149 766.53476,5141.2149   C 766.53476,5131.7149 759.63445,5123.9149 750.63404,5122.4149   L 750.63404,4081.8118   L 863.53916,3968.9115   L 863.53916,3154.0091   L 910.84131,3106.709   L 910.84131,2850.1083   L 1062.6482,2698.3078   L 1063.5482,2697.4078   L 1063.5482,2480.6072   C 1072.5486,2479.1072 1079.3489,2471.3072 1079.3489,2461.9071   C 1079.3489,2451.3071 1070.7486,2442.8071 1060.2481,2442.8071   C 1049.7476,2442.8071 1041.1472,2451.3071 1041.1472,2461.9071   z "
     id="path19" />
  <path
     style="fill:#F3F2F1;fill-rule:nonzero;fill-opacity:1;stroke:none;"
     clip-path="url(#clipEmfPath2)"
     d="  M 888.34029,3191.8093   L 888.34029,3191.8093   C 888.34029,3201.3093 895.2406,3209.2093 904.34101,3210.6093   L 904.34101,3644.5106   L 1284.1582,4024.3117   L 1284.1582,4869.8141   C 1275.1578,4871.3141 1268.2575,4879.2141 1268.2575,4888.6142   C 1268.2575,4899.1142 1276.7579,4907.7142 1287.3584,4907.7142   C 1297.8589,4907.7142 1306.3592,4899.1142 1306.3592,4888.6142   C 1306.3592,4879.1141 1299.4589,4871.3141 1290.3585,4869.8141   L 1290.3585,4021.7117   L 910.54129,3641.9106   L 910.54129,3210.6093   C 919.5417,3209.2093 926.44201,3201.3093 926.44201,3191.8093   C 926.44201,3181.3092 917.94163,3172.8092 907.44115,3172.8092   C 896.84067,3172.8092 888.34029,3181.3092 888.34029,3191.8093   z "
     id="path21" />
  <path
     style="fill:#F3F2F1;fill-rule:nonzero;fill-opacity:1;stroke:none;"
     clip-path="url(#clipEmfPath2)"
     d="  M 936.44247,2890.8084   L 936.44247,2890.8084   C 936.44247,2900.3084 943.34278,2908.1084 952.34319,2909.6084   L 952.34319,3306.0096   L 1196.9543,3550.6103   L 1196.9543,4532.0131   C 1188.1539,4533.7131 1181.4536,4541.4132 1181.4536,4550.7132   C 1181.4536,4561.3132 1189.954,4569.8132 1200.5544,4569.8132   C 1211.0549,4569.8132 1219.5553,4561.3132 1219.5553,4550.7132   C 1219.5553,4541.1132 1212.455,4533.1131 1203.1546,4531.9131   L 1203.1546,3548.0103   L 958.54347,3303.5096   L 958.54347,2909.6084   C 967.64388,2908.1084 974.5442,2900.3084 974.5442,2890.8084   C 974.5442,2880.3084 966.04381,2871.7083 955.44333,2871.7083   C 944.94285,2871.7083 936.44247,2880.3084 936.44247,2890.8084   z "
     id="path23" />
  <path
     style="fill:#F3F2F1;fill-rule:nonzero;fill-opacity:1;stroke:none;"
     clip-path="url(#clipEmfPath2)"
     d="  M 1039.2471,2796.8081   L 1039.2471,2796.8081   C 1039.2471,2800.9081 1040.5472,2804.8081 1042.8473,2807.9081   L 999.94535,2850.7083   L 999.94535,3552.9103   L 1562.5709,4115.5119   L 1562.5709,5032.4146   C 1553.5705,5034.0146 1546.8702,5041.7146 1546.8702,5051.1146   C 1546.8702,5061.7147 1555.3705,5070.2147 1565.871,5070.2147   C 1576.4715,5070.2147 1584.9719,5061.7147 1584.9719,5051.1146   C 1584.9719,5041.6146 1577.9716,5033.7146 1568.7711,5032.3146   L 1568.7711,4112.9119   L 1006.1456,3550.4103   L 1006.1456,2853.3083   L 1047.2475,2812.3082   C 1050.3476,2814.5082 1054.1478,2815.9082 1058.348,2815.9082   C 1068.8485,2815.9082 1077.3489,2807.3081 1077.3489,2796.8081   C 1077.3489,2786.3081 1068.8485,2777.7081 1058.348,2777.7081   C 1047.7475,2777.7081 1039.2471,2786.3081 1039.2471,2796.8081   z "
     id="path25" />
  <path
     style="fill:#F3F2F1;fill-rule:nonzero;fill-opacity:1;stroke:none;"
     clip-path="url(#clipEmfPath2)"
     d="  M 1147.252,2982.5086   L 1147.252,2982.5086   C 1147.252,2992.0087 1154.2523,2999.8087 1163.2528,3001.3087   L 1163.2528,3415.9099   L 1268.1575,3520.8102   L 1268.1575,3709.7108   C 1259.2571,3711.3108 1252.4568,3719.1108 1252.4568,3728.5108   C 1252.4568,3739.0108 1261.0572,3747.5109 1271.5577,3747.5109   C 1282.1581,3747.5109 1290.6585,3739.0108 1290.6585,3728.5108   C 1290.6585,3718.9108 1283.5582,3711.0108 1274.4578,3709.6108   L 1274.4578,3518.3102   L 1169.453,3413.3099   L 1169.453,3001.3087   C 1178.5534,2999.8087 1185.4538,2992.0087 1185.4538,2982.5086   C 1185.4538,2972.0086 1176.9534,2963.4086 1166.3529,2963.4086   C 1155.8524,2963.4086 1147.252,2972.0086 1147.252,2982.5086   z "
     id="path27" />
  <path
     style="fill:#F3F2F1;fill-rule:nonzero;fill-opacity:1;stroke:none;"
     clip-path="url(#clipEmfPath2)"
     d="  M 794.33602,2134.5062   L 794.33602,2134.5062   C 794.33602,2145.0062 802.93641,2153.6062 813.43689,2153.6062   C 817.53708,2153.6062 821.33725,2152.2062 824.53739,2150.0062   L 857.33888,2182.8063   L 857.33888,3023.7088   L 824.53739,3056.5089   C 821.43725,3054.2089 817.63708,3052.9089 813.43689,3052.9089   C 802.93641,3052.9089 794.33602,3061.4089 794.33602,3072.0089   C 794.33602,3082.5089 802.93641,3091.009 813.43689,3091.009   C 824.03737,3091.009 832.53776,3082.5089 832.53776,3072.0089   C 832.53776,3067.8089 831.2377,3064.0089 828.93759,3060.9089   L 863.53916,3026.3088   L 863.53916,2180.3063   L 828.93759,2145.6062   C 831.13769,2142.5062 832.53776,2138.7062 832.53776,2134.5062   C 832.53776,2124.0062 824.03737,2115.4061 813.43689,2115.4061   C 802.93641,2115.4061 794.33602,2124.0062 794.33602,2134.5062   z "
     id="path29" />
  <path
     style="fill:#F3F2F1;fill-rule:nonzero;fill-opacity:1;stroke:none;"
     clip-path="url(#clipEmfPath2)"
     d="  M 823.83736,2993.2087   L 823.83736,2993.2087   C 823.83736,2983.8087 816.93705,2975.9086 807.93664,2974.4086   L 807.93664,2240.6065   C 816.93705,2239.1065 823.83736,2231.3065 823.83736,2221.8064   C 823.83736,2211.3064 815.33698,2202.7064 804.8365,2202.7064   C 794.23602,2202.7064 785.73563,2211.3064 785.73563,2221.8064   C 785.73563,2231.3065 792.63595,2239.1065 801.63635,2240.6065   L 801.63635,2974.4086   C 792.63595,2975.9086 785.73563,2983.8087 785.73563,2993.2087   C 785.73563,3003.8087 794.23602,3012.3087 804.8365,3012.3087   C 815.33698,3012.3087 823.83736,3003.8087 823.83736,2993.2087   z "
     id="path31" />
  <path
     style="fill:#F3F2F1;fill-rule:nonzero;fill-opacity:1;stroke:none;"
     clip-path="url(#clipEmfPath2)"
     d="  M 531.02408,2698.3078   L 531.02408,2698.3078   C 531.02408,2688.8078 524.12377,2681.0078 515.02336,2679.5078   L 515.02336,2320.2067   L 584.72652,2250.5065   L 584.72652,1462.8042   C 593.82693,1461.3042 600.72724,1453.5042 600.72724,1444.0042   C 600.72724,1433.5042 592.22686,1424.9041 581.62638,1424.9041   C 571.1259,1424.9041 562.52551,1433.5042 562.52551,1444.0042   C 562.52551,1453.5042 569.52583,1461.3042 578.52624,1462.8042   L 578.52624,2247.9065   L 508.82308,2317.6067   L 508.82308,2679.5078   C 499.82267,2681.0078 492.92235,2688.8078 492.92235,2698.3078   C 492.92235,2708.8079 501.42274,2717.4079 511.92322,2717.4079   C 522.5237,2717.4079 531.02408,2708.8079 531.02408,2698.3078   z "
     id="path33" />
  <path
     style="fill:#F3F2F1;fill-rule:nonzero;fill-opacity:1;stroke:none;"
     clip-path="url(#clipEmfPath2)"
     d="  M 734.2333,2508.0073   L 734.2333,2508.0073   C 734.2333,2518.5073 742.73368,2527.0073 753.33416,2527.0073   C 763.83464,2527.0073 772.43503,2518.5073 772.43503,2508.0073   C 772.43503,2498.5072 765.43471,2490.7072 756.4343,2489.2072   L 756.4343,1863.0054   L 700.03175,1806.5052   L 700.03175,1664.5048   C 709.13216,1663.0048 716.03247,1655.2048 716.03247,1645.7048   C 716.03247,1635.1047 707.53209,1626.6047 696.93161,1626.6047   C 686.43113,1626.6047 677.93074,1635.1047 677.93074,1645.7048   C 677.93074,1655.1048 684.73105,1662.9048 693.73146,1664.5048   L 693.73146,1809.1052   L 750.23402,1865.5054   L 750.23402,2489.2072   C 741.13361,2490.7072 734.2333,2498.5072 734.2333,2508.0073   z "
     id="path35" />
  <path
     style="fill:#F3F2F1;fill-rule:nonzero;fill-opacity:1;stroke:none;"
     clip-path="url(#clipEmfPath2)"
     d="  M 956.84339,2371.1069   L 956.84339,2371.1069   L 956.84339,2608.5076   C 947.74298,2610.0076 940.84267,2617.8076 940.84267,2627.3076   C 940.84267,2637.8076 949.44306,2646.4077 959.94353,2646.4077   C 970.44401,2646.4077 979.0444,2637.8076 979.0444,2627.3076   C 979.0444,2617.8076 972.14409,2610.0076 963.04367,2608.5076   L 963.04367,2371.1069   C 972.14409,2369.7069 979.0444,2361.8068 979.0444,2352.3068   C 979.0444,2341.8068 970.44401,2333.3068 959.94353,2333.3068   C 949.44306,2333.3068 940.84267,2341.8068 940.84267,2352.3068   C 940.84267,2361.8068 947.74298,2369.7069 956.84339,2371.1069   z "
     id="path37" />
  <path
     style="fill:#F3F2F1;fill-rule:nonzero;fill-opacity:1;stroke:none;"
     clip-path="url(#clipEmfPath2)"
     d="  M 987.8448,1216.8035   L 987.8448,1216.8035   C 987.8448,1226.3036 994.74511,1234.1036 1003.7455,1235.6036   L 1003.7455,1680.6049   L 904.34101,1780.1052   L 904.34101,2222.1064   C 895.2406,2223.6064 888.34029,2231.4065 888.34029,2240.9065   C 888.34029,2251.4065 896.84067,2259.9066 907.44115,2259.9066   C 917.94163,2259.9066 926.44201,2251.4065 926.44201,2240.9065   C 926.44201,2231.4065 919.5417,2223.6064 910.54129,2222.1064   L 910.54129,1782.7052   L 1010.0458,1683.2049   L 1010.0458,1235.6036   C 1019.0462,1234.2036 1026.0465,1226.3036 1026.0465,1216.8035   C 1026.0465,1206.3035 1017.4461,1197.8035 1006.9457,1197.8035   C 996.44519,1197.8035 987.8448,1206.3035 987.8448,1216.8035   z "
     id="path39" />
  <path
     style="fill:#F3F2F1;fill-rule:nonzero;fill-opacity:1;stroke:none;"
     clip-path="url(#clipEmfPath2)"
     d="  M 1057.348,1969.5057   L 1057.348,1969.5057   L 1057.348,2364.6069   C 1048.2475,2366.0069 1041.1472,2373.9069 1041.1472,2383.5069   C 1041.1472,2394.0069 1049.7476,2402.507 1060.2481,2402.507   C 1070.8486,2402.507 1079.3489,2394.0069 1079.3489,2383.5069   C 1079.3489,2374.1069 1072.5486,2366.3069 1063.6482,2364.7069   L 1063.6482,1969.4057   C 1072.5486,1967.8057 1079.3489,1960.0057 1079.3489,1950.6057   C 1079.3489,1940.1056 1070.8486,1931.6056 1060.2481,1931.6056   C 1049.7476,1931.6056 1041.1472,1940.1056 1041.1472,1950.6057   C 1041.1472,1960.2057 1048.2475,1968.1057 1057.348,1969.5057   z "
     id="path41" />
  <path
     style="fill:#F3F2F1;fill-rule:nonzero;fill-opacity:1;stroke:none;"
     clip-path="url(#clipEmfPath2)"
     d="  M 700.03175,2402.707   L 700.03175,2402.707   L 700.03175,1912.6055   C 709.13216,1911.1055 716.03247,1903.3055 716.03247,1893.8055   C 716.03247,1883.3055 707.53209,1874.7054 696.93161,1874.7054   C 686.43113,1874.7054 677.93074,1883.3055 677.93074,1893.8055   C 677.93074,1903.3055 684.83106,1911.1055 693.83147,1912.6055   L 693.83147,2402.707   C 684.83106,2404.207 677.93074,2412.107 677.93074,2421.507   C 677.93074,2432.1071 686.43113,2440.6071 696.93161,2440.6071   C 707.53209,2440.6071 716.03247,2432.1071 716.03247,2421.507   C 716.03247,2412.107 709.13216,2404.207 700.03175,2402.707   z "
     id="path43" />
  <path
     style="fill:#F3F2F1;fill-rule:nonzero;fill-opacity:1;stroke:none;"
     clip-path="url(#clipEmfPath2)"
     d="  M 1120.0508,2356.5068   L 1120.0508,2356.5068   L 1175.9533,2300.7067   L 1175.9533,2218.4064   C 1184.9537,2216.9064 1191.9541,2209.1064 1191.9541,2199.6064   C 1191.9541,2189.0063 1183.4537,2180.5063 1172.8532,2180.5063   C 1162.3527,2180.5063 1153.7523,2189.0063 1153.7523,2199.6064   C 1153.7523,2209.0064 1160.6526,2216.8064 1169.653,2218.3064   L 1169.653,2298.1067   L 1113.8505,2353.9068   L 1113.8505,2632.4076   C 1104.7501,2633.9076 1097.8498,2641.8077 1097.8498,2651.2077   C 1097.8498,2661.8077 1106.4502,2670.3077 1116.9507,2670.3077   C 1127.4511,2670.3077 1136.0515,2661.8077 1136.0515,2651.2077   C 1136.0515,2641.8077 1129.1512,2633.9076 1120.0508,2632.4076   L 1120.0508,2356.5068   z "
     id="path45" />
  <path
     style="fill:#F3F2F1;fill-rule:nonzero;fill-opacity:1;stroke:none;"
     clip-path="url(#clipEmfPath2)"
     d="  M 750.33403,1784.4052   L 750.33403,1784.4052   L 809.93673,1844.0053   L 809.93673,2039.6059   L 844.93832,2074.606   C 842.73822,2077.806 841.33815,2081.606 841.33815,2085.706   C 841.33815,2096.3061 849.93854,2104.8061 860.43902,2104.8061   C 870.9395,2104.8061 879.53989,2096.3061 879.53989,2085.706   C 879.53989,2075.206 870.9395,2066.606 860.43902,2066.606   C 856.23883,2066.606 852.43866,2068.006 849.33852,2070.206   L 816.13701,2037.0059   L 816.13701,1841.4053   L 756.53431,1781.9052   L 756.53431,1426.0041   C 765.53472,1424.5041 772.43503,1416.7041 772.43503,1407.2041   C 772.43503,1396.704 763.83464,1388.204 753.33416,1388.204   C 742.73368,1388.204 734.2333,1396.704 734.2333,1407.2041   C 734.2333,1416.8041 741.23361,1424.6041 750.33403,1426.1041   L 750.33403,1784.4052   z "
     id="path47" />
  <path
     style="fill:#F3F2F1;fill-rule:nonzero;fill-opacity:1;stroke:none;"
     clip-path="url(#clipEmfPath2)"
     d="  M 910.54129,2328.1067   L 910.54129,2328.1067   L 958.44347,2280.2066   L 958.44347,1829.1053   C 967.54388,1827.6053 974.44419,1819.8053 974.44419,1810.3052   C 974.44419,1799.8052 965.8438,1791.2052 955.34332,1791.2052   C 944.84285,1791.2052 936.24246,1799.8052 936.24246,1810.3052   C 936.24246,1819.8053 943.14277,1827.6053 952.24318,1829.1053   L 952.24318,2277.6066   L 904.34101,2325.5067   L 904.34101,2752.108   C 895.2406,2753.508 888.34029,2761.408 888.34029,2770.908   C 888.34029,2781.4081 896.84067,2789.9081 907.44115,2789.9081   C 917.94163,2789.9081 926.44201,2781.4081 926.44201,2770.908   C 926.44201,2761.408 919.5417,2753.508 910.54129,2752.108   L 910.54129,2328.1067   z "
     id="path49" />
  <path
     style="fill:#F3F2F1;fill-rule:nonzero;fill-opacity:1;stroke:none;"
     clip-path="url(#clipEmfPath2)"
     d="  M 1010.5458,1777.4052   L 1010.5458,1777.4052   C 1019.3462,1775.8051 1026.0465,1768.0051 1026.0465,1758.7051   C 1026.0465,1748.2051 1017.4461,1739.605 1006.9457,1739.605   C 996.44519,1739.605 987.8448,1748.2051 987.8448,1758.7051   C 987.8448,1768.3051 995.04513,1776.3051 1004.3455,1777.6052   L 1004.3455,2669.6077   L 967.9439,2705.9078   C 964.84376,2703.7078 960.94358,2702.4078 956.84339,2702.4078   C 946.24291,2702.4078 937.74253,2710.9079 937.74253,2721.4079   C 937.74253,2732.0079 946.24291,2740.5079 956.84339,2740.5079   C 967.34387,2740.5079 975.94426,2732.0079 975.94426,2721.4079   C 975.94426,2717.3079 974.5442,2713.5079 972.3441,2710.3079   L 1010.5458,2672.1077   L 1010.5458,1777.4052   z "
     id="path51" />
  <path
     style="fill:#F3F2F1;fill-rule:nonzero;fill-opacity:1;stroke:none;"
     clip-path="url(#clipEmfPath2)"
     d="  M 1143.9519,1507.8044   L 1143.9519,1507.8044   C 1143.9519,1517.3044 1150.8522,1525.1044 1159.8526,1526.6044   L 1159.8526,2111.8061   L 1224.9556,2176.9063   L 1224.9556,2565.8074   C 1215.9551,2567.3074 1209.0548,2575.2075 1209.0548,2584.6075   C 1209.0548,2595.2075 1217.5552,2603.7075 1228.0557,2603.7075   C 1238.6562,2603.7075 1247.1566,2595.2075 1247.1566,2584.6075   C 1247.1566,2575.2075 1240.2562,2567.3074 1231.2558,2565.8074   L 1231.2558,2174.3063   L 1166.1529,2109.2061   L 1166.1529,1526.6044   C 1175.1533,1525.1044 1182.0536,1517.3044 1182.0536,1507.8044   C 1182.0536,1497.3043 1173.5532,1488.7043 1162.9527,1488.7043   C 1152.4523,1488.7043 1143.9519,1497.3043 1143.9519,1507.8044   z "
     id="path53" />
  <path
     style="fill:#F3F2F1;fill-rule:nonzero;fill-opacity:1;stroke:none;"
     clip-path="url(#clipEmfPath2)"
     d="  M 1259.6571,1030.203   L 1259.6571,1030.203   L 1259.6571,2052.806   C 1250.6567,2054.306 1243.6564,2062.106 1243.6564,2071.606   C 1243.6564,2082.106 1252.2568,2090.6061 1262.7573,2090.6061   C 1273.3577,2090.6061 1281.8581,2082.106 1281.8581,2071.606   C 1281.8581,2062.106 1274.9578,2054.306 1265.8574,2052.806   L 1265.8574,1027.703   L 1166.1529,927.90269   L 1166.1529,0   L 1159.8526,0   L 1159.8526,930.5027   L 1259.6571,1030.203   z "
     id="path55" />
  <path
     style="fill:#F3F2F1;fill-rule:nonzero;fill-opacity:1;stroke:none;"
     clip-path="url(#clipEmfPath2)"
     d="  M 578.12622,507.20147   L 578.12622,507.20147   L 578.12622,681.90198   L 527.82394,732.20212   L 527.82394,879.00255   L 578.32623,929.50269   L 578.32623,1372.804   L 527.82394,1423.7041   L 527.82394,1900.3055   C 518.82353,1901.8055 511.82321,1909.6055 511.82321,1919.1056   C 511.82321,1929.6056 520.4236,1938.2056 530.92408,1938.2056   C 541.52456,1938.2056 550.02494,1929.6056 550.02494,1919.1056   C 550.02494,1909.6055 543.12463,1901.8055 534.02422,1900.3055   L 534.02422,1426.2041   L 584.52651,1375.304   L 584.52651,926.90269   L 534.02422,876.40254   L 534.02422,734.80213   L 584.3265,684.50198   L 584.3265,504.70146   L 534.12422,454.50132   L 534.12422,0   L 527.92394,0   L 527.92394,457.00132   L 578.12622,507.20147   z "
     id="path57" />
  <path
     style="fill:#F3F2F1;fill-rule:nonzero;fill-opacity:1;stroke:none;"
     clip-path="url(#clipEmfPath2)"
     d="  M 409.31856,865.10251   L 409.31856,865.10251   L 409.31856,2220.5064   L 306.4139,2323.4067   L 306.4139,2508.2073   C 297.31348,2509.7073 290.41317,2517.6073 290.41317,2527.0073   C 290.41317,2537.6074 299.01356,2546.1074 309.51404,2546.1074   C 320.01451,2546.1074 328.6149,2537.6074 328.6149,2527.0073   C 328.6149,2517.6073 321.71459,2509.7073 312.61418,2508.2073   L 312.61418,2326.0067   L 415.61885,2223.1064   L 415.61885,862.5025   L 366.81664,813.80236   L 366.81664,0   L 360.61635,0   L 360.61635,816.30237   L 409.31856,865.10251   z "
     id="path59" />
  <path
     style="fill:#F3F2F1;fill-rule:nonzero;fill-opacity:1;stroke:none;"
     clip-path="url(#clipEmfPath2)"
     d="  M 492.92235,2796.6081   L 492.92235,2796.6081   C 492.92235,2806.1081 499.82267,2813.9082 508.82308,2815.4082   L 508.82308,3409.5099   L 161.0073,3757.3109   C 157.80716,3755.1109 154.00698,3753.8109 149.9068,3753.8109   C 139.30632,3753.8109 130.80593,3762.3109 130.80593,3772.8109   C 130.80593,3783.411 139.30632,3791.911 149.9068,3791.911   C 160.40727,3791.911 168.90766,3783.411 168.90766,3772.8109   C 168.90766,3768.7109 167.6076,3764.9109 165.4075,3761.8109   L 514.12332,3413.0099   L 515.02336,3412.1099   L 515.02336,2815.4082   C 524.12377,2813.9082 531.02408,2806.1081 531.02408,2796.6081   C 531.02408,2786.1081 522.5237,2777.5081 511.92322,2777.5081   C 501.42274,2777.5081 492.92235,2786.1081 492.92235,2796.6081   z "
     id="path61" />
  <path
     style="fill:#F3F2F1;fill-rule:nonzero;fill-opacity:1;stroke:none;"
     clip-path="url(#clipEmfPath2)"
     d="  M 328.6149,3381.1098   L 328.6149,3381.1098   C 328.6149,3370.6098 320.01451,3362.1097 309.51404,3362.1097   C 299.01356,3362.1097 290.41317,3370.6098 290.41317,3381.1098   C 290.41317,3390.6098 297.31348,3398.4099 306.4139,3399.9099   L 306.4139,4196.1122   L 30.101365,4472.313   C 27.001225,4470.113 23.201052,4468.813 19.000862,4468.813   C 8.5003855,4468.813 0,4477.313 0,4487.813   C 0,4498.413 8.5003855,4506.9131 19.000862,4506.9131   C 29.601342,4506.9131 38.101728,4498.413 38.101728,4487.813   C 38.101728,4483.713 36.801669,4479.913 34.501565,4476.713   L 311.71414,4199.6122   L 312.61418,4198.7122   L 312.61418,3399.9099   C 321.61459,3398.4099 328.6149,3390.6098 328.6149,3381.1098   z "
     id="path63" />
  <path
     style="fill:#F3F2F1;fill-rule:nonzero;fill-opacity:1;stroke:none;"
     clip-path="url(#clipEmfPath2)"
     d="  M 290.41317,2606.8076   L 290.41317,2606.8076   C 290.41317,2616.3076 297.31348,2624.1076 306.4139,2625.6076   L 306.4139,3280.8095   C 297.31348,3282.2095 290.41317,3290.1095 290.41317,3299.6096   C 290.41317,3310.1096 299.01356,3318.6096 309.51404,3318.6096   C 320.01451,3318.6096 328.6149,3310.1096 328.6149,3299.6096   C 328.6149,3290.1095 321.61459,3282.2095 312.61418,3280.8095   L 312.61418,2625.6076   C 321.61459,2624.1076 328.6149,2616.3076 328.6149,2606.8076   C 328.6149,2596.3075 320.01451,2587.7075 309.51404,2587.7075   C 299.01356,2587.7075 290.41317,2596.3075 290.41317,2606.8076   z "
     id="path65" />
  <path
     style="fill:#F3F2F1;fill-rule:nonzero;fill-opacity:1;stroke:none;"
     clip-path="url(#clipEmfPath2)"
     d="  M 359.61631,2871.9083   L 359.61631,2871.9083   C 359.61631,2881.4084 366.51662,2889.2084 375.61703,2890.7084   L 375.61703,2991.9087   L 444.72017,3061.0089   L 444.72017,3362.3097   C 435.51975,3363.7098 428.41943,3371.6098 428.41943,3381.1098   C 428.41943,3391.7098 437.01982,3400.2099 447.5203,3400.2099   C 458.02077,3400.2099 466.62116,3391.7098 466.62116,3381.1098   C 466.62116,3371.7098 459.82085,3364.0098 450.92045,3362.4097   L 450.92045,3058.4089   L 381.81732,2989.3087   L 381.81732,2890.7084   C 390.81772,2889.2084 397.81804,2881.4084 397.81804,2871.9083   C 397.81804,2861.4083 389.21765,2852.8083 378.71717,2852.8083   C 368.11669,2852.8083 359.61631,2861.4083 359.61631,2871.9083   z "
     id="path67" />
  <path
     style="fill:#F3F2F1;fill-rule:nonzero;fill-opacity:1;stroke:none;"
     clip-path="url(#clipEmfPath2)"
     d="  M 381.81732,3086.2089   L 381.81732,3086.2089   C 390.81772,3084.7089 397.81804,3076.9089 397.81804,3067.4089   C 397.81804,3056.9089 389.21765,3048.4088 378.71717,3048.4088   C 368.11669,3048.4088 359.61631,3056.9089 359.61631,3067.4089   C 359.61631,3076.9089 366.51662,3084.7089 375.61703,3086.2089   L 375.61703,4039.7117   C 366.51662,4041.2117 359.61631,4049.0117 359.61631,4058.5118   C 359.61631,4069.0118 368.11669,4077.5118 378.71717,4077.5118   C 389.21765,4077.5118 397.81804,4069.0118 397.81804,4058.5118   C 397.81804,4049.0117 390.81772,4041.2117 381.81732,4039.7117   L 381.81732,3086.2089   z "
     id="path69" />
  <path
     style="fill:#F3F2F1;fill-rule:nonzero;fill-opacity:1;stroke:none;"
     clip-path="url(#clipEmfPath2)"
     d="  M 1399.1635,3422.2099   L 1399.1635,3422.2099   C 1399.1635,3431.7099 1406.0638,3439.51 1415.1642,3441.01   L 1415.1642,4231.2123   L 1704.0773,4520.1131   C 1701.8772,4523.2131 1700.5771,4527.1131 1700.5771,4531.2131   C 1700.5771,4541.7132 1709.0775,4550.3132 1719.578,4550.3132   C 1730.1785,4550.3132 1738.6788,4541.7132 1738.6788,4531.2131   C 1738.6788,4520.7131 1730.1785,4512.1131 1719.578,4512.1131   C 1715.4778,4512.1131 1711.6776,4513.5131 1708.4775,4515.7131   L 1421.3645,4228.6123   L 1421.3645,3441.01   C 1430.4649,3439.51 1437.3652,3431.7099 1437.3652,3422.2099   C 1437.3652,3411.7099 1428.7648,3403.2099 1418.2643,3403.2099   C 1407.7638,3403.2099 1399.1635,3411.7099 1399.1635,3422.2099   z "
     id="path71" />
  <path
     style="fill:#F3F2F1;fill-rule:nonzero;fill-opacity:1;stroke:none;"
     clip-path="url(#clipEmfPath2)"
     d="  M 1399.1635,2624.0076   L 1399.1635,2624.0076   C 1399.1635,2633.5076 1406.0638,2641.3077 1415.1642,2642.8077   L 1415.1642,3312.6096   C 1406.0638,3314.0096 1399.1635,3321.9096 1399.1635,3331.4097   C 1399.1635,3341.9097 1407.7638,3350.4097 1418.2643,3350.4097   C 1428.7648,3350.4097 1437.3652,3341.9097 1437.3652,3331.4097   C 1437.3652,3321.9096 1430.4649,3314.0096 1421.3645,3312.6096   L 1421.3645,2642.8077   C 1430.4649,2641.3077 1437.3652,2633.5076 1437.3652,2624.0076   C 1437.3652,2613.5076 1428.7648,2604.9076 1418.2643,2604.9076   C 1407.7638,2604.9076 1399.1635,2613.5076 1399.1635,2624.0076   z "
     id="path73" />
  <path
     style="fill:#F3F2F1;fill-rule:nonzero;fill-opacity:1;stroke:none;"
     clip-path="url(#clipEmfPath2)"
     d="  M 1369.5621,4090.0119   L 1369.5621,4090.0119   C 1369.5621,4080.5118 1362.6618,4072.7118 1353.5614,4071.2118   L 1353.5614,3166.7092   C 1362.6618,3165.3092 1369.5621,3157.4092 1369.5621,3147.9091   C 1369.5621,3137.4091 1361.0617,3128.9091 1350.4612,3128.9091   C 1339.9608,3128.9091 1331.4604,3137.4091 1331.4604,3147.9091   C 1331.4604,3157.4092 1338.3607,3165.3092 1347.3611,3166.7092   L 1347.3611,4071.2118   C 1338.3607,4072.7118 1331.4604,4080.5118 1331.4604,4090.0119   C 1331.4604,4100.5119 1339.9608,4109.1119 1350.4612,4109.1119   C 1361.0617,4109.1119 1369.5621,4100.5119 1369.5621,4090.0119   z "
     id="path75" />
  <path
     style="fill:#F3F2F1;fill-rule:nonzero;fill-opacity:1;stroke:none;"
     clip-path="url(#clipEmfPath2)"
     d="  M 1310.4594,3339.2097   L 1310.4594,3339.2097   C 1310.4594,3329.7097 1303.5591,3321.9096 1294.5587,3320.4096   L 1294.5587,3120.609   L 1353.5614,3061.6089   L 1353.5614,2834.3082   C 1362.6618,2832.9082 1369.5621,2825.0082 1369.5621,2815.6082   C 1369.5621,2805.0081 1361.0617,2796.5081 1350.4612,2796.5081   C 1339.9608,2796.5081 1331.4604,2805.0081 1331.4604,2815.6082   C 1331.4604,2825.0082 1338.3607,2832.9082 1347.3611,2834.3082   L 1347.3611,3059.0089   L 1288.3584,3118.109   L 1288.3584,3320.4096   C 1279.258,3321.9096 1272.3577,3329.7097 1272.3577,3339.2097   C 1272.3577,3349.7097 1280.8581,3358.3097 1291.4586,3358.3097   C 1301.959,3358.3097 1310.4594,3349.7097 1310.4594,3339.2097   z "
     id="path77" />
  <path
     style="fill:#F3F2F1;fill-rule:nonzero;fill-opacity:1;stroke:none;"
     clip-path="url(#clipEmfPath2)"
     d="  M 677.93074,2612.4076   L 677.93074,2612.4076   C 677.93074,2621.9076 684.83106,2629.7076 693.83147,2631.2076   L 693.83147,2910.2084   C 684.83106,2911.7084 677.93074,2919.5085 677.93074,2929.0085   C 677.93074,2939.5085 686.43113,2948.0085 696.93161,2948.0085   C 707.53209,2948.0085 716.03247,2939.5085 716.03247,2929.0085   C 716.03247,2919.5085 709.13216,2911.7084 700.03175,2910.2084   L 700.03175,2631.2076   C 709.13216,2629.7076 716.03247,2621.9076 716.03247,2612.4076   C 716.03247,2601.9075 707.53209,2593.3075 696.93161,2593.3075   C 686.43113,2593.3075 677.93074,2601.9075 677.93074,2612.4076   z "
     id="path79" />
  <path
     style="fill:#F3F2F1;fill-rule:nonzero;fill-opacity:1;stroke:none;"
     clip-path="url(#clipEmfPath2)"
     d="  M 613.92784,2546.1074   L 613.92784,2546.1074   C 613.92784,2555.6074 620.82815,2563.4074 629.92857,2564.9074   L 629.92857,2956.7086   L 693.23144,3020.0088   L 693.23144,4128.912   L 938.64257,4374.2127   L 938.64257,4869.8141   C 929.54215,4871.3141 922.64184,4879.1141 922.64184,4888.6142   C 922.64184,4899.1142 931.14223,4907.7142 941.74271,4907.7142   C 952.24318,4907.7142 960.74357,4899.1142 960.74357,4888.6142   C 960.74357,4879.1141 953.84326,4871.3141 944.84285,4869.8141   L 944.84285,4371.6127   L 699.43172,4126.312   L 699.43172,3017.5087   L 636.12885,2954.2086   L 636.12885,2564.9074   C 645.22926,2563.4074 652.12957,2555.6074 652.12957,2546.1074   C 652.12957,2535.6074 643.52918,2527.0073 633.02871,2527.0073   C 622.52823,2527.0073 613.92784,2535.6074 613.92784,2546.1074   z "
     id="path81" />
  <path
     style="fill:#F3F2F1;fill-rule:nonzero;fill-opacity:1;stroke:none;"
     clip-path="url(#clipEmfPath2)"
     d="  M 1209.5549,2679.1078   L 1209.5549,2679.1078   C 1209.5549,2688.6078 1216.4552,2696.4078 1225.4556,2697.9078   L 1225.4556,3371.7098   L 1551.2704,3697.5107   C 1548.9702,3700.6107 1547.6702,3704.4107 1547.6702,3708.6108   C 1547.6702,3719.1108 1556.1706,3727.6108 1566.671,3727.6108   C 1577.2715,3727.6108 1585.7719,3719.1108 1585.7719,3708.6108   C 1585.7719,3698.0107 1577.2715,3689.5107 1566.671,3689.5107   C 1562.5709,3689.5107 1558.7707,3690.8107 1555.6705,3693.1107   L 1231.6559,3369.2098   L 1231.6559,2697.9078   C 1240.7563,2696.4078 1247.6566,2688.6078 1247.6566,2679.1078   C 1247.6566,2668.6077 1239.1562,2660.0077 1228.5557,2660.0077   C 1218.0552,2660.0077 1209.5549,2668.6077 1209.5549,2679.1078   z "
     id="path83" />
  <path
     style="fill:#F3F2F1;fill-rule:nonzero;fill-opacity:1;stroke:none;"
     clip-path="url(#clipEmfPath2)"
     d="  M 1055.8479,3726.9108   L 1055.8479,3726.9108   L 1055.8479,2915.0085   L 1120.0508,2850.8083   L 1120.0508,2755.808   C 1129.1512,2754.308 1136.0515,2746.508 1136.0515,2737.0079   C 1136.0515,2726.5079 1127.4511,2717.9079 1116.9507,2717.9079   C 1106.4502,2717.9079 1097.8498,2726.5079 1097.8498,2737.0079   C 1097.8498,2746.508 1104.7501,2754.308 1113.8505,2755.808   L 1113.8505,2848.2083   L 1049.6476,2912.4084   L 1049.6476,3724.3108   L 967.74389,3806.211   L 967.74389,4118.4119   C 958.64347,4119.9119 951.74316,4127.712 951.74316,4137.212   C 951.74316,4147.712 960.24355,4156.312 970.84403,4156.312   C 981.3445,4156.312 989.94489,4147.712 989.94489,4137.212   C 989.94489,4127.712 982.94458,4119.9119 973.94417,4118.4119   L 973.94417,3808.811   L 1055.8479,3726.9108   z "
     id="path85" />
  <path
     style="fill:#F3F2F1;fill-rule:nonzero;fill-opacity:1;stroke:none;"
     clip-path="url(#clipEmfPath2)"
     d="  M 1153.7523,2385.6069   L 1153.7523,2385.6069   C 1153.7523,2395.1069 1160.7526,2402.907 1169.753,2404.407   L 1169.753,2875.0083   L 1104.6501,2940.1085   L 1104.6501,4072.5118   L 1375.8624,4343.7126   L 1375.8624,4688.4136   C 1366.962,4690.0136 1360.2617,4697.8136 1360.2617,4707.1136   C 1360.2617,4717.7137 1368.7621,4726.2137 1379.3626,4726.2137   C 1389.863,4726.2137 1398.3634,4717.7137 1398.3634,4707.1136   C 1398.3634,4697.5136 1391.2631,4689.6136 1382.0627,4688.3136   L 1382.0627,4341.1126   L 1110.8504,4069.9118   L 1110.8504,2942.7085   L 1175.9533,2877.5083   L 1175.9533,2404.407   C 1185.0537,2402.907 1191.9541,2395.1069 1191.9541,2385.6069   C 1191.9541,2375.1069 1183.4537,2366.6069 1172.8532,2366.6069   C 1162.3527,2366.6069 1153.7523,2375.1069 1153.7523,2385.6069   z "
     id="path87" />
  <path
     style="fill:#F3F2F1;fill-rule:nonzero;fill-opacity:1;stroke:none;"
     clip-path="url(#clipEmfPath2)"
     d="  M 1294.4587,2167.2063   L 1294.4587,2167.2063   L 1215.4551,2088.1061   L 1215.4551,1960.7057   C 1224.4555,1959.2057 1231.3558,1951.4057 1231.3558,1941.9056   C 1231.3558,1931.4056 1222.8555,1922.8056 1212.255,1922.8056   C 1201.7545,1922.8056 1193.2541,1931.4056 1193.2541,1941.9056   C 1193.2541,1951.4057 1200.1544,1959.2057 1209.1548,1960.7057   L 1209.1548,2090.7061   L 1288.2584,2169.7063   L 1288.2584,2995.3087   C 1279.158,2996.8087 1272.2577,3004.6087 1272.2577,3014.1087   C 1272.2577,3024.6088 1280.8581,3033.2088 1291.3586,3033.2088   C 1301.859,3033.2088 1310.4594,3024.6088 1310.4594,3014.1087   C 1310.4594,3004.6087 1303.5591,2996.8087 1294.4587,2995.3087   L 1294.4587,2167.2063   z "
     id="path89" />
  <path
     style="fill:#F3F2F1;fill-rule:nonzero;fill-opacity:1;stroke:none;"
     clip-path="url(#clipEmfPath2)"
     d="  M 1421.3645,2217.2064   L 1421.3645,2217.2064   L 1316.3597,2112.2061   L 1316.3597,1244.9036   C 1325.4601,1243.5036 1332.3604,1235.6036 1332.3604,1226.1036   C 1332.3604,1215.6035 1323.76,1207.1035 1313.2596,1207.1035   C 1302.7591,1207.1035 1294.1587,1215.6035 1294.1587,1226.1036   C 1294.1587,1235.6036 1301.059,1243.5036 1310.1594,1244.9036   L 1310.1594,2114.8061   L 1415.1642,2219.8064   L 1415.1642,2526.9073   C 1406.0638,2528.4073 1399.1635,2536.2074 1399.1635,2545.7074   C 1399.1635,2556.3074 1407.7638,2564.8074 1418.2643,2564.8074   C 1428.7648,2564.8074 1437.3652,2556.3074 1437.3652,2545.7074   C 1437.3652,2536.2074 1430.4649,2528.4073 1421.3645,2526.9073   L 1421.3645,2217.2064   z "
     id="path91" />
  <path
     style="fill:#F3F2F1;fill-rule:nonzero;fill-opacity:1;stroke:none;"
     clip-path="url(#clipEmfPath2)"
     d="  M 1353.5614,2239.7065   L 1353.5614,2239.7065   C 1362.6618,2238.2065 1369.5621,2230.3065 1369.5621,2220.9064   C 1369.5621,2210.3064 1361.0617,2201.8064 1350.4612,2201.8064   C 1339.9608,2201.8064 1331.4604,2210.3064 1331.4604,2220.9064   C 1331.4604,2230.3065 1338.3607,2238.2065 1347.3611,2239.7065   L 1347.3611,2714.3079   C 1338.3607,2715.8079 1331.4604,2723.6079 1331.4604,2733.1079   C 1331.4604,2743.608 1339.9608,2752.208 1350.4612,2752.208   C 1361.0617,2752.208 1369.5621,2743.608 1369.5621,2733.1079   C 1369.5621,2723.6079 1362.6618,2715.8079 1353.5614,2714.3079   L 1353.5614,2239.7065   z "
     id="path93" />
  <path
     style="fill:#F3F2F1;fill-rule:nonzero;fill-opacity:1;stroke:none;"
     clip-path="url(#clipEmfPath2)"
     d="  M 474.32151,2170.2063   L 474.32151,2170.2063   L 474.32151,1770.3051   C 483.32192,1768.8051 490.32224,1761.0051 490.32224,1751.5051   C 490.32224,1741.005 481.72185,1732.405 471.22137,1732.405   C 460.62089,1732.405 452.1205,1741.005 452.1205,1751.5051   C 452.1205,1761.0051 459.02082,1768.8051 468.12123,1770.3051   L 468.12123,2170.2063   C 459.02082,2171.6063 452.1205,2179.5063 452.1205,2189.0063   C 452.1205,2199.5064 460.62089,2208.0064 471.22137,2208.0064   C 481.72185,2208.0064 490.32224,2199.5064 490.32224,2189.0063   C 490.32224,2179.5063 483.32192,2171.6063 474.32151,2170.2063   z "
     id="path95" />
  <path
     style="fill:#F3F2F1;fill-rule:nonzero;fill-opacity:1;stroke:none;"
     clip-path="url(#clipEmfPath2)"
     d="  M 231.11048,2326.7067   L 231.11048,2326.7067   C 231.11048,2322.6067 229.81042,2318.8067 227.61032,2315.6067   L 366.41662,2176.8063   L 366.41662,1891.2055   C 375.51703,1889.7055 382.41734,1881.9055 382.41734,1872.4054   C 382.41734,1861.9054 373.91696,1853.3054 363.31648,1853.3054   C 352.816,1853.3054 344.31561,1861.9054 344.31561,1872.4054   C 344.31561,1881.9055 351.21593,1889.7055 360.21634,1891.2055   L 360.21634,2174.2063   L 223.21012,2311.2067   C 220.00998,2309.0067 216.20981,2307.7067 212.10962,2307.7067   C 201.50914,2307.7067 193.00875,2316.2067 193.00875,2326.7067   C 193.00875,2337.3068 201.50914,2345.8068 212.10962,2345.8068   C 222.6101,2345.8068 231.11048,2337.3068 231.11048,2326.7067   z "
     id="path97" />
  <path
     style="fill:#F3F2F1;fill-rule:nonzero;fill-opacity:1;stroke:none;"
     clip-path="url(#clipEmfPath2)"
     d="  M 328.6149,2134.5062   L 328.6149,2134.5062   C 328.6149,2125.0062 321.61459,2117.2061 312.61418,2115.7061   L 312.61418,1409.8041   L 366.81664,1355.6039   L 366.81664,901.20261   C 375.71704,899.60261 382.41734,891.80259 382.41734,882.50256   C 382.41734,872.00253 373.91696,863.4025 363.31648,863.4025   C 352.816,863.4025 344.31561,872.00253 344.31561,882.50256   C 344.31561,892.10259 351.31593,900.00261 360.61635,901.30261   L 360.61635,1353.0039   L 306.4139,1407.2041   L 306.4139,2115.7061   C 297.31348,2117.2061 290.41317,2125.0062 290.41317,2134.5062   C 290.41317,2145.0062 299.01356,2153.6062 309.51404,2153.6062   C 320.01451,2153.6062 328.6149,2145.0062 328.6149,2134.5062   z "
     id="path99" />
  <path
     style="fill:#F3F2F1;fill-rule:nonzero;fill-opacity:1;stroke:none;"
     clip-path="url(#clipEmfPath2)"
     d="  M 1380.5626,882.50256   L 1380.5626,882.50256   C 1380.5626,872.00253 1372.0622,863.4025 1361.4617,863.4025   C 1350.9613,863.4025 1342.3609,872.00253 1342.3609,882.50256   C 1342.3609,892.00259 1349.3612,899.80261 1358.3616,901.30261   L 1358.3616,1351.3039   L 1415.5642,1408.5041   L 1415.5642,2057.606   C 1406.4638,2059.106 1399.5635,2067.006 1399.5635,2076.406   C 1399.5635,2087.0061 1408.1639,2095.5061 1418.6643,2095.5061   C 1429.1648,2095.5061 1437.7652,2087.0061 1437.7652,2076.406   C 1437.7652,2067.006 1430.8649,2059.106 1421.7645,2057.606   L 1421.7645,1405.9041   L 1364.5619,1348.8039   L 1364.5619,901.30261   C 1373.6623,899.80261 1380.5626,892.00259 1380.5626,882.50256   z "
     id="path101" />
  <path
     style="fill:#F3F2F1;fill-rule:nonzero;fill-opacity:1;stroke:none;"
     clip-path="url(#clipEmfPath2)"
     d="  M 1091.4495,2289.4066   L 1091.4495,2289.4066   C 1091.4495,2299.9067 1099.9499,2308.4067 1110.5504,2308.4067   C 1121.0508,2308.4067 1129.5512,2299.9067 1129.5512,2289.4066   C 1129.5512,2279.9066 1122.6509,2272.1066 1113.6505,2270.6066   L 1113.6505,950.80276   L 1063.4482,900.60261   L 1063.4482,800.10232   C 1072.4486,798.60232 1079.3489,790.80229 1079.3489,781.30227   C 1079.3489,770.80223 1070.8486,762.20221 1060.2481,762.20221   C 1049.7476,762.20221 1041.1472,770.80223 1041.1472,781.30227   C 1041.1472,790.80229 1048.1475,798.70232 1057.2479,800.10232   L 1057.2479,903.10262   L 1107.4502,953.30276   L 1107.4502,2270.6066   C 1098.3498,2272.1066 1091.4495,2279.9066 1091.4495,2289.4066   z "
     id="path103" />
  <path
     style="fill:#F3F2F1;fill-rule:nonzero;fill-opacity:1;stroke:none;"
     clip-path="url(#clipEmfPath2)"
     d="  M 397.81804,2786.4081   L 397.81804,2786.4081   C 397.81804,2776.9081 390.81772,2769.108 381.81732,2767.608   L 381.81732,2351.3068   C 390.81772,2349.8068 397.81804,2341.9068 397.81804,2332.5068   C 397.81804,2321.9067 389.21765,2313.4067 378.71717,2313.4067   C 368.11669,2313.4067 359.61631,2321.9067 359.61631,2332.5068   C 359.61631,2341.9068 366.51662,2349.8068 375.61703,2351.3068   L 375.61703,2767.608   C 366.51662,2769.108 359.61631,2776.9081 359.61631,2786.4081   C 359.61631,2796.9081 368.11669,2805.5081 378.71717,2805.5081   C 389.21765,2805.5081 397.81804,2796.9081 397.81804,2786.4081   z "
     id="path105" />
  <path
     style="fill:#F3F2F1;fill-rule:nonzero;fill-opacity:1;stroke:none;"
     clip-path="url(#clipEmfPath2)"
     d="  M 466.62116,2976.2086   L 466.62116,2976.2086   C 466.62116,2966.7086 459.72085,2958.9086 450.62044,2957.4086   L 450.62044,2294.2067   L 534.02422,2210.8064   L 534.02422,2024.5059   C 543.12463,2023.0059 550.02494,2015.1058 550.02494,2005.7058   C 550.02494,1995.1058 541.52456,1986.6058 530.92408,1986.6058   C 520.4236,1986.6058 511.82321,1995.1058 511.82321,2005.7058   C 511.82321,2015.1058 518.82353,2023.0059 527.82394,2024.5059   L 527.82394,2208.2064   L 444.42015,2291.6066   L 444.42015,2957.4086   C 435.31974,2958.9086 428.41943,2966.7086 428.41943,2976.2086   C 428.41943,2986.7087 437.01982,2995.3087 447.5203,2995.3087   C 458.02077,2995.3087 466.62116,2986.7087 466.62116,2976.2086   z "
     id="path107" />
  <path
     style="fill:#F3F2F1;fill-rule:nonzero;fill-opacity:1;stroke:none;"
     clip-path="url(#clipEmfPath2)"
     d="  M 1193.2541,1859.3054   L 1193.2541,1859.3054   C 1193.2541,1869.8054 1201.7545,1878.4054 1212.255,1878.4054   C 1222.8555,1878.4054 1231.3558,1869.8054 1231.3558,1859.3054   C 1231.3558,1849.8054 1224.4555,1842.0053 1215.4551,1840.5053   L 1215.4551,1056.2031   L 1178.4534,1019.303   C 1180.7535,1016.2029 1182.0536,1012.3029 1182.0536,1008.2029   C 1182.0536,997.60289 1173.5532,989.10287 1162.9527,989.10287   C 1152.4523,989.10287 1143.9519,997.60289 1143.9519,1008.2029   C 1143.9519,1018.703 1152.4523,1027.203 1162.9527,1027.203   C 1167.1529,1027.203 1170.9531,1025.903 1174.0532,1023.703   L 1209.1548,1058.8031   L 1209.1548,1840.5053   C 1200.1544,1842.0053 1193.2541,1849.8054 1193.2541,1859.3054   z "
     id="path109" />
  <path
     style="fill:#F3F2F1;fill-rule:nonzero;fill-opacity:1;stroke:none;"
     clip-path="url(#clipEmfPath2)"
     d="  M 1364.5619,2087.3061   L 1364.5619,2087.3061   L 1364.5619,1859.2054   C 1373.5623,1857.7054 1380.4626,1849.8054 1380.4626,1840.4053   C 1380.4626,1829.8053 1371.9622,1821.3053 1361.4617,1821.3053   C 1350.8613,1821.3053 1342.3609,1829.8053 1342.3609,1840.4053   C 1342.3609,1849.8054 1349.2612,1857.7054 1358.3616,1859.2054   L 1358.3616,2089.9061   L 1519.8689,2251.4065   C 1517.5688,2254.5065 1516.2688,2258.4065 1516.2688,2262.5066   C 1516.2688,2273.0066 1524.7691,2281.6066 1535.2696,2281.6066   C 1545.8701,2281.6066 1554.3705,2273.0066 1554.3705,2262.5066   C 1554.3705,2252.0065 1545.8701,2243.4065 1535.2696,2243.4065   C 1531.1694,2243.4065 1527.3693,2244.8065 1524.2691,2247.0065   L 1364.5619,2087.3061   z "
     id="path111" />
  <path
     style="fill:#F3F2F1;fill-rule:nonzero;fill-opacity:1;stroke:none;"
     clip-path="url(#clipEmfPath2)"
     d="  M 585.12654,866.40251   L 585.12654,866.40251   L 585.12654,779.00226   C 594.12694,777.40225 600.92725,769.60223 600.92725,760.2022   C 600.92725,749.70217 592.32686,741.10215 581.82639,741.10215   C 571.32591,741.10215 562.72552,749.70217 562.72552,760.2022   C 562.72552,769.80223 569.72584,777.60225 578.92625,779.00226   L 578.92625,869.00252   L 630.52859,920.60267   L 630.52859,2015.7058   C 621.42818,2017.2058 614.52787,2025.0059 614.52787,2034.5059   C 614.52787,2045.0059 623.02825,2053.606 633.62874,2053.606   C 644.12921,2053.606 652.6296,2045.0059 652.6296,2034.5059   C 652.6296,2025.0059 645.72928,2017.2058 636.72888,2015.7058   L 636.72888,918.00266   L 585.12654,866.40251   z "
     id="path113" />
  <path
     style="fill:#F3F2F1;fill-rule:nonzero;fill-opacity:1;stroke:none;"
     clip-path="url(#clipEmfPath2)"
     d="  M 863.53916,1367.104   L 863.53916,1367.104   L 913.54143,1317.0038   L 913.54143,850.40247   C 922.64184,848.90246 929.54215,841.10244 929.54215,831.60241   C 929.54215,821.10238 921.04177,812.50236 910.44129,812.50236   C 899.94081,812.50236 891.44043,821.10238 891.44043,831.60241   C 891.44043,841.10244 898.34074,848.90246 907.34115,850.40247   L 907.34115,1314.5038   L 857.33888,1364.504   L 857.33888,1977.5057   C 848.13846,1978.9057 841.13815,1986.8058 841.13815,1996.3058   C 841.13815,2006.9058 849.63853,2015.4058 860.13901,2015.4058   C 870.73949,2015.4058 879.23987,2006.9058 879.23987,1996.3058   C 879.23987,1987.0058 872.43957,1979.2057 863.53916,1977.6057   L 863.53916,1367.104   z "
     id="path115" />
  <path
     style="fill:#F3F2F1;fill-rule:nonzero;fill-opacity:1;stroke:none;"
     clip-path="url(#clipEmfPath2)"
     d="  M 1005.2456,763.80221   L 1005.2456,763.80221   L 1005.2456,1142.1033   L 1057.1479,1194.0035   L 1057.1479,1842.9053   C 1048.2475,1844.5053 1041.4472,1852.3054 1041.4472,1861.7054   C 1041.4472,1872.2054 1049.9476,1880.8055 1060.4481,1880.8055   C 1071.0486,1880.8055 1079.549,1872.2054 1079.549,1861.7054   C 1079.549,1852.1054 1072.5486,1844.2053 1063.3482,1842.8053   L 1063.3482,1191.5035   L 1011.4459,1139.5033   L 1011.4459,766.30222   L 1063.6482,714.20207   L 1063.6482,0   L 1057.348,0   L 1057.348,711.60206   L 1005.2456,763.80221   z "
     id="path117" />
</svg>
