<?xml version="1.0" encoding="UTF-8" standalone="no"?>
<svg
   version="1.1"
   id="Layer_1"
   x="0px"
   y="0px"
   width="100%"
   viewBox="0 0 1172 194"
   enable-background="new 0 0 1172 194"
   xml:space="preserve"
   sodipodi:docname="tk.svg"
   inkscape:version="1.4 (unknown)"
   xmlns:inkscape="http://www.inkscape.org/namespaces/inkscape"
   xmlns:sodipodi="http://sodipodi.sourceforge.net/DTD/sodipodi-0.dtd"
   xmlns="http://www.w3.org/2000/svg"
   xmlns:svg="http://www.w3.org/2000/svg"><defs
   id="defs11" /><sodipodi:namedview
   id="namedview11"
   pagecolor="#ffffff"
   bordercolor="#000000"
   borderopacity="0.25"
   inkscape:showpageshadow="2"
   inkscape:pageopacity="0.0"
   inkscape:pagecheckerboard="0"
   inkscape:deskcolor="#d1d1d1"
   inkscape:zoom="0.37606655"
   inkscape:cx="1011.789"
   inkscape:cy="95.727737"
   inkscape:window-width="1920"
   inkscape:window-height="992"
   inkscape:window-x="0"
   inkscape:window-y="0"
   inkscape:window-maximized="1"
   inkscape:current-layer="Layer_1" />

<path
   fill="#F3F2F1"
   opacity="1.000000"
   stroke="none"
   d=" M181.531342,1.000000   C182.000000,19.914909 182.000000,38.829819 182.000000,58.149590   C186.511642,55.161358 190.416748,52.406605 194.483139,49.915028   C204.270569,43.918015 214.908386,42.029549 226.173645,43.998589   C232.670258,45.134125 239.286102,46.036339 245.541718,48.013515   C261.304688,52.995617 270.443329,65.194801 271.535370,80.534019   C273.237122,104.437424 271.985626,128.551071 271.985626,152.790314   C262.634247,152.790314 252.687759,152.790314 242.242310,152.790314   C242.167023,151.511017 242.012451,150.092087 242.010925,148.672989   C241.993729,132.680176 241.434952,116.662811 242.127838,100.700058   C243.265961,74.479958 220.908722,66.196907 202.291016,71.369133   C188.866119,75.098732 181.876648,85.096024 181.969376,98.548759   C182.093201,116.512238 182.000000,134.477203 182.000000,152.720047   C171.657486,152.720047 161.593567,152.720047 151.000000,152.720047   C151.000000,102.436661 151.000000,52.186989 151.000000,1.468657   C161.020889,1.000000 171.041794,1.000000 181.531342,1.000000  z"
   id="path2" />
<path
   fill="#F3F2F1"
   opacity="1.000000"
   stroke="none"
   d=" M608.531372,1.000000   C609.000000,28.458170 609.000000,55.916340 609.000000,84.057724   C616.546204,78.401268 623.673889,73.148346 630.703308,67.766914   C639.747742,60.842869 648.693298,53.789619 657.747131,46.878113   C658.554504,46.261761 659.843628,46.040970 660.910828,46.036320   C673.728333,45.980503 686.546082,46.000225 700.453247,46.000225   C682.997192,59.830425 666.271545,73.081909 649.018005,86.751678   C665.851013,108.532623 682.763306,130.416122 700.212952,152.994949   C688.285400,152.994949 677.009399,153.630356 665.889343,152.593613   C662.704529,152.296661 659.637573,147.424515 657.088684,144.198181   C646.806396,131.183456 636.747864,117.991982 626.489746,104.714516   C620.974548,108.948845 615.593689,112.858337 610.530151,117.142792   C609.434631,118.069702 609.085693,120.339996 609.064514,122.000076   C608.935425,132.138107 609.000000,142.278595 609.000000,152.708344   C598.680420,152.708344 588.614868,152.708344 578.000000,152.708344   C578.000000,102.449738 578.000000,52.193527 578.000000,1.468657   C588.020874,1.000000 598.041809,1.000000 608.531372,1.000000  z"
   id="path3" />
<path
   fill="#F3F2F1"
   opacity="1.000000"
   stroke="none"
   d=" M781.468628,195.000000   C781.000000,187.855530 781.000000,180.711060 781.000000,173.708328   C792.748657,174.029221 804.498291,176.129822 814.078979,167.013733   C818.039551,163.245316 821.169006,159.207504 820.940796,153.100189   C818.307129,153.100189 816.007080,153.100189 813.289978,153.100189   C796.745483,117.596428 780.218262,82.129814 763.384399,46.005016   C774.535583,46.005016 784.818420,45.963303 795.099609,46.074577   C796.046387,46.084824 797.487610,46.841347 797.848816,47.637318   C804.309753,61.871418 810.600037,76.182800 817.009888,90.440338   C821.704834,100.883430 826.509827,111.277191 831.308960,121.672989   C831.562012,122.221214 832.218994,122.582993 833.262939,123.581528   C844.358765,97.540199 855.296631,71.869606 866.252991,46.155579   C877.132690,46.155579 887.926025,46.155579 899.354248,46.155579   C895.314087,55.656738 891.437927,64.808441 887.533020,73.947845   C879.686707,92.311722 872.070435,110.779129 863.897522,128.996689   C856.255432,146.031189 848.716980,163.186462 839.678406,179.481827   C836.287415,185.595337 828.799133,189.436172 823.089417,194.656555   C809.312439,195.000000 795.624878,195.000000 781.468628,195.000000  z"
   id="path4" />
<path
   fill="#F3F2F1"
   opacity="1.000000"
   stroke="none"
   d=" M1173.000000,152.531342   C1163.855225,153.000000 1154.710327,153.000000 1145.220337,153.000000   C1144.301514,148.641754 1143.414062,144.432327 1142.424438,139.738068   C1135.182983,147.722610 1126.301270,152.778000 1115.995850,154.417877   C1095.879517,157.618927 1076.883789,155.699341 1062.054199,139.498932   C1055.686523,132.542557 1052.372437,123.907249 1052.165527,114.769432   C1051.660645,92.467682 1052.003174,70.146721 1052.017944,47.833496   C1052.018188,47.368713 1052.180786,46.904030 1052.306641,46.230164   C1062.108765,46.230164 1071.835693,46.230164 1082.000000,46.230164   C1082.000000,64.837654 1081.866943,83.274269 1082.068726,101.707207   C1082.144531,108.637497 1084.200806,115.283890 1089.033936,120.387825   C1096.786377,128.574677 1106.979980,130.168747 1117.489380,128.633118   C1125.744507,127.426849 1134.061768,124.631660 1137.830444,116.356056   C1140.506592,110.479683 1142.518433,103.811974 1142.772217,97.415924   C1143.444214,80.485916 1143.000000,63.511620 1143.000000,46.000000   C1152.871460,46.000000 1162.467163,46.000000 1172.531372,46.000000   C1173.000000,81.354225 1173.000000,116.708458 1173.000000,152.531342  z"
   id="path5" />
<path
   fill="#F3F2F1"
   opacity="1.000000"
   stroke="none"
   d=" M1.000000,3.468657   C45.790344,3.000000 90.580688,3.000000 135.685349,3.000000   C135.685349,12.269564 135.685349,21.334162 135.685349,30.834778   C118.700256,30.834778 101.635689,30.834778 84.156586,30.834778   C84.156586,71.649338 84.156586,112.035324 84.156586,152.709747   C73.346313,152.709747 62.949665,152.709747 52.131554,152.709747   C52.131554,112.325455 52.131554,71.939468 52.131554,31.000000   C35.124939,31.000000 18.531126,31.000000 1.468657,31.000000   C1.000000,21.979105 1.000000,12.958208 1.000000,3.468657  z"
   id="path6" />
<path
   fill="#F3F2F1"
   opacity="1.000000"
   stroke="none"
   d=" M299.989502,69.082687   C307.181671,54.312046 319.921112,47.959545 334.763977,45.060112   C351.195343,41.850368 367.475067,42.587059 383.134949,49.018021   C396.022430,54.310448 405.277588,63.473446 406.758636,77.606308   C408.203583,91.394844 407.751495,105.389717 407.970886,119.296547   C408.122620,128.914658 409.779877,130.774246 419.655029,131.113037   C419.655029,138.151855 419.655029,145.219513 419.655029,152.306198   C401.441681,153.661926 390.780914,155.356125 381.539673,139.936462   C373.941101,148.754837 363.927460,153.041763 352.842102,154.539474   C337.206207,156.652008 321.494934,156.778519 306.859222,149.856293   C296.529419,144.970642 291.243317,136.450958 290.842072,124.589836   C290.554901,116.099556 292.011719,108.610123 298.056854,102.507965   C305.078033,95.420593 313.881287,91.935471 323.671234,91.033165   C341.297424,89.408615 358.942261,87.986290 376.621460,86.475891   C379.187164,75.720100 370.892761,69.614113 360.965546,68.159996   C355.090027,67.299370 348.950806,67.597954 342.992981,68.108521   C336.089447,68.700134 326.877045,75.534866 326.719788,82.833092   C316.605835,82.833092 306.488312,82.833092 295.138702,82.833092   C296.861633,78.037262 298.401001,73.752449 299.989502,69.082687  M366.925476,126.587364   C374.839417,121.439705 378.884186,115.146111 376.177094,107.598000   C361.674072,108.728172 346.970612,109.736435 332.299438,111.093819   C327.341125,111.552574 320.872162,118.148628 321.019165,121.746414   C321.206146,126.322235 326.244781,131.496750 332.289062,131.859299   C343.877014,132.554367 355.529480,132.686996 366.925476,126.587364  z"
   id="path7" />
<path
   fill="#F3F2F1"
   opacity="1.000000"
   stroke="none"
   d=" M1023.265686,132.313889   C1016.156311,142.621933 1005.966797,148.184448 994.863464,151.423828   C970.031555,158.668488 945.707214,157.834579 923.449219,142.981369   C908.859375,133.245270 901.480103,119.271027 900.936829,101.595123   C900.629700,91.601379 902.442871,82.219254 907.118591,73.400032   C914.415161,59.637215 926.421875,51.228096 940.801758,47.276066   C966.290344,40.271008 991.443054,41.151375 1013.866516,57.123970   C1026.389038,66.044022 1033.174805,78.872917 1033.975098,94.463333   C1034.447021,103.660187 1034.265259,112.847473 1029.960205,121.306908   C1028.072632,125.016060 1025.658691,128.457291 1023.265686,132.313889  M948.540161,125.081688   C952.231995,126.132744 955.863953,127.543953 959.626465,128.170303   C973.285889,130.444153 985.996216,128.535812 996.211853,118.238312   C1009.168335,105.178108 1005.483459,83.869713 989.297119,75.162613   C976.583496,68.323563 963.108948,68.333748 949.673950,73.153023   C938.797668,77.054459 930.126099,89.572487 931.074524,100.362381   C932.054077,111.505585 937.631897,119.866425 948.540161,125.081688  z"
   id="path8" />
<path
   fill="#F3F2F1"
   opacity="1.000000"
   stroke="none"
   d=" M525.000000,135.998474   C525.000000,123.174393 525.466553,110.824432 524.790771,98.537300   C524.481995,92.922897 522.718933,87.039543 520.219238,81.966080   C514.755920,70.877579 498.447601,68.729416 489.206085,70.395584   C479.984772,72.058113 471.536011,75.607452 467.732635,84.951599   C465.700836,89.943275 464.303284,95.532883 464.164551,100.892616   C463.721100,118.024246 464.000000,135.174561 464.000000,152.658630   C454.120575,152.658630 444.389771,152.658630 434.327911,152.658630   C434.327911,117.433708 434.327911,82.051636 434.327911,46.334381   C443.230865,46.334381 452.299011,46.334381 461.658569,46.334381   C462.525635,50.353249 463.433472,54.560947 464.439087,59.222050   C467.987885,56.402336 471.203461,53.466000 474.786774,51.082447   C481.502075,46.615582 489.001770,44.781189 497.072235,43.790058   C507.225922,42.543079 516.796204,44.022804 526.280090,47.024620   C544.123962,52.672554 554.938171,69.172562 554.985046,86.964355   C555.041565,108.448257 554.987427,129.932465 554.972534,151.416534   C554.972290,151.732758 554.860596,152.048935 554.741089,152.681854   C545.072205,152.681854 535.342407,152.681854 525.000000,152.681854   C525.000000,147.351547 525.000000,141.924911 525.000000,135.998474  z"
   id="path9" />


</svg>
