<?xml version="1.0" encoding="UTF-8"?>
<svg id="LOGO" xmlns="http://www.w3.org/2000/svg" version="1.1" viewBox="0 0 1424 610.5">
  <!-- Generator: Adobe Illustrator 29.3.1, SVG Export Plug-In . SVG Version: 2.1.0 Build 151)  -->
  <defs>
    <style>
      .st0 {
        fill: #1e5df8;
      }

      .st1 {
        fill: #fff;
      }

      .st2 {
        fill: #2e2d62;
      }

      .st3 {
        fill: #003088;
      }
    </style>
  </defs>
  <g>
    <rect class="st2" x="85" y="85" width="283.5" height="283.5"/>
    <path class="st1" d="M337.3,116.2h-33.1l-44.4,47.3v-47.3h-64.2v62.8c0,13.4-10,21.3-23.2,21.3s-23.2-7.8-23.2-21.3v-62.8h-33.1v63.3c0,28.3,22.9,44.6,48.7,47.2h-48.7v110.5h33.1v-41h14.4l30.5,41h143v-22.3h-38.7v-65.9h38.7v-29.2l-47.4-48.5,47.4-48.4v-6.8ZM226.8,193v51.3c-7-11.9-23.2-17.4-47.2-17.5,21.4-2.2,41.3-13.7,47.2-33.8ZM149.3,249.1h30.2c12.4,0,17.5,4.8,17.5,12.4s-5,12.5-17.5,12.5h-30.2v-24.9ZM265.5,315h-38.7v15.5l-27.3-35.7c20.8-3.8,31.5-14.6,31.5-33.3s-.7-8.7-2-12.4h36.5v65.9ZM304.3,226.8h-44.4v-47.4l44.4,47.4Z"/>
  </g>
  <g>
    <path class="st2" d="M115.1,526.7c-18.2,0-28.9-9.7-30-25.8h10.9c1.4,10.3,8,16.1,19.1,16.1s16.6-4.1,16.6-13.8-9.8-14.4-18-16.9l-4.3-1.2c-9.2-3-21.6-8.2-21.6-23.1s11.8-23.9,27.4-23.9,27.1,10.3,27.8,24.4h-11.1c-.9-8.1-6.3-14.6-16.7-14.6s-16.4,5.7-16.4,13.7,9.7,12.4,17.1,14.8l3.8,1.2c7.4,2.3,23.2,7.6,23.2,25.5s-12.8,23.7-27.9,23.7Z"/>
    <path class="st2" d="M154,495.1c0-18.7,12.8-32.3,30.5-32.3s25.6,7.7,27.8,22h-10.8c-1.6-6.8-7.7-12.5-17-12.5s-19.7,10-19.7,22.9,7.5,22.1,19.8,22.1,14.8-4.7,17.1-11.8h10.8c-2.3,12.9-13.2,21.3-27.9,21.3s-30.6-13.7-30.6-31.6Z"/>
    <path class="st2" d="M221.6,447c0-3.9,3.3-7,7.3-7s7,3.1,7,7-3.2,7.1-7,7.1-7.3-3.2-7.3-7.1ZM223.4,464h10.7v61.5h-10.7v-61.5Z"/>
    <path class="st2" d="M302.2,497.3h-45.9c.6,12.2,7.8,20.5,19.2,20.5s14-3.6,16.1-10.3h10.5c-2.7,12.2-12.9,19.2-26.6,19.2s-29.9-12.4-29.9-31.4,12.8-32.6,29.4-32.6,27.4,10.2,27.4,30.8-.1,2.3-.2,3.8ZM256.4,489.4h35.5c-.1-10.6-7-17.8-17-17.8s-17.5,7.9-18.6,17.8Z"/>
    <path class="st2" d="M314.7,464h9.7l1,7.4h.9c3.3-4.6,8.2-8.6,17.8-8.6s22.4,8.4,22.4,24.1v38.6h-10.7v-36.3c0-11.8-6.4-17-14.4-17s-16,5.4-16,18.2v35.1h-10.7v-61.5Z"/>
    <path class="st2" d="M386.4,511.6v-38.9h-13v-8.7h4.2c7.3,0,9.8-2.5,9.8-9.1v-7.6h9.8v16.7h15.4v8.7h-15.4v37.4c0,4.4,1.7,7.7,7.7,7.7s4.2-.4,6.2-1v8.5c-2.2.6-5.2,1.4-9,1.4-12.8,0-15.7-8-15.7-15.1Z"/>
    <path class="st2" d="M419,447c0-3.9,3.3-7,7.3-7s7,3.1,7,7-3.2,7.1-7,7.1-7.3-3.2-7.3-7.1ZM420.8,464h10.7v61.5h-10.7v-61.5Z"/>
    <path class="st2" d="M501.6,525.5h-10.8v-52.8h-26.9v52.8h-10.8v-52.8h-12.5v-8.7h12.5v-10.1c0-10.2,6.6-15.7,16.7-15.7s6,.6,8.1,1.4l-1.8,8.4c-1.6-.6-3.2-.7-4.4-.7-5.3,0-7.7,2.8-7.7,7.7v9.1h37.8v61.5ZM488.9,447c0-3.9,3.3-7,7.3-7s7,3.1,7,7-3.2,7.1-7,7.1-7.3-3.2-7.3-7.1Z"/>
    <path class="st2" d="M513.8,495.1c0-18.7,12.8-32.3,30.5-32.3s25.6,7.7,27.8,22h-10.8c-1.6-6.8-7.7-12.5-17-12.5s-19.7,10-19.7,22.9,7.5,22.1,19.8,22.1,14.8-4.7,17.1-11.8h10.8c-2.3,12.9-13.2,21.3-27.9,21.3s-30.6-13.7-30.6-31.6Z"/>
    <path class="st2" d="M657.2,526.7c-24.7,0-40.8-18.5-40.8-43.9s16.2-44.6,40.8-44.6,32.7,10.3,35.8,28.2h-11.8c-3-10.7-11.4-17.8-23.9-17.8-18.1,0-29.6,15.5-29.6,34.3s12.1,33.6,29.5,33.6,22-7,25.3-17.1h11.8c-3.2,16.6-18.1,27.4-37.1,27.4Z"/>
    <path class="st2" d="M704.2,494.7c0-18.4,12.9-32,30.9-32s31,13.7,31,32-13.2,32-31,32-30.9-13.8-30.9-32ZM755.4,494.7c0-12.3-8.2-22.5-20.3-22.5s-20,10.2-20,22.5,8,22.5,20,22.5,20.3-10.3,20.3-22.5Z"/>
    <path class="st2" d="M778,464h9.7l1,7.4h.9c3.2-4.7,8.2-8.6,16.6-8.6s14.8,6.1,16.7,10.8h.7c3-5.3,8.5-10.8,18.9-10.8s20.2,7.1,20.2,21.5v41.2h-10.8v-39.1c0-9.7-5.8-14.1-12.4-14.1s-13.8,6.4-13.8,15.7v37.5h-10.8v-38.3c0-10.1-5.7-15-12.4-15s-13.8,4.8-13.8,15.5v37.8h-10.7v-61.5Z"/>
    <path class="st2" d="M936.2,494.8c0,19.6-12.1,31.9-28.3,31.9s-16.6-5-19.7-9.3v32.7h-10.7v-86.1h8.9l1,8.7h.7c3.1-4.3,9.1-10,19.8-10,16.5,0,28.3,12.9,28.3,32.1ZM925.5,494.8c0-13.5-7.7-22.6-18.9-22.6s-18.3,9.1-18.3,22.6,7.3,22.4,18.3,22.4,18.9-9.1,18.9-22.4Z"/>
    <path class="st2" d="M999.7,525.5h-9.7l-1-7.4h-.9c-3.3,4.6-8.2,8.6-17.8,8.6s-22.4-8.4-22.4-24.1v-38.6h10.7v36.3c0,11.8,6.4,17,14.4,17s16-5.4,16-18.2v-35.1h10.7v61.5Z"/>
    <path class="st2" d="M1021.1,511.6v-38.9h-13v-8.7h4.2c7.3,0,9.8-2.5,9.8-9.1v-7.6h9.8v16.7h15.4v8.7h-15.4v37.4c0,4.4,1.7,7.7,7.7,7.7s4.2-.4,6.2-1v8.5c-2.2.6-5.2,1.4-9,1.4-12.8,0-15.7-8-15.7-15.1Z"/>
    <path class="st2" d="M1053.7,447c0-3.9,3.3-7,7.3-7s7,3.1,7,7-3.2,7.1-7,7.1-7.3-3.2-7.3-7.1ZM1055.5,464h10.7v61.5h-10.7v-61.5Z"/>
    <path class="st2" d="M1080.9,464h9.7l1,7.4h.9c3.3-4.6,8.2-8.6,17.8-8.6s22.4,8.4,22.4,24.1v38.6h-10.7v-36.3c0-11.8-6.4-17-14.4-17s-16,5.4-16,18.2v35.1h-10.7v-61.5Z"/>
    <path class="st2" d="M1190,471.8c2.5,3.4,3.8,7.5,3.8,12.1,0,12.9-10,20.9-23.1,20.9s-7.7-.7-11.1-2.1c-2.7,1.4-4.1,3.2-4.1,5.5,0,3.8,3.3,5.7,8.9,5.7h12.1c13.8,0,21.4,6.5,21.4,17.3s-11.1,20-26.7,20-26.6-9.6-27.8-21l10.3-8.7c-4.8-1.7-8-5.8-8-11.2s3.7-9.2,7.9-11.4c-4.1-3.7-6.4-8.9-6.4-15,0-12.2,9.2-21.2,23.1-21.2s10.2,1.4,14,3.8c3.7-1.8,7.6-5.4,10-8.5l6,6.4c-2.1,2.2-6,5.3-10.3,7.4ZM1175.3,522.6h-10.8l-10.5,8.7c1.5,5.8,6.2,11.4,17.1,11.4s16.4-3.3,16.4-11.1-7-9.1-12.2-9.1ZM1183.5,483.9c0-7.6-4.9-12.9-12.8-12.9s-13.2,5.3-13.2,12.9,5.3,12.7,13.2,12.7,12.8-5.5,12.8-12.7Z"/>
  </g>
  <g>
    <polygon class="st3" points="395.5 85 572 317.1 572 200.6 652 200.6 652 85 395.5 85"/>
    <polygon class="st0" points="572 200.6 572 317.1 395.5 85 368.5 49.5 368.5 85 368.5 368.5 652 368.5 652 200.6 572 200.6"/>
  </g>
  <g>
    <path class="st2" d="M746.1,172.9c-12.3,0-20.8-8-20.8-18.6h10.5c1,7,6.8,8.6,10.3,8.6s8.2-1,8.2-6.2-4.6-6.7-9.2-8.4c-7.6-3-18.3-6.6-18.3-17.3s8.3-15.3,18.3-15.3,18.2,7.8,18.2,15h-10.3c-.6-3.1-4-5.1-8-5.1s-7.1,1.9-7.1,5.5,3.1,4.8,8.6,7.3c5.9,2.7,18.4,5.8,18.4,18.5s-8.6,16.1-18.8,16.1Z"/>
    <path class="st2" d="M790.3,172.9c-11.2,0-20.3-8.6-20.3-20.4s9.5-20.6,20.7-20.6,17,5.7,19.2,15.1h-10.9c-1.7-3.3-4.7-5.4-8.5-5.4-5.6,0-10.1,4.5-10.1,10.8s4.5,10.8,10.1,10.8,6.4-1.8,8.2-4.8h11c-2.6,9.6-10.9,14.6-19.4,14.6Z"/>
    <path class="st2" d="M816.1,121.1c0-3.9,3.1-6.8,6.9-6.8s6.8,3,6.8,6.8-3.1,6.8-6.8,6.8-6.9-3.1-6.9-6.8ZM828.2,172.5h-10.3v-40.2h10.3v40.2Z"/>
    <path class="st2" d="M875.1,155.5h-29.4c1.2,6.1,6.2,8.4,10.5,8.4s7.8-3.4,7.8-3.4h10.1c-3.1,8-10.4,12.5-18.3,12.5s-20.3-8.3-20.3-20.8,9.4-20.2,20-20.2,20.7,7.2,19.5,23.6ZM846.4,147.4h18.1c-1.2-4.7-4.5-6.7-8.5-6.7s-8,2.5-9.6,6.7Z"/>
    <path class="st2" d="M920.7,150.7v21.8h-10.7v-19.4c0-1.4,1-11.5-6.8-11.9-3.8-.2-10.5,1.8-10.5,12.4v18.9h-10.6v-40.2h8.2l1.4,4.9h1.4c1.7-2,5.5-5.3,12.2-5.3,10.4,0,15.4,7.7,15.4,18.8Z"/>
    <path class="st2" d="M947.9,172.9c-11.2,0-20.3-8.6-20.3-20.4s9.5-20.6,20.7-20.6,17,5.7,19.2,15.1h-10.9c-1.7-3.3-4.7-5.4-8.5-5.4-5.6,0-10.1,4.5-10.1,10.8s4.5,10.8,10.1,10.8,6.4-1.8,8.2-4.8h11c-2.6,9.6-10.9,14.6-19.4,14.6Z"/>
    <path class="st2" d="M1012.4,155.5h-29.4c1.2,6.1,6.2,8.4,10.5,8.4s7.8-3.4,7.8-3.4h10.1c-3.1,8-10.4,12.5-18.3,12.5s-20.3-8.3-20.3-20.8,9.4-20.2,20-20.2,20.7,7.2,19.5,23.6ZM983.6,147.4h18.1c-1.2-4.7-4.5-6.7-8.5-6.7s-8,2.5-9.6,6.7Z"/>
    <path class="st2" d="M1079.7,164.8v7.7h-2.4c-4.7,0-8-1.7-9.3-5.1-2.4,3.3-6.4,5.5-12.7,5.5-9.1,0-14.9-4.7-14.9-11.9,0-12.5,17.1-13.7,24.8-14.1-.2-4.7-2.7-6.4-6.8-6.4s-6.1,3.5-6.1,3.5h-10.1c.7-7.2,6.6-12.1,16.4-12.1s16.3,4.7,16.3,16.4v10.7c0,4.7,1.7,5.8,4.7,5.8ZM1065,155.6v-.8c-7.3.8-14.6,1.7-14.6,5.9,0,6.1,13.9,5.6,14.6-5.1Z"/>
    <path class="st2" d="M1124.2,150.7v21.8h-10.7v-19.4c0-1.4,1-11.5-6.8-11.9-3.8-.2-10.5,1.8-10.5,12.4v18.9h-10.6v-40.2h8.2l1.4,4.9h1.4c1.7-2,5.5-5.3,12.2-5.3,10.4,0,15.4,7.7,15.4,18.8Z"/>
    <path class="st2" d="M1170.3,115.4v57.1h-7.9l-1.1-3.9h-1.2c-2.5,2.7-5.9,4.3-10.2,4.3-10.2,0-18.7-8.4-18.7-20.5s8.5-20.5,18.7-20.5,7.8,1.4,10.4,4.3v-20.8h10.1ZM1160.2,152.4c0-6.7-3.6-10.6-8.8-10.6s-9.8,3.5-9.8,10.6,4.9,10.6,9.8,10.6,8.8-3.9,8.8-10.6Z"/>
    <path class="st2" d="M764,208.6h-15.2v46.3h-10.8v-46.3h-15.2v-10h41.2v10Z"/>
    <path class="st2" d="M800.2,237.9h-29.4c1.2,6.1,6.2,8.4,10.5,8.4s7.8-3.4,7.8-3.4h10.1c-3.1,8-10.4,12.5-18.3,12.5s-20.3-8.3-20.3-20.8,9.4-20.2,20-20.2,20.7,7.2,19.5,23.6ZM771.5,229.7h18.1c-1.2-4.7-4.5-6.7-8.5-6.7s-8,2.5-9.6,6.7Z"/>
    <path class="st2" d="M826.2,255.3c-11.2,0-20.3-8.6-20.3-20.4s9.5-20.6,20.7-20.6,17,5.7,19.2,15.1h-10.9c-1.7-3.3-4.7-5.4-8.5-5.4-5.6,0-10.1,4.5-10.1,10.8s4.5,10.8,10.1,10.8,6.4-1.8,8.2-4.8h11c-2.6,9.6-10.9,14.6-19.4,14.6Z"/>
    <path class="st2" d="M890.8,233.1v21.8h-10.8v-19.4c0-3.9.6-11.9-6.6-11.9s-10.4,1.8-10.4,12.4v18.9h-10.8v-57.1h10.2v21.1h1.4c1.9-2,5.6-4.6,11.6-4.6,10.4,0,15.4,7.7,15.4,18.8Z"/>
    <path class="st2" d="M938.8,233.1v21.8h-10.7v-19.4c0-1.4,1-11.5-6.8-11.9-3.8-.2-10.5,1.8-10.5,12.4v18.9h-10.6v-40.2h8.2l1.4,4.9h1.4c1.7-2,5.5-5.3,12.2-5.3,10.4,0,15.4,7.7,15.4,18.8Z"/>
    <path class="st2" d="M945.8,234.9c0-12.9,10-20.6,20.7-20.6s20.3,7.8,20.3,20.4-9.8,20.6-20.7,20.6-20.4-7.8-20.4-20.4ZM976.3,234.8c0-6.3-3.7-11.2-9.8-11.2s-10.2,4.9-10.2,11.2,4.1,11.2,10.2,11.2,9.8-4.9,9.8-11.2Z"/>
    <path class="st2" d="M1004.2,197.8v57.1h-10.5v-57.1h10.5Z"/>
    <path class="st2" d="M1011.2,234.9c0-12.9,10-20.6,20.7-20.6s20.3,7.8,20.3,20.4-9.8,20.6-20.7,20.6-20.4-7.8-20.4-20.4ZM1041.8,234.8c0-6.3-3.7-11.2-9.8-11.2s-10.2,4.9-10.2,11.2,4.1,11.2,10.2,11.2,9.8-4.9,9.8-11.2Z"/>
    <path class="st2" d="M1093.1,258.1c-.3,9.1-8.6,13.3-18.2,13.3s-19.6-7.2-17.8-15.8l4.6-3.7c-2.6-1.6-4.3-4.1-4.3-7.1s2.1-5.6,5-7.2c-2.7-2.5-4.1-5.9-4.1-9.6,0-7.7,5.9-13.8,16.1-13.8s6.7.7,9.2,2c4.3-2,6.8-5.2,6.8-5.2l5,6.7s-2.7,1.8-6.4,3c1.5,2.1,2.3,4.6,2.3,7.2,0,7.6-7,13.8-17.1,13.8s-4-.2-5.7-.7c-.6.4-1.2,1-1.2,2,0,2.9,4.4,2.4,7.2,2.4h5.6c8.8,0,13.3,6,13,12.8ZM1083.2,257.8c0-2.2-1.8-3.9-6.3-3.9s-5.4,0-7.7,0l-2.7,2.9c-.5,2,1.5,5.3,8.6,5.3s8.1-1.7,8.1-4.3ZM1068,227.8c0,3.1,2.2,5.3,6.8,5.3s6.8-2.2,6.8-5.3-2.2-5.1-6.8-5.1-6.8,2-6.8,5.1Z"/>
    <path class="st2" d="M1141.8,214.7l-14,41.7c-2.3,6.7-4.9,15-17,15s-11-2.9-12.2-4.4l5.1-7.2c.4.4,2.9,2.5,6.3,2.5s5.6-1.4,6.5-4.1l1.1-3.3h-5.4l-13.8-40.2h11.2l10.1,29.3h1.6l9.8-29.3h10.8Z"/>
    <path class="st2" d="M737.6,291.2v12.5h21.5v9.9h-21.5v23.6h-10.8v-56.3h37.1v10.2h-26.3Z"/>
    <path class="st2" d="M805.3,329.6v7.7h-2.4c-4.7,0-8-1.7-9.3-5.1-2.4,3.3-6.4,5.5-12.7,5.5-9.1,0-14.9-4.7-14.9-11.9,0-12.5,17.1-13.7,24.8-14.1-.2-4.7-2.7-6.4-6.8-6.4s-6.1,3.5-6.1,3.5h-10.1c.7-7.2,6.6-12.1,16.4-12.1s16.3,4.7,16.3,16.4v10.7c0,4.7,1.7,5.8,4.7,5.8ZM790.6,320.4v-.8c-7.3.8-14.6,1.7-14.6,5.9,0,6.1,13.9,5.6,14.6-5.1Z"/>
    <path class="st2" d="M829.1,337.7c-11.2,0-20.3-8.6-20.3-20.4s9.5-20.6,20.7-20.6,17,5.7,19.2,15.1h-10.9c-1.7-3.3-4.7-5.4-8.5-5.4-5.6,0-10.1,4.5-10.1,10.8s4.5,10.8,10.1,10.8,6.4-1.8,8.2-4.8h11c-2.6,9.6-10.9,14.6-19.4,14.6Z"/>
    <path class="st2" d="M854.9,285.8c0-3.9,3.1-6.8,6.9-6.8s6.8,3,6.8,6.8-3.1,6.8-6.8,6.8-6.9-3.1-6.9-6.8ZM867,337.3h-10.3v-40.2h10.3v40.2Z"/>
    <path class="st2" d="M886.3,280.2v57.1h-10.5v-57.1h10.5Z"/>
    <path class="st2" d="M894,285.8c0-3.9,3.1-6.8,6.9-6.8s6.8,3,6.8,6.8-3.1,6.8-6.8,6.8-6.9-3.1-6.9-6.8ZM906,337.3h-10.3v-40.2h10.3v40.2Z"/>
    <path class="st2" d="M943.8,334.3s-3.4,3.4-9.6,3.4-14.4-5.2-14.4-13.3v-18.7h-8v-7.9h4c2.7,0,4.6-1.8,4.6-4.7v-8h9.7v12.1h10.1v8.6h-10.1v18c0,2.7,2.3,4.8,5.1,4.8s4.7-1.4,4.7-1.4l3.9,7.2Z"/>
    <path class="st2" d="M946.4,285.8c0-3.9,3.1-6.8,6.9-6.8s6.8,3,6.8,6.8-3.1,6.8-6.8,6.8-6.9-3.1-6.9-6.8ZM958.5,337.3h-10.3v-40.2h10.3v40.2Z"/>
    <path class="st2" d="M1005.4,320.3h-29.4c1.2,6.1,6.2,8.4,10.5,8.4s7.8-3.4,7.8-3.4h10.1c-3.1,8-10.4,12.5-18.3,12.5s-20.3-8.3-20.3-20.8,9.4-20.2,20-20.2,20.7,7.2,19.5,23.6ZM976.7,312.1h18.1c-1.2-4.7-4.5-6.7-8.5-6.7s-8,2.5-9.6,6.7Z"/>
    <path class="st2" d="M1027.4,305.2c-3.4,0-4.8,1.7-4.8,3.4,0,2.7,3.6,3.5,6,4,7.2,1.5,14.4,3.7,14.4,12.2s-6.8,12.9-15.1,12.9-16.4-5.6-16.9-14.2h9.9c.2,2.4,1.8,5.5,6.8,5.5s5.1-2.2,5.1-3.9c0-3-2.8-3.9-5.5-4.5-4.7-1-15-3-15-12.1s7.6-11.9,15.4-11.9,15,5.5,15.4,12.2h-9.9c-.3-1.4-1.6-3.7-5.7-3.7Z"/>
    <path class="st2" d="M1115.5,320.4c-3.2,10.8-12.2,17.3-23.1,17.3s-25.4-12.1-25.4-28.5,10.6-28.5,25.3-28.5,19.9,6.5,23.2,17.3h-12.1c-2.1-4.5-5.9-6.7-10.9-6.7-9.2,0-14.4,7.5-14.4,17.9s5.3,17.9,14.6,17.9,8.6-2.2,10.7-6.7h12.1Z"/>
    <path class="st2" d="M1120,317.3c0-12.9,10-20.6,20.7-20.6s20.3,7.8,20.3,20.4-9.8,20.6-20.7,20.6-20.4-7.8-20.4-20.4ZM1150.5,317.2c0-6.3-3.7-11.2-9.8-11.2s-10.2,4.9-10.2,11.2,4.1,11.2,10.2,11.2,9.8-4.9,9.8-11.2Z"/>
    <path class="st2" d="M1206.4,297.1v40.2h-8l-1.4-4.5h-1c-1.6,2-5.1,4.9-11.7,4.9-10.7,0-16.2-7.6-16.2-18.8v-21.8h10.9v19.4c0,5,.4,11.9,7.3,11.9s9.3-1.8,9.3-12.4v-18.9h10.9Z"/>
    <path class="st2" d="M1254.5,315.5v21.8h-10.7v-19.4c0-1.4,1-11.5-6.8-11.9-3.8-.2-10.5,1.8-10.5,12.4v18.9h-10.6v-40.2h8.2l1.4,4.9h1.4c1.7-2,5.5-5.3,12.2-5.3,10.4,0,15.4,7.7,15.4,18.8Z"/>
    <path class="st2" d="M1281.8,337.7c-11.2,0-20.3-8.6-20.3-20.4s9.5-20.6,20.7-20.6,17,5.7,19.2,15.1h-10.9c-1.7-3.3-4.7-5.4-8.5-5.4-5.6,0-10.1,4.5-10.1,10.8s4.5,10.8,10.1,10.8,6.4-1.8,8.2-4.8h11c-2.6,9.6-10.9,14.6-19.4,14.6Z"/>
    <path class="st2" d="M1307.6,285.8c0-3.9,3.1-6.8,6.9-6.8s6.8,3,6.8,6.8-3.1,6.8-6.8,6.8-6.9-3.1-6.9-6.8ZM1319.7,337.3h-10.3v-40.2h10.3v40.2Z"/>
    <path class="st2" d="M1339,280.2v57.1h-10.5v-57.1h10.5Z"/>
  </g>
</svg>